<?xml version="1.0" encoding="UTF-8" standalone="no"?>
<!DOCTYPE svg PUBLIC "-//W3C//DTD SVG 1.1//EN"
 "http://www.w3.org/Graphics/SVG/1.1/DTD/svg11.dtd">
<!-- Generated by graphviz version 2.40.1 (20161225.0304)
 -->
<!-- Title: %0 Pages: 1 -->
<svg width="2114pt" height="1360pt"
 viewBox="0.00 0.00 2114.49 1360.25" xmlns="http://www.w3.org/2000/svg" xmlns:xlink="http://www.w3.org/1999/xlink">
<g id="graph0" class="graph" transform="scale(1 1) rotate(0) translate(4 1356.252)">
<title>%0</title>
<polygon fill="#ffffff" stroke="transparent" points="-4,4 -4,-1356.252 2110.4912,-1356.252 2110.4912,4 -4,4"/>
<!-- zero -->
<g id="node1" class="node">
<title>zero</title>
<polygon fill="none" stroke="#000000" points="1588.2562,-794.4848 1534.2562,-794.4848 1534.2562,-758.4848 1588.2562,-758.4848 1588.2562,-794.4848"/>
<text text-anchor="middle" x="1561.2562" y="-772.2848" font-family="Times,serif" font-size="14.00" fill="#000000">zero</text>
</g>
<!-- deployer -->
<g id="node2" class="node">
<title>deployer</title>
<polygon fill="none" stroke="#000000" points="1819.1384,-794.4848 1754.1776,-794.4848 1754.1776,-758.4848 1819.1384,-758.4848 1819.1384,-794.4848"/>
<text text-anchor="middle" x="1786.658" y="-772.2848" font-family="Times,serif" font-size="14.00" fill="#000000">deployer</text>
</g>
<!-- MCD_DEPLOY -->
<g id="node3" class="node">
<title>MCD_DEPLOY</title>
<polygon fill="none" stroke="#000000" points="1713.165,-907.1858 1634.7492,-907.1858 1634.7492,-871.1858 1713.165,-871.1858 1713.165,-907.1858"/>
<text text-anchor="middle" x="1673.9571" y="-884.9858" font-family="Times,serif" font-size="14.00" fill="#000000">DssDeploy</text>
</g>
<!-- MCD_DEPLOY&#45;&gt;zero -->
<g id="edge9" class="edge">
<title>MCD_DEPLOY&#45;&gt;zero</title>
<path fill="none" stroke="#000000" d="M1655.8497,-871.0784C1637.1188,-852.3475 1607.7139,-822.9425 1586.6616,-801.8902"/>
<polygon fill="#000000" stroke="#000000" points="1588.8646,-799.1435 1579.3186,-794.5472 1583.9148,-804.0932 1588.8646,-799.1435"/>
<text text-anchor="middle" x="1595.9822" y="-840.6843" font-family="Times,serif" font-size="14.00" fill="#000000">authority</text>
</g>
<!-- MCD_DEPLOY&#45;&gt;deployer -->
<g id="edge2" class="edge">
<title>MCD_DEPLOY&#45;&gt;deployer</title>
<path fill="none" stroke="#000000" d="M1692.0645,-871.0784C1710.7954,-852.3475 1740.2003,-822.9425 1761.2526,-801.8902"/>
<polygon fill="#000000" stroke="#000000" points="1763.9994,-804.0932 1768.5956,-794.5472 1759.0496,-799.1435 1763.9994,-804.0932"/>
<text text-anchor="middle" x="1709.1677" y="-840.6843" font-family="Times,serif" font-size="14.00" fill="#000000">owner</text>
</g>
<!-- MCD_VAT -->
<g id="node4" class="node">
<title>MCD_VAT</title>
<polygon fill="none" stroke="#000000" points="1296.8886,-724.8073 1242.8886,-724.8073 1242.8886,-688.8073 1296.8886,-688.8073 1296.8886,-724.8073"/>
<text text-anchor="middle" x="1269.8886" y="-702.6073" font-family="Times,serif" font-size="14.00" fill="#000000">Vat</text>
</g>
<!-- MCD_JUG -->
<g id="node7" class="node">
<title>MCD_JUG</title>
<polygon fill="none" stroke="#000000" points="1198.5198,-577.588 1144.5198,-577.588 1144.5198,-541.588 1198.5198,-541.588 1198.5198,-577.588"/>
<text text-anchor="middle" x="1171.5198" y="-555.388" font-family="Times,serif" font-size="14.00" fill="#000000">Jug</text>
</g>
<!-- MCD_VAT&#45;&gt;MCD_JUG -->
<g id="edge22" class="edge">
<title>MCD_VAT&#45;&gt;MCD_JUG</title>
<path fill="none" stroke="#000000" d="M1257.8266,-688.7554C1240.717,-663.1489 1209.2785,-616.0979 1189.437,-586.4031"/>
<polygon fill="#000000" stroke="#000000" points="1192.1463,-584.1578 1183.6804,-577.7876 1186.326,-588.0469 1192.1463,-584.1578"/>
<text text-anchor="middle" x="1212.7489" y="-641.7792" font-family="Times,serif" font-size="14.00" fill="#000000">rely</text>
</g>
<!-- MCD_POT -->
<g id="node8" class="node">
<title>MCD_POT</title>
<polygon fill="none" stroke="#000000" points="556.7671,-577.588 502.7671,-577.588 502.7671,-541.588 556.7671,-541.588 556.7671,-577.588"/>
<text text-anchor="middle" x="529.7671" y="-555.388" font-family="Times,serif" font-size="14.00" fill="#000000">Pot</text>
</g>
<!-- MCD_VAT&#45;&gt;MCD_POT -->
<g id="edge23" class="edge">
<title>MCD_VAT&#45;&gt;MCD_POT</title>
<path fill="none" stroke="#000000" d="M1242.6695,-701.3931C1129.5482,-678.8919 696.4404,-592.7414 566.7027,-566.935"/>
<polygon fill="#000000" stroke="#000000" points="567.3328,-563.4918 556.8421,-564.9736 565.9672,-570.3573 567.3328,-563.4918"/>
<text text-anchor="middle" x="893.8032" y="-638.364" font-family="Times,serif" font-size="14.00" fill="#000000">rely</text>
</g>
<!-- MCD_CAT -->
<g id="node12" class="node">
<title>MCD_CAT</title>
<polygon fill="none" stroke="#000000" points="877.6434,-1352.252 823.6434,-1352.252 823.6434,-1316.252 877.6434,-1316.252 877.6434,-1352.252"/>
<text text-anchor="middle" x="850.6434" y="-1330.052" font-family="Times,serif" font-size="14.00" fill="#000000">Cat</text>
</g>
<!-- MCD_VAT&#45;&gt;MCD_CAT -->
<g id="edge26" class="edge">
<title>MCD_VAT&#45;&gt;MCD_CAT</title>
<path fill="none" stroke="#000000" d="M1257.7935,-724.9089C1198.567,-813.5476 939.1461,-1201.7985 868.4761,-1307.5635"/>
<polygon fill="#000000" stroke="#000000" points="865.4332,-1305.8178 862.7876,-1316.077 871.2535,-1309.7068 865.4332,-1305.8178"/>
<text text-anchor="middle" x="1052.2519" y="-1020.4362" font-family="Times,serif" font-size="14.00" fill="#000000">rely</text>
</g>
<!-- MCD_SPOT -->
<g id="node13" class="node">
<title>MCD_SPOT</title>
<polygon fill="none" stroke="#000000" points="459.839,-724.8073 402.9576,-724.8073 402.9576,-688.8073 459.839,-688.8073 459.839,-724.8073"/>
<text text-anchor="middle" x="431.3983" y="-702.6073" font-family="Times,serif" font-size="14.00" fill="#000000">Spotter</text>
</g>
<!-- MCD_VAT&#45;&gt;MCD_SPOT -->
<g id="edge20" class="edge">
<title>MCD_VAT&#45;&gt;MCD_SPOT</title>
<path fill="none" stroke="#000000" d="M1242.4672,-706.8073C1118.9718,-706.8073 614.2087,-706.8073 470.025,-706.8073"/>
<polygon fill="#000000" stroke="#000000" points="469.8896,-703.3074 459.8895,-706.8073 469.8895,-710.3074 469.8896,-703.3074"/>
<text text-anchor="middle" x="845.3632" y="-711.0073" font-family="Times,serif" font-size="14.00" fill="#000000">rely</text>
</g>
<!-- MCD_PAUSE_PROXY -->
<g id="node16" class="node">
<title>MCD_PAUSE_PROXY</title>
<polygon fill="none" stroke="#000000" points="446.8446,-898.4644 346.867,-898.4644 346.867,-862.4644 446.8446,-862.4644 446.8446,-898.4644"/>
<text text-anchor="middle" x="396.8558" y="-876.2644" font-family="Times,serif" font-size="14.00" fill="#000000">DSPauseProxy</text>
</g>
<!-- MCD_VAT&#45;&gt;MCD_PAUSE_PROXY -->
<g id="edge34" class="edge">
<title>MCD_VAT&#45;&gt;MCD_PAUSE_PROXY</title>
<path fill="none" stroke="#000000" d="M1242.8031,-712.195C1121.8148,-736.261 629.2324,-834.2418 456.8086,-868.539"/>
<polygon fill="#000000" stroke="#000000" points="456.016,-865.128 446.891,-870.5117 457.3817,-871.9935 456.016,-865.128"/>
<text text-anchor="middle" x="838.9229" y="-794.567" font-family="Times,serif" font-size="14.00" fill="#000000">rely</text>
</g>
<!-- MCD_END -->
<g id="node22" class="node">
<title>MCD_END</title>
<polygon fill="none" stroke="#000000" points="1331.4311,-898.4644 1277.4311,-898.4644 1277.4311,-862.4644 1331.4311,-862.4644 1331.4311,-898.4644"/>
<text text-anchor="middle" x="1304.4311" y="-876.2644" font-family="Times,serif" font-size="14.00" fill="#000000">End</text>
</g>
<!-- MCD_VAT&#45;&gt;MCD_END -->
<g id="edge28" class="edge">
<title>MCD_VAT&#45;&gt;MCD_END</title>
<path fill="none" stroke="#000000" d="M1273.5199,-725.0635C1279.5739,-755.4985 1291.7663,-816.7941 1298.8959,-852.6367"/>
<polygon fill="#000000" stroke="#000000" points="1295.4647,-853.3278 1300.8484,-862.4528 1302.3302,-851.9621 1295.4647,-853.3278"/>
<text text-anchor="middle" x="1275.325" y="-793.0501" font-family="Times,serif" font-size="14.00" fill="#000000">rely</text>
</g>
<!-- ETHJoin_A -->
<g id="node26" class="node">
<title>ETHJoin_A</title>
<polygon fill="none" stroke="#000000" points="1065.9548,-479.2192 982.6462,-479.2192 982.6462,-443.2192 1065.9548,-443.2192 1065.9548,-479.2192"/>
<text text-anchor="middle" x="1024.3005" y="-457.0192" font-family="Times,serif" font-size="14.00" fill="#000000">ETHJoin_A</text>
</g>
<!-- MCD_VAT&#45;&gt;ETHJoin_A -->
<g id="edge43" class="edge">
<title>MCD_VAT&#45;&gt;ETHJoin_A</title>
<path fill="none" stroke="#000000" d="M1251.8299,-688.7486C1208.6308,-645.5495 1099.2366,-536.1554 1049.5487,-486.4675"/>
<polygon fill="#000000" stroke="#000000" points="1051.9316,-483.9006 1042.3856,-479.3044 1046.9818,-488.8503 1051.9316,-483.9006"/>
<text text-anchor="middle" x="1139.8064" y="-591.8081" font-family="Times,serif" font-size="14.00" fill="#000000">rely</text>
</g>
<!-- BATJoin_A -->
<g id="node28" class="node">
<title>BATJoin_A</title>
<polygon fill="none" stroke="#000000" points="893.0822,-444.6767 808.2047,-444.6767 808.2047,-408.6767 893.0822,-408.6767 893.0822,-444.6767"/>
<text text-anchor="middle" x="850.6434" y="-422.4767" font-family="Times,serif" font-size="14.00" fill="#000000">BATJoin_A</text>
</g>
<!-- MCD_VAT&#45;&gt;BATJoin_A -->
<g id="edge47" class="edge">
<title>MCD_VAT&#45;&gt;BATJoin_A</title>
<path fill="none" stroke="#000000" d="M1242.7038,-688.643C1169.524,-639.7459 968.3674,-505.3373 886.2562,-450.4724"/>
<polygon fill="#000000" stroke="#000000" points="888.0258,-447.4454 877.7666,-444.7998 884.1368,-453.2657 888.0258,-447.4454"/>
<text text-anchor="middle" x="1053.5971" y="-573.7577" font-family="Times,serif" font-size="14.00" fill="#000000">rely</text>
</g>
<!-- SAIJoin_A -->
<g id="node31" class="node">
<title>SAIJoin_A</title>
<polygon fill="none" stroke="#000000" points="716.478,-479.2192 637.4948,-479.2192 637.4948,-443.2192 716.478,-443.2192 716.478,-479.2192"/>
<text text-anchor="middle" x="676.9864" y="-457.0192" font-family="Times,serif" font-size="14.00" fill="#000000">SAIJoin_A</text>
</g>
<!-- MCD_VAT&#45;&gt;SAIJoin_A -->
<g id="edge51" class="edge">
<title>MCD_VAT&#45;&gt;SAIJoin_A</title>
<path fill="none" stroke="#000000" d="M1242.8721,-695.6168C1150.4542,-657.336 846.0514,-531.2482 726.1475,-481.5824"/>
<polygon fill="#000000" stroke="#000000" points="727.3981,-478.3121 716.8199,-477.7188 724.7193,-484.7793 727.3981,-478.3121"/>
<text text-anchor="middle" x="973.6269" y="-592.7996" font-family="Times,serif" font-size="14.00" fill="#000000">rely</text>
</g>
<!-- MCD_DAI -->
<g id="node5" class="node">
<title>MCD_DAI</title>
<polygon fill="none" stroke="#000000" points="1555.1836,-1106.4848 1501.1836,-1106.4848 1501.1836,-1070.4848 1555.1836,-1070.4848 1555.1836,-1106.4848"/>
<text text-anchor="middle" x="1528.1836" y="-1084.2848" font-family="Times,serif" font-size="14.00" fill="#000000">Dai</text>
</g>
<!-- MCD_JOIN_DAI -->
<g id="node6" class="node">
<title>MCD_JOIN_DAI</title>
<polygon fill="none" stroke="#000000" points="1686.5058,-1106.4848 1627.4084,-1106.4848 1627.4084,-1070.4848 1686.5058,-1070.4848 1686.5058,-1106.4848"/>
<text text-anchor="middle" x="1656.9571" y="-1084.2848" font-family="Times,serif" font-size="14.00" fill="#000000">DaiJoin</text>
</g>
<!-- MCD_DAI&#45;&gt;MCD_JOIN_DAI -->
<g id="edge21" class="edge">
<title>MCD_DAI&#45;&gt;MCD_JOIN_DAI</title>
<path fill="none" stroke="#000000" d="M1555.4931,-1088.4848C1573.3482,-1088.4848 1596.9737,-1088.4848 1616.9346,-1088.4848"/>
<polygon fill="#000000" stroke="#000000" points="1616.9889,-1091.9849 1626.9888,-1088.4848 1616.9888,-1084.9849 1616.9889,-1091.9849"/>
<text text-anchor="middle" x="1575.331" y="-1092.6848" font-family="Times,serif" font-size="14.00" fill="#000000">rely</text>
</g>
<!-- MCD_JUG&#45;&gt;MCD_PAUSE_PROXY -->
<g id="edge37" class="edge">
<title>MCD_JUG&#45;&gt;MCD_PAUSE_PROXY</title>
<path fill="none" stroke="#000000" d="M1144.4033,-570.82C1031.9883,-617.3838 601.394,-795.7418 449.9313,-858.4798"/>
<polygon fill="#000000" stroke="#000000" points="448.2641,-855.3819 440.3647,-862.4424 450.9429,-861.8491 448.2641,-855.3819"/>
<text text-anchor="middle" x="786.2844" y="-718.8499" font-family="Times,serif" font-size="14.00" fill="#000000">rely</text>
</g>
<!-- MCD_POT&#45;&gt;MCD_PAUSE_PROXY -->
<g id="edge38" class="edge">
<title>MCD_POT&#45;&gt;MCD_PAUSE_PROXY</title>
<path fill="none" stroke="#000000" d="M522.2404,-577.7591C500.0866,-631.243 435.0018,-788.3718 408.3925,-852.6123"/>
<polygon fill="#000000" stroke="#000000" points="405.058,-851.5166 404.4647,-862.0948 411.5252,-854.1955 405.058,-851.5166"/>
<text text-anchor="middle" x="476.1993" y="-719.3857" font-family="Times,serif" font-size="14.00" fill="#000000">rely</text>
</g>
<!-- MCD_POT&#45;&gt;MCD_END -->
<g id="edge31" class="edge">
<title>MCD_POT&#45;&gt;MCD_END</title>
<path fill="none" stroke="#000000" d="M556.8836,-570.82C673.6646,-619.1923 1133.82,-809.7949 1267.7052,-865.252"/>
<polygon fill="#000000" stroke="#000000" points="1266.555,-868.5639 1277.1332,-869.1572 1269.2338,-862.0967 1266.555,-868.5639"/>
<text text-anchor="middle" x="901.4115" y="-722.236" font-family="Times,serif" font-size="14.00" fill="#000000">rely</text>
</g>
<!-- MCD_FLAP -->
<g id="node9" class="node">
<title>MCD_FLAP</title>
<polygon fill="none" stroke="#000000" points="460.6618,-1072.1214 402.1348,-1072.1214 402.1348,-1036.1214 460.6618,-1036.1214 460.6618,-1072.1214"/>
<text text-anchor="middle" x="431.3983" y="-1049.9214" font-family="Times,serif" font-size="14.00" fill="#000000">Flapper</text>
</g>
<!-- MCD_VOW -->
<g id="node11" class="node">
<title>MCD_VOW</title>
<polygon fill="none" stroke="#000000" points="703.9864,-1317.7095 649.9864,-1317.7095 649.9864,-1281.7095 703.9864,-1281.7095 703.9864,-1317.7095"/>
<text text-anchor="middle" x="676.9864" y="-1295.5095" font-family="Times,serif" font-size="14.00" fill="#000000">Vow</text>
</g>
<!-- MCD_FLAP&#45;&gt;MCD_VOW -->
<g id="edge24" class="edge">
<title>MCD_FLAP&#45;&gt;MCD_VOW</title>
<path fill="none" stroke="#000000" d="M449.457,-1072.1801C492.6561,-1115.3792 602.0502,-1224.7733 651.7382,-1274.4612"/>
<polygon fill="#000000" stroke="#000000" points="649.3553,-1277.0281 658.9013,-1281.6243 654.3051,-1272.0784 649.3553,-1277.0281"/>
<text text-anchor="middle" x="539.7147" y="-1160.7206" font-family="Times,serif" font-size="14.00" fill="#000000">rely</text>
</g>
<!-- MCD_FLAP&#45;&gt;MCD_PAUSE_PROXY -->
<g id="edge40" class="edge">
<title>MCD_FLAP&#45;&gt;MCD_PAUSE_PROXY</title>
<path fill="none" stroke="#000000" d="M427.7669,-1035.8652C421.713,-1005.4302 409.5206,-944.1346 402.391,-908.292"/>
<polygon fill="#000000" stroke="#000000" points="405.8222,-907.6009 400.4385,-898.4759 398.9567,-908.9666 405.8222,-907.6009"/>
<text text-anchor="middle" x="404.1961" y="-976.2786" font-family="Times,serif" font-size="14.00" fill="#000000">rely</text>
</g>
<!-- MCD_FLOP -->
<g id="node10" class="node">
<title>MCD_FLOP</title>
<polygon fill="none" stroke="#000000" points="559.3172,-1219.3407 500.217,-1219.3407 500.217,-1183.3407 559.3172,-1183.3407 559.3172,-1219.3407"/>
<text text-anchor="middle" x="529.7671" y="-1197.1407" font-family="Times,serif" font-size="14.00" fill="#000000">Flopper</text>
</g>
<!-- MCD_FLOP&#45;&gt;MCD_VOW -->
<g id="edge25" class="edge">
<title>MCD_FLOP&#45;&gt;MCD_VOW</title>
<path fill="none" stroke="#000000" d="M556.7694,-1219.383C580.5601,-1235.2795 615.3851,-1258.5488 641.4366,-1275.9558"/>
<polygon fill="#000000" stroke="#000000" points="639.6472,-1278.9696 649.9064,-1281.6152 643.5362,-1273.1493 639.6472,-1278.9696"/>
<text text-anchor="middle" x="588.2201" y="-1251.8694" font-family="Times,serif" font-size="14.00" fill="#000000">rely</text>
</g>
<!-- MCD_FLOP&#45;&gt;MCD_PAUSE_PROXY -->
<g id="edge41" class="edge">
<title>MCD_FLOP&#45;&gt;MCD_PAUSE_PROXY</title>
<path fill="none" stroke="#000000" d="M522.2404,-1183.1696C500.0866,-1129.6857 435.0018,-972.5569 408.3925,-908.3164"/>
<polygon fill="#000000" stroke="#000000" points="411.5252,-906.7332 404.4647,-898.8339 405.058,-909.4121 411.5252,-906.7332"/>
<text text-anchor="middle" x="476.1993" y="-1049.943" font-family="Times,serif" font-size="14.00" fill="#000000">rely</text>
</g>
<!-- MCD_VOW&#45;&gt;MCD_CAT -->
<g id="edge27" class="edge">
<title>MCD_VOW&#45;&gt;MCD_CAT</title>
<path fill="none" stroke="#000000" d="M704.1203,-1305.1068C733.4726,-1310.9453 780.4648,-1320.2926 813.2934,-1326.8226"/>
<polygon fill="#000000" stroke="#000000" points="812.9234,-1330.3175 823.4141,-1328.8358 814.2891,-1323.452 812.9234,-1330.3175"/>
<text text-anchor="middle" x="747.824" y="-1320.1647" font-family="Times,serif" font-size="14.00" fill="#000000">rely</text>
</g>
<!-- MCD_VOW&#45;&gt;MCD_PAUSE_PROXY -->
<g id="edge36" class="edge">
<title>MCD_VOW&#45;&gt;MCD_PAUSE_PROXY</title>
<path fill="none" stroke="#000000" d="M664.9496,-1281.695C620.7826,-1215.5945 467.4715,-986.1482 414.7934,-907.3099"/>
<polygon fill="#000000" stroke="#000000" points="417.6292,-905.254 409.1633,-898.8838 411.8089,-909.1431 417.6292,-905.254"/>
<text text-anchor="middle" x="528.9886" y="-1098.7025" font-family="Times,serif" font-size="14.00" fill="#000000">rely</text>
</g>
<!-- MCD_VOW&#45;&gt;MCD_END -->
<g id="edge30" class="edge">
<title>MCD_VOW&#45;&gt;MCD_END</title>
<path fill="none" stroke="#000000" d="M703.9469,-1281.695C804.1917,-1214.7136 1155.4594,-980.0041 1268.8496,-904.2392"/>
<polygon fill="#000000" stroke="#000000" points="1270.8486,-907.113 1277.2188,-898.6471 1266.9595,-901.2927 1270.8486,-907.113"/>
<text text-anchor="middle" x="975.5154" y="-1097.1671" font-family="Times,serif" font-size="14.00" fill="#000000">rely</text>
</g>
<!-- MCD_CAT&#45;&gt;MCD_PAUSE_PROXY -->
<g id="edge35" class="edge">
<title>MCD_CAT&#45;&gt;MCD_PAUSE_PROXY</title>
<path fill="none" stroke="#000000" d="M832.5744,-1316.183C761.9912,-1245.5997 504.7227,-988.3312 422.3863,-905.9948"/>
<polygon fill="#000000" stroke="#000000" points="424.5224,-903.1812 414.9764,-898.585 419.5727,-908.131 424.5224,-903.1812"/>
<text text-anchor="middle" x="616.5974" y="-1115.2889" font-family="Times,serif" font-size="14.00" fill="#000000">rely</text>
</g>
<!-- MCD_CAT&#45;&gt;MCD_END -->
<g id="edge29" class="edge">
<title>MCD_CAT&#45;&gt;MCD_END</title>
<path fill="none" stroke="#000000" d="M868.7125,-1316.183C939.2957,-1245.5997 1196.5642,-988.3312 1278.9006,-905.9948"/>
<polygon fill="#000000" stroke="#000000" points="1281.7142,-908.131 1286.3104,-898.585 1276.7645,-903.1812 1281.7142,-908.131"/>
<text text-anchor="middle" x="1062.9237" y="-1115.2889" font-family="Times,serif" font-size="14.00" fill="#000000">rely</text>
</g>
<!-- MCD_SPOT&#45;&gt;MCD_PAUSE_PROXY -->
<g id="edge39" class="edge">
<title>MCD_SPOT&#45;&gt;MCD_PAUSE_PROXY</title>
<path fill="none" stroke="#000000" d="M427.7669,-725.0635C421.713,-755.4985 409.5206,-816.7941 402.391,-852.6367"/>
<polygon fill="#000000" stroke="#000000" points="398.9567,-851.9621 400.4385,-862.4528 405.8222,-853.3278 398.9567,-851.9621"/>
<text text-anchor="middle" x="404.1961" y="-793.0501" font-family="Times,serif" font-size="14.00" fill="#000000">rely</text>
</g>
<!-- MCD_SPOT&#45;&gt;MCD_END -->
<g id="edge32" class="edge">
<title>MCD_SPOT&#45;&gt;MCD_END</title>
<path fill="none" stroke="#000000" d="M459.9493,-712.4865C589.3923,-738.2343 1121.1383,-844.0051 1267.175,-873.0536"/>
<polygon fill="#000000" stroke="#000000" points="1266.911,-876.5696 1277.4017,-875.0879 1268.2767,-869.7041 1266.911,-876.5696"/>
<text text-anchor="middle" x="874.4451" y="-796.9701" font-family="Times,serif" font-size="14.00" fill="#000000">rely</text>
</g>
<!-- MCD_GOV -->
<g id="node14" class="node">
<title>MCD_GOV</title>
<polygon fill="none" stroke="#000000" points="1912.658,-794.4848 1858.658,-794.4848 1858.658,-758.4848 1912.658,-758.4848 1912.658,-794.4848"/>
<text text-anchor="middle" x="1885.658" y="-772.2848" font-family="Times,serif" font-size="14.00" fill="#000000">MKR</text>
</g>
<!-- MCD_GOV&#45;&gt;deployer -->
<g id="edge18" class="edge">
<title>MCD_GOV&#45;&gt;deployer</title>
<path fill="none" stroke="#000000" d="M1858.6058,-776.4848C1849.5979,-776.4848 1839.3316,-776.4848 1829.4312,-776.4848"/>
<polygon fill="#000000" stroke="#000000" points="1829.3144,-772.9849 1819.3144,-776.4848 1829.3143,-779.9849 1829.3144,-772.9849"/>
<text text-anchor="middle" x="1835.2731" y="-763.8848" font-family="Times,serif" font-size="14.00" fill="#000000">owner</text>
</g>
<!-- MKR_AUTH -->
<g id="node17" class="node">
<title>MKR_AUTH</title>
<polygon fill="none" stroke="#000000" points="2090.3984,-794.4848 1984.7445,-794.4848 1984.7445,-758.4848 2090.3984,-758.4848 2090.3984,-794.4848"/>
<text text-anchor="middle" x="2037.5714" y="-772.2848" font-family="Times,serif" font-size="14.00" fill="#000000">MKR Authority</text>
</g>
<!-- MCD_GOV&#45;&gt;MKR_AUTH -->
<g id="edge8" class="edge">
<title>MCD_GOV&#45;&gt;MKR_AUTH</title>
<path fill="none" stroke="#000000" d="M1912.8171,-776.4848C1929.9834,-776.4848 1952.9163,-776.4848 1974.4354,-776.4848"/>
<polygon fill="#000000" stroke="#000000" points="1974.5245,-779.9849 1984.5245,-776.4848 1974.5244,-772.9849 1974.5245,-779.9849"/>
<text text-anchor="middle" x="1956.263" y="-763.8848" font-family="Times,serif" font-size="14.00" fill="#000000">authority</text>
</g>
<!-- MCD_PAUSE -->
<g id="node15" class="node">
<title>MCD_PAUSE</title>
<polygon fill="none" stroke="#000000" points="167.2549,-898.4644 101.1606,-898.4644 101.1606,-862.4644 167.2549,-862.4644 167.2549,-898.4644"/>
<text text-anchor="middle" x="134.2078" y="-876.2644" font-family="Times,serif" font-size="14.00" fill="#000000">DSPause</text>
</g>
<!-- MCD_PAUSE&#45;&gt;zero -->
<g id="edge17" class="edge">
<title>MCD_PAUSE&#45;&gt;zero</title>
<path fill="none" stroke="#000000" d="M167.382,-878.0472C358.9686,-864.0875 1322.3648,-793.8913 1524.1552,-779.1881"/>
<polygon fill="#000000" stroke="#000000" points="1524.5275,-782.6704 1534.2467,-778.4528 1524.0187,-775.6889 1524.5275,-782.6704"/>
<text text-anchor="middle" x="828.2777" y="-832.8176" font-family="Times,serif" font-size="14.00" fill="#000000">owner</text>
</g>
<!-- MCD_ADM -->
<g id="node19" class="node">
<title>MCD_ADM</title>
<polygon fill="none" stroke="#000000" points="67.4734,-841.1762 2.4902,-841.1762 2.4902,-805.1762 67.4734,-805.1762 67.4734,-841.1762"/>
<text text-anchor="middle" x="34.9818" y="-818.9762" font-family="Times,serif" font-size="14.00" fill="#000000">DSChief</text>
</g>
<!-- MCD_PAUSE&#45;&gt;MCD_ADM -->
<g id="edge7" class="edge">
<title>MCD_PAUSE&#45;&gt;MCD_ADM</title>
<path fill="none" stroke="#000000" d="M102.8121,-862.338C93.9485,-857.2207 84.1842,-851.5832 74.8924,-846.2186"/>
<polygon fill="#000000" stroke="#000000" points="76.5836,-843.1536 66.1733,-841.1846 73.0835,-849.2158 76.5836,-843.1536"/>
<text text-anchor="middle" x="63.5787" y="-858.4783" font-family="Times,serif" font-size="14.00" fill="#000000">authority</text>
</g>
<!-- MCD_PAUSE_PROXY&#45;&gt;MCD_PAUSE -->
<g id="edge16" class="edge">
<title>MCD_PAUSE_PROXY&#45;&gt;MCD_PAUSE</title>
<path fill="none" stroke="#000000" d="M346.8355,-880.4644C297.8516,-880.4644 223.9868,-880.4644 177.4668,-880.4644"/>
<polygon fill="#000000" stroke="#000000" points="177.4037,-876.9644 167.4037,-880.4644 177.4036,-883.9644 177.4037,-876.9644"/>
<text text-anchor="middle" x="244.6602" y="-884.6644" font-family="Times,serif" font-size="14.00" fill="#000000">owner</text>
</g>
<!-- MCD_IOU -->
<g id="node18" class="node">
<title>MCD_IOU</title>
<polygon fill="none" stroke="#000000" points="61.9818,-955.7525 7.9818,-955.7525 7.9818,-919.7525 61.9818,-919.7525 61.9818,-955.7525"/>
<text text-anchor="middle" x="34.9818" y="-933.5525" font-family="Times,serif" font-size="14.00" fill="#000000">IOU</text>
</g>
<!-- MCD_IOU&#45;&gt;zero -->
<g id="edge6" class="edge">
<title>MCD_IOU&#45;&gt;zero</title>
<path fill="none" stroke="#000000" d="M62.1209,-934.8849C246.1882,-915.4362 1310.6436,-802.9648 1524.021,-780.4191"/>
<polygon fill="#000000" stroke="#000000" points="1524.5148,-783.8865 1534.0916,-779.3551 1523.7792,-776.9253 1524.5148,-783.8865"/>
<text text-anchor="middle" x="767.7975" y="-861.852" font-family="Times,serif" font-size="14.00" fill="#000000">authority</text>
</g>
<!-- MCD_IOU&#45;&gt;MCD_ADM -->
<g id="edge15" class="edge">
<title>MCD_IOU&#45;&gt;MCD_ADM</title>
<path fill="none" stroke="#000000" d="M34.9818,-919.5975C34.9818,-901.2442 34.9818,-872.6262 34.9818,-851.329"/>
<polygon fill="#000000" stroke="#000000" points="38.4819,-851.2462 34.9818,-841.2462 31.4819,-851.2463 38.4819,-851.2462"/>
<text text-anchor="middle" x="17.4909" y="-889.6633" font-family="Times,serif" font-size="14.00" fill="#000000">owner</text>
</g>
<!-- MCD_ADM&#45;&gt;zero -->
<g id="edge14" class="edge">
<title>MCD_ADM&#45;&gt;zero</title>
<path fill="none" stroke="#000000" d="M67.5663,-822.1794C266.1912,-816.1031 1312.515,-784.0943 1523.9778,-777.6252"/>
<polygon fill="#000000" stroke="#000000" points="1524.3537,-781.1155 1534.2419,-777.3112 1524.1396,-774.1187 1524.3537,-781.1155"/>
<text text-anchor="middle" x="778.2812" y="-804.1023" font-family="Times,serif" font-size="14.00" fill="#000000">owner</text>
</g>
<!-- MCD_ADM&#45;&gt;MCD_ADM -->
<g id="edge5" class="edge">
<title>MCD_ADM&#45;&gt;MCD_ADM</title>
<path fill="none" stroke="#000000" d="M67.5216,-829.9196C77.5794,-829.7834 85.4776,-827.5356 85.4776,-823.1762 85.4776,-820.4516 82.3924,-818.5518 77.6229,-817.4769"/>
<polygon fill="#000000" stroke="#000000" points="77.8284,-813.9796 67.5216,-816.4328 77.1087,-820.9425 77.8284,-813.9796"/>
<text text-anchor="middle" x="110.7511" y="-818.9762" font-family="Times,serif" font-size="14.00" fill="#000000">authority</text>
</g>
<!-- PROXY_DEPLOYER -->
<g id="node20" class="node">
<title>PROXY_DEPLOYER</title>
<polygon fill="none" stroke="#000000" points="1726.4873,-681.7839 1621.4269,-681.7839 1621.4269,-645.7839 1726.4873,-645.7839 1726.4873,-681.7839"/>
<text text-anchor="middle" x="1673.9571" y="-659.5839" font-family="Times,serif" font-size="14.00" fill="#000000">Proxy Deployer</text>
</g>
<!-- PROXY_DEPLOYER&#45;&gt;zero -->
<g id="edge4" class="edge">
<title>PROXY_DEPLOYER&#45;&gt;zero</title>
<path fill="none" stroke="#000000" d="M1655.8497,-681.8913C1637.1188,-700.6222 1607.7139,-730.0271 1586.6616,-751.0794"/>
<polygon fill="#000000" stroke="#000000" points="1583.9148,-748.8764 1579.3186,-758.4224 1588.8646,-753.8262 1583.9148,-748.8764"/>
<text text-anchor="middle" x="1595.9822" y="-720.6854" font-family="Times,serif" font-size="14.00" fill="#000000">authority</text>
</g>
<!-- PROXY_DEPLOYER&#45;&gt;deployer -->
<g id="edge13" class="edge">
<title>PROXY_DEPLOYER&#45;&gt;deployer</title>
<path fill="none" stroke="#000000" d="M1692.0645,-681.8913C1710.7954,-700.6222 1740.2003,-730.0271 1761.2526,-751.0794"/>
<polygon fill="#000000" stroke="#000000" points="1759.0496,-753.8262 1768.5956,-758.4224 1763.9994,-748.8764 1759.0496,-753.8262"/>
<text text-anchor="middle" x="1709.1677" y="-720.6854" font-family="Times,serif" font-size="14.00" fill="#000000">owner</text>
</g>
<!-- SAI_PROXY -->
<g id="node21" class="node">
<title>SAI_PROXY</title>
<polygon fill="none" stroke="#000000" points="1133.418,-151.6018 1062.7556,-151.6018 1062.7556,-115.6018 1133.418,-115.6018 1133.418,-151.6018"/>
<text text-anchor="middle" x="1098.0868" y="-129.4018" font-family="Times,serif" font-size="14.00" fill="#000000">Sai Proxy</text>
</g>
<!-- SAI_PROXY&#45;&gt;zero -->
<g id="edge3" class="edge">
<title>SAI_PROXY&#45;&gt;zero</title>
<path fill="none" stroke="#000000" d="M1108.3243,-151.8453C1166.6287,-242.4258 1455.0759,-643.1443 1538.6286,-750.165"/>
<polygon fill="#000000" stroke="#000000" points="1536.0207,-752.5106 1544.9573,-758.2016 1541.5202,-748.1798 1536.0207,-752.5106"/>
<text text-anchor="middle" x="1298.2029" y="-455.2051" font-family="Times,serif" font-size="14.00" fill="#000000">authority</text>
</g>
<!-- SAI_PROXY&#45;&gt;zero -->
<g id="edge12" class="edge">
<title>SAI_PROXY&#45;&gt;zero</title>
<path fill="none" stroke="#000000" d="M1114.2514,-151.7162C1186.0603,-241.9286 1474.4695,-642.0715 1545.4827,-749.7544"/>
<polygon fill="#000000" stroke="#000000" points="1542.7329,-751.9453 1551.1271,-758.4097 1548.5963,-748.1216 1542.7329,-751.9453"/>
<text text-anchor="middle" x="1312.3761" y="-438.1353" font-family="Times,serif" font-size="14.00" fill="#000000">owner</text>
</g>
<!-- MCD_END&#45;&gt;MCD_PAUSE_PROXY -->
<g id="edge42" class="edge">
<title>MCD_END&#45;&gt;MCD_PAUSE_PROXY</title>
<path fill="none" stroke="#000000" d="M1277.2692,-880.4644C1152.7773,-880.4644 635.1899,-880.4644 457.25,-880.4644"/>
<polygon fill="#000000" stroke="#000000" points="457.0263,-876.9644 447.0263,-880.4644 457.0263,-883.9644 457.0263,-876.9644"/>
<text text-anchor="middle" x="856.3767" y="-884.6644" font-family="Times,serif" font-size="14.00" fill="#000000">rely</text>
</g>
<!-- MCD_ESM -->
<g id="node23" class="node">
<title>MCD_ESM</title>
<polygon fill="none" stroke="#000000" points="1430.4311,-898.4644 1376.4311,-898.4644 1376.4311,-862.4644 1430.4311,-862.4644 1430.4311,-898.4644"/>
<text text-anchor="middle" x="1403.4311" y="-876.2644" font-family="Times,serif" font-size="14.00" fill="#000000">ESM</text>
</g>
<!-- MCD_END&#45;&gt;MCD_ESM -->
<g id="edge33" class="edge">
<title>MCD_END&#45;&gt;MCD_ESM</title>
<path fill="none" stroke="#000000" d="M1331.4833,-880.4644C1342.1783,-880.4644 1354.6471,-880.4644 1366.1715,-880.4644"/>
<polygon fill="#000000" stroke="#000000" points="1366.4117,-883.9644 1376.4116,-880.4644 1366.4116,-876.9644 1366.4117,-883.9644"/>
<text text-anchor="middle" x="1359.7103" y="-884.6644" font-family="Times,serif" font-size="14.00" fill="#000000">rely</text>
</g>
<!-- SAI_TUB -->
<g id="node24" class="node">
<title>SAI_TUB</title>
<polygon fill="none" stroke="#000000" points="1102.2673,-36 1045.3831,-36 1045.3831,0 1102.2673,0 1102.2673,-36"/>
<text text-anchor="middle" x="1073.8252" y="-13.8" font-family="Times,serif" font-size="14.00" fill="#000000">SaiTub</text>
</g>
<!-- SAI_TUB&#45;&gt;zero -->
<g id="edge11" class="edge">
<title>SAI_TUB&#45;&gt;zero</title>
<path fill="none" stroke="#000000" d="M1085.3934,-36.0011C1150.0265,-136.5759 1466.3244,-628.7628 1544.0033,-749.6379"/>
<polygon fill="#000000" stroke="#000000" points="1541.2292,-751.7951 1549.5799,-758.3155 1547.118,-748.0107 1541.2292,-751.7951"/>
<text text-anchor="middle" x="1297.2074" y="-397.0195" font-family="Times,serif" font-size="14.00" fill="#000000">owner</text>
</g>
<!-- SAI_TUB&#45;&gt;SAI_PROXY -->
<g id="edge10" class="edge">
<title>SAI_TUB&#45;&gt;SAI_PROXY</title>
<path fill="none" stroke="#000000" d="M1077.6161,-36.0628C1081.5102,-54.6173 1087.6265,-83.7604 1092.1605,-105.364"/>
<polygon fill="#000000" stroke="#000000" points="1088.7631,-106.2165 1094.2425,-115.2843 1095.6138,-104.7786 1088.7631,-106.2165"/>
<text text-anchor="middle" x="1059.6148" y="-74.9134" font-family="Times,serif" font-size="14.00" fill="#000000">authority</text>
</g>
<!-- MIGRATION -->
<g id="node25" class="node">
<title>MIGRATION</title>
<polygon fill="none" stroke="#000000" points="685.8794,-357.8917 567.5824,-357.8917 567.5824,-321.8917 685.8794,-321.8917 685.8794,-357.8917"/>
<text text-anchor="middle" x="626.7309" y="-335.6917" font-family="Times,serif" font-size="14.00" fill="#000000">ScdMcdMigration</text>
</g>
<!-- ETHJoin_A&#45;&gt;MCD_PAUSE_PROXY -->
<g id="edge57" class="edge">
<title>ETHJoin_A&#45;&gt;MCD_PAUSE_PROXY</title>
<path fill="none" stroke="#000000" d="M997.34,-479.2337C897.0952,-546.2151 545.8275,-780.9246 432.4373,-856.6895"/>
<polygon fill="#000000" stroke="#000000" points="430.4383,-853.8157 424.0681,-862.2816 434.3274,-859.636 430.4383,-853.8157"/>
<text text-anchor="middle" x="704.0057" y="-672.1616" font-family="Times,serif" font-size="14.00" fill="#000000">rely</text>
</g>
<!-- Flipper_ETH&#45;A -->
<g id="node27" class="node">
<title>Flipper_ETH&#45;A</title>
<polygon fill="none" stroke="#000000" points="1077.2193,-1317.7095 971.3816,-1317.7095 971.3816,-1281.7095 1077.2193,-1281.7095 1077.2193,-1317.7095"/>
<text text-anchor="middle" x="1024.3005" y="-1295.5095" font-family="Times,serif" font-size="14.00" fill="#000000">Flipper_ETH&#45;A</text>
</g>
<!-- Flipper_ETH&#45;A&#45;&gt;MCD_CAT -->
<g id="edge44" class="edge">
<title>Flipper_ETH&#45;A&#45;&gt;MCD_CAT</title>
<path fill="none" stroke="#000000" d="M971.254,-1310.2611C944.1983,-1315.6428 911.9579,-1322.0558 887.6202,-1326.8969"/>
<polygon fill="#000000" stroke="#000000" points="886.8368,-1323.4841 877.7118,-1328.8678 888.2025,-1330.3496 886.8368,-1323.4841"/>
<text text-anchor="middle" x="918.5542" y="-1322.779" font-family="Times,serif" font-size="14.00" fill="#000000">rely</text>
</g>
<!-- Flipper_ETH&#45;A&#45;&gt;MCD_PAUSE_PROXY -->
<g id="edge46" class="edge">
<title>Flipper_ETH&#45;A&#45;&gt;MCD_PAUSE_PROXY</title>
<path fill="none" stroke="#000000" d="M997.34,-1281.695C897.0952,-1214.7136 545.8275,-980.0041 432.4373,-904.2392"/>
<polygon fill="#000000" stroke="#000000" points="434.3274,-901.2927 424.0681,-898.6471 430.4383,-907.113 434.3274,-901.2927"/>
<text text-anchor="middle" x="704.0057" y="-1097.1671" font-family="Times,serif" font-size="14.00" fill="#000000">rely</text>
</g>
<!-- Flipper_ETH&#45;A&#45;&gt;MCD_END -->
<g id="edge45" class="edge">
<title>Flipper_ETH&#45;A&#45;&gt;MCD_END</title>
<path fill="none" stroke="#000000" d="M1036.3373,-1281.695C1080.5043,-1215.5945 1233.8154,-986.1482 1286.4935,-907.3099"/>
<polygon fill="#000000" stroke="#000000" points="1289.478,-909.1431 1292.1236,-898.8838 1283.6577,-905.254 1289.478,-909.1431"/>
<text text-anchor="middle" x="1150.5325" y="-1098.7025" font-family="Times,serif" font-size="14.00" fill="#000000">rely</text>
</g>
<!-- BATJoin_A&#45;&gt;MCD_PAUSE_PROXY -->
<g id="edge58" class="edge">
<title>BATJoin_A&#45;&gt;MCD_PAUSE_PROXY</title>
<path fill="none" stroke="#000000" d="M832.5744,-444.7457C761.9912,-515.329 504.7227,-772.5975 422.3863,-854.9339"/>
<polygon fill="#000000" stroke="#000000" points="419.5727,-852.7977 414.9764,-862.3437 424.5224,-857.7475 419.5727,-852.7977"/>
<text text-anchor="middle" x="616.5974" y="-654.0398" font-family="Times,serif" font-size="14.00" fill="#000000">rely</text>
</g>
<!-- Flipper_BAT&#45;A -->
<g id="node29" class="node">
<title>Flipper_BAT&#45;A</title>
<polygon fill="none" stroke="#000000" points="1224.722,-1219.3407 1118.3176,-1219.3407 1118.3176,-1183.3407 1224.722,-1183.3407 1224.722,-1219.3407"/>
<text text-anchor="middle" x="1171.5198" y="-1197.1407" font-family="Times,serif" font-size="14.00" fill="#000000">Flipper_BAT&#45;A</text>
</g>
<!-- Flipper_BAT&#45;A&#45;&gt;MCD_CAT -->
<g id="edge48" class="edge">
<title>Flipper_BAT&#45;A&#45;&gt;MCD_CAT</title>
<path fill="none" stroke="#000000" d="M1127.911,-1219.404C1064.1199,-1245.8272 946.5095,-1294.543 887.0686,-1319.1642"/>
<polygon fill="#000000" stroke="#000000" points="885.6009,-1315.9837 877.7015,-1323.0442 888.2797,-1322.4509 885.6009,-1315.9837"/>
<text text-anchor="middle" x="996.6069" y="-1256.6841" font-family="Times,serif" font-size="14.00" fill="#000000">rely</text>
</g>
<!-- Flipper_BAT&#45;A&#45;&gt;MCD_PAUSE_PROXY -->
<g id="edge50" class="edge">
<title>Flipper_BAT&#45;A&#45;&gt;MCD_PAUSE_PROXY</title>
<path fill="none" stroke="#000000" d="M1127.9311,-1183.2857C995.099,-1128.2648 595.598,-962.7861 450.3714,-902.6313"/>
<polygon fill="#000000" stroke="#000000" points="451.3481,-899.2475 440.7699,-898.6542 448.6693,-905.7146 451.3481,-899.2475"/>
<text text-anchor="middle" x="778.2684" y="-1047.1585" font-family="Times,serif" font-size="14.00" fill="#000000">rely</text>
</g>
<!-- Flipper_BAT&#45;A&#45;&gt;MCD_END -->
<g id="edge49" class="edge">
<title>Flipper_BAT&#45;A&#45;&gt;MCD_END</title>
<path fill="none" stroke="#000000" d="M1179.0465,-1183.1696C1201.2002,-1129.6857 1266.2851,-972.5569 1292.8944,-908.3164"/>
<polygon fill="#000000" stroke="#000000" points="1296.2289,-909.4121 1296.8222,-898.8339 1289.7617,-906.7332 1296.2289,-909.4121"/>
<text text-anchor="middle" x="1225.0875" y="-1033.143" font-family="Times,serif" font-size="14.00" fill="#000000">rely</text>
</g>
<!-- SAI -->
<g id="node30" class="node">
<title>SAI</title>
<polygon fill="none" stroke="#000000" points="1012.8419,-114.8121 958.8419,-114.8121 958.8419,-78.8121 1012.8419,-78.8121 1012.8419,-114.8121"/>
<text text-anchor="middle" x="985.8419" y="-92.6121" font-family="Times,serif" font-size="14.00" fill="#000000">SAI</text>
</g>
<!-- SAI&#45;&gt;zero -->
<g id="edge19" class="edge">
<title>SAI&#45;&gt;zero</title>
<path fill="none" stroke="#000000" d="M1001.2329,-114.9917C1080.8288,-209.0095 1445.6741,-639.9606 1539.3064,-750.558"/>
<polygon fill="#000000" stroke="#000000" points="1536.6849,-752.8783 1545.8176,-758.249 1542.0274,-748.3553 1536.6849,-752.8783"/>
<text text-anchor="middle" x="1252.7788" y="-436.9749" font-family="Times,serif" font-size="14.00" fill="#000000">owner</text>
</g>
<!-- SAI&#45;&gt;SAI_PROXY -->
<g id="edge1" class="edge">
<title>SAI&#45;&gt;SAI_PROXY</title>
<path fill="none" stroke="#000000" d="M1013.0133,-105.7178C1025.0214,-109.6537 1039.4645,-114.3876 1053.0132,-118.8283"/>
<polygon fill="#000000" stroke="#000000" points="1052.0802,-122.2057 1062.673,-121.9944 1054.2605,-115.5539 1052.0802,-122.2057"/>
<text text-anchor="middle" x="1058.2867" y="-99.6731" font-family="Times,serif" font-size="14.00" fill="#000000">authority</text>
</g>
<!-- SAIJoin_A&#45;&gt;MCD_PAUSE_PROXY -->
<g id="edge56" class="edge">
<title>SAIJoin_A&#45;&gt;MCD_PAUSE_PROXY</title>
<path fill="none" stroke="#000000" d="M664.9496,-479.2337C620.7826,-545.3342 467.4715,-774.7805 414.7934,-853.6188"/>
<polygon fill="#000000" stroke="#000000" points="411.8089,-851.7856 409.1633,-862.0449 417.6292,-855.6747 411.8089,-851.7856"/>
<text text-anchor="middle" x="528.9886" y="-670.6262" font-family="Times,serif" font-size="14.00" fill="#000000">rely</text>
</g>
<!-- SAIJoin_A&#45;&gt;MIGRATION -->
<g id="edge55" class="edge">
<title>SAIJoin_A&#45;&gt;MIGRATION</title>
<path fill="none" stroke="#000000" d="M669.4627,-443.0553C661.1727,-423.0416 647.7456,-390.6257 638.1552,-367.4724"/>
<polygon fill="#000000" stroke="#000000" points="641.3666,-366.0792 634.3061,-358.1798 634.8994,-368.758 641.3666,-366.0792"/>
<text text-anchor="middle" x="642.926" y="-409.4638" font-family="Times,serif" font-size="14.00" fill="#000000">rely</text>
</g>
<!-- Flipper_SAI&#45;A -->
<g id="node32" class="node">
<title>Flipper_SAI&#45;A</title>
<polygon fill="none" stroke="#000000" points="1320.1449,-1072.1214 1219.6323,-1072.1214 1219.6323,-1036.1214 1320.1449,-1036.1214 1320.1449,-1072.1214"/>
<text text-anchor="middle" x="1269.8886" y="-1049.9214" font-family="Times,serif" font-size="14.00" fill="#000000">Flipper_SAI&#45;A</text>
</g>
<!-- Flipper_SAI&#45;A&#45;&gt;MCD_CAT -->
<g id="edge52" class="edge">
<title>Flipper_SAI&#45;A&#45;&gt;MCD_CAT</title>
<path fill="none" stroke="#000000" d="M1242.7038,-1072.2857C1169.524,-1121.1828 968.3674,-1255.5914 886.2562,-1310.4563"/>
<polygon fill="#000000" stroke="#000000" points="884.1368,-1307.663 877.7666,-1316.1289 888.0258,-1313.4833 884.1368,-1307.663"/>
<text text-anchor="middle" x="1053.5971" y="-1195.571" font-family="Times,serif" font-size="14.00" fill="#000000">rely</text>
</g>
<!-- Flipper_SAI&#45;A&#45;&gt;MCD_PAUSE_PROXY -->
<g id="edge54" class="edge">
<title>Flipper_SAI&#45;A&#45;&gt;MCD_PAUSE_PROXY</title>
<path fill="none" stroke="#000000" d="M1219.4964,-1044.0977C1068.4238,-1014.0475 619.6934,-924.7895 456.7952,-892.387"/>
<polygon fill="#000000" stroke="#000000" points="457.4352,-888.9459 446.9445,-890.4276 456.0696,-895.8114 457.4352,-888.9459"/>
<text text-anchor="middle" x="827.2629" y="-972.4424" font-family="Times,serif" font-size="14.00" fill="#000000">rely</text>
</g>
<!-- Flipper_SAI&#45;A&#45;&gt;MCD_END -->
<g id="edge53" class="edge">
<title>Flipper_SAI&#45;A&#45;&gt;MCD_END</title>
<path fill="none" stroke="#000000" d="M1273.5199,-1035.8652C1279.5739,-1005.4302 1291.7663,-944.1346 1298.8959,-908.292"/>
<polygon fill="#000000" stroke="#000000" points="1302.3302,-908.9666 1300.8484,-898.4759 1295.4647,-907.6009 1302.3302,-908.9666"/>
<text text-anchor="middle" x="1275.325" y="-976.2786" font-family="Times,serif" font-size="14.00" fill="#000000">rely</text>
</g>
<!-- isolated -->
<g id="node33" class="node">
<title>isolated</title>
<polygon fill="none" stroke="#000000" points="2106.5253,-374.185 1501.3889,-374.185 1501.3889,-214.7847 2106.5253,-214.7847 2106.5253,-374.185"/>
<text text-anchor="middle" x="1803.9571" y="-357.4848" font-family="Times,serif" font-size="14.00" fill="#000000">Isolated Contracts:&#13;</text>
<text text-anchor="middle" x="1803.9571" y="-340.6848" font-family="Times,serif" font-size="14.00" fill="#000000"> MULTICALL, FAUCET, PROXY_ACTIONS, PROXY_ACTIONS_END, PROXY_ACTIONS_DSR,&#13;</text>
<text text-anchor="middle" x="1803.9571" y="-323.8848" font-family="Times,serif" font-size="14.00" fill="#000000"> CDP_MANAGER, GET_CDPS, PROXY_FACTORY, PROXY_REGISTRY,&#13;</text>
<text text-anchor="middle" x="1803.9571" y="-307.0848" font-family="Times,serif" font-size="14.00" fill="#000000"> PROXY_PAUSE_ACTIONS, MCD_GOV_ACTIONS, MIGRATION_PROXY_ACTIONS, ETH,&#13;</text>
<text text-anchor="middle" x="1803.9571" y="-290.2848" font-family="Times,serif" font-size="14.00" fill="#000000"> PIP_ETH, BAT, PIP_BAT, PIP_SAI,&#13;</text>
<text text-anchor="middle" x="1803.9571" y="-273.4848" font-family="Times,serif" font-size="14.00" fill="#000000"> vatFab, jugFab, vowFab, catFab,&#13;</text>
<text text-anchor="middle" x="1803.9571" y="-256.6848" font-family="Times,serif" font-size="14.00" fill="#000000"> daiFab, daiJoinFab, flapFab, flopFab,&#13;</text>
<text text-anchor="middle" x="1803.9571" y="-239.8848" font-family="Times,serif" font-size="14.00" fill="#000000"> flipFab, spotFab, potFab, pauseFab,&#13;</text>
<text text-anchor="middle" x="1803.9571" y="-223.0848" font-family="Times,serif" font-size="14.00" fill="#000000"> endFab</text>
</g>
</g>
</svg>
