<?xml version="1.0" encoding="UTF-8" standalone="no"?>
<!DOCTYPE svg PUBLIC "-//W3C//DTD SVG 1.1//EN"
 "http://www.w3.org/Graphics/SVG/1.1/DTD/svg11.dtd">
<!-- Generated by graphviz version 2.40.1 (20161225.0304)
 -->
<!-- Title: %0 Pages: 1 -->
<svg width="1985pt" height="1723pt"
 viewBox="0.00 0.00 1985.47 1722.76" xmlns="http://www.w3.org/2000/svg" xmlns:xlink="http://www.w3.org/1999/xlink">
<g id="graph0" class="graph" transform="scale(1 1) rotate(0) translate(4 1718.7588)">
<title>%0</title>
<polygon fill="#ffffff" stroke="transparent" points="-4,4 -4,-1718.7588 1981.4727,-1718.7588 1981.4727,4 -4,4"/>
<!-- zero -->
<g id="node1" class="node">
<title>zero</title>
<polygon fill="none" stroke="#000000" points="1253.9979,-884.0618 1199.9979,-884.0618 1199.9979,-848.0618 1253.9979,-848.0618 1253.9979,-884.0618"/>
<text text-anchor="middle" x="1226.9979" y="-861.8618" font-family="Times,serif" font-size="14.00" fill="#000000">zero</text>
</g>
<!-- deployer -->
<g id="node2" class="node">
<title>deployer</title>
<polygon fill="none" stroke="#000000" points="1484.8801,-884.0618 1419.9193,-884.0618 1419.9193,-848.0618 1484.8801,-848.0618 1484.8801,-884.0618"/>
<text text-anchor="middle" x="1452.3997" y="-861.8618" font-family="Times,serif" font-size="14.00" fill="#000000">deployer</text>
</g>
<!-- MCD_DEPLOY -->
<g id="node3" class="node">
<title>MCD_DEPLOY</title>
<polygon fill="none" stroke="#000000" points="1378.9067,-996.7627 1300.4909,-996.7627 1300.4909,-960.7627 1378.9067,-960.7627 1378.9067,-996.7627"/>
<text text-anchor="middle" x="1339.6988" y="-974.5627" font-family="Times,serif" font-size="14.00" fill="#000000">DssDeploy</text>
</g>
<!-- MCD_DEPLOY&#45;&gt;zero -->
<g id="edge8" class="edge">
<title>MCD_DEPLOY&#45;&gt;zero</title>
<path fill="none" stroke="#000000" d="M1321.5914,-960.6554C1302.8605,-941.9244 1273.4556,-912.5195 1252.4032,-891.4672"/>
<polygon fill="#000000" stroke="#000000" points="1254.6063,-888.7204 1245.0603,-884.1242 1249.6565,-893.6702 1254.6063,-888.7204"/>
<text text-anchor="middle" x="1261.7238" y="-930.2613" font-family="Times,serif" font-size="14.00" fill="#000000">authority</text>
</g>
<!-- MCD_DEPLOY&#45;&gt;deployer -->
<g id="edge1" class="edge">
<title>MCD_DEPLOY&#45;&gt;deployer</title>
<path fill="none" stroke="#000000" d="M1357.8061,-960.6554C1376.5371,-941.9244 1405.942,-912.5195 1426.9943,-891.4672"/>
<polygon fill="#000000" stroke="#000000" points="1429.7411,-893.6702 1434.3373,-884.1242 1424.7913,-888.7204 1429.7411,-893.6702"/>
<text text-anchor="middle" x="1374.9093" y="-930.2613" font-family="Times,serif" font-size="14.00" fill="#000000">owner</text>
</g>
<!-- MCD_VAT -->
<g id="node4" class="node">
<title>MCD_VAT</title>
<polygon fill="none" stroke="#000000" points="770.7364,-1543.7987 716.7364,-1543.7987 716.7364,-1507.7987 770.7364,-1507.7987 770.7364,-1543.7987"/>
<text text-anchor="middle" x="743.7364" y="-1521.5987" font-family="Times,serif" font-size="14.00" fill="#000000">Vat</text>
</g>
<!-- MCD_JUG -->
<g id="node7" class="node">
<title>MCD_JUG</title>
<polygon fill="none" stroke="#000000" points="890.3855,-1413.2842 836.3855,-1413.2842 836.3855,-1377.2842 890.3855,-1377.2842 890.3855,-1413.2842"/>
<text text-anchor="middle" x="863.3855" y="-1391.0842" font-family="Times,serif" font-size="14.00" fill="#000000">Jug</text>
</g>
<!-- MCD_VAT&#45;&gt;MCD_JUG -->
<g id="edge18" class="edge">
<title>MCD_VAT&#45;&gt;MCD_JUG</title>
<path fill="none" stroke="#000000" d="M760.3731,-1507.6512C780.9729,-1485.1806 816.2014,-1446.753 839.6386,-1421.1875"/>
<polygon fill="#000000" stroke="#000000" points="842.3267,-1423.4347 846.5044,-1413.6983 837.1668,-1418.7044 842.3267,-1423.4347"/>
<text text-anchor="middle" x="789.1229" y="-1468.6194" font-family="Times,serif" font-size="14.00" fill="#000000">rely</text>
</g>
<!-- MCD_POT -->
<g id="node8" class="node">
<title>MCD_POT</title>
<polygon fill="none" stroke="#000000" points="737.9917,-789.8881 683.9917,-789.8881 683.9917,-753.8881 737.9917,-753.8881 737.9917,-789.8881"/>
<text text-anchor="middle" x="710.9917" y="-767.6881" font-family="Times,serif" font-size="14.00" fill="#000000">Pot</text>
</g>
<!-- MCD_VAT&#45;&gt;MCD_POT -->
<g id="edge19" class="edge">
<title>MCD_VAT&#45;&gt;MCD_POT</title>
<path fill="none" stroke="#000000" d="M742.9432,-1507.5361C738.582,-1407.1256 717.5258,-922.3304 712.2117,-799.9776"/>
<polygon fill="#000000" stroke="#000000" points="715.7051,-799.749 711.7744,-789.9103 708.7117,-800.0528 715.7051,-799.749"/>
<text text-anchor="middle" x="716.6945" y="-1157.9568" font-family="Times,serif" font-size="14.00" fill="#000000">rely</text>
</g>
<!-- MCD_CAT -->
<g id="node12" class="node">
<title>MCD_CAT</title>
<polygon fill="none" stroke="#000000" points="61.683,-1285.5418 7.683,-1285.5418 7.683,-1249.5418 61.683,-1249.5418 61.683,-1285.5418"/>
<text text-anchor="middle" x="34.683" y="-1263.3418" font-family="Times,serif" font-size="14.00" fill="#000000">Cat</text>
</g>
<!-- MCD_VAT&#45;&gt;MCD_CAT -->
<g id="edge22" class="edge">
<title>MCD_VAT&#45;&gt;MCD_CAT</title>
<path fill="none" stroke="#000000" d="M716.3751,-1515.8329C606.4774,-1475.8051 197.0781,-1326.6906 71.5269,-1280.9613"/>
<polygon fill="#000000" stroke="#000000" points="72.5567,-1277.6115 61.9627,-1277.4778 70.161,-1284.1889 72.5567,-1277.6115"/>
<text text-anchor="middle" x="383.0681" y="-1402.5971" font-family="Times,serif" font-size="14.00" fill="#000000">rely</text>
</g>
<!-- MCD_SPOT -->
<g id="node13" class="node">
<title>MCD_SPOT</title>
<polygon fill="none" stroke="#000000" points="573.065,-729.2925 516.1835,-729.2925 516.1835,-693.2925 573.065,-693.2925 573.065,-729.2925"/>
<text text-anchor="middle" x="544.6242" y="-707.0925" font-family="Times,serif" font-size="14.00" fill="#000000">Spotter</text>
</g>
<!-- MCD_VAT&#45;&gt;MCD_SPOT -->
<g id="edge16" class="edge">
<title>MCD_VAT&#45;&gt;MCD_SPOT</title>
<path fill="none" stroke="#000000" d="M739.2985,-1507.6446C713.5137,-1402.1669 583.0314,-868.4044 551.4936,-739.3928"/>
<polygon fill="#000000" stroke="#000000" points="554.8475,-738.3732 549.0729,-729.4904 548.0477,-740.0355 554.8475,-738.3732"/>
<text text-anchor="middle" x="634.5131" y="-1127.7187" font-family="Times,serif" font-size="14.00" fill="#000000">rely</text>
</g>
<!-- MCD_PAUSE_PROXY -->
<g id="node16" class="node">
<title>MCD_PAUSE_PROXY</title>
<polygon fill="none" stroke="#000000" points="417.7206,-736.9755 317.743,-736.9755 317.743,-700.9755 417.7206,-700.9755 417.7206,-736.9755"/>
<text text-anchor="middle" x="367.7318" y="-714.7755" font-family="Times,serif" font-size="14.00" fill="#000000">DSPauseProxy</text>
</g>
<!-- MCD_VAT&#45;&gt;MCD_PAUSE_PROXY -->
<g id="edge30" class="edge">
<title>MCD_VAT&#45;&gt;MCD_PAUSE_PROXY</title>
<path fill="none" stroke="#000000" d="M735.1765,-1507.4311C686.0094,-1401.9292 439.6594,-873.3163 380.513,-746.4011"/>
<polygon fill="#000000" stroke="#000000" points="383.6749,-744.9 376.2783,-737.3144 377.3301,-747.8569 383.6749,-744.9"/>
<text text-anchor="middle" x="546.9619" y="-1131.1161" font-family="Times,serif" font-size="14.00" fill="#000000">rely</text>
</g>
<!-- MCD_END -->
<g id="node19" class="node">
<title>MCD_END</title>
<polygon fill="none" stroke="#000000" points="610.2493,-1618.5906 556.2493,-1618.5906 556.2493,-1582.5906 610.2493,-1582.5906 610.2493,-1618.5906"/>
<text text-anchor="middle" x="583.2493" y="-1596.3906" font-family="Times,serif" font-size="14.00" fill="#000000">End</text>
</g>
<!-- MCD_VAT&#45;&gt;MCD_END -->
<g id="edge24" class="edge">
<title>MCD_VAT&#45;&gt;MCD_END</title>
<path fill="none" stroke="#000000" d="M716.5119,-1538.4861C689.8016,-1550.9339 648.9052,-1569.9929 619.4631,-1583.7138"/>
<polygon fill="#000000" stroke="#000000" points="617.9246,-1580.5694 610.339,-1587.966 620.8815,-1586.9142 617.9246,-1580.5694"/>
<text text-anchor="middle" x="657.1046" y="-1565.3" font-family="Times,serif" font-size="14.00" fill="#000000">rely</text>
</g>
<!-- ETHJoin_A -->
<g id="node23" class="node">
<title>ETHJoin_A</title>
<polygon fill="none" stroke="#000000" points="965.6354,-1246.9167 882.3268,-1246.9167 882.3268,-1210.9167 965.6354,-1210.9167 965.6354,-1246.9167"/>
<text text-anchor="middle" x="923.9811" y="-1224.7167" font-family="Times,serif" font-size="14.00" fill="#000000">ETHJoin_A</text>
</g>
<!-- MCD_VAT&#45;&gt;ETHJoin_A -->
<g id="edge39" class="edge">
<title>MCD_VAT&#45;&gt;ETHJoin_A</title>
<path fill="none" stroke="#000000" d="M754.7402,-1507.6743C785.2845,-1457.3646 871.2494,-1315.7714 907.5148,-1256.0385"/>
<polygon fill="#000000" stroke="#000000" points="910.6944,-1257.5455 912.8923,-1247.1811 904.7108,-1253.9127 910.6944,-1257.5455"/>
<text text-anchor="middle" x="820.2446" y="-1386.0564" font-family="Times,serif" font-size="14.00" fill="#000000">rely</text>
</g>
<!-- BATJoin_A -->
<g id="node25" class="node">
<title>BATJoin_A</title>
<polygon fill="none" stroke="#000000" points="958.7369,-1070.0243 873.8594,-1070.0243 873.8594,-1034.0243 958.7369,-1034.0243 958.7369,-1070.0243"/>
<text text-anchor="middle" x="916.2981" y="-1047.8243" font-family="Times,serif" font-size="14.00" fill="#000000">BATJoin_A</text>
</g>
<!-- MCD_VAT&#45;&gt;BATJoin_A -->
<g id="edge43" class="edge">
<title>MCD_VAT&#45;&gt;BATJoin_A</title>
<path fill="none" stroke="#000000" d="M750.3953,-1507.5165C776.8191,-1434.969 874.3883,-1167.0893 906.1984,-1079.7535"/>
<polygon fill="#000000" stroke="#000000" points="909.5253,-1080.8461 909.6591,-1070.2521 902.948,-1078.4504 909.5253,-1080.8461"/>
<text text-anchor="middle" x="817.4139" y="-1297.835" font-family="Times,serif" font-size="14.00" fill="#000000">rely</text>
</g>
<!-- SAIJoin_A -->
<g id="node28" class="node">
<title>SAIJoin_A</title>
<polygon fill="none" stroke="#000000" points="880.9978,-909.5372 802.0146,-909.5372 802.0146,-873.5372 880.9978,-873.5372 880.9978,-909.5372"/>
<text text-anchor="middle" x="841.5062" y="-887.3372" font-family="Times,serif" font-size="14.00" fill="#000000">SAIJoin_A</text>
</g>
<!-- MCD_VAT&#45;&gt;SAIJoin_A -->
<g id="edge47" class="edge">
<title>MCD_VAT&#45;&gt;SAIJoin_A</title>
<path fill="none" stroke="#000000" d="M746.557,-1507.5005C760.3146,-1418.2508 820.3923,-1028.5094 837.1512,-919.7892"/>
<polygon fill="#000000" stroke="#000000" points="840.6566,-920.0221 838.721,-909.6056 833.7383,-918.9556 840.6566,-920.0221"/>
<text text-anchor="middle" x="780.9712" y="-1217.8448" font-family="Times,serif" font-size="14.00" fill="#000000">rely</text>
</g>
<!-- MCD_DAI -->
<g id="node5" class="node">
<title>MCD_DAI</title>
<polygon fill="none" stroke="#000000" points="1457.9253,-1206.0618 1403.9253,-1206.0618 1403.9253,-1170.0618 1457.9253,-1170.0618 1457.9253,-1206.0618"/>
<text text-anchor="middle" x="1430.9253" y="-1183.8618" font-family="Times,serif" font-size="14.00" fill="#000000">Dai</text>
</g>
<!-- MCD_JOIN_DAI -->
<g id="node6" class="node">
<title>MCD_JOIN_DAI</title>
<polygon fill="none" stroke="#000000" points="1589.2475,-1206.0618 1530.1501,-1206.0618 1530.1501,-1170.0618 1589.2475,-1170.0618 1589.2475,-1206.0618"/>
<text text-anchor="middle" x="1559.6988" y="-1183.8618" font-family="Times,serif" font-size="14.00" fill="#000000">DaiJoin</text>
</g>
<!-- MCD_DAI&#45;&gt;MCD_JOIN_DAI -->
<g id="edge17" class="edge">
<title>MCD_DAI&#45;&gt;MCD_JOIN_DAI</title>
<path fill="none" stroke="#000000" d="M1458.2348,-1188.0618C1476.0898,-1188.0618 1499.7154,-1188.0618 1519.6763,-1188.0618"/>
<polygon fill="#000000" stroke="#000000" points="1519.7306,-1191.5619 1529.7305,-1188.0618 1519.7305,-1184.5619 1519.7306,-1191.5619"/>
<text text-anchor="middle" x="1478.0727" y="-1192.2618" font-family="Times,serif" font-size="14.00" fill="#000000">rely</text>
</g>
<!-- MCD_JUG&#45;&gt;MCD_PAUSE_PROXY -->
<g id="edge33" class="edge">
<title>MCD_JUG&#45;&gt;MCD_PAUSE_PROXY</title>
<path fill="none" stroke="#000000" d="M850.128,-1377.1945C781.7024,-1283.8293 468.55,-856.5396 387.1263,-745.4387"/>
<polygon fill="#000000" stroke="#000000" points="389.7647,-743.1179 381.0304,-737.1211 384.1187,-747.2558 389.7647,-743.1179"/>
<text text-anchor="middle" x="607.7442" y="-1065.5166" font-family="Times,serif" font-size="14.00" fill="#000000">rely</text>
</g>
<!-- MCD_POT&#45;&gt;MCD_PAUSE_PROXY -->
<g id="edge34" class="edge">
<title>MCD_POT&#45;&gt;MCD_PAUSE_PROXY</title>
<path fill="none" stroke="#000000" d="M683.7697,-767.6919C628.7943,-759.2176 503.3632,-739.8827 428.0994,-728.281"/>
<polygon fill="#000000" stroke="#000000" points="428.2414,-724.7616 417.8249,-726.6972 427.1749,-731.6799 428.2414,-724.7616"/>
<text text-anchor="middle" x="545.0517" y="-752.1865" font-family="Times,serif" font-size="14.00" fill="#000000">rely</text>
</g>
<!-- MCD_POT&#45;&gt;MCD_END -->
<g id="edge27" class="edge">
<title>MCD_POT&#45;&gt;MCD_END</title>
<path fill="none" stroke="#000000" d="M708.2048,-789.9674C691.7912,-896.447 607.7579,-1441.5959 587.5998,-1572.3673"/>
<polygon fill="#000000" stroke="#000000" points="584.1185,-1571.9783 586.0541,-1582.3948 591.0368,-1573.0448 584.1185,-1571.9783"/>
<text text-anchor="middle" x="637.0194" y="-1185.3674" font-family="Times,serif" font-size="14.00" fill="#000000">rely</text>
</g>
<!-- MCD_FLAP -->
<g id="node9" class="node">
<title>MCD_FLAP</title>
<polygon fill="none" stroke="#000000" points="236.5082,-811.7674 177.9813,-811.7674 177.9813,-775.7674 236.5082,-775.7674 236.5082,-811.7674"/>
<text text-anchor="middle" x="207.2447" y="-789.5674" font-family="Times,serif" font-size="14.00" fill="#000000">Flapper</text>
</g>
<!-- MCD_VOW -->
<g id="node11" class="node">
<title>MCD_VOW</title>
<polygon fill="none" stroke="#000000" points="54,-1108.6494 0,-1108.6494 0,-1072.6494 54,-1072.6494 54,-1108.6494"/>
<text text-anchor="middle" x="27" y="-1086.4494" font-family="Times,serif" font-size="14.00" fill="#000000">Vow</text>
</g>
<!-- MCD_FLAP&#45;&gt;MCD_VOW -->
<g id="edge20" class="edge">
<title>MCD_FLAP&#45;&gt;MCD_VOW</title>
<path fill="none" stroke="#000000" d="M196.241,-811.8918C165.6966,-862.2015 79.7317,-1003.7947 43.4663,-1063.5276"/>
<polygon fill="#000000" stroke="#000000" points="40.2867,-1062.0206 38.0888,-1072.385 46.2703,-1065.6534 40.2867,-1062.0206"/>
<text text-anchor="middle" x="130.7365" y="-941.9097" font-family="Times,serif" font-size="14.00" fill="#000000">rely</text>
</g>
<!-- MCD_FLAP&#45;&gt;MCD_PAUSE_PROXY -->
<g id="edge36" class="edge">
<title>MCD_FLAP&#45;&gt;MCD_PAUSE_PROXY</title>
<path fill="none" stroke="#000000" d="M236.6805,-780.0494C259.9123,-769.2227 292.7961,-753.8979 319.8112,-741.308"/>
<polygon fill="#000000" stroke="#000000" points="321.511,-744.3773 329.0965,-736.9807 318.554,-738.0325 321.511,-744.3773"/>
<text text-anchor="middle" x="267.363" y="-764.8787" font-family="Times,serif" font-size="14.00" fill="#000000">rely</text>
</g>
<!-- MCD_FLOP -->
<g id="node10" class="node">
<title>MCD_FLOP</title>
<polygon fill="none" stroke="#000000" points="117.1457,-942.282 58.0455,-942.282 58.0455,-906.282 117.1457,-906.282 117.1457,-942.282"/>
<text text-anchor="middle" x="87.5956" y="-920.082" font-family="Times,serif" font-size="14.00" fill="#000000">Flopper</text>
</g>
<!-- MCD_FLOP&#45;&gt;MCD_VOW -->
<g id="edge21" class="edge">
<title>MCD_FLOP&#45;&gt;MCD_VOW</title>
<path fill="none" stroke="#000000" d="M80.9955,-942.4029C70.3866,-971.5299 49.4718,-1028.9522 37.0155,-1063.1515"/>
<polygon fill="#000000" stroke="#000000" points="33.7258,-1061.9568 33.592,-1072.5508 40.3031,-1064.3525 33.7258,-1061.9568"/>
<text text-anchor="middle" x="48.1226" y="-1006.9772" font-family="Times,serif" font-size="14.00" fill="#000000">rely</text>
</g>
<!-- MCD_FLOP&#45;&gt;MCD_PAUSE_PROXY -->
<g id="edge37" class="edge">
<title>MCD_FLOP&#45;&gt;MCD_PAUSE_PROXY</title>
<path fill="none" stroke="#000000" d="M112.4558,-906.0624C163.0208,-869.0043 277.8568,-784.8432 334.6555,-743.2165"/>
<polygon fill="#000000" stroke="#000000" points="336.9305,-745.8886 342.9273,-737.1542 332.7926,-740.2425 336.9305,-745.8886"/>
<text text-anchor="middle" x="212.6728" y="-828.8394" font-family="Times,serif" font-size="14.00" fill="#000000">rely</text>
</g>
<!-- MCD_VOW&#45;&gt;MCD_CAT -->
<g id="edge23" class="edge">
<title>MCD_VOW&#45;&gt;MCD_CAT</title>
<path fill="none" stroke="#000000" d="M27.7933,-1108.9137C29.1367,-1139.8454 31.8684,-1202.7389 33.4588,-1239.3569"/>
<polygon fill="#000000" stroke="#000000" points="29.9633,-1239.5381 33.894,-1249.3768 36.9567,-1239.2343 29.9633,-1239.5381"/>
<text text-anchor="middle" x="19.7432" y="-1178.3353" font-family="Times,serif" font-size="14.00" fill="#000000">rely</text>
</g>
<!-- MCD_VOW&#45;&gt;MCD_PAUSE_PROXY -->
<g id="edge32" class="edge">
<title>MCD_VOW&#45;&gt;MCD_PAUSE_PROXY</title>
<path fill="none" stroke="#000000" d="M43.6649,-1072.4712C99.3713,-1011.706 279.2462,-815.4966 344.1241,-744.7271"/>
<polygon fill="#000000" stroke="#000000" points="346.9214,-746.8551 351.0991,-737.1187 341.7615,-742.1248 346.9214,-746.8551"/>
<text text-anchor="middle" x="183.0116" y="-912.7991" font-family="Times,serif" font-size="14.00" fill="#000000">rely</text>
</g>
<!-- MCD_VOW&#45;&gt;MCD_END -->
<g id="edge26" class="edge">
<title>MCD_VOW&#45;&gt;MCD_END</title>
<path fill="none" stroke="#000000" d="M46.7972,-1108.7985C130.8477,-1185.8517 458.28,-1486.0251 555.7362,-1575.368"/>
<polygon fill="#000000" stroke="#000000" points="553.6632,-1578.2158 563.3996,-1582.3934 558.3935,-1573.0559 553.6632,-1578.2158"/>
<text text-anchor="middle" x="290.3838" y="-1346.2832" font-family="Times,serif" font-size="14.00" fill="#000000">rely</text>
</g>
<!-- MCD_CAT&#45;&gt;MCD_PAUSE_PROXY -->
<g id="edge31" class="edge">
<title>MCD_CAT&#45;&gt;MCD_PAUSE_PROXY</title>
<path fill="none" stroke="#000000" d="M45.7641,-1249.29C94.8639,-1168.4176 292.9527,-842.1445 351.4131,-745.8542"/>
<polygon fill="#000000" stroke="#000000" points="354.5802,-747.3818 356.7781,-737.0175 348.5966,-743.749 354.5802,-747.3818"/>
<text text-anchor="middle" x="187.7057" y="-1001.7721" font-family="Times,serif" font-size="14.00" fill="#000000">rely</text>
</g>
<!-- MCD_CAT&#45;&gt;MCD_END -->
<g id="edge25" class="edge">
<title>MCD_CAT&#45;&gt;MCD_END</title>
<path fill="none" stroke="#000000" d="M61.8865,-1284.0577C152.6494,-1339.1622 445.1111,-1516.7234 547.4684,-1578.8671"/>
<polygon fill="#000000" stroke="#000000" points="545.8415,-1581.9739 556.2059,-1584.1719 549.4743,-1575.9904 545.8415,-1581.9739"/>
<text text-anchor="middle" x="293.7945" y="-1435.6624" font-family="Times,serif" font-size="14.00" fill="#000000">rely</text>
</g>
<!-- MCD_SPOT&#45;&gt;MCD_PAUSE_PROXY -->
<g id="edge35" class="edge">
<title>MCD_SPOT&#45;&gt;MCD_PAUSE_PROXY</title>
<path fill="none" stroke="#000000" d="M516.2034,-712.5269C492.5282,-713.5552 457.9883,-715.0554 428.1794,-716.3501"/>
<polygon fill="#000000" stroke="#000000" points="427.6972,-712.8676 417.8585,-716.7983 428.001,-719.861 427.6972,-712.8676"/>
<text text-anchor="middle" x="461.3085" y="-718.6385" font-family="Times,serif" font-size="14.00" fill="#000000">rely</text>
</g>
<!-- MCD_SPOT&#45;&gt;MCD_END -->
<g id="edge28" class="edge">
<title>MCD_SPOT&#45;&gt;MCD_END</title>
<path fill="none" stroke="#000000" d="M545.4133,-729.4595C550.2674,-841.2197 576.0669,-1435.2246 582.0221,-1572.3368"/>
<polygon fill="#000000" stroke="#000000" points="578.5307,-1572.6138 582.4615,-1582.4524 585.5242,-1572.31 578.5307,-1572.6138"/>
<text text-anchor="middle" x="552.8348" y="-1155.0982" font-family="Times,serif" font-size="14.00" fill="#000000">rely</text>
</g>
<!-- MCD_GOV -->
<g id="node14" class="node">
<title>MCD_GOV</title>
<polygon fill="none" stroke="#000000" points="1578.3997,-884.0618 1524.3997,-884.0618 1524.3997,-848.0618 1578.3997,-848.0618 1578.3997,-884.0618"/>
<text text-anchor="middle" x="1551.3997" y="-861.8618" font-family="Times,serif" font-size="14.00" fill="#000000">MKR</text>
</g>
<!-- MCD_GOV&#45;&gt;deployer -->
<g id="edge15" class="edge">
<title>MCD_GOV&#45;&gt;deployer</title>
<path fill="none" stroke="#000000" d="M1524.3475,-866.0618C1515.3396,-866.0618 1505.0733,-866.0618 1495.1729,-866.0618"/>
<polygon fill="#000000" stroke="#000000" points="1495.0561,-862.5619 1485.0561,-866.0618 1495.056,-869.5619 1495.0561,-862.5619"/>
<text text-anchor="middle" x="1501.0148" y="-853.4618" font-family="Times,serif" font-size="14.00" fill="#000000">owner</text>
</g>
<!-- 0x2F1b834D8Bb7f469a7C75cc75873CD94EFc363AD -->
<g id="node31" class="node">
<title>0x2F1b834D8Bb7f469a7C75cc75873CD94EFc363AD</title>
<polygon fill="none" stroke="#000000" points="1977.5092,-884.0618 1650.3632,-884.0618 1650.3632,-848.0618 1977.5092,-848.0618 1977.5092,-884.0618"/>
<text text-anchor="middle" x="1813.9362" y="-861.8618" font-family="Times,serif" font-size="14.00" fill="#000000">0x2F1b834D8Bb7f469a7C75cc75873CD94EFc363AD</text>
</g>
<!-- MCD_GOV&#45;&gt;0x2F1b834D8Bb7f469a7C75cc75873CD94EFc363AD -->
<g id="edge7" class="edge">
<title>MCD_GOV&#45;&gt;0x2F1b834D8Bb7f469a7C75cc75873CD94EFc363AD</title>
<path fill="none" stroke="#000000" d="M1578.5069,-866.0618C1594.4411,-866.0618 1616.0902,-866.0618 1639.8398,-866.0618"/>
<polygon fill="#000000" stroke="#000000" points="1640.1363,-869.5619 1650.1363,-866.0618 1640.1362,-862.5619 1640.1363,-869.5619"/>
<text text-anchor="middle" x="1621.8101" y="-853.4618" font-family="Times,serif" font-size="14.00" fill="#000000">authority</text>
</g>
<!-- MCD_PAUSE -->
<g id="node15" class="node">
<title>MCD_PAUSE</title>
<polygon fill="none" stroke="#000000" points="338.4093,-481.8403 272.315,-481.8403 272.315,-445.8403 338.4093,-445.8403 338.4093,-481.8403"/>
<text text-anchor="middle" x="305.3621" y="-459.6403" font-family="Times,serif" font-size="14.00" fill="#000000">DSPause</text>
</g>
<!-- MCD_PAUSE&#45;&gt;zero -->
<g id="edge14" class="edge">
<title>MCD_PAUSE&#45;&gt;zero</title>
<path fill="none" stroke="#000000" d="M338.4354,-478.2741C480.8731,-540.437 1041.4896,-785.102 1190.4751,-850.1225"/>
<polygon fill="#000000" stroke="#000000" points="1189.1192,-853.3495 1199.6844,-854.1416 1191.9192,-846.9339 1189.1192,-853.3495"/>
<text text-anchor="middle" x="746.9643" y="-668.3983" font-family="Times,serif" font-size="14.00" fill="#000000">owner</text>
</g>
<!-- MCD_ADM -->
<g id="node17" class="node">
<title>MCD_ADM</title>
<polygon fill="none" stroke="#000000" points="316.9091,-396.1623 251.9259,-396.1623 251.9259,-360.1623 316.9091,-360.1623 316.9091,-396.1623"/>
<text text-anchor="middle" x="284.4175" y="-373.9623" font-family="Times,serif" font-size="14.00" fill="#000000">DSChief</text>
</g>
<!-- MCD_PAUSE&#45;&gt;MCD_ADM -->
<g id="edge6" class="edge">
<title>MCD_PAUSE&#45;&gt;MCD_ADM</title>
<path fill="none" stroke="#000000" d="M300.9203,-445.6702C298.1157,-434.1973 294.4357,-419.1436 291.2626,-406.1634"/>
<polygon fill="#000000" stroke="#000000" points="294.6275,-405.189 288.8529,-396.3062 287.8278,-406.8513 294.6275,-405.189"/>
<text text-anchor="middle" x="270.818" y="-430.1168" font-family="Times,serif" font-size="14.00" fill="#000000">authority</text>
</g>
<!-- MCD_PAUSE_PROXY&#45;&gt;MCD_PAUSE -->
<g id="edge13" class="edge">
<title>MCD_PAUSE_PROXY&#45;&gt;MCD_PAUSE</title>
<path fill="none" stroke="#000000" d="M363.2464,-700.6268C352.4804,-656.5865 325.1187,-544.6583 312.2501,-492.0169"/>
<polygon fill="#000000" stroke="#000000" points="315.5816,-490.9055 309.807,-482.0227 308.7818,-492.5678 315.5816,-490.9055"/>
<text text-anchor="middle" x="320.2573" y="-600.5218" font-family="Times,serif" font-size="14.00" fill="#000000">owner</text>
</g>
<!-- MCD_ADM&#45;&gt;zero -->
<g id="edge12" class="edge">
<title>MCD_ADM&#45;&gt;zero</title>
<path fill="none" stroke="#000000" d="M317.137,-395.0986C461.4042,-469.7743 1040.1893,-769.3658 1190.9478,-847.4015"/>
<polygon fill="#000000" stroke="#000000" points="1189.3566,-850.5189 1199.8464,-852.0076 1192.5745,-844.3024 1189.3566,-850.5189"/>
<text text-anchor="middle" x="736.5515" y="-625.45" font-family="Times,serif" font-size="14.00" fill="#000000">owner</text>
</g>
<!-- MCD_ADM&#45;&gt;MCD_ADM -->
<g id="edge5" class="edge">
<title>MCD_ADM&#45;&gt;MCD_ADM</title>
<path fill="none" stroke="#000000" d="M316.9573,-384.9057C327.0151,-384.7695 334.9133,-382.5217 334.9133,-378.1623 334.9133,-375.4377 331.8281,-373.5379 327.0586,-372.4629"/>
<polygon fill="#000000" stroke="#000000" points="327.2642,-368.9656 316.9573,-371.4189 326.5444,-375.9285 327.2642,-368.9656"/>
<text text-anchor="middle" x="360.1868" y="-373.9623" font-family="Times,serif" font-size="14.00" fill="#000000">authority</text>
</g>
<!-- PROXY_DEPLOYER -->
<g id="node18" class="node">
<title>PROXY_DEPLOYER</title>
<polygon fill="none" stroke="#000000" points="1392.229,-771.3609 1287.1686,-771.3609 1287.1686,-735.3609 1392.229,-735.3609 1392.229,-771.3609"/>
<text text-anchor="middle" x="1339.6988" y="-749.1609" font-family="Times,serif" font-size="14.00" fill="#000000">Proxy Deployer</text>
</g>
<!-- PROXY_DEPLOYER&#45;&gt;zero -->
<g id="edge4" class="edge">
<title>PROXY_DEPLOYER&#45;&gt;zero</title>
<path fill="none" stroke="#000000" d="M1321.5914,-771.4682C1302.8605,-790.1991 1273.4556,-819.6041 1252.4032,-840.6564"/>
<polygon fill="#000000" stroke="#000000" points="1249.6565,-838.4534 1245.0603,-847.9994 1254.6063,-843.4032 1249.6565,-838.4534"/>
<text text-anchor="middle" x="1261.7238" y="-810.2623" font-family="Times,serif" font-size="14.00" fill="#000000">authority</text>
</g>
<!-- PROXY_DEPLOYER&#45;&gt;deployer -->
<g id="edge11" class="edge">
<title>PROXY_DEPLOYER&#45;&gt;deployer</title>
<path fill="none" stroke="#000000" d="M1357.8061,-771.4682C1376.5371,-790.1991 1405.942,-819.6041 1426.9943,-840.6564"/>
<polygon fill="#000000" stroke="#000000" points="1424.7913,-843.4032 1434.3373,-847.9994 1429.7411,-838.4534 1424.7913,-843.4032"/>
<text text-anchor="middle" x="1374.9093" y="-810.2623" font-family="Times,serif" font-size="14.00" fill="#000000">owner</text>
</g>
<!-- MCD_END&#45;&gt;MCD_PAUSE_PROXY -->
<g id="edge38" class="edge">
<title>MCD_END&#45;&gt;MCD_PAUSE_PROXY</title>
<path fill="none" stroke="#000000" d="M578.8466,-1582.5805C551.7912,-1471.9052 408.1173,-884.1801 374.6867,-747.4257"/>
<polygon fill="#000000" stroke="#000000" points="377.9924,-746.2087 372.2177,-737.3259 371.1926,-747.871 377.9924,-746.2087"/>
<text text-anchor="middle" x="465.8837" y="-1169.2031" font-family="Times,serif" font-size="14.00" fill="#000000">rely</text>
</g>
<!-- MCD_ESM -->
<g id="node20" class="node">
<title>MCD_ESM</title>
<polygon fill="none" stroke="#000000" points="633.7583,-1714.7588 579.7583,-1714.7588 579.7583,-1678.7588 633.7583,-1678.7588 633.7583,-1714.7588"/>
<text text-anchor="middle" x="606.7583" y="-1692.5588" font-family="Times,serif" font-size="14.00" fill="#000000">ESM</text>
</g>
<!-- MCD_END&#45;&gt;MCD_ESM -->
<g id="edge29" class="edge">
<title>MCD_END&#45;&gt;MCD_ESM</title>
<path fill="none" stroke="#000000" d="M587.6711,-1618.6791C591.1189,-1632.783 595.9681,-1652.6196 599.9159,-1668.7688"/>
<polygon fill="#000000" stroke="#000000" points="596.5817,-1669.8686 602.3563,-1678.7514 603.3814,-1668.2063 596.5817,-1669.8686"/>
<text text-anchor="middle" x="582.9106" y="-1647.924" font-family="Times,serif" font-size="14.00" fill="#000000">rely</text>
</g>
<!-- SAI_TUB -->
<g id="node21" class="node">
<title>SAI_TUB</title>
<polygon fill="none" stroke="#000000" points="880.817,-344.2497 823.9328,-344.2497 823.9328,-308.2497 880.817,-308.2497 880.817,-344.2497"/>
<text text-anchor="middle" x="852.3749" y="-322.0497" font-family="Times,serif" font-size="14.00" fill="#000000">SaiTub</text>
</g>
<!-- SAI_TUB&#45;&gt;zero -->
<g id="edge10" class="edge">
<title>SAI_TUB&#45;&gt;zero</title>
<path fill="none" stroke="#000000" d="M865.0539,-344.5195C920.586,-424.5383 1142.514,-744.3249 1208.4399,-839.3207"/>
<polygon fill="#000000" stroke="#000000" points="1205.7451,-841.5766 1214.322,-847.7965 1211.4959,-837.5855 1205.7451,-841.5766"/>
<text text-anchor="middle" x="1019.256" y="-596.1201" font-family="Times,serif" font-size="14.00" fill="#000000">owner</text>
</g>
<!-- 0x6a884c7aF48e29a20be9Ff04bddE112b5596FcEE -->
<g id="node30" class="node">
<title>0x6a884c7aF48e29a20be9Ff04bddE112b5596FcEE</title>
<polygon fill="none" stroke="#000000" points="941.103,-36 631.7661,-36 631.7661,0 941.103,0 941.103,-36"/>
<text text-anchor="middle" x="786.4346" y="-13.8" font-family="Times,serif" font-size="14.00" fill="#000000">0x6a884c7aF48e29a20be9Ff04bddE112b5596FcEE</text>
</g>
<!-- SAI_TUB&#45;&gt;0x6a884c7aF48e29a20be9Ff04bddE112b5596FcEE -->
<g id="edge3" class="edge">
<title>SAI_TUB&#45;&gt;0x6a884c7aF48e29a20be9Ff04bddE112b5596FcEE</title>
<path fill="none" stroke="#000000" d="M848.4475,-307.8904C837.3608,-256.0635 805.7667,-108.3717 792.4597,-46.1657"/>
<polygon fill="#000000" stroke="#000000" points="795.8559,-45.3097 790.3414,-36.2631 789.0107,-46.774 795.8559,-45.3097"/>
<text text-anchor="middle" x="795.1801" y="-181.2281" font-family="Times,serif" font-size="14.00" fill="#000000">authority</text>
</g>
<!-- MIGRATION -->
<g id="node22" class="node">
<title>MIGRATION</title>
<polygon fill="none" stroke="#000000" points="1006.5779,-831.9082 888.2808,-831.9082 888.2808,-795.9082 1006.5779,-795.9082 1006.5779,-831.9082"/>
<text text-anchor="middle" x="947.4294" y="-809.7082" font-family="Times,serif" font-size="14.00" fill="#000000">ScdMcdMigration</text>
</g>
<!-- ETHJoin_A&#45;&gt;MCD_PAUSE_PROXY -->
<g id="edge53" class="edge">
<title>ETHJoin_A&#45;&gt;MCD_PAUSE_PROXY</title>
<path fill="none" stroke="#000000" d="M904.1839,-1210.7677C820.1334,-1133.7144 492.7011,-833.541 395.2449,-744.1981"/>
<polygon fill="#000000" stroke="#000000" points="397.3179,-741.3503 387.5815,-737.1727 392.5876,-746.5102 397.3179,-741.3503"/>
<text text-anchor="middle" x="638.8315" y="-981.6829" font-family="Times,serif" font-size="14.00" fill="#000000">rely</text>
</g>
<!-- Flipper_ETH&#45;A -->
<g id="node24" class="node">
<title>Flipper_ETH&#45;A</title>
<polygon fill="none" stroke="#000000" points="162.3938,-1446.0289 56.5561,-1446.0289 56.5561,-1410.0289 162.3938,-1410.0289 162.3938,-1446.0289"/>
<text text-anchor="middle" x="109.4749" y="-1423.8289" font-family="Times,serif" font-size="14.00" fill="#000000">Flipper_ETH&#45;A</text>
</g>
<!-- Flipper_ETH&#45;A&#45;&gt;MCD_CAT -->
<g id="edge40" class="edge">
<title>Flipper_ETH&#45;A&#45;&gt;MCD_CAT</title>
<path fill="none" stroke="#000000" d="M101.0407,-1409.9309C88.023,-1381.9978 62.941,-1328.1772 47.6188,-1295.2992"/>
<polygon fill="#000000" stroke="#000000" points="50.5977,-1293.4054 43.2011,-1285.8198 44.2529,-1296.3623 50.5977,-1293.4054"/>
<text text-anchor="middle" x="63.4469" y="-1356.815" font-family="Times,serif" font-size="14.00" fill="#000000">rely</text>
</g>
<!-- Flipper_ETH&#45;A&#45;&gt;MCD_PAUSE_PROXY -->
<g id="edge42" class="edge">
<title>Flipper_ETH&#45;A&#45;&gt;MCD_PAUSE_PROXY</title>
<path fill="none" stroke="#000000" d="M116.1184,-1409.7891C151.2188,-1313.4197 315.0754,-863.5456 357.6187,-746.7415"/>
<polygon fill="#000000" stroke="#000000" points="360.9986,-747.6887 361.1323,-737.0947 354.4213,-745.293 360.9986,-747.6887"/>
<text text-anchor="middle" x="225.9856" y="-1082.4653" font-family="Times,serif" font-size="14.00" fill="#000000">rely</text>
</g>
<!-- Flipper_ETH&#45;A&#45;&gt;MCD_END -->
<g id="edge41" class="edge">
<title>Flipper_ETH&#45;A&#45;&gt;MCD_END</title>
<path fill="none" stroke="#000000" d="M159.2816,-1446.1699C254.9382,-1481.0106 462.3346,-1556.5501 546.5729,-1587.2321"/>
<polygon fill="#000000" stroke="#000000" points="545.6256,-1590.6119 556.2195,-1590.7456 548.0212,-1584.0346 545.6256,-1590.6119"/>
<text text-anchor="middle" x="342.0444" y="-1520.901" font-family="Times,serif" font-size="14.00" fill="#000000">rely</text>
</g>
<!-- BATJoin_A&#45;&gt;MCD_PAUSE_PROXY -->
<g id="edge54" class="edge">
<title>BATJoin_A&#45;&gt;MCD_PAUSE_PROXY</title>
<path fill="none" stroke="#000000" d="M886.4152,-1033.8817C793.5412,-977.4954 509.9536,-805.322 406.2425,-742.3563"/>
<polygon fill="#000000" stroke="#000000" points="408.0062,-739.3326 397.6418,-737.1346 404.3734,-745.3161 408.0062,-739.3326"/>
<text text-anchor="middle" x="635.4459" y="-892.319" font-family="Times,serif" font-size="14.00" fill="#000000">rely</text>
</g>
<!-- Flipper_BAT&#45;A -->
<g id="node26" class="node">
<title>Flipper_BAT&#45;A</title>
<polygon fill="none" stroke="#000000" points="293.1916,-1565.678 186.7873,-1565.678 186.7873,-1529.678 293.1916,-1529.678 293.1916,-1565.678"/>
<text text-anchor="middle" x="239.9895" y="-1543.478" font-family="Times,serif" font-size="14.00" fill="#000000">Flipper_BAT&#45;A</text>
</g>
<!-- Flipper_BAT&#45;A&#45;&gt;MCD_CAT -->
<g id="edge44" class="edge">
<title>Flipper_BAT&#45;A&#45;&gt;MCD_CAT</title>
<path fill="none" stroke="#000000" d="M226.5187,-1529.2975C191.1228,-1481.0005 95.381,-1350.3629 54.08,-1294.0085"/>
<polygon fill="#000000" stroke="#000000" points="56.6708,-1291.6226 47.9364,-1285.6258 51.0247,-1295.7605 56.6708,-1291.6226"/>
<text text-anchor="middle" x="129.4164" y="-1399.053" font-family="Times,serif" font-size="14.00" fill="#000000">rely</text>
</g>
<!-- Flipper_BAT&#45;A&#45;&gt;MCD_PAUSE_PROXY -->
<g id="edge46" class="edge">
<title>Flipper_BAT&#45;A&#45;&gt;MCD_PAUSE_PROXY</title>
<path fill="none" stroke="#000000" d="M242.7763,-1529.5987C259.1899,-1423.1191 343.2232,-877.9702 363.3813,-747.1988"/>
<polygon fill="#000000" stroke="#000000" points="366.8626,-747.5878 364.927,-737.1713 359.9443,-746.5213 366.8626,-747.5878"/>
<text text-anchor="middle" x="292.1959" y="-1142.5987" font-family="Times,serif" font-size="14.00" fill="#000000">rely</text>
</g>
<!-- Flipper_BAT&#45;A&#45;&gt;MCD_END -->
<g id="edge45" class="edge">
<title>Flipper_BAT&#45;A&#45;&gt;MCD_END</title>
<path fill="none" stroke="#000000" d="M293.2472,-1555.8875C363.3842,-1566.699 484.9425,-1585.4369 545.9944,-1594.8479"/>
<polygon fill="#000000" stroke="#000000" points="545.5445,-1598.3198 555.961,-1596.3842 546.611,-1591.4015 545.5445,-1598.3198"/>
<text text-anchor="middle" x="408.7379" y="-1562.7677" font-family="Times,serif" font-size="14.00" fill="#000000">rely</text>
</g>
<!-- SAI -->
<g id="node27" class="node">
<title>SAI</title>
<polygon fill="none" stroke="#000000" points="579.4527,-247.2308 525.4527,-247.2308 525.4527,-211.2308 579.4527,-211.2308 579.4527,-247.2308"/>
<text text-anchor="middle" x="552.4527" y="-225.0308" font-family="Times,serif" font-size="14.00" fill="#000000">SAI</text>
</g>
<!-- SAI&#45;&gt;zero -->
<g id="edge2" class="edge">
<title>SAI&#45;&gt;zero</title>
<path fill="none" stroke="#000000" d="M571.5539,-247.2641C666.7155,-337.1052 1089.4528,-736.2069 1200.3078,-840.864"/>
<polygon fill="#000000" stroke="#000000" points="1198.0675,-843.5623 1207.7416,-847.8822 1202.8729,-838.4723 1198.0675,-843.5623"/>
<text text-anchor="middle" x="868.44" y="-548.2641" font-family="Times,serif" font-size="14.00" fill="#000000">owner</text>
</g>
<!-- SAI&#45;&gt;0x6a884c7aF48e29a20be9Ff04bddE112b5596FcEE -->
<g id="edge9" class="edge">
<title>SAI&#45;&gt;0x6a884c7aF48e29a20be9Ff04bddE112b5596FcEE</title>
<path fill="none" stroke="#000000" d="M572.4018,-211.2214C614.1717,-173.513 710.9077,-86.1831 758.6955,-43.0419"/>
<polygon fill="#000000" stroke="#000000" points="761.1262,-45.5628 766.2035,-36.2639 756.4354,-40.3669 761.1262,-45.5628"/>
<text text-anchor="middle" x="640.2752" y="-131.3316" font-family="Times,serif" font-size="14.00" fill="#000000">authority</text>
</g>
<!-- SAIJoin_A&#45;&gt;MCD_PAUSE_PROXY -->
<g id="edge52" class="edge">
<title>SAIJoin_A&#45;&gt;MCD_PAUSE_PROXY</title>
<path fill="none" stroke="#000000" d="M801.9273,-877.1215C718.6337,-846.7837 524.8637,-776.2073 426.8143,-740.495"/>
<polygon fill="#000000" stroke="#000000" points="427.9393,-737.1798 417.3453,-737.0461 425.5436,-743.7571 427.9393,-737.1798"/>
<text text-anchor="middle" x="603.4879" y="-813.0082" font-family="Times,serif" font-size="14.00" fill="#000000">rely</text>
</g>
<!-- SAIJoin_A&#45;&gt;MIGRATION -->
<g id="edge51" class="edge">
<title>SAIJoin_A&#45;&gt;MIGRATION</title>
<path fill="none" stroke="#000000" d="M866.0733,-873.5325C880.4086,-863.0264 898.6842,-849.6325 914.2812,-838.2018"/>
<polygon fill="#000000" stroke="#000000" points="916.6317,-840.8186 922.6285,-832.0842 912.4937,-835.1725 916.6317,-840.8186"/>
<text text-anchor="middle" x="879.2943" y="-860.0671" font-family="Times,serif" font-size="14.00" fill="#000000">rely</text>
</g>
<!-- Flipper_SAI&#45;A -->
<g id="node29" class="node">
<title>Flipper_SAI&#45;A</title>
<polygon fill="none" stroke="#000000" points="456.6132,-1626.2736 356.1006,-1626.2736 356.1006,-1590.2736 456.6132,-1590.2736 456.6132,-1626.2736"/>
<text text-anchor="middle" x="406.3569" y="-1604.0736" font-family="Times,serif" font-size="14.00" fill="#000000">Flipper_SAI&#45;A</text>
</g>
<!-- Flipper_SAI&#45;A&#45;&gt;MCD_CAT -->
<g id="edge48" class="edge">
<title>Flipper_SAI&#45;A&#45;&gt;MCD_CAT</title>
<path fill="none" stroke="#000000" d="M386.6365,-1590.195C324.6433,-1533.3627 133.5879,-1358.2128 62.077,-1292.6552"/>
<polygon fill="#000000" stroke="#000000" points="64.0923,-1289.7545 54.3559,-1285.5769 59.362,-1294.9144 64.0923,-1289.7545"/>
<text text-anchor="middle" x="213.4738" y="-1445.6251" font-family="Times,serif" font-size="14.00" fill="#000000">rely</text>
</g>
<!-- Flipper_SAI&#45;A&#45;&gt;MCD_PAUSE_PROXY -->
<g id="edge50" class="edge">
<title>Flipper_SAI&#45;A&#45;&gt;MCD_PAUSE_PROXY</title>
<path fill="none" stroke="#000000" d="M405.5678,-1590.1066C400.7137,-1478.3464 374.9142,-884.3415 368.959,-747.2293"/>
<polygon fill="#000000" stroke="#000000" points="372.4504,-746.9524 368.5196,-737.1137 365.457,-747.2562 372.4504,-746.9524"/>
<text text-anchor="middle" x="376.3805" y="-1172.8679" font-family="Times,serif" font-size="14.00" fill="#000000">rely</text>
</g>
<!-- Flipper_SAI&#45;A&#45;&gt;MCD_END -->
<g id="edge49" class="edge">
<title>Flipper_SAI&#45;A&#45;&gt;MCD_END</title>
<path fill="none" stroke="#000000" d="M457.0471,-1606.072C485.4017,-1604.8404 520.1297,-1603.3321 545.9731,-1602.2096"/>
<polygon fill="#000000" stroke="#000000" points="546.2705,-1605.7001 556.1092,-1601.7694 545.9667,-1598.7067 546.2705,-1605.7001"/>
<text text-anchor="middle" x="490.6272" y="-1608.3408" font-family="Times,serif" font-size="14.00" fill="#000000">rely</text>
</g>
<!-- isolated -->
<g id="node32" class="node">
<title>isolated</title>
<polygon fill="none" stroke="#000000" points="1884.4873,-644.0618 1286.9103,-644.0618 1286.9103,-468.0618 1884.4873,-468.0618 1884.4873,-644.0618"/>
<text text-anchor="middle" x="1585.6988" y="-627.4618" font-family="Times,serif" font-size="14.00" fill="#000000">Isolated Contracts:&#13;</text>
<text text-anchor="middle" x="1585.6988" y="-610.6618" font-family="Times,serif" font-size="14.00" fill="#000000"> MULTICALL, FAUCET, GOV_GUARD, MCD_IOU, VOTE_PROXY_FACTORY,&#13;</text>
<text text-anchor="middle" x="1585.6988" y="-593.8618" font-family="Times,serif" font-size="14.00" fill="#000000"> PROXY_ACTIONS, PROXY_ACTIONS_END, PROXY_ACTIONS_DSR, CDP_MANAGER,&#13;</text>
<text text-anchor="middle" x="1585.6988" y="-577.0618" font-family="Times,serif" font-size="14.00" fill="#000000"> GET_CDPS, PROXY_FACTORY, PROXY_REGISTRY, PROXY_PAUSE_ACTIONS,&#13;</text>
<text text-anchor="middle" x="1585.6988" y="-560.2618" font-family="Times,serif" font-size="14.00" fill="#000000"> MCD_GOV_ACTIONS, MIGRATION_PROXY_ACTIONS, ETH, PIP_ETH,&#13;</text>
<text text-anchor="middle" x="1585.6988" y="-543.4618" font-family="Times,serif" font-size="14.00" fill="#000000"> BAT, PIP_BAT, PIP_SAI, vatFab,&#13;</text>
<text text-anchor="middle" x="1585.6988" y="-526.6618" font-family="Times,serif" font-size="14.00" fill="#000000"> jugFab, vowFab, catFab, daiFab,&#13;</text>
<text text-anchor="middle" x="1585.6988" y="-509.8618" font-family="Times,serif" font-size="14.00" fill="#000000"> daiJoinFab, flapFab, flopFab, flipFab,&#13;</text>
<text text-anchor="middle" x="1585.6988" y="-493.0618" font-family="Times,serif" font-size="14.00" fill="#000000"> spotFab, potFab, pauseFab, 0x000000000000000000000000f493f2f20e19c86e,&#13;</text>
<text text-anchor="middle" x="1585.6988" y="-476.2618" font-family="Times,serif" font-size="14.00" fill="#000000"> 0x00000000000000000000000093c3a7a88e7fa616, 0xb3361399294964bfe4b415e9d9f0baa022b08fad</text>
</g>
</g>
</svg>
