<?xml version="1.0" encoding="UTF-8" standalone="no"?>
<!DOCTYPE svg PUBLIC "-//W3C//DTD SVG 1.1//EN"
 "http://www.w3.org/Graphics/SVG/1.1/DTD/svg11.dtd">
<!-- Generated by graphviz version 2.40.1 (20161225.0304)
 -->
<!-- Title: %0 Pages: 1 -->
<svg width="2972pt" height="1858pt"
 viewBox="0.00 0.00 2972.32 1858.15" xmlns="http://www.w3.org/2000/svg" xmlns:xlink="http://www.w3.org/1999/xlink">
<g id="graph0" class="graph" transform="scale(1 1) rotate(0) translate(4 1854.1496)">
<title>%0</title>
<polygon fill="#ffffff" stroke="transparent" points="-4,4 -4,-1854.1496 2968.3168,-1854.1496 2968.3168,4 -4,4"/>
<!-- zero -->
<g id="node1" class="node">
<title>zero</title>
<polygon fill="none" stroke="#000000" points="1498.9591,-1153.5504 1444.9591,-1153.5504 1444.9591,-1117.5504 1498.9591,-1117.5504 1498.9591,-1153.5504"/>
<text text-anchor="middle" x="1471.9591" y="-1131.3504" font-family="Times,serif" font-size="14.00" fill="#000000">zero</text>
</g>
<!-- deployer -->
<g id="node2" class="node">
<title>deployer</title>
<polygon fill="none" stroke="#000000" points="918.2274,-1558.1834 853.2666,-1558.1834 853.2666,-1522.1834 918.2274,-1522.1834 918.2274,-1558.1834"/>
<text text-anchor="middle" x="885.747" y="-1535.9834" font-family="Times,serif" font-size="14.00" fill="#000000">deployer</text>
</g>
<!-- MCD_DEPLOY -->
<g id="node3" class="node">
<title>MCD_DEPLOY</title>
<polygon fill="none" stroke="#000000" points="2593.8604,-1721.7918 2515.4446,-1721.7918 2515.4446,-1685.7918 2593.8604,-1685.7918 2593.8604,-1721.7918"/>
<text text-anchor="middle" x="2554.6525" y="-1699.5918" font-family="Times,serif" font-size="14.00" fill="#000000">DssDeploy</text>
</g>
<!-- MCD_DEPLOY&#45;&gt;zero -->
<g id="edge9" class="edge">
<title>MCD_DEPLOY&#45;&gt;zero</title>
<path fill="none" stroke="#000000" d="M2520.1592,-1685.6883C2358.1847,-1600.6775 1674.0216,-1241.601 1508.2476,-1154.5961"/>
<polygon fill="#000000" stroke="#000000" points="1509.4473,-1151.273 1498.9662,-1149.7248 1506.1942,-1157.4712 1509.4473,-1151.273"/>
<text text-anchor="middle" x="1996.7125" y="-1424.3422" font-family="Times,serif" font-size="14.00" fill="#000000">owner</text>
</g>
<!-- 0x5E2418A58E5d690C752F0D61d8cCBe8258B8D11e -->
<g id="node36" class="node">
<title>0x5E2418A58E5d690C752F0D61d8cCBe8258B8D11e</title>
<polygon fill="none" stroke="#000000" points="2964.4157,-1850.1496 2634.02,-1850.1496 2634.02,-1814.1496 2964.4157,-1814.1496 2964.4157,-1850.1496"/>
<text text-anchor="middle" x="2799.2179" y="-1827.9496" font-family="Times,serif" font-size="14.00" fill="#000000">0x5E2418A58E5d690C752F0D61d8cCBe8258B8D11e</text>
</g>
<!-- MCD_DEPLOY&#45;&gt;0x5E2418A58E5d690C752F0D61d8cCBe8258B8D11e -->
<g id="edge8" class="edge">
<title>MCD_DEPLOY&#45;&gt;0x5E2418A58E5d690C752F0D61d8cCBe8258B8D11e</title>
<path fill="none" stroke="#000000" d="M2589.1741,-1721.9101C2632.8717,-1744.8444 2708.1712,-1784.3646 2755.7445,-1809.333"/>
<polygon fill="#000000" stroke="#000000" points="2754.3908,-1812.5753 2764.8719,-1814.1234 2757.6439,-1806.3771 2754.3908,-1812.5753"/>
<text text-anchor="middle" x="2647.1858" y="-1769.8215" font-family="Times,serif" font-size="14.00" fill="#000000">authority</text>
</g>
<!-- MCD_VAT -->
<g id="node4" class="node">
<title>MCD_VAT</title>
<polygon fill="none" stroke="#000000" points="1586.7423,-797.4 1532.7423,-797.4 1532.7423,-761.4 1586.7423,-761.4 1586.7423,-797.4"/>
<text text-anchor="middle" x="1559.7423" y="-775.2" font-family="Times,serif" font-size="14.00" fill="#000000">Vat</text>
</g>
<!-- MCD_JUG -->
<g id="node5" class="node">
<title>MCD_JUG</title>
<polygon fill="none" stroke="#000000" points="1564.473,-980.8046 1510.473,-980.8046 1510.473,-944.8046 1564.473,-944.8046 1564.473,-980.8046"/>
<text text-anchor="middle" x="1537.473" y="-958.6046" font-family="Times,serif" font-size="14.00" fill="#000000">Jug</text>
</g>
<!-- MCD_VAT&#45;&gt;MCD_JUG -->
<g id="edge18" class="edge">
<title>MCD_VAT&#45;&gt;MCD_JUG</title>
<path fill="none" stroke="#000000" d="M1557.5256,-797.6561C1553.6406,-829.6526 1545.5752,-896.0765 1540.9443,-934.2153"/>
<polygon fill="#000000" stroke="#000000" points="1537.4117,-934.2734 1539.6807,-944.6224 1544.3606,-935.1172 1537.4117,-934.2734"/>
<text text-anchor="middle" x="1538.3521" y="-870.1357" font-family="Times,serif" font-size="14.00" fill="#000000">rely</text>
</g>
<!-- MCD_POT -->
<g id="node6" class="node">
<title>MCD_POT</title>
<polygon fill="none" stroke="#000000" points="1564.473,-613.9954 1510.473,-613.9954 1510.473,-577.9954 1564.473,-577.9954 1564.473,-613.9954"/>
<text text-anchor="middle" x="1537.473" y="-591.7954" font-family="Times,serif" font-size="14.00" fill="#000000">Pot</text>
</g>
<!-- MCD_VAT&#45;&gt;MCD_POT -->
<g id="edge19" class="edge">
<title>MCD_VAT&#45;&gt;MCD_POT</title>
<path fill="none" stroke="#000000" d="M1557.5256,-761.1439C1553.6406,-729.1474 1545.5752,-662.7235 1540.9443,-624.5847"/>
<polygon fill="#000000" stroke="#000000" points="1544.3606,-623.6828 1539.6807,-614.1776 1537.4117,-624.5266 1544.3606,-623.6828"/>
<text text-anchor="middle" x="1538.3521" y="-697.0643" font-family="Times,serif" font-size="14.00" fill="#000000">rely</text>
</g>
<!-- MCD_VOW -->
<g id="node9" class="node">
<title>MCD_VOW</title>
<polygon fill="none" stroke="#000000" points="141.7832,-1153.5504 87.7832,-1153.5504 87.7832,-1117.5504 141.7832,-1117.5504 141.7832,-1153.5504"/>
<text text-anchor="middle" x="114.7832" y="-1131.3504" font-family="Times,serif" font-size="14.00" fill="#000000">Vow</text>
</g>
<!-- MCD_VAT&#45;&gt;MCD_VOW -->
<g id="edge17" class="edge">
<title>MCD_VAT&#45;&gt;MCD_VOW</title>
<path fill="none" stroke="#000000" d="M1532.4855,-786.1182C1354.3634,-830.0214 357.1911,-1075.8023 151.7873,-1126.4297"/>
<polygon fill="#000000" stroke="#000000" points="150.6716,-1123.0999 141.7998,-1128.8914 152.3468,-1129.8965 150.6716,-1123.0999"/>
<text text-anchor="middle" x="831.2535" y="-960.474" font-family="Times,serif" font-size="14.00" fill="#000000">rely</text>
</g>
<!-- MCD_CAT -->
<g id="node10" class="node">
<title>MCD_CAT</title>
<polygon fill="none" stroke="#000000" points="54,-797.4 0,-797.4 0,-761.4 54,-761.4 54,-797.4"/>
<text text-anchor="middle" x="27" y="-775.2" font-family="Times,serif" font-size="14.00" fill="#000000">Cat</text>
</g>
<!-- MCD_VAT&#45;&gt;MCD_CAT -->
<g id="edge22" class="edge">
<title>MCD_VAT&#45;&gt;MCD_CAT</title>
<path fill="none" stroke="#000000" d="M1532.4882,-779.4C1347.6409,-779.4 278.6746,-779.4 64.393,-779.4"/>
<polygon fill="#000000" stroke="#000000" points="64.2797,-775.9001 54.2797,-779.4 64.2797,-782.9001 64.2797,-775.9001"/>
<text text-anchor="middle" x="787.5577" y="-766.8" font-family="Times,serif" font-size="14.00" fill="#000000">rely</text>
</g>
<!-- MCD_SPOT -->
<g id="node11" class="node">
<title>MCD_SPOT</title>
<polygon fill="none" stroke="#000000" points="1500.3998,-441.2496 1443.5184,-441.2496 1443.5184,-405.2496 1500.3998,-405.2496 1500.3998,-441.2496"/>
<text text-anchor="middle" x="1471.9591" y="-419.0496" font-family="Times,serif" font-size="14.00" fill="#000000">Spotter</text>
</g>
<!-- MCD_VAT&#45;&gt;MCD_SPOT -->
<g id="edge16" class="edge">
<title>MCD_VAT&#45;&gt;MCD_SPOT</title>
<path fill="none" stroke="#000000" d="M1555.2684,-761.2488C1540.9452,-703.1373 1496.1486,-521.3901 1478.861,-451.2516"/>
<polygon fill="#000000" stroke="#000000" points="1482.2155,-450.236 1476.424,-441.3642 1475.4189,-451.9113 1482.2155,-450.236"/>
<text text-anchor="middle" x="1506.1818" y="-610.4502" font-family="Times,serif" font-size="14.00" fill="#000000">rely</text>
</g>
<!-- MCD_PAUSE_PROXY -->
<g id="node14" class="node">
<title>MCD_PAUSE_PROXY</title>
<polygon fill="none" stroke="#000000" points="1416.997,-289.2019 1317.0194,-289.2019 1317.0194,-253.2019 1416.997,-253.2019 1416.997,-289.2019"/>
<text text-anchor="middle" x="1367.0082" y="-267.0019" font-family="Times,serif" font-size="14.00" fill="#000000">DSPauseProxy</text>
</g>
<!-- MCD_VAT&#45;&gt;MCD_PAUSE_PROXY -->
<g id="edge27" class="edge">
<title>MCD_VAT&#45;&gt;MCD_PAUSE_PROXY</title>
<path fill="none" stroke="#000000" d="M1552.8828,-761.313C1524.0234,-685.217 1412.3521,-390.7639 1377.476,-298.8031"/>
<polygon fill="#000000" stroke="#000000" points="1380.7046,-297.4459 1373.8859,-289.3369 1374.1594,-299.9282 1380.7046,-297.4459"/>
<text text-anchor="middle" x="1454.2965" y="-534.258" font-family="Times,serif" font-size="14.00" fill="#000000">rely</text>
</g>
<!-- MCD_END -->
<g id="node19" class="node">
<title>MCD_END</title>
<polygon fill="none" stroke="#000000" points="76.2694,-613.9954 22.2694,-613.9954 22.2694,-577.9954 76.2694,-577.9954 76.2694,-613.9954"/>
<text text-anchor="middle" x="49.2694" y="-591.7954" font-family="Times,serif" font-size="14.00" fill="#000000">End</text>
</g>
<!-- MCD_VAT&#45;&gt;MCD_END -->
<g id="edge24" class="edge">
<title>MCD_VAT&#45;&gt;MCD_END</title>
<path fill="none" stroke="#000000" d="M1532.5609,-776.0996C1349.5669,-753.8801 298.1613,-626.2163 86.4201,-600.5063"/>
<polygon fill="#000000" stroke="#000000" points="86.7714,-597.0233 76.4224,-599.2924 85.9276,-603.9723 86.7714,-597.0233"/>
<text text-anchor="middle" x="798.6076" y="-692.5029" font-family="Times,serif" font-size="14.00" fill="#000000">rely</text>
</g>
<!-- ETHJoin_A -->
<g id="node20" class="node">
<title>ETHJoin_A</title>
<polygon fill="none" stroke="#000000" points="2542.612,-243.1284 2459.3033,-243.1284 2459.3033,-207.1284 2542.612,-207.1284 2542.612,-243.1284"/>
<text text-anchor="middle" x="2500.9576" y="-220.9284" font-family="Times,serif" font-size="14.00" fill="#000000">ETHJoin_A</text>
</g>
<!-- MCD_VAT&#45;&gt;ETHJoin_A -->
<g id="edge36" class="edge">
<title>MCD_VAT&#45;&gt;ETHJoin_A</title>
<path fill="none" stroke="#000000" d="M1586.896,-763.4095C1719.8815,-685.0957 2302.4477,-342.0288 2460.9966,-248.661"/>
<polygon fill="#000000" stroke="#000000" points="2463.1191,-251.4729 2469.96,-243.3826 2459.567,-245.4411 2463.1191,-251.4729"/>
<text text-anchor="middle" x="2013.0634" y="-510.2352" font-family="Times,serif" font-size="14.00" fill="#000000">rely</text>
</g>
<!-- ETHJoin_B -->
<g id="node22" class="node">
<title>ETHJoin_B</title>
<polygon fill="none" stroke="#000000" points="2583.8363,-392.6994 2501.069,-392.6994 2501.069,-356.6994 2583.8363,-356.6994 2583.8363,-392.6994"/>
<text text-anchor="middle" x="2542.4526" y="-370.4994" font-family="Times,serif" font-size="14.00" fill="#000000">ETHJoin_B</text>
</g>
<!-- MCD_VAT&#45;&gt;ETHJoin_B -->
<g id="edge39" class="edge">
<title>MCD_VAT&#45;&gt;ETHJoin_B</title>
<path fill="none" stroke="#000000" d="M1586.7936,-768.2597C1720.668,-713.1275 2312.9873,-469.198 2491.4166,-395.7171"/>
<polygon fill="#000000" stroke="#000000" points="2492.9257,-398.8808 2500.8395,-391.8365 2490.2601,-392.4082 2492.9257,-398.8808"/>
<text text-anchor="middle" x="2028.2222" y="-586.1884" font-family="Times,serif" font-size="14.00" fill="#000000">rely</text>
</g>
<!-- ETHJoin_C -->
<g id="node24" class="node">
<title>ETHJoin_C</title>
<polygon fill="none" stroke="#000000" points="2612.2024,-544.9144 2529.435,-544.9144 2529.435,-508.9144 2612.2024,-508.9144 2612.2024,-544.9144"/>
<text text-anchor="middle" x="2570.8187" y="-522.7144" font-family="Times,serif" font-size="14.00" fill="#000000">ETHJoin_C</text>
</g>
<!-- MCD_VAT&#45;&gt;ETHJoin_C -->
<g id="edge42" class="edge">
<title>MCD_VAT&#45;&gt;ETHJoin_C</title>
<path fill="none" stroke="#000000" d="M1586.7862,-772.6466C1723.2485,-738.5693 2336.8715,-585.3356 2519.4288,-539.7475"/>
<polygon fill="#000000" stroke="#000000" points="2520.4604,-543.0974 2529.3144,-537.2788 2518.7644,-536.306 2520.4604,-543.0974"/>
<text text-anchor="middle" x="2042.2246" y="-660.397" font-family="Times,serif" font-size="14.00" fill="#000000">rely</text>
</g>
<!-- COL1Join_A -->
<g id="node26" class="node">
<title>COL1Join_A</title>
<polygon fill="none" stroke="#000000" points="2632.1315,-703.2784 2540.2542,-703.2784 2540.2542,-667.2784 2632.1315,-667.2784 2632.1315,-703.2784"/>
<text text-anchor="middle" x="2586.1929" y="-681.0784" font-family="Times,serif" font-size="14.00" fill="#000000">COL1Join_A</text>
</g>
<!-- MCD_VAT&#45;&gt;COL1Join_A -->
<g id="edge45" class="edge">
<title>MCD_VAT&#45;&gt;COL1Join_A</title>
<path fill="none" stroke="#000000" d="M1586.933,-776.9067C1724.06,-764.3327 2340.6356,-707.795 2530.4202,-690.3925"/>
<polygon fill="#000000" stroke="#000000" points="2530.818,-693.8708 2540.4566,-689.4722 2530.1787,-686.9001 2530.818,-693.8708"/>
<text text-anchor="middle" x="2047.7937" y="-737.8496" font-family="Times,serif" font-size="14.00" fill="#000000">rely</text>
</g>
<!-- COL2Join_A -->
<g id="node28" class="node">
<title>COL2Join_A</title>
<polygon fill="none" stroke="#000000" points="2633.2642,-866.6556 2541.3869,-866.6556 2541.3869,-830.6556 2633.2642,-830.6556 2633.2642,-866.6556"/>
<text text-anchor="middle" x="2587.3255" y="-844.4556" font-family="Times,serif" font-size="14.00" fill="#000000">COL2Join_A</text>
</g>
<!-- MCD_VAT&#45;&gt;COL2Join_A -->
<g id="edge48" class="edge">
<title>MCD_VAT&#45;&gt;COL2Join_A</title>
<path fill="none" stroke="#000000" d="M1586.963,-781.2346C1724.2413,-790.4867 2341.4972,-832.0876 2531.4913,-844.8926"/>
<polygon fill="#000000" stroke="#000000" points="2531.326,-848.3893 2541.5388,-845.5697 2531.7968,-841.4051 2531.326,-848.3893"/>
<text text-anchor="middle" x="2048.3443" y="-817.2636" font-family="Times,serif" font-size="14.00" fill="#000000">rely</text>
</g>
<!-- COL3Join_A -->
<g id="node30" class="node">
<title>COL3Join_A</title>
<polygon fill="none" stroke="#000000" points="2619.5393,-1029.4593 2527.662,-1029.4593 2527.662,-993.4593 2619.5393,-993.4593 2619.5393,-1029.4593"/>
<text text-anchor="middle" x="2573.6007" y="-1007.2593" font-family="Times,serif" font-size="14.00" fill="#000000">COL3Join_A</text>
</g>
<!-- MCD_VAT&#45;&gt;COL3Join_A -->
<g id="edge51" class="edge">
<title>MCD_VAT&#45;&gt;COL3Join_A</title>
<path fill="none" stroke="#000000" d="M1586.8606,-785.607C1722.6842,-816.6953 2329.9152,-955.6828 2517.9283,-998.7166"/>
<polygon fill="#000000" stroke="#000000" points="2517.3458,-1002.1737 2527.8746,-1000.9932 2518.9076,-995.3501 2517.3458,-1002.1737"/>
<text text-anchor="middle" x="2041.5115" y="-896.3618" font-family="Times,serif" font-size="14.00" fill="#000000">rely</text>
</g>
<!-- COL4Join_A -->
<g id="node32" class="node">
<title>COL4Join_A</title>
<polygon fill="none" stroke="#000000" points="2591.0706,-1190.341 2499.1933,-1190.341 2499.1933,-1154.341 2591.0706,-1154.341 2591.0706,-1190.341"/>
<text text-anchor="middle" x="2545.132" y="-1168.141" font-family="Times,serif" font-size="14.00" fill="#000000">COL4Join_A</text>
</g>
<!-- MCD_VAT&#45;&gt;COL4Join_A -->
<g id="edge54" class="edge">
<title>MCD_VAT&#45;&gt;COL4Join_A</title>
<path fill="none" stroke="#000000" d="M1586.8674,-790.2166C1720.2609,-843.4095 2307.5744,-1077.6109 2490.5255,-1150.5658"/>
<polygon fill="#000000" stroke="#000000" points="2489.3675,-1153.872 2499.9526,-1154.325 2491.9604,-1147.3698 2489.3675,-1153.872"/>
<text text-anchor="middle" x="2027.8135" y="-974.5912" font-family="Times,serif" font-size="14.00" fill="#000000">rely</text>
</g>
<!-- COL5Join_A -->
<g id="node34" class="node">
<title>COL5Join_A</title>
<polygon fill="none" stroke="#000000" points="2548.0939,-1347.9685 2456.2166,-1347.9685 2456.2166,-1311.9685 2548.0939,-1311.9685 2548.0939,-1347.9685"/>
<text text-anchor="middle" x="2502.1552" y="-1325.7685" font-family="Times,serif" font-size="14.00" fill="#000000">COL5Join_A</text>
</g>
<!-- MCD_VAT&#45;&gt;COL5Join_A -->
<g id="edge57" class="edge">
<title>MCD_VAT&#45;&gt;COL5Join_A</title>
<path fill="none" stroke="#000000" d="M1586.9306,-795.2837C1720.0853,-873.0742 2303.3927,-1213.8491 2462.1434,-1306.5931"/>
<polygon fill="#000000" stroke="#000000" points="2460.7181,-1309.8139 2471.1181,-1311.8362 2464.2492,-1303.7697 2460.7181,-1309.8139"/>
<text text-anchor="middle" x="2013.6541" y="-1055.1384" font-family="Times,serif" font-size="14.00" fill="#000000">rely</text>
</g>
<!-- MCD_JUG&#45;&gt;MCD_PAUSE_PROXY -->
<g id="edge30" class="edge">
<title>MCD_JUG&#45;&gt;MCD_PAUSE_PROXY</title>
<path fill="none" stroke="#000000" d="M1533.0011,-944.6614C1509.7213,-850.2116 1402.3815,-414.7171 1373.9401,-299.3256"/>
<polygon fill="#000000" stroke="#000000" points="1377.3035,-298.3464 1371.512,-289.4746 1370.507,-300.0216 1377.3035,-298.3464"/>
<text text-anchor="middle" x="1442.5877" y="-626.1935" font-family="Times,serif" font-size="14.00" fill="#000000">rely</text>
</g>
<!-- MCD_POT&#45;&gt;MCD_PAUSE_PROXY -->
<g id="edge31" class="edge">
<title>MCD_POT&#45;&gt;MCD_PAUSE_PROXY</title>
<path fill="none" stroke="#000000" d="M1527.8196,-577.6025C1499.281,-523.2266 1415.1939,-363.0122 1381.3554,-298.5382"/>
<polygon fill="#000000" stroke="#000000" points="1384.3021,-296.6211 1376.5557,-289.3931 1378.1039,-299.8742 1384.3021,-296.6211"/>
<text text-anchor="middle" x="1443.7046" y="-442.2703" font-family="Times,serif" font-size="14.00" fill="#000000">rely</text>
</g>
<!-- MCD_FLAP -->
<g id="node7" class="node">
<title>MCD_FLAP</title>
<polygon fill="none" stroke="#000000" points="78.5328,-980.8046 20.0059,-980.8046 20.0059,-944.8046 78.5328,-944.8046 78.5328,-980.8046"/>
<text text-anchor="middle" x="49.2694" y="-958.6046" font-family="Times,serif" font-size="14.00" fill="#000000">Flapper</text>
</g>
<!-- MCD_FLAP&#45;&gt;MCD_VOW -->
<g id="edge20" class="edge">
<title>MCD_FLAP&#45;&gt;MCD_VOW</title>
<path fill="none" stroke="#000000" d="M56.1567,-980.965C67.6087,-1011.1614 90.6426,-1071.8969 104.1791,-1107.5898"/>
<polygon fill="#000000" stroke="#000000" points="101.0712,-1109.2652 107.8899,-1117.3742 107.6163,-1106.7829 101.0712,-1109.2652"/>
<text text-anchor="middle" x="69.285" y="-1048.4774" font-family="Times,serif" font-size="14.00" fill="#000000">rely</text>
</g>
<!-- MCD_FLAP&#45;&gt;MCD_PAUSE_PROXY -->
<g id="edge33" class="edge">
<title>MCD_FLAP&#45;&gt;MCD_PAUSE_PROXY</title>
<path fill="none" stroke="#000000" d="M78.6398,-947.3898C249.8377,-857.5382 1118.4221,-401.67 1323.5519,-294.0095"/>
<polygon fill="#000000" stroke="#000000" points="1325.307,-297.0413 1332.535,-289.2949 1322.0539,-290.8431 1325.307,-297.0413"/>
<text text-anchor="middle" x="690.2129" y="-624.8997" font-family="Times,serif" font-size="14.00" fill="#000000">rely</text>
</g>
<!-- MCD_FLOP -->
<g id="node8" class="node">
<title>MCD_FLOP</title>
<polygon fill="none" stroke="#000000" points="249.2842,-1305.5981 190.184,-1305.5981 190.184,-1269.5981 249.2842,-1269.5981 249.2842,-1305.5981"/>
<text text-anchor="middle" x="219.7341" y="-1283.3981" font-family="Times,serif" font-size="14.00" fill="#000000">Flopper</text>
</g>
<!-- MCD_FLOP&#45;&gt;MCD_VOW -->
<g id="edge21" class="edge">
<title>MCD_FLOP&#45;&gt;MCD_VOW</title>
<path fill="none" stroke="#000000" d="M207.2827,-1269.5591C188.8987,-1242.9253 154.379,-1192.9148 133.1034,-1162.0919"/>
<polygon fill="#000000" stroke="#000000" points="135.7795,-1159.8075 127.2184,-1153.5659 130.0186,-1163.784 135.7795,-1159.8075"/>
<text text-anchor="middle" x="159.3102" y="-1220.0255" font-family="Times,serif" font-size="14.00" fill="#000000">rely</text>
</g>
<!-- MCD_FLOP&#45;&gt;MCD_PAUSE_PROXY -->
<g id="edge34" class="edge">
<title>MCD_FLOP&#45;&gt;MCD_PAUSE_PROXY</title>
<path fill="none" stroke="#000000" d="M240.1341,-1269.5252C378.4943,-1146.9488 1178.6271,-438.093 1339.0192,-295.998"/>
<polygon fill="#000000" stroke="#000000" points="1341.4249,-298.5428 1346.5891,-289.2917 1336.783,-293.3032 1341.4249,-298.5428"/>
<text text-anchor="middle" x="778.6937" y="-786.9616" font-family="Times,serif" font-size="14.00" fill="#000000">rely</text>
</g>
<!-- MCD_VOW&#45;&gt;MCD_CAT -->
<g id="edge23" class="edge">
<title>MCD_VOW&#45;&gt;MCD_CAT</title>
<path fill="none" stroke="#000000" d="M110.3093,-1117.3992C95.9861,-1059.2877 51.1895,-877.5405 33.9019,-807.4021"/>
<polygon fill="#000000" stroke="#000000" points="37.2564,-806.3864 31.4649,-797.5146 30.4598,-808.0617 37.2564,-806.3864"/>
<text text-anchor="middle" x="82.9885" y="-966.6007" font-family="Times,serif" font-size="14.00" fill="#000000">rely</text>
</g>
<!-- MCD_VOW&#45;&gt;MCD_PAUSE_PROXY -->
<g id="edge29" class="edge">
<title>MCD_VOW&#45;&gt;MCD_PAUSE_PROXY</title>
<path fill="none" stroke="#000000" d="M140.9377,-1117.4973C301.1906,-1006.8827 1149.5382,-421.3107 1332.2966,-295.1616"/>
<polygon fill="#000000" stroke="#000000" points="1334.4926,-297.8987 1340.7343,-289.3375 1330.5162,-292.1378 1334.4926,-297.8987"/>
<text text-anchor="middle" x="725.7342" y="-710.5295" font-family="Times,serif" font-size="14.00" fill="#000000">rely</text>
</g>
<!-- MCD_VOW&#45;&gt;MCD_END -->
<g id="edge26" class="edge">
<title>MCD_VOW&#45;&gt;MCD_END</title>
<path fill="none" stroke="#000000" d="M112.5659,-1117.2893C102.9132,-1037.7923 64.5123,-721.5321 52.7269,-624.4712"/>
<polygon fill="#000000" stroke="#000000" points="56.166,-623.7571 51.4861,-614.252 49.2171,-624.601 56.166,-623.7571"/>
<text text-anchor="middle" x="71.7635" y="-875.0802" font-family="Times,serif" font-size="14.00" fill="#000000">rely</text>
</g>
<!-- MCD_CAT&#45;&gt;MCD_PAUSE_PROXY -->
<g id="edge28" class="edge">
<title>MCD_CAT&#45;&gt;MCD_PAUSE_PROXY</title>
<path fill="none" stroke="#000000" d="M54.07,-769.1337C218.0297,-706.952 1078.8749,-380.4765 1309.9017,-292.8596"/>
<polygon fill="#000000" stroke="#000000" points="1311.354,-296.0521 1319.463,-289.2334 1308.8717,-289.507 1311.354,-296.0521"/>
<text text-anchor="middle" x="671.1029" y="-535.1966" font-family="Times,serif" font-size="14.00" fill="#000000">rely</text>
</g>
<!-- MCD_CAT&#45;&gt;MCD_END -->
<g id="edge25" class="edge">
<title>MCD_CAT&#45;&gt;MCD_END</title>
<path fill="none" stroke="#000000" d="M29.2167,-761.1439C33.1018,-729.1474 41.1671,-662.7235 45.798,-624.5847"/>
<polygon fill="#000000" stroke="#000000" points="49.3307,-624.5266 47.0616,-614.1776 42.3817,-623.6828 49.3307,-624.5266"/>
<text text-anchor="middle" x="26.6244" y="-697.0643" font-family="Times,serif" font-size="14.00" fill="#000000">rely</text>
</g>
<!-- MCD_SPOT&#45;&gt;MCD_PAUSE_PROXY -->
<g id="edge32" class="edge">
<title>MCD_SPOT&#45;&gt;MCD_PAUSE_PROXY</title>
<path fill="none" stroke="#000000" d="M1459.5077,-405.2106C1441.1237,-378.5768 1406.604,-328.5663 1385.3284,-297.7434"/>
<polygon fill="#000000" stroke="#000000" points="1388.0045,-295.459 1379.4434,-289.2174 1382.2436,-299.4355 1388.0045,-295.459"/>
<text text-anchor="middle" x="1411.5352" y="-355.677" font-family="Times,serif" font-size="14.00" fill="#000000">rely</text>
</g>
<!-- MCD_GOV -->
<g id="node12" class="node">
<title>MCD_GOV</title>
<polygon fill="none" stroke="#000000" points="385.0227,-1428.1111 331.0227,-1428.1111 331.0227,-1392.1111 385.0227,-1392.1111 385.0227,-1428.1111"/>
<text text-anchor="middle" x="358.0227" y="-1405.9111" font-family="Times,serif" font-size="14.00" fill="#000000">MKR</text>
</g>
<!-- MCD_GOV&#45;&gt;deployer -->
<g id="edge11" class="edge">
<title>MCD_GOV&#45;&gt;deployer</title>
<path fill="none" stroke="#000000" d="M385.2842,-1416.8305C471.4816,-1438.0762 738.5899,-1503.9125 843.1557,-1529.6856"/>
<polygon fill="#000000" stroke="#000000" points="842.5013,-1533.129 853.0483,-1532.124 844.1766,-1526.3324 842.5013,-1533.129"/>
<text text-anchor="middle" x="596.7291" y="-1477.458" font-family="Times,serif" font-size="14.00" fill="#000000">owner</text>
</g>
<!-- MCD_GOV&#45;&gt;MCD_FLOP -->
<g id="edge35" class="edge">
<title>MCD_GOV&#45;&gt;MCD_FLOP</title>
<path fill="none" stroke="#000000" d="M337.6178,-1392.0339C313.8211,-1370.9518 274.3534,-1335.9866 247.7105,-1312.383"/>
<polygon fill="#000000" stroke="#000000" points="250.0289,-1309.7609 240.2228,-1305.7495 245.387,-1315.0005 250.0289,-1309.7609"/>
<text text-anchor="middle" x="259.2244" y="-1356.4084" font-family="Times,serif" font-size="14.00" fill="#000000">permit&#45;mint</text>
</g>
<!-- MCD_GOV_GUARD -->
<g id="node15" class="node">
<title>MCD_GOV_GUARD</title>
<polygon fill="none" stroke="#000000" points="560.7017,-1513.9695 482.5227,-1513.9695 482.5227,-1477.9695 560.7017,-1477.9695 560.7017,-1513.9695"/>
<text text-anchor="middle" x="521.6122" y="-1491.7695" font-family="Times,serif" font-size="14.00" fill="#000000">Gov Guard</text>
</g>
<!-- MCD_GOV&#45;&gt;MCD_GOV_GUARD -->
<g id="edge3" class="edge">
<title>MCD_GOV&#45;&gt;MCD_GOV_GUARD</title>
<path fill="none" stroke="#000000" d="M385.0362,-1424.2889C410.3668,-1437.5834 448.6698,-1457.6864 478.2726,-1473.2231"/>
<polygon fill="#000000" stroke="#000000" points="476.6753,-1476.3375 487.1564,-1477.8857 479.9284,-1470.1393 476.6753,-1476.3375"/>
<text text-anchor="middle" x="406.3809" y="-1452.956" font-family="Times,serif" font-size="14.00" fill="#000000">authority</text>
</g>
<!-- MCD_PAUSE -->
<g id="node13" class="node">
<title>MCD_PAUSE</title>
<polygon fill="none" stroke="#000000" points="1400.0553,-1305.5981 1333.9611,-1305.5981 1333.9611,-1269.5981 1400.0553,-1269.5981 1400.0553,-1305.5981"/>
<text text-anchor="middle" x="1367.0082" y="-1283.3981" font-family="Times,serif" font-size="14.00" fill="#000000">DSPause</text>
</g>
<!-- MCD_PAUSE&#45;&gt;zero -->
<g id="edge2" class="edge">
<title>MCD_PAUSE&#45;&gt;zero</title>
<path fill="none" stroke="#000000" d="M1379.4596,-1269.5591C1397.8436,-1242.9253 1432.3633,-1192.9148 1453.6389,-1162.0919"/>
<polygon fill="#000000" stroke="#000000" points="1456.7237,-1163.784 1459.5239,-1153.5659 1450.9628,-1159.8075 1456.7237,-1163.784"/>
<text text-anchor="middle" x="1399.0583" y="-1220.0255" font-family="Times,serif" font-size="14.00" fill="#000000">owner</text>
</g>
<!-- MCD_ADM -->
<g id="node17" class="node">
<title>MCD_ADM</title>
<polygon fill="none" stroke="#000000" points="1261.2112,-1428.1111 1196.228,-1428.1111 1196.228,-1392.1111 1261.2112,-1392.1111 1261.2112,-1428.1111"/>
<text text-anchor="middle" x="1228.7196" y="-1405.9111" font-family="Times,serif" font-size="14.00" fill="#000000">DSChief</text>
</g>
<!-- MCD_PAUSE&#45;&gt;MCD_ADM -->
<g id="edge4" class="edge">
<title>MCD_PAUSE&#45;&gt;MCD_ADM</title>
<path fill="none" stroke="#000000" d="M1346.6032,-1305.6753C1322.8065,-1326.7573 1283.3389,-1361.7226 1256.6959,-1385.3262"/>
<polygon fill="#000000" stroke="#000000" points="1254.3725,-1382.7087 1249.2083,-1391.9597 1259.0143,-1387.9483 1254.3725,-1382.7087"/>
<text text-anchor="middle" x="1276.3761" y="-1349.7008" font-family="Times,serif" font-size="14.00" fill="#000000">authority</text>
</g>
<!-- MCD_PAUSE_PROXY&#45;&gt;MCD_PAUSE -->
<g id="edge14" class="edge">
<title>MCD_PAUSE_PROXY&#45;&gt;MCD_PAUSE</title>
<path fill="none" stroke="#000000" d="M1367.0082,-289.2748C1367.0082,-410.8774 1367.0082,-1109.4811 1367.0082,-1259.3086"/>
<polygon fill="#000000" stroke="#000000" points="1363.5083,-1259.5083 1367.0082,-1269.5083 1370.5083,-1259.5083 1363.5083,-1259.5083"/>
<text text-anchor="middle" x="1349.5173" y="-778.4917" font-family="Times,serif" font-size="14.00" fill="#000000">owner</text>
</g>
<!-- MCD_GOV_GUARD&#45;&gt;zero -->
<g id="edge5" class="edge">
<title>MCD_GOV_GUARD&#45;&gt;zero</title>
<path fill="none" stroke="#000000" d="M560.9376,-1481.0553C716.0528,-1422.2279 1284.3323,-1206.7079 1435.058,-1149.5452"/>
<polygon fill="#000000" stroke="#000000" points="1436.6672,-1152.6782 1444.7762,-1145.8595 1434.1849,-1146.1331 1436.6672,-1152.6782"/>
<text text-anchor="middle" x="972.7243" y="-1319.5003" font-family="Times,serif" font-size="14.00" fill="#000000">authority</text>
</g>
<!-- MCD_GOV_GUARD&#45;&gt;deployer -->
<g id="edge13" class="edge">
<title>MCD_GOV_GUARD&#45;&gt;deployer</title>
<path fill="none" stroke="#000000" d="M560.927,-1500.7432C629.8999,-1509.118 772.1214,-1526.3868 843.2673,-1535.0255"/>
<polygon fill="#000000" stroke="#000000" points="842.8824,-1538.5044 853.2314,-1536.2353 843.7262,-1531.5554 842.8824,-1538.5044"/>
<text text-anchor="middle" x="684.6063" y="-1505.2843" font-family="Times,serif" font-size="14.00" fill="#000000">owner</text>
</g>
<!-- MCD_IOU -->
<g id="node16" class="node">
<title>MCD_IOU</title>
<polygon fill="none" stroke="#000000" points="727.9953,-1558.1834 673.9953,-1558.1834 673.9953,-1522.1834 727.9953,-1522.1834 727.9953,-1558.1834"/>
<text text-anchor="middle" x="700.9953" y="-1535.9834" font-family="Times,serif" font-size="14.00" fill="#000000">IOU</text>
</g>
<!-- MCD_IOU&#45;&gt;deployer -->
<g id="edge12" class="edge">
<title>MCD_IOU&#45;&gt;deployer</title>
<path fill="none" stroke="#000000" d="M728.2561,-1540.1834C758.4951,-1540.1834 807.6747,-1540.1834 843.0363,-1540.1834"/>
<polygon fill="#000000" stroke="#000000" points="843.0728,-1543.6835 853.0727,-1540.1834 843.0727,-1536.6835 843.0728,-1543.6835"/>
<text text-anchor="middle" x="768.1553" y="-1544.3834" font-family="Times,serif" font-size="14.00" fill="#000000">owner</text>
</g>
<!-- MCD_IOU&#45;&gt;MCD_GOV_GUARD -->
<g id="edge6" class="edge">
<title>MCD_IOU&#45;&gt;MCD_GOV_GUARD</title>
<path fill="none" stroke="#000000" d="M673.7509,-1533.4683C646.4823,-1526.7472 603.9256,-1516.2579 570.7476,-1508.0803"/>
<polygon fill="#000000" stroke="#000000" points="571.3265,-1504.6183 560.7794,-1505.6233 569.6512,-1511.4149 571.3265,-1504.6183"/>
<text text-anchor="middle" x="596.9758" y="-1524.9743" font-family="Times,serif" font-size="14.00" fill="#000000">authority</text>
</g>
<!-- MCD_IOU&#45;&gt;MCD_ADM -->
<g id="edge60" class="edge">
<title>MCD_IOU&#45;&gt;MCD_ADM</title>
<path fill="none" stroke="#000000" d="M728.2849,-1536.7195C814.5219,-1520.1083 1081.5863,-1454.5427 1186.138,-1424.6485"/>
<polygon fill="#000000" stroke="#000000" points="1187.3977,-1427.9276 1196.0293,-1421.7839 1185.4504,-1421.2039 1187.3977,-1427.9276"/>
<text text-anchor="middle" x="923.7718" y="-1484.884" font-family="Times,serif" font-size="14.00" fill="#000000">permit&#45;mint</text>
</g>
<!-- MCD_IOU&#45;&gt;MCD_ADM -->
<g id="edge61" class="edge">
<title>MCD_IOU&#45;&gt;MCD_ADM</title>
<path fill="none" stroke="#000000" d="M728.2191,-1530.1323C814.382,-1504.2997 1081.5355,-1438.243 1186.1238,-1416.6413"/>
<polygon fill="#000000" stroke="#000000" points="1186.914,-1420.0524 1196.0186,-1414.6343 1185.5224,-1413.1921 1186.914,-1420.0524"/>
<text text-anchor="middle" x="923.7374" y="-1460.7868" font-family="Times,serif" font-size="14.00" fill="#000000">permit&#45;burn</text>
</g>
<!-- MCD_ADM&#45;&gt;zero -->
<g id="edge10" class="edge">
<title>MCD_ADM&#45;&gt;zero</title>
<path fill="none" stroke="#000000" d="M1244.6792,-1392.0964C1286.6868,-1344.6796 1400.4352,-1216.2842 1449.2292,-1161.2072"/>
<polygon fill="#000000" stroke="#000000" points="1451.9293,-1163.4375 1455.9407,-1153.6315 1446.6897,-1158.7957 1451.9293,-1163.4375"/>
<text text-anchor="middle" x="1329.4633" y="-1264.0518" font-family="Times,serif" font-size="14.00" fill="#000000">owner</text>
</g>
<!-- MCD_ADM&#45;&gt;MCD_ADM -->
<g id="edge7" class="edge">
<title>MCD_ADM&#45;&gt;MCD_ADM</title>
<path fill="none" stroke="#000000" d="M1261.2594,-1416.8545C1271.3172,-1416.7183 1279.2154,-1414.4705 1279.2154,-1410.1111 1279.2154,-1407.3865 1276.1302,-1405.4867 1271.3607,-1404.4118"/>
<polygon fill="#000000" stroke="#000000" points="1271.5662,-1400.9145 1261.2594,-1403.3677 1270.8465,-1407.8774 1271.5662,-1400.9145"/>
<text text-anchor="middle" x="1304.4889" y="-1405.9111" font-family="Times,serif" font-size="14.00" fill="#000000">authority</text>
</g>
<!-- PROXY_DEPLOYER -->
<g id="node18" class="node">
<title>PROXY_DEPLOYER</title>
<polygon fill="none" stroke="#000000" points="1117.6603,-1513.9695 1012.5999,-1513.9695 1012.5999,-1477.9695 1117.6603,-1477.9695 1117.6603,-1513.9695"/>
<text text-anchor="middle" x="1065.1301" y="-1491.7695" font-family="Times,serif" font-size="14.00" fill="#000000">Proxy Deployer</text>
</g>
<!-- PROXY_DEPLOYER&#45;&gt;zero -->
<g id="edge15" class="edge">
<title>PROXY_DEPLOYER&#45;&gt;zero</title>
<path fill="none" stroke="#000000" d="M1085.5836,-1477.8492C1152.5887,-1418.4879 1365.6318,-1229.7482 1443.2866,-1160.952"/>
<polygon fill="#000000" stroke="#000000" points="1446.0582,-1163.1727 1451.2223,-1153.9216 1441.4163,-1157.9331 1446.0582,-1163.1727"/>
<text text-anchor="middle" x="1239.1616" y="-1323.6006" font-family="Times,serif" font-size="14.00" fill="#000000">authority</text>
</g>
<!-- PROXY_DEPLOYER&#45;&gt;deployer -->
<g id="edge1" class="edge">
<title>PROXY_DEPLOYER&#45;&gt;deployer</title>
<path fill="none" stroke="#000000" d="M1012.2795,-1508.996C985.484,-1515.6005 953.3788,-1523.5137 928.213,-1529.7165"/>
<polygon fill="#000000" stroke="#000000" points="927.1102,-1526.3835 918.2384,-1532.175 928.7855,-1533.1801 927.1102,-1526.3835"/>
<text text-anchor="middle" x="952.7554" y="-1523.5563" font-family="Times,serif" font-size="14.00" fill="#000000">owner</text>
</g>
<!-- Flipper_ETH&#45;A -->
<g id="node21" class="node">
<title>Flipper_ETH&#45;A</title>
<polygon fill="none" stroke="#000000" points="1281.6384,-166.6889 1175.8008,-166.6889 1175.8008,-130.6889 1281.6384,-130.6889 1281.6384,-166.6889"/>
<text text-anchor="middle" x="1228.7196" y="-144.4889" font-family="Times,serif" font-size="14.00" fill="#000000">Flipper_ETH&#45;A</text>
</g>
<!-- Flipper_ETH&#45;A&#45;&gt;MCD_PAUSE_PROXY -->
<g id="edge38" class="edge">
<title>Flipper_ETH&#45;A&#45;&gt;MCD_PAUSE_PROXY</title>
<path fill="none" stroke="#000000" d="M1249.1246,-166.7661C1272.9213,-187.8482 1312.3889,-222.8134 1339.0319,-246.417"/>
<polygon fill="#000000" stroke="#000000" points="1336.7135,-249.0391 1346.5195,-253.0505 1341.3553,-243.7995 1336.7135,-249.0391"/>
<text text-anchor="middle" x="1283.1953" y="-210.7916" font-family="Times,serif" font-size="14.00" fill="#000000">rely</text>
</g>
<!-- Flipper_ETH&#45;A&#45;&gt;MCD_END -->
<g id="edge37" class="edge">
<title>Flipper_ETH&#45;A&#45;&gt;MCD_END</title>
<path fill="none" stroke="#000000" d="M1181.023,-166.7779C986.7636,-240.4507 257.3763,-517.0708 85.6441,-582.2003"/>
<polygon fill="#000000" stroke="#000000" points="84.3903,-578.9324 76.2812,-585.7511 86.8725,-585.4776 84.3903,-578.9324"/>
<text text-anchor="middle" x="622.4506" y="-378.6891" font-family="Times,serif" font-size="14.00" fill="#000000">rely</text>
</g>
<!-- Flipper_ETH&#45;B -->
<g id="node23" class="node">
<title>Flipper_ETH&#45;B</title>
<polygon fill="none" stroke="#000000" points="1117.2787,-80.8305 1012.9815,-80.8305 1012.9815,-44.8305 1117.2787,-44.8305 1117.2787,-80.8305"/>
<text text-anchor="middle" x="1065.1301" y="-58.6305" font-family="Times,serif" font-size="14.00" fill="#000000">Flipper_ETH&#45;B</text>
</g>
<!-- Flipper_ETH&#45;B&#45;&gt;MCD_PAUSE_PROXY -->
<g id="edge41" class="edge">
<title>Flipper_ETH&#45;B&#45;&gt;MCD_PAUSE_PROXY</title>
<path fill="none" stroke="#000000" d="M1091.3917,-80.9576C1145.8076,-118.5182 1270.8867,-204.854 1332.0483,-247.0708"/>
<polygon fill="#000000" stroke="#000000" points="1330.3742,-250.1681 1340.5923,-252.9684 1334.3507,-244.4072 1330.3742,-250.1681"/>
<text text-anchor="middle" x="1200.8371" y="-168.2142" font-family="Times,serif" font-size="14.00" fill="#000000">rely</text>
</g>
<!-- Flipper_ETH&#45;B&#45;&gt;MCD_END -->
<g id="edge40" class="edge">
<title>Flipper_ETH&#45;B&#45;&gt;MCD_END</title>
<path fill="none" stroke="#000000" d="M1030.7485,-80.8754C875.9625,-162.1133 244.4401,-493.5619 85.6398,-576.9067"/>
<polygon fill="#000000" stroke="#000000" points="83.948,-573.8418 76.72,-581.5882 87.2011,-580.04 83.948,-573.8418"/>
<text text-anchor="middle" x="547.3112" y="-333.091" font-family="Times,serif" font-size="14.00" fill="#000000">rely</text>
</g>
<!-- Flipper_ETH&#45;C -->
<g id="node25" class="node">
<title>Flipper_ETH&#45;C</title>
<polygon fill="none" stroke="#000000" points="937.8956,-36.6166 833.5984,-36.6166 833.5984,-.6166 937.8956,-.6166 937.8956,-36.6166"/>
<text text-anchor="middle" x="885.747" y="-14.4166" font-family="Times,serif" font-size="14.00" fill="#000000">Flipper_ETH&#45;C</text>
</g>
<!-- Flipper_ETH&#45;C&#45;&gt;MCD_PAUSE_PROXY -->
<g id="edge44" class="edge">
<title>Flipper_ETH&#45;C&#45;&gt;MCD_PAUSE_PROXY</title>
<path fill="none" stroke="#000000" d="M920.3581,-36.7819C1006.2928,-81.8839 1229.2586,-198.9053 1323.7122,-248.4784"/>
<polygon fill="#000000" stroke="#000000" points="1322.2296,-251.653 1332.7107,-253.2012 1325.4827,-245.4548 1322.2296,-251.653"/>
<text text-anchor="middle" x="1111.1522" y="-146.8301" font-family="Times,serif" font-size="14.00" fill="#000000">rely</text>
</g>
<!-- Flipper_ETH&#45;C&#45;&gt;MCD_END -->
<g id="edge43" class="edge">
<title>Flipper_ETH&#45;C&#45;&gt;MCD_END</title>
<path fill="none" stroke="#000000" d="M859.3313,-36.85C736.7773,-121.4429 223.67,-475.6153 84.3214,-571.8007"/>
<polygon fill="#000000" stroke="#000000" points="81.933,-569.1964 75.6914,-577.7576 85.9095,-574.9573 81.933,-569.1964"/>
<text text-anchor="middle" x="460.9435" y="-308.5253" font-family="Times,serif" font-size="14.00" fill="#000000">rely</text>
</g>
<!-- Flipper_COL1&#45;A -->
<g id="node27" class="node">
<title>Flipper_COL1&#45;A</title>
<polygon fill="none" stroke="#000000" points="757.6975,-36.6166 644.2931,-36.6166 644.2931,-.6166 757.6975,-.6166 757.6975,-36.6166"/>
<text text-anchor="middle" x="700.9953" y="-14.4166" font-family="Times,serif" font-size="14.00" fill="#000000">Flipper_COL1&#45;A</text>
</g>
<!-- Flipper_COL1&#45;A&#45;&gt;MCD_PAUSE_PROXY -->
<g id="edge47" class="edge">
<title>Flipper_COL1&#45;A&#45;&gt;MCD_PAUSE_PROXY</title>
<path fill="none" stroke="#000000" d="M748.626,-36.6805C868.1734,-82.0189 1180.5499,-200.4876 1309.7722,-249.4952"/>
<polygon fill="#000000" stroke="#000000" points="1308.9008,-252.9079 1319.4921,-253.1815 1311.3831,-246.3628 1308.9008,-252.9079"/>
<text text-anchor="middle" x="1018.3162" y="-147.2878" font-family="Times,serif" font-size="14.00" fill="#000000">rely</text>
</g>
<!-- Flipper_COL1&#45;A&#45;&gt;MCD_END -->
<g id="edge46" class="edge">
<title>Flipper_COL1&#45;A&#45;&gt;MCD_END</title>
<path fill="none" stroke="#000000" d="M680.4141,-36.85C585.2143,-121.1896 187.5415,-473.497 77.5625,-570.9298"/>
<polygon fill="#000000" stroke="#000000" points="75.0198,-568.5065 69.8556,-577.7576 79.6617,-573.7461 75.0198,-568.5065"/>
<text text-anchor="middle" x="368.1054" y="-308.0899" font-family="Times,serif" font-size="14.00" fill="#000000">rely</text>
</g>
<!-- Flipper_COL2&#45;A -->
<g id="node29" class="node">
<title>Flipper_COL2&#45;A</title>
<polygon fill="none" stroke="#000000" points="578.3144,-80.8305 464.91,-80.8305 464.91,-44.8305 578.3144,-44.8305 578.3144,-80.8305"/>
<text text-anchor="middle" x="521.6122" y="-58.6305" font-family="Times,serif" font-size="14.00" fill="#000000">Flipper_COL2&#45;A</text>
</g>
<!-- Flipper_COL2&#45;A&#45;&gt;MCD_PAUSE_PROXY -->
<g id="edge50" class="edge">
<title>Flipper_COL2&#45;A&#45;&gt;MCD_PAUSE_PROXY</title>
<path fill="none" stroke="#000000" d="M578.3937,-76.8259C731.2665,-114.5057 1150.5142,-217.8409 1307.0307,-256.4188"/>
<polygon fill="#000000" stroke="#000000" points="1306.4075,-259.8699 1316.9546,-258.8648 1308.0828,-253.0733 1306.4075,-259.8699"/>
<text text-anchor="middle" x="931.8293" y="-170.8223" font-family="Times,serif" font-size="14.00" fill="#000000">rely</text>
</g>
<!-- Flipper_COL2&#45;A&#45;&gt;MCD_END -->
<g id="edge49" class="edge">
<title>Flipper_COL2&#45;A&#45;&gt;MCD_END</title>
<path fill="none" stroke="#000000" d="M505.6259,-80.8754C435.3966,-160.1479 154.0964,-477.6701 71.9194,-570.4287"/>
<polygon fill="#000000" stroke="#000000" points="69.2632,-568.1489 65.2517,-577.955 74.5028,-572.7908 69.2632,-568.1489"/>
<text text-anchor="middle" x="277.8897" y="-329.852" font-family="Times,serif" font-size="14.00" fill="#000000">rely</text>
</g>
<!-- Flipper_COL3&#45;A -->
<g id="node31" class="node">
<title>Flipper_COL3&#45;A</title>
<polygon fill="none" stroke="#000000" points="414.7249,-166.6889 301.3205,-166.6889 301.3205,-130.6889 414.7249,-130.6889 414.7249,-166.6889"/>
<text text-anchor="middle" x="358.0227" y="-144.4889" font-family="Times,serif" font-size="14.00" fill="#000000">Flipper_COL3&#45;A</text>
</g>
<!-- Flipper_COL3&#45;A&#45;&gt;MCD_PAUSE_PROXY -->
<g id="edge53" class="edge">
<title>Flipper_COL3&#45;A&#45;&gt;MCD_PAUSE_PROXY</title>
<path fill="none" stroke="#000000" d="M414.7961,-155.5824C590.7586,-176.9482 1126.0024,-241.9385 1306.692,-263.8782"/>
<polygon fill="#000000" stroke="#000000" points="1306.4599,-267.3757 1316.8089,-265.1066 1307.3037,-260.4267 1306.4599,-267.3757"/>
<text text-anchor="middle" x="849.8612" y="-213.9303" font-family="Times,serif" font-size="14.00" fill="#000000">rely</text>
</g>
<!-- Flipper_COL3&#45;A&#45;&gt;MCD_END -->
<g id="edge52" class="edge">
<title>Flipper_COL3&#45;A&#45;&gt;MCD_END</title>
<path fill="none" stroke="#000000" d="M345.5368,-166.7779C297.5332,-236.3231 124.7022,-486.7121 67.6718,-569.3348"/>
<polygon fill="#000000" stroke="#000000" points="64.7109,-567.4632 61.9106,-577.6813 70.4718,-571.4397 64.7109,-567.4632"/>
<text text-anchor="middle" x="195.7214" y="-372.2563" font-family="Times,serif" font-size="14.00" fill="#000000">rely</text>
</g>
<!-- Flipper_COL4&#45;A -->
<g id="node33" class="node">
<title>Flipper_COL4&#45;A</title>
<polygon fill="none" stroke="#000000" points="276.4363,-289.2019 163.0319,-289.2019 163.0319,-253.2019 276.4363,-253.2019 276.4363,-289.2019"/>
<text text-anchor="middle" x="219.7341" y="-267.0019" font-family="Times,serif" font-size="14.00" fill="#000000">Flipper_COL4&#45;A</text>
</g>
<!-- Flipper_COL4&#45;A&#45;&gt;MCD_PAUSE_PROXY -->
<g id="edge56" class="edge">
<title>Flipper_COL4&#45;A&#45;&gt;MCD_PAUSE_PROXY</title>
<path fill="none" stroke="#000000" d="M276.6276,-271.2019C470.8511,-271.2019 1106.698,-271.2019 1306.4158,-271.2019"/>
<polygon fill="#000000" stroke="#000000" points="1306.7124,-274.702 1316.7123,-271.2019 1306.7123,-267.702 1306.7124,-274.702"/>
<text text-anchor="middle" x="780.6388" y="-275.4019" font-family="Times,serif" font-size="14.00" fill="#000000">rely</text>
</g>
<!-- Flipper_COL4&#45;A&#45;&gt;MCD_END -->
<g id="edge55" class="edge">
<title>Flipper_COL4&#45;A&#45;&gt;MCD_END</title>
<path fill="none" stroke="#000000" d="M210.0808,-289.5948C181.5421,-343.9707 97.4551,-504.1851 63.6165,-568.6591"/>
<polygon fill="#000000" stroke="#000000" points="60.365,-567.3231 58.8168,-577.8042 66.5632,-570.5762 60.365,-567.3231"/>
<text text-anchor="middle" x="125.9658" y="-433.327" font-family="Times,serif" font-size="14.00" fill="#000000">rely</text>
</g>
<!-- Flipper_COL5&#45;A -->
<g id="node35" class="node">
<title>Flipper_COL5&#45;A</title>
<polygon fill="none" stroke="#000000" points="171.4854,-441.2496 58.081,-441.2496 58.081,-405.2496 171.4854,-405.2496 171.4854,-441.2496"/>
<text text-anchor="middle" x="114.7832" y="-419.0496" font-family="Times,serif" font-size="14.00" fill="#000000">Flipper_COL5&#45;A</text>
</g>
<!-- Flipper_COL5&#45;A&#45;&gt;MCD_PAUSE_PROXY -->
<g id="edge59" class="edge">
<title>Flipper_COL5&#45;A&#45;&gt;MCD_PAUSE_PROXY</title>
<path fill="none" stroke="#000000" d="M171.4314,-416.3712C378.5955,-391.217 1094.04,-304.3463 1306.8449,-278.5071"/>
<polygon fill="#000000" stroke="#000000" points="1307.3863,-281.9671 1316.8914,-277.2872 1306.5424,-275.0182 1307.3863,-281.9671"/>
<text text-anchor="middle" x="728.2552" y="-351.6392" font-family="Times,serif" font-size="14.00" fill="#000000">rely</text>
</g>
<!-- Flipper_COL5&#45;A&#45;&gt;MCD_END -->
<g id="edge58" class="edge">
<title>Flipper_COL5&#45;A&#45;&gt;MCD_END</title>
<path fill="none" stroke="#000000" d="M107.8959,-441.4099C96.4439,-471.6064 73.4099,-532.3419 59.8734,-568.0347"/>
<polygon fill="#000000" stroke="#000000" points="56.4362,-567.2279 56.1627,-577.8192 62.9814,-569.7101 56.4362,-567.2279"/>
<text text-anchor="middle" x="73.0018" y="-508.9223" font-family="Times,serif" font-size="14.00" fill="#000000">rely</text>
</g>
<!-- isolated -->
<g id="node37" class="node">
<title>isolated</title>
<polygon fill="none" stroke="#000000" points="2229.107,-192.7001 1647.6353,-192.7001 1647.6353,-.0999 2229.107,-.0999 2229.107,-192.7001"/>
<text text-anchor="middle" x="1938.3712" y="-176.2" font-family="Times,serif" font-size="14.00" fill="#000000">Isolated Contracts:&#13;</text>
<text text-anchor="middle" x="1938.3712" y="-159.4" font-family="Times,serif" font-size="14.00" fill="#000000"> MCD_DAI, MCD_JOIN_DAI, MULTICALL, FAUCET, VOTE_PROXY_FACTORY,&#13;</text>
<text text-anchor="middle" x="1938.3712" y="-142.6" font-family="Times,serif" font-size="14.00" fill="#000000"> PROXY_ACTIONS, CDP_MANAGER, GET_CDPS, PROXY_FACTORY,&#13;</text>
<text text-anchor="middle" x="1938.3712" y="-125.8" font-family="Times,serif" font-size="14.00" fill="#000000"> PROXY_REGISTRY, PROXY_PAUSE_ACTIONS, MCD_GOV_ACTIONS, GOV_POLL_GEN,&#13;</text>
<text text-anchor="middle" x="1938.3712" y="-109" font-family="Times,serif" font-size="14.00" fill="#000000"> VOTE_YES, VOTE_NO, ETH, PIP_ETH,&#13;</text>
<text text-anchor="middle" x="1938.3712" y="-92.2" font-family="Times,serif" font-size="14.00" fill="#000000"> COL1, PIP_COL1, COL2, PIP_COL2,&#13;</text>
<text text-anchor="middle" x="1938.3712" y="-75.4" font-family="Times,serif" font-size="14.00" fill="#000000"> COL3, PIP_COL3, COL4, PIP_COL4,&#13;</text>
<text text-anchor="middle" x="1938.3712" y="-58.6" font-family="Times,serif" font-size="14.00" fill="#000000"> COL5, PIP_COL5, vatFab, jugFab,&#13;</text>
<text text-anchor="middle" x="1938.3712" y="-41.8" font-family="Times,serif" font-size="14.00" fill="#000000"> vowFab, catFab, daiFab, daiJoinFab,&#13;</text>
<text text-anchor="middle" x="1938.3712" y="-25" font-family="Times,serif" font-size="14.00" fill="#000000"> flapFab, flopFab, flipFab, spotFab,&#13;</text>
<text text-anchor="middle" x="1938.3712" y="-8.2" font-family="Times,serif" font-size="14.00" fill="#000000"> potFab, pauseFab</text>
</g>
</g>
</svg>
