<?xml version="1.0" encoding="UTF-8" standalone="no"?>
<!DOCTYPE svg PUBLIC "-//W3C//DTD SVG 1.1//EN"
 "http://www.w3.org/Graphics/SVG/1.1/DTD/svg11.dtd">
<!-- Generated by graphviz version 2.40.1 (20161225.0304)
 -->
<!-- Title: %0 Pages: 1 -->
<svg width="1626pt" height="1695pt"
 viewBox="0.00 0.00 1626.04 1695.28" xmlns="http://www.w3.org/2000/svg" xmlns:xlink="http://www.w3.org/1999/xlink">
<g id="graph0" class="graph" transform="scale(1 1) rotate(0) translate(4 1691.2824)">
<title>%0</title>
<polygon fill="#ffffff" stroke="transparent" points="-4,4 -4,-1691.2824 1622.0363,-1691.2824 1622.0363,4 -4,4"/>
<!-- zero -->
<g id="node1" class="node">
<title>zero</title>
<polygon fill="none" stroke="#000000" points="284.8921,-846.0461 230.8921,-846.0461 230.8921,-810.0461 284.8921,-810.0461 284.8921,-846.0461"/>
<text text-anchor="middle" x="257.8921" y="-823.8461" font-family="Times,serif" font-size="14.00" fill="#000000">zero</text>
</g>
<!-- deployer -->
<g id="node2" class="node">
<title>deployer</title>
<polygon fill="none" stroke="#000000" points="64.9706,-846.0461 .0098,-846.0461 .0098,-810.0461 64.9706,-810.0461 64.9706,-846.0461"/>
<text text-anchor="middle" x="32.4902" y="-823.8461" font-family="Times,serif" font-size="14.00" fill="#000000">deployer</text>
</g>
<!-- MCD_DEPLOY -->
<g id="node3" class="node">
<title>MCD_DEPLOY</title>
<polygon fill="none" stroke="#000000" points="184.399,-733.3452 105.9832,-733.3452 105.9832,-697.3452 184.399,-697.3452 184.399,-733.3452"/>
<text text-anchor="middle" x="145.1911" y="-711.1452" font-family="Times,serif" font-size="14.00" fill="#000000">DssDeploy</text>
</g>
<!-- MCD_DEPLOY&#45;&gt;zero -->
<g id="edge9" class="edge">
<title>MCD_DEPLOY&#45;&gt;zero</title>
<path fill="none" stroke="#000000" d="M163.2985,-733.4526C182.0294,-752.1835 211.4344,-781.5884 232.4867,-802.6408"/>
<polygon fill="#000000" stroke="#000000" points="230.2837,-805.3875 239.8296,-809.9837 235.2334,-800.4377 230.2837,-805.3875"/>
<text text-anchor="middle" x="172.6191" y="-772.2467" font-family="Times,serif" font-size="14.00" fill="#000000">authority</text>
</g>
<!-- MCD_DEPLOY&#45;&gt;deployer -->
<g id="edge2" class="edge">
<title>MCD_DEPLOY&#45;&gt;deployer</title>
<path fill="none" stroke="#000000" d="M127.0838,-733.4526C108.3528,-752.1835 78.9479,-781.5884 57.8956,-802.6408"/>
<polygon fill="#000000" stroke="#000000" points="55.1488,-800.4377 50.5526,-809.9837 60.0986,-805.3875 55.1488,-800.4377"/>
<text text-anchor="middle" x="74.9988" y="-772.2467" font-family="Times,serif" font-size="14.00" fill="#000000">owner</text>
</g>
<!-- MCD_VAT -->
<g id="node4" class="node">
<title>MCD_VAT</title>
<polygon fill="none" stroke="#000000" points="1565.2251,-1181.3686 1511.2251,-1181.3686 1511.2251,-1145.3686 1565.2251,-1145.3686 1565.2251,-1181.3686"/>
<text text-anchor="middle" x="1538.2251" y="-1159.1686" font-family="Times,serif" font-size="14.00" fill="#000000">Vat</text>
</g>
<!-- MCD_JUG -->
<g id="node7" class="node">
<title>MCD_JUG</title>
<polygon fill="none" stroke="#000000" points="1618.0363,-1012.3688 1564.0363,-1012.3688 1564.0363,-976.3688 1618.0363,-976.3688 1618.0363,-1012.3688"/>
<text text-anchor="middle" x="1591.0363" y="-990.1688" font-family="Times,serif" font-size="14.00" fill="#000000">Jug</text>
</g>
<!-- MCD_VAT&#45;&gt;MCD_JUG -->
<g id="edge22" class="edge">
<title>MCD_VAT&#45;&gt;MCD_JUG</title>
<path fill="none" stroke="#000000" d="M1543.8768,-1145.2827C1553.1041,-1115.7549 1571.4651,-1056.9982 1582.3549,-1022.15"/>
<polygon fill="#000000" stroke="#000000" points="1585.7033,-1023.169 1585.3454,-1012.5802 1579.022,-1021.081 1585.7033,-1023.169"/>
<text text-anchor="middle" x="1552.233" y="-1087.9164" font-family="Times,serif" font-size="14.00" fill="#000000">rely</text>
</g>
<!-- MCD_POT -->
<g id="node8" class="node">
<title>MCD_POT</title>
<polygon fill="none" stroke="#000000" points="1215.0711,-512.9036 1161.0711,-512.9036 1161.0711,-476.9036 1215.0711,-476.9036 1215.0711,-512.9036"/>
<text text-anchor="middle" x="1188.0711" y="-490.7036" font-family="Times,serif" font-size="14.00" fill="#000000">Pot</text>
</g>
<!-- MCD_VAT&#45;&gt;MCD_POT -->
<g id="edge23" class="edge">
<title>MCD_VAT&#45;&gt;MCD_POT</title>
<path fill="none" stroke="#000000" d="M1528.6778,-1145.1421C1480.1118,-1052.4268 1260.5165,-633.2063 1202.2823,-522.0337"/>
<polygon fill="#000000" stroke="#000000" points="1205.3505,-520.348 1197.6099,-513.1138 1199.1497,-523.5962 1205.3505,-520.348"/>
<text text-anchor="middle" x="1354.5971" y="-837.7879" font-family="Times,serif" font-size="14.00" fill="#000000">rely</text>
</g>
<!-- MCD_CAT -->
<g id="node12" class="node">
<title>MCD_CAT</title>
<polygon fill="none" stroke="#000000" points="813.6458,-1249.0583 759.6458,-1249.0583 759.6458,-1213.0583 813.6458,-1213.0583 813.6458,-1249.0583"/>
<text text-anchor="middle" x="786.6458" y="-1226.8583" font-family="Times,serif" font-size="14.00" fill="#000000">Cat</text>
</g>
<!-- MCD_VAT&#45;&gt;MCD_CAT -->
<g id="edge26" class="edge">
<title>MCD_VAT&#45;&gt;MCD_CAT</title>
<path fill="none" stroke="#000000" d="M1511.032,-1165.8177C1396.7533,-1176.11 955.2568,-1215.8726 823.7886,-1227.7131"/>
<polygon fill="#000000" stroke="#000000" points="823.4481,-1224.2295 813.8024,-1228.6125 824.0761,-1231.2013 823.4481,-1224.2295"/>
<text text-anchor="middle" x="1156.5274" y="-1200.9654" font-family="Times,serif" font-size="14.00" fill="#000000">rely</text>
</g>
<!-- MCD_SPOT -->
<g id="node13" class="node">
<title>MCD_SPOT</title>
<polygon fill="none" stroke="#000000" points="1040.1664,-528.7859 983.285,-528.7859 983.285,-492.7859 1040.1664,-492.7859 1040.1664,-528.7859"/>
<text text-anchor="middle" x="1011.7257" y="-506.5859" font-family="Times,serif" font-size="14.00" fill="#000000">Spotter</text>
</g>
<!-- MCD_VAT&#45;&gt;MCD_SPOT -->
<g id="edge20" class="edge">
<title>MCD_VAT&#45;&gt;MCD_SPOT</title>
<path fill="none" stroke="#000000" d="M1523.594,-1145.2337C1449.9388,-1053.9399 1119.8345,-644.784 1032.8114,-536.9211"/>
<polygon fill="#000000" stroke="#000000" points="1035.2892,-534.4183 1026.2861,-528.8331 1029.8413,-538.8137 1035.2892,-534.4183"/>
<text text-anchor="middle" x="1267.3198" y="-845.2774" font-family="Times,serif" font-size="14.00" fill="#000000">rely</text>
</g>
<!-- MCD_PAUSE_PROXY -->
<g id="node16" class="node">
<title>MCD_PAUSE_PROXY</title>
<polygon fill="none" stroke="#000000" points="904.8704,-610.9436 804.8928,-610.9436 804.8928,-574.9436 904.8704,-574.9436 904.8704,-610.9436"/>
<text text-anchor="middle" x="854.8816" y="-588.7436" font-family="Times,serif" font-size="14.00" fill="#000000">DSPauseProxy</text>
</g>
<!-- MCD_VAT&#45;&gt;MCD_PAUSE_PROXY -->
<g id="edge34" class="edge">
<title>MCD_VAT&#45;&gt;MCD_PAUSE_PROXY</title>
<path fill="none" stroke="#000000" d="M1516.6454,-1145.3548C1416.7272,-1061.9475 999.0268,-713.2696 884.202,-617.419"/>
<polygon fill="#000000" stroke="#000000" points="886.3864,-614.6832 876.4666,-610.9618 881.9005,-620.057 886.3864,-614.6832"/>
<text text-anchor="middle" x="1189.5408" y="-885.5869" font-family="Times,serif" font-size="14.00" fill="#000000">rely</text>
</g>
<!-- MCD_END -->
<g id="node21" class="node">
<title>MCD_END</title>
<polygon fill="none" stroke="#000000" points="1451.7605,-1317.2941 1397.7605,-1317.2941 1397.7605,-1281.2941 1451.7605,-1281.2941 1451.7605,-1317.2941"/>
<text text-anchor="middle" x="1424.7605" y="-1295.0941" font-family="Times,serif" font-size="14.00" fill="#000000">End</text>
</g>
<!-- MCD_VAT&#45;&gt;MCD_END -->
<g id="edge28" class="edge">
<title>MCD_VAT&#45;&gt;MCD_END</title>
<path fill="none" stroke="#000000" d="M1523.1579,-1181.4185C1503.4908,-1204.9788 1468.9351,-1246.3749 1446.4506,-1273.3103"/>
<polygon fill="#000000" stroke="#000000" points="1443.6115,-1271.2498 1439.8901,-1281.1696 1448.9853,-1275.7356 1443.6115,-1271.2498"/>
<text text-anchor="middle" x="1473.9214" y="-1231.5644" font-family="Times,serif" font-size="14.00" fill="#000000">rely</text>
</g>
<!-- ETHJoin_A -->
<g id="node26" class="node">
<title>ETHJoin_A</title>
<polygon fill="none" stroke="#000000" points="1616.8084,-836.0234 1533.4998,-836.0234 1533.4998,-800.0234 1616.8084,-800.0234 1616.8084,-836.0234"/>
<text text-anchor="middle" x="1575.1541" y="-813.8234" font-family="Times,serif" font-size="14.00" fill="#000000">ETHJoin_A</text>
</g>
<!-- MCD_VAT&#45;&gt;ETHJoin_A -->
<g id="edge43" class="edge">
<title>MCD_VAT&#45;&gt;ETHJoin_A</title>
<path fill="none" stroke="#000000" d="M1540.1586,-1145.2876C1546.2019,-1088.7727 1564.7693,-915.1382 1572.1161,-846.4338"/>
<polygon fill="#000000" stroke="#000000" points="1575.612,-846.6576 1573.1952,-836.3421 1568.6517,-845.9133 1575.612,-846.6576"/>
<text text-anchor="middle" x="1545.2544" y="-1000.0607" font-family="Times,serif" font-size="14.00" fill="#000000">rely</text>
</g>
<!-- BATJoin_A -->
<g id="node28" class="node">
<title>BATJoin_A</title>
<polygon fill="none" stroke="#000000" points="1535.4351,-679.1794 1450.5576,-679.1794 1450.5576,-643.1794 1535.4351,-643.1794 1535.4351,-679.1794"/>
<text text-anchor="middle" x="1492.9963" y="-656.9794" font-family="Times,serif" font-size="14.00" fill="#000000">BATJoin_A</text>
</g>
<!-- MCD_VAT&#45;&gt;BATJoin_A -->
<g id="edge47" class="edge">
<title>MCD_VAT&#45;&gt;BATJoin_A</title>
<path fill="none" stroke="#000000" d="M1536.5887,-1145.1988C1529.8013,-1069.8358 1503.8326,-781.4975 1495.5504,-689.5384"/>
<polygon fill="#000000" stroke="#000000" points="1499.0136,-688.9705 1494.6306,-679.3248 1492.0418,-689.5985 1499.0136,-688.9705"/>
<text text-anchor="middle" x="1505.1867" y="-921.5686" font-family="Times,serif" font-size="14.00" fill="#000000">rely</text>
</g>
<!-- SAIJoin_A -->
<g id="node31" class="node">
<title>SAIJoin_A</title>
<polygon fill="none" stroke="#000000" points="1396.5625,-565.7148 1317.5793,-565.7148 1317.5793,-529.7148 1396.5625,-529.7148 1396.5625,-565.7148"/>
<text text-anchor="middle" x="1357.0709" y="-543.5148" font-family="Times,serif" font-size="14.00" fill="#000000">SAIJoin_A</text>
</g>
<!-- MCD_VAT&#45;&gt;SAIJoin_A -->
<g id="edge51" class="edge">
<title>MCD_VAT&#45;&gt;SAIJoin_A</title>
<path fill="none" stroke="#000000" d="M1532.9016,-1145.2767C1507.2521,-1058.1065 1396.3777,-681.2992 1365.2345,-575.459"/>
<polygon fill="#000000" stroke="#000000" points="1368.5752,-574.413 1362.3946,-565.8077 1361.8599,-576.389 1368.5752,-574.413"/>
<text text-anchor="middle" x="1438.1852" y="-864.5678" font-family="Times,serif" font-size="14.00" fill="#000000">rely</text>
</g>
<!-- MCD_DAI -->
<g id="node5" class="node">
<title>MCD_DAI</title>
<polygon fill="none" stroke="#000000" points="372.4176,-354.0461 318.4176,-354.0461 318.4176,-318.0461 372.4176,-318.0461 372.4176,-354.0461"/>
<text text-anchor="middle" x="345.4176" y="-331.8461" font-family="Times,serif" font-size="14.00" fill="#000000">Dai</text>
</g>
<!-- MCD_JOIN_DAI -->
<g id="node6" class="node">
<title>MCD_JOIN_DAI</title>
<polygon fill="none" stroke="#000000" points="503.7398,-354.0461 444.6424,-354.0461 444.6424,-318.0461 503.7398,-318.0461 503.7398,-354.0461"/>
<text text-anchor="middle" x="474.1911" y="-331.8461" font-family="Times,serif" font-size="14.00" fill="#000000">DaiJoin</text>
</g>
<!-- MCD_DAI&#45;&gt;MCD_JOIN_DAI -->
<g id="edge21" class="edge">
<title>MCD_DAI&#45;&gt;MCD_JOIN_DAI</title>
<path fill="none" stroke="#000000" d="M372.7272,-336.0461C390.5822,-336.0461 414.2077,-336.0461 434.1686,-336.0461"/>
<polygon fill="#000000" stroke="#000000" points="434.2229,-339.5462 444.2229,-336.0461 434.2228,-332.5462 434.2229,-339.5462"/>
<text text-anchor="middle" x="392.565" y="-340.2461" font-family="Times,serif" font-size="14.00" fill="#000000">rely</text>
</g>
<!-- MCD_JUG&#45;&gt;MCD_PAUSE_PROXY -->
<g id="edge37" class="edge">
<title>MCD_JUG&#45;&gt;MCD_PAUSE_PROXY</title>
<path fill="none" stroke="#000000" d="M1563.9631,-979.6058C1452.8985,-919.0423 1031.7148,-689.3708 896.7586,-615.7791"/>
<polygon fill="#000000" stroke="#000000" points="898.3717,-612.6722 887.9165,-610.9575 895.0204,-618.8179 898.3717,-612.6722"/>
<text text-anchor="middle" x="1219.478" y="-801.8925" font-family="Times,serif" font-size="14.00" fill="#000000">rely</text>
</g>
<!-- MCD_POT&#45;&gt;MCD_PAUSE_PROXY -->
<g id="edge38" class="edge">
<title>MCD_POT&#45;&gt;MCD_PAUSE_PROXY</title>
<path fill="none" stroke="#000000" d="M1160.8048,-502.9266C1107.3668,-518.6506 987.7396,-553.8506 914.9191,-575.2777"/>
<polygon fill="#000000" stroke="#000000" points="913.5716,-572.0258 904.9663,-578.2063 915.5476,-578.7411 913.5716,-572.0258"/>
<text text-anchor="middle" x="1026.9791" y="-543.3022" font-family="Times,serif" font-size="14.00" fill="#000000">rely</text>
</g>
<!-- MCD_POT&#45;&gt;MCD_END -->
<g id="edge31" class="edge">
<title>MCD_POT&#45;&gt;MCD_END</title>
<path fill="none" stroke="#000000" d="M1193.4594,-513.2158C1224.3474,-618.1888 1378.8621,-1143.3081 1416.4897,-1271.1857"/>
<polygon fill="#000000" stroke="#000000" points="1413.2001,-1272.4052 1419.3806,-1281.0105 1419.9154,-1270.4292 1413.2001,-1272.4052"/>
<text text-anchor="middle" x="1294.0916" y="-896.4007" font-family="Times,serif" font-size="14.00" fill="#000000">rely</text>
</g>
<!-- MCD_FLAP -->
<g id="node9" class="node">
<title>MCD_FLAP</title>
<polygon fill="none" stroke="#000000" points="770.6805,-746.8691 712.1536,-746.8691 712.1536,-710.8691 770.6805,-710.8691 770.6805,-746.8691"/>
<text text-anchor="middle" x="741.417" y="-724.6691" font-family="Times,serif" font-size="14.00" fill="#000000">Flapper</text>
</g>
<!-- MCD_VOW -->
<g id="node11" class="node">
<title>MCD_VOW</title>
<polygon fill="none" stroke="#000000" points="731.4881,-1092.2143 677.4881,-1092.2143 677.4881,-1056.2143 731.4881,-1056.2143 731.4881,-1092.2143"/>
<text text-anchor="middle" x="704.4881" y="-1070.0143" font-family="Times,serif" font-size="14.00" fill="#000000">Vow</text>
</g>
<!-- MCD_FLAP&#45;&gt;MCD_VOW -->
<g id="edge24" class="edge">
<title>MCD_FLAP&#45;&gt;MCD_VOW</title>
<path fill="none" stroke="#000000" d="M739.4836,-746.9501C733.4402,-803.465 714.8729,-977.0995 707.5261,-1045.8039"/>
<polygon fill="#000000" stroke="#000000" points="704.0302,-1045.5801 706.447,-1055.8956 710.9905,-1046.3244 704.0302,-1045.5801"/>
<text text-anchor="middle" x="734.3877" y="-900.577" font-family="Times,serif" font-size="14.00" fill="#000000">rely</text>
</g>
<!-- MCD_FLAP&#45;&gt;MCD_PAUSE_PROXY -->
<g id="edge40" class="edge">
<title>MCD_FLAP&#45;&gt;MCD_PAUSE_PROXY</title>
<path fill="none" stroke="#000000" d="M756.4843,-710.8192C776.1514,-687.2589 810.707,-645.8628 833.1915,-618.9274"/>
<polygon fill="#000000" stroke="#000000" points="836.0307,-620.9879 839.7521,-611.0681 830.6569,-616.5021 836.0307,-620.9879"/>
<text text-anchor="middle" x="783.955" y="-669.0733" font-family="Times,serif" font-size="14.00" fill="#000000">rely</text>
</g>
<!-- MCD_FLOP -->
<g id="node10" class="node">
<title>MCD_FLOP</title>
<polygon fill="none" stroke="#000000" points="718.156,-915.8689 659.0558,-915.8689 659.0558,-879.8689 718.156,-879.8689 718.156,-915.8689"/>
<text text-anchor="middle" x="688.6059" y="-893.6689" font-family="Times,serif" font-size="14.00" fill="#000000">Flopper</text>
</g>
<!-- MCD_FLOP&#45;&gt;MCD_VOW -->
<g id="edge25" class="edge">
<title>MCD_FLOP&#45;&gt;MCD_VOW</title>
<path fill="none" stroke="#000000" d="M690.2457,-916.0767C693.0229,-946.9128 698.6698,-1009.6118 701.9575,-1046.1166"/>
<polygon fill="#000000" stroke="#000000" points="698.4742,-1046.4597 702.8572,-1056.1055 705.446,-1045.8318 698.4742,-1046.4597"/>
<text text-anchor="middle" x="685.2187" y="-985.2966" font-family="Times,serif" font-size="14.00" fill="#000000">rely</text>
</g>
<!-- MCD_FLOP&#45;&gt;MCD_PAUSE_PROXY -->
<g id="edge41" class="edge">
<title>MCD_FLOP&#45;&gt;MCD_PAUSE_PROXY</title>
<path fill="none" stroke="#000000" d="M698.5092,-879.7076C726.5811,-828.2278 806.7927,-681.1316 840.1021,-620.0471"/>
<polygon fill="#000000" stroke="#000000" points="843.3155,-621.4649 845.0302,-611.0097 837.1698,-618.1136 843.3155,-621.4649"/>
<text text-anchor="middle" x="758.4228" y="-754.0773" font-family="Times,serif" font-size="14.00" fill="#000000">rely</text>
</g>
<!-- MCD_VOW&#45;&gt;MCD_CAT -->
<g id="edge27" class="edge">
<title>MCD_VOW&#45;&gt;MCD_CAT</title>
<path fill="none" stroke="#000000" d="M714.0734,-1092.5132C728.4202,-1119.9021 755.5754,-1171.743 772.2939,-1203.6595"/>
<polygon fill="#000000" stroke="#000000" points="769.381,-1205.6417 777.1216,-1212.8759 775.5818,-1202.3935 769.381,-1205.6417"/>
<text text-anchor="middle" x="732.3007" y="-1152.2864" font-family="Times,serif" font-size="14.00" fill="#000000">rely</text>
</g>
<!-- MCD_VOW&#45;&gt;MCD_PAUSE_PROXY -->
<g id="edge36" class="edge">
<title>MCD_VOW&#45;&gt;MCD_PAUSE_PROXY</title>
<path fill="none" stroke="#000000" d="M710.2001,-1055.9356C733.1412,-982.5221 818.6657,-708.8374 846.248,-620.572"/>
<polygon fill="#000000" stroke="#000000" points="849.6022,-621.5725 849.2442,-610.9837 842.9208,-619.4846 849.6022,-621.5725"/>
<text text-anchor="middle" x="767.3411" y="-842.4538" font-family="Times,serif" font-size="14.00" fill="#000000">rely</text>
</g>
<!-- MCD_VOW&#45;&gt;MCD_END -->
<g id="edge30" class="edge">
<title>MCD_VOW&#45;&gt;MCD_END</title>
<path fill="none" stroke="#000000" d="M731.8441,-1082.7628C842.9285,-1117.4759 1260.3971,-1247.9317 1387.6861,-1287.7086"/>
<polygon fill="#000000" stroke="#000000" points="1386.7884,-1291.095 1397.3772,-1290.737 1388.8764,-1284.4136 1386.7884,-1291.095"/>
<text text-anchor="middle" x="1048.8822" y="-1189.4357" font-family="Times,serif" font-size="14.00" fill="#000000">rely</text>
</g>
<!-- MCD_CAT&#45;&gt;MCD_PAUSE_PROXY -->
<g id="edge35" class="edge">
<title>MCD_CAT&#45;&gt;MCD_PAUSE_PROXY</title>
<path fill="none" stroke="#000000" d="M788.5781,-1212.9887C798.1082,-1123.8667 840.1159,-731.0274 851.8359,-621.4261"/>
<polygon fill="#000000" stroke="#000000" points="855.3505,-621.4753 852.9337,-611.1598 848.3902,-620.731 855.3505,-621.4753"/>
<text text-anchor="middle" x="809.3241" y="-921.4074" font-family="Times,serif" font-size="14.00" fill="#000000">rely</text>
</g>
<!-- MCD_CAT&#45;&gt;MCD_END -->
<g id="edge29" class="edge">
<title>MCD_CAT&#45;&gt;MCD_END</title>
<path fill="none" stroke="#000000" d="M813.6572,-1233.9467C914.7583,-1244.7578 1270.9831,-1282.8501 1387.5418,-1295.3142"/>
<polygon fill="#000000" stroke="#000000" points="1387.4269,-1298.8218 1397.7424,-1296.405 1388.1712,-1291.8614 1387.4269,-1298.8218"/>
<text text-anchor="middle" x="1089.7166" y="-1268.8304" font-family="Times,serif" font-size="14.00" fill="#000000">rely</text>
</g>
<!-- MCD_SPOT&#45;&gt;MCD_PAUSE_PROXY -->
<g id="edge39" class="edge">
<title>MCD_SPOT&#45;&gt;MCD_PAUSE_PROXY</title>
<path fill="none" stroke="#000000" d="M983.3224,-525.664C959.6081,-538.086 925.4209,-555.9939 898.2786,-570.2115"/>
<polygon fill="#000000" stroke="#000000" points="896.6034,-567.1378 889.3692,-574.8784 899.8515,-573.3386 896.6034,-567.1378"/>
<text text-anchor="middle" x="929.9176" y="-552.1377" font-family="Times,serif" font-size="14.00" fill="#000000">rely</text>
</g>
<!-- MCD_SPOT&#45;&gt;MCD_END -->
<g id="edge32" class="edge">
<title>MCD_SPOT&#45;&gt;MCD_END</title>
<path fill="none" stroke="#000000" d="M1021.3274,-529.1161C1075.7477,-633.0077 1345.3239,-1147.6447 1410.5381,-1272.1425"/>
<polygon fill="#000000" stroke="#000000" points="1407.4708,-1273.8301 1415.2114,-1281.0643 1413.6717,-1270.5819 1407.4708,-1273.8301"/>
<text text-anchor="middle" x="1205.0498" y="-904.8293" font-family="Times,serif" font-size="14.00" fill="#000000">rely</text>
</g>
<!-- MCD_GOV -->
<g id="node14" class="node">
<title>MCD_GOV</title>
<polygon fill="none" stroke="#000000" points="665.966,-152.3216 611.966,-152.3216 611.966,-116.3216 665.966,-116.3216 665.966,-152.3216"/>
<text text-anchor="middle" x="638.966" y="-130.1216" font-family="Times,serif" font-size="14.00" fill="#000000">MKR</text>
</g>
<!-- MCD_GOV&#45;&gt;zero -->
<g id="edge8" class="edge">
<title>MCD_GOV&#45;&gt;zero</title>
<path fill="none" stroke="#000000" d="M628.969,-152.5205C576.7127,-247.6502 334.9893,-687.6947 272.6117,-801.2499"/>
<polygon fill="#000000" stroke="#000000" points="269.5313,-799.588 267.7843,-810.0378 275.6666,-802.9582 269.5313,-799.588"/>
<text text-anchor="middle" x="425.5168" y="-481.0852" font-family="Times,serif" font-size="14.00" fill="#000000">authority</text>
</g>
<!-- MKR_MULTISIG -->
<g id="node25" class="node">
<title>MKR_MULTISIG</title>
<polygon fill="none" stroke="#000000" points="765.3185,-36 678.2027,-36 678.2027,0 765.3185,0 765.3185,-36"/>
<text text-anchor="middle" x="721.7606" y="-13.8" font-family="Times,serif" font-size="14.00" fill="#000000">MkrMultisig</text>
</g>
<!-- MCD_GOV&#45;&gt;MKR_MULTISIG -->
<g id="edge18" class="edge">
<title>MCD_GOV&#45;&gt;MKR_MULTISIG</title>
<path fill="none" stroke="#000000" d="M651.9026,-116.1464C665.6342,-96.8543 687.4631,-66.186 703.0645,-44.2669"/>
<polygon fill="#000000" stroke="#000000" points="705.9674,-46.2242 708.9148,-36.0476 700.2645,-42.165 705.9674,-46.2242"/>
<text text-anchor="middle" x="659.9927" y="-84.4066" font-family="Times,serif" font-size="14.00" fill="#000000">owner</text>
</g>
<!-- MCD_PAUSE -->
<g id="node15" class="node">
<title>MCD_PAUSE</title>
<polygon fill="none" stroke="#000000" points="723.0085,-406.5291 656.9142,-406.5291 656.9142,-370.5291 723.0085,-370.5291 723.0085,-406.5291"/>
<text text-anchor="middle" x="689.9614" y="-384.3291" font-family="Times,serif" font-size="14.00" fill="#000000">DSPause</text>
</g>
<!-- MCD_PAUSE&#45;&gt;zero -->
<g id="edge17" class="edge">
<title>MCD_PAUSE&#45;&gt;zero</title>
<path fill="none" stroke="#000000" d="M672.2182,-406.5781C604.5309,-475.4322 362.3808,-721.7563 283.1686,-802.3339"/>
<polygon fill="#000000" stroke="#000000" points="280.5373,-800.0179 276.0229,-809.6028 285.5292,-804.9252 280.5373,-800.0179"/>
<text text-anchor="middle" x="460.2025" y="-608.656" font-family="Times,serif" font-size="14.00" fill="#000000">owner</text>
</g>
<!-- MCD_ADM -->
<g id="node18" class="node">
<title>MCD_ADM</title>
<polygon fill="none" stroke="#000000" points="704.734,-293.3312 639.7508,-293.3312 639.7508,-257.3312 704.734,-257.3312 704.734,-293.3312"/>
<text text-anchor="middle" x="672.2424" y="-271.1312" font-family="Times,serif" font-size="14.00" fill="#000000">DSChief</text>
</g>
<!-- MCD_PAUSE&#45;&gt;MCD_ADM -->
<g id="edge7" class="edge">
<title>MCD_PAUSE&#45;&gt;MCD_ADM</title>
<path fill="none" stroke="#000000" d="M687.1145,-370.3419C684.2859,-352.271 679.9089,-324.3087 676.6346,-303.3907"/>
<polygon fill="#000000" stroke="#000000" points="680.0867,-302.8117 675.0822,-293.4733 673.1709,-303.8943 680.0867,-302.8117"/>
<text text-anchor="middle" x="656.6011" y="-341.0663" font-family="Times,serif" font-size="14.00" fill="#000000">authority</text>
</g>
<!-- MCD_PAUSE_PROXY&#45;&gt;MCD_PAUSE -->
<g id="edge16" class="edge">
<title>MCD_PAUSE_PROXY&#45;&gt;MCD_PAUSE</title>
<path fill="none" stroke="#000000" d="M840.2461,-574.8032C810.9056,-538.4365 744.8078,-456.5098 710.8968,-414.478"/>
<polygon fill="#000000" stroke="#000000" points="713.5673,-412.214 704.5642,-406.6289 708.1193,-416.6094 713.5673,-412.214"/>
<text text-anchor="middle" x="758.0805" y="-498.8406" font-family="Times,serif" font-size="14.00" fill="#000000">owner</text>
</g>
<!-- MCD_IOU -->
<g id="node17" class="node">
<title>MCD_IOU</title>
<polygon fill="none" stroke="#000000" points="610.0696,-365.2752 556.0696,-365.2752 556.0696,-329.2752 610.0696,-329.2752 610.0696,-365.2752"/>
<text text-anchor="middle" x="583.0696" y="-343.0752" font-family="Times,serif" font-size="14.00" fill="#000000">IOU</text>
</g>
<!-- MCD_IOU&#45;&gt;zero -->
<g id="edge6" class="edge">
<title>MCD_IOU&#45;&gt;zero</title>
<path fill="none" stroke="#000000" d="M570.7194,-365.5349C520.9151,-439.17 334.6933,-714.4965 275.8393,-801.5114"/>
<polygon fill="#000000" stroke="#000000" points="272.7845,-799.7806 270.0811,-810.0248 278.5828,-803.7024 272.7845,-799.7806"/>
<text text-anchor="middle" x="398.0058" y="-587.7232" font-family="Times,serif" font-size="14.00" fill="#000000">authority</text>
</g>
<!-- MCD_IOU&#45;&gt;MCD_ADM -->
<g id="edge15" class="edge">
<title>MCD_IOU&#45;&gt;MCD_ADM</title>
<path fill="none" stroke="#000000" d="M605.5717,-329.1207C616.555,-320.2594 629.9303,-309.4683 641.81,-299.8839"/>
<polygon fill="#000000" stroke="#000000" points="644.1624,-302.4831 649.7476,-293.4799 639.767,-297.0351 644.1624,-302.4831"/>
<text text-anchor="middle" x="606.1999" y="-301.9023" font-family="Times,serif" font-size="14.00" fill="#000000">owner</text>
</g>
<!-- MCD_ADM&#45;&gt;zero -->
<g id="edge14" class="edge">
<title>MCD_ADM&#45;&gt;zero</title>
<path fill="none" stroke="#000000" d="M658.6918,-293.4068C597.8351,-374.5855 349.6187,-705.6891 277.5797,-801.7842"/>
<polygon fill="#000000" stroke="#000000" points="274.7463,-799.7287 271.5485,-809.8294 280.3473,-803.9275 274.7463,-799.7287"/>
<text text-anchor="middle" x="450.6449" y="-551.7955" font-family="Times,serif" font-size="14.00" fill="#000000">owner</text>
</g>
<!-- MCD_ADM&#45;&gt;MCD_ADM -->
<g id="edge5" class="edge">
<title>MCD_ADM&#45;&gt;MCD_ADM</title>
<path fill="none" stroke="#000000" d="M704.7822,-282.0746C714.84,-281.9384 722.7382,-279.6906 722.7382,-275.3312 722.7382,-272.6066 719.653,-270.7068 714.8836,-269.6319"/>
<polygon fill="#000000" stroke="#000000" points="715.0891,-266.1346 704.7822,-268.5878 714.3693,-273.0975 715.0891,-266.1346"/>
<text text-anchor="middle" x="748.0117" y="-271.1312" font-family="Times,serif" font-size="14.00" fill="#000000">authority</text>
</g>
<!-- PROXY_DEPLOYER -->
<g id="node19" class="node">
<title>PROXY_DEPLOYER</title>
<polygon fill="none" stroke="#000000" points="197.7213,-958.7471 92.6609,-958.7471 92.6609,-922.7471 197.7213,-922.7471 197.7213,-958.7471"/>
<text text-anchor="middle" x="145.1911" y="-936.5471" font-family="Times,serif" font-size="14.00" fill="#000000">Proxy Deployer</text>
</g>
<!-- PROXY_DEPLOYER&#45;&gt;zero -->
<g id="edge4" class="edge">
<title>PROXY_DEPLOYER&#45;&gt;zero</title>
<path fill="none" stroke="#000000" d="M163.2985,-922.6397C182.0294,-903.9088 211.4344,-874.5038 232.4867,-853.4515"/>
<polygon fill="#000000" stroke="#000000" points="235.2334,-855.6545 239.8296,-846.1086 230.2837,-850.7048 235.2334,-855.6545"/>
<text text-anchor="middle" x="172.6191" y="-892.2456" font-family="Times,serif" font-size="14.00" fill="#000000">authority</text>
</g>
<!-- PROXY_DEPLOYER&#45;&gt;deployer -->
<g id="edge13" class="edge">
<title>PROXY_DEPLOYER&#45;&gt;deployer</title>
<path fill="none" stroke="#000000" d="M127.0838,-922.6397C108.3528,-903.9088 78.9479,-874.5038 57.8956,-853.4515"/>
<polygon fill="#000000" stroke="#000000" points="60.0986,-850.7048 50.5526,-846.1086 55.1488,-855.6545 60.0986,-850.7048"/>
<text text-anchor="middle" x="74.9988" y="-892.2456" font-family="Times,serif" font-size="14.00" fill="#000000">owner</text>
</g>
<!-- SAI_PROXY -->
<g id="node20" class="node">
<title>SAI_PROXY</title>
<polygon fill="none" stroke="#000000" points="651.4613,-1569.3314 580.7989,-1569.3314 580.7989,-1533.3314 651.4613,-1533.3314 651.4613,-1569.3314"/>
<text text-anchor="middle" x="616.1301" y="-1547.1314" font-family="Times,serif" font-size="14.00" fill="#000000">Sai Proxy</text>
</g>
<!-- SAI_PROXY&#45;&gt;zero -->
<g id="edge3" class="edge">
<title>SAI_PROXY&#45;&gt;zero</title>
<path fill="none" stroke="#000000" d="M609.6452,-1533.1667C567.7389,-1435.5044 338.993,-973.2181 274.6179,-855.4044"/>
<polygon fill="#000000" stroke="#000000" points="277.4869,-853.3598 269.5862,-846.3008 271.3604,-856.746 277.4869,-853.3598"/>
<text text-anchor="middle" x="416.8581" y="-1181.6855" font-family="Times,serif" font-size="14.00" fill="#000000">authority</text>
</g>
<!-- SAI_PROXY&#45;&gt;zero -->
<g id="edge12" class="edge">
<title>SAI_PROXY&#45;&gt;zero</title>
<path fill="none" stroke="#000000" d="M604.4161,-1533.0413C549.5694,-1435.1593 320.846,-973.6358 268.4738,-855.5836"/>
<polygon fill="#000000" stroke="#000000" points="271.5646,-853.9156 264.3526,-846.1542 265.1504,-856.719 271.5646,-853.9156"/>
<text text-anchor="middle" x="418.9541" y="-1198.5124" font-family="Times,serif" font-size="14.00" fill="#000000">owner</text>
</g>
<!-- MCD_END&#45;&gt;MCD_PAUSE_PROXY -->
<g id="edge42" class="edge">
<title>MCD_END&#45;&gt;MCD_PAUSE_PROXY</title>
<path fill="none" stroke="#000000" d="M1410.1009,-1281.1238C1332.2575,-1184.6389 967.4305,-732.445 875.8014,-618.8731"/>
<polygon fill="#000000" stroke="#000000" points="878.4475,-616.5789 869.4444,-610.9937 872.9995,-620.9743 878.4475,-616.5789"/>
<text text-anchor="middle" x="1132.0682" y="-954.1985" font-family="Times,serif" font-size="14.00" fill="#000000">rely</text>
</g>
<!-- MCD_ESM -->
<g id="node22" class="node">
<title>MCD_ESM</title>
<polygon fill="none" stroke="#000000" points="1513.924,-1394.3441 1459.924,-1394.3441 1459.924,-1358.3441 1513.924,-1358.3441 1513.924,-1394.3441"/>
<text text-anchor="middle" x="1486.924" y="-1372.1441" font-family="Times,serif" font-size="14.00" fill="#000000">ESM</text>
</g>
<!-- MCD_END&#45;&gt;MCD_ESM -->
<g id="edge33" class="edge">
<title>MCD_END&#45;&gt;MCD_ESM</title>
<path fill="none" stroke="#000000" d="M1439.4924,-1317.5539C1447.3889,-1327.3414 1457.2537,-1339.5685 1465.9386,-1350.3332"/>
<polygon fill="#000000" stroke="#000000" points="1463.2947,-1352.6303 1472.2979,-1358.2154 1468.7427,-1348.2348 1463.2947,-1352.6303"/>
<text text-anchor="middle" x="1441.8326" y="-1338.1436" font-family="Times,serif" font-size="14.00" fill="#000000">rely</text>
</g>
<!-- SAI_TUB -->
<g id="node23" class="node">
<title>SAI_TUB</title>
<polygon fill="none" stroke="#000000" points="650.8954,-1687.2824 594.0111,-1687.2824 594.0111,-1651.2824 650.8954,-1651.2824 650.8954,-1687.2824"/>
<text text-anchor="middle" x="622.4533" y="-1665.0824" font-family="Times,serif" font-size="14.00" fill="#000000">SaiTub</text>
</g>
<!-- SAI_TUB&#45;&gt;zero -->
<g id="edge11" class="edge">
<title>SAI_TUB&#45;&gt;zero</title>
<path fill="none" stroke="#000000" d="M614.4999,-1650.9296C567.5128,-1542.5055 326.3522,-986.0199 269.7797,-855.4773"/>
<polygon fill="#000000" stroke="#000000" points="272.9286,-853.941 265.7408,-846.1573 266.5057,-856.7245 272.9286,-853.941"/>
<text text-anchor="middle" x="424.6489" y="-1257.4035" font-family="Times,serif" font-size="14.00" fill="#000000">owner</text>
</g>
<!-- SAI_TUB&#45;&gt;SAI_PROXY -->
<g id="edge10" class="edge">
<title>SAI_TUB&#45;&gt;SAI_PROXY</title>
<path fill="none" stroke="#000000" d="M621.4791,-1651.111C620.461,-1632.1184 618.8491,-1602.0516 617.6607,-1579.8829"/>
<polygon fill="#000000" stroke="#000000" points="621.1462,-1579.516 617.1158,-1569.7178 614.1562,-1579.8908 621.1462,-1579.516"/>
<text text-anchor="middle" x="594.2964" y="-1619.697" font-family="Times,serif" font-size="14.00" fill="#000000">authority</text>
</g>
<!-- MIGRATION -->
<g id="node24" class="node">
<title>MIGRATION</title>
<polygon fill="none" stroke="#000000" points="1479.0904,-450.4186 1360.7934,-450.4186 1360.7934,-414.4186 1479.0904,-414.4186 1479.0904,-450.4186"/>
<text text-anchor="middle" x="1419.9419" y="-428.2186" font-family="Times,serif" font-size="14.00" fill="#000000">ScdMcdMigration</text>
</g>
<!-- ETHJoin_A&#45;&gt;MCD_PAUSE_PROXY -->
<g id="edge57" class="edge">
<title>ETHJoin_A&#45;&gt;MCD_PAUSE_PROXY</title>
<path fill="none" stroke="#000000" d="M1533.3159,-804.9493C1411.6359,-766.9252 1057.5138,-656.2647 915.1673,-611.7824"/>
<polygon fill="#000000" stroke="#000000" points="915.8792,-608.338 905.2904,-608.696 913.7913,-615.0194 915.8792,-608.338"/>
<text text-anchor="middle" x="1213.3587" y="-712.5659" font-family="Times,serif" font-size="14.00" fill="#000000">rely</text>
</g>
<!-- Flipper_ETH&#45;A -->
<g id="node27" class="node">
<title>Flipper_ETH&#45;A</title>
<polygon fill="none" stroke="#000000" points="975.4901,-1362.5229 869.6525,-1362.5229 869.6525,-1326.5229 975.4901,-1326.5229 975.4901,-1362.5229"/>
<text text-anchor="middle" x="922.5713" y="-1340.3229" font-family="Times,serif" font-size="14.00" fill="#000000">Flipper_ETH&#45;A</text>
</g>
<!-- Flipper_ETH&#45;A&#45;&gt;MCD_CAT -->
<g id="edge44" class="edge">
<title>Flipper_ETH&#45;A&#45;&gt;MCD_CAT</title>
<path fill="none" stroke="#000000" d="M900.7325,-1326.2928C877.8444,-1307.1869 841.7417,-1277.0499 816.2896,-1255.8036"/>
<polygon fill="#000000" stroke="#000000" points="818.3502,-1252.9645 808.4304,-1249.2431 813.8644,-1258.3383 818.3502,-1252.9645"/>
<text text-anchor="middle" x="847.6282" y="-1295.2482" font-family="Times,serif" font-size="14.00" fill="#000000">rely</text>
</g>
<!-- Flipper_ETH&#45;A&#45;&gt;MCD_PAUSE_PROXY -->
<g id="edge46" class="edge">
<title>Flipper_ETH&#45;A&#45;&gt;MCD_PAUSE_PROXY</title>
<path fill="none" stroke="#000000" d="M920.9316,-1326.3168C911.9261,-1226.3256 868.4836,-743.9709 857.4396,-621.3452"/>
<polygon fill="#000000" stroke="#000000" points="860.913,-620.8914 856.53,-611.2457 853.9412,-621.5194 860.913,-620.8914"/>
<text text-anchor="middle" x="878.3027" y="-978.031" font-family="Times,serif" font-size="14.00" fill="#000000">rely</text>
</g>
<!-- Flipper_ETH&#45;A&#45;&gt;MCD_END -->
<g id="edge45" class="edge">
<title>Flipper_ETH&#45;A&#45;&gt;MCD_END</title>
<path fill="none" stroke="#000000" d="M975.3652,-1339.7681C1077.3638,-1330.5818 1299.2215,-1310.6006 1387.4688,-1302.6527"/>
<polygon fill="#000000" stroke="#000000" points="1387.9055,-1306.1276 1397.5512,-1301.7447 1387.2776,-1299.1559 1387.9055,-1306.1276"/>
<text text-anchor="middle" x="1170.5341" y="-1325.4104" font-family="Times,serif" font-size="14.00" fill="#000000">rely</text>
</g>
<!-- BATJoin_A&#45;&gt;MCD_PAUSE_PROXY -->
<g id="edge58" class="edge">
<title>BATJoin_A&#45;&gt;MCD_PAUSE_PROXY</title>
<path fill="none" stroke="#000000" d="M1450.6337,-656.6494C1340.1929,-644.8396 1043.173,-613.0782 915.0577,-599.3784"/>
<polygon fill="#000000" stroke="#000000" points="915.3433,-595.8891 905.0278,-598.3059 914.5989,-602.8494 915.3433,-595.8891"/>
<text text-anchor="middle" x="1171.9628" y="-632.2139" font-family="Times,serif" font-size="14.00" fill="#000000">rely</text>
</g>
<!-- Flipper_BAT&#45;A -->
<g id="node29" class="node">
<title>Flipper_BAT&#45;A</title>
<polygon fill="none" stroke="#000000" points="1144.7733,-1415.3341 1038.3689,-1415.3341 1038.3689,-1379.3341 1144.7733,-1379.3341 1144.7733,-1415.3341"/>
<text text-anchor="middle" x="1091.5711" y="-1393.1341" font-family="Times,serif" font-size="14.00" fill="#000000">Flipper_BAT&#45;A</text>
</g>
<!-- Flipper_BAT&#45;A&#45;&gt;MCD_CAT -->
<g id="edge48" class="edge">
<title>Flipper_BAT&#45;A&#45;&gt;MCD_CAT</title>
<path fill="none" stroke="#000000" d="M1058.3583,-1379.2231C1000.7771,-1347.8241 882.8626,-1283.5253 823.0999,-1250.9367"/>
<polygon fill="#000000" stroke="#000000" points="824.4809,-1247.7033 814.0258,-1245.9886 821.1297,-1253.8489 824.4809,-1247.7033"/>
<text text-anchor="middle" x="929.8462" y="-1302.4799" font-family="Times,serif" font-size="14.00" fill="#000000">rely</text>
</g>
<!-- Flipper_BAT&#45;A&#45;&gt;MCD_PAUSE_PROXY -->
<g id="edge50" class="edge">
<title>Flipper_BAT&#45;A&#45;&gt;MCD_PAUSE_PROXY</title>
<path fill="none" stroke="#000000" d="M1086.1828,-1379.0219C1055.2948,-1274.0489 900.78,-748.9296 863.1525,-621.052"/>
<polygon fill="#000000" stroke="#000000" points="866.4421,-619.8325 860.2615,-611.2272 859.7267,-621.8085 866.4421,-619.8325"/>
<text text-anchor="middle" x="963.7847" y="-1004.237" font-family="Times,serif" font-size="14.00" fill="#000000">rely</text>
</g>
<!-- Flipper_BAT&#45;A&#45;&gt;MCD_END -->
<g id="edge49" class="edge">
<title>Flipper_BAT&#45;A&#45;&gt;MCD_END</title>
<path fill="none" stroke="#000000" d="M1144.7344,-1381.6909C1212.8169,-1361.6579 1329.0329,-1327.4617 1388.0457,-1310.0973"/>
<polygon fill="#000000" stroke="#000000" points="1389.0875,-1313.4392 1397.6928,-1307.2587 1387.1115,-1306.7239 1389.0875,-1313.4392"/>
<text text-anchor="middle" x="1255.5071" y="-1350.0941" font-family="Times,serif" font-size="14.00" fill="#000000">rely</text>
</g>
<!-- SAI -->
<g id="node30" class="node">
<title>SAI</title>
<polygon fill="none" stroke="#000000" points="748.4402,-1622.8309 694.4402,-1622.8309 694.4402,-1586.8309 748.4402,-1586.8309 748.4402,-1622.8309"/>
<text text-anchor="middle" x="721.4402" y="-1600.6309" font-family="Times,serif" font-size="14.00" fill="#000000">SAI</text>
</g>
<!-- SAI&#45;&gt;zero -->
<g id="edge19" class="edge">
<title>SAI&#45;&gt;zero</title>
<path fill="none" stroke="#000000" d="M710.6642,-1586.7732C649.6547,-1484.5373 347.6997,-978.5401 274.0929,-855.1944"/>
<polygon fill="#000000" stroke="#000000" points="276.9433,-853.1409 268.8133,-846.3472 270.9322,-856.728 276.9433,-853.1409"/>
<text text-anchor="middle" x="474.8876" y="-1225.1838" font-family="Times,serif" font-size="14.00" fill="#000000">owner</text>
</g>
<!-- SAI&#45;&gt;SAI_PROXY -->
<g id="edge1" class="edge">
<title>SAI&#45;&gt;SAI_PROXY</title>
<path fill="none" stroke="#000000" d="M694.3202,-1591.0534C684.0295,-1585.8256 672.0218,-1579.7255 660.5491,-1573.8971"/>
<polygon fill="#000000" stroke="#000000" points="662.0066,-1570.7118 651.5058,-1569.303 658.8361,-1576.9527 662.0066,-1570.7118"/>
<text text-anchor="middle" x="652.1612" y="-1586.6753" font-family="Times,serif" font-size="14.00" fill="#000000">authority</text>
</g>
<!-- SAIJoin_A&#45;&gt;MCD_PAUSE_PROXY -->
<g id="edge56" class="edge">
<title>SAIJoin_A&#45;&gt;MCD_PAUSE_PROXY</title>
<path fill="none" stroke="#000000" d="M1317.2452,-551.3016C1229.4606,-559.2078 1018.884,-578.173 914.9661,-587.5322"/>
<polygon fill="#000000" stroke="#000000" points="914.5937,-584.0515 904.948,-588.4345 915.2217,-591.0233 914.5937,-584.0515"/>
<text text-anchor="middle" x="1105.2227" y="-573.6169" font-family="Times,serif" font-size="14.00" fill="#000000">rely</text>
</g>
<!-- SAIJoin_A&#45;&gt;MIGRATION -->
<g id="edge55" class="edge">
<title>SAIJoin_A&#45;&gt;MIGRATION</title>
<path fill="none" stroke="#000000" d="M1366.8945,-529.6998C1377.1231,-510.942 1393.2686,-481.3336 1405.0629,-459.7045"/>
<polygon fill="#000000" stroke="#000000" points="1408.2651,-461.1428 1409.9798,-450.6876 1402.1194,-457.7915 1408.2651,-461.1428"/>
<text text-anchor="middle" x="1375.0958" y="-498.9021" font-family="Times,serif" font-size="14.00" fill="#000000">rely</text>
</g>
<!-- Flipper_SAI&#45;A -->
<g id="node32" class="node">
<title>Flipper_SAI&#45;A</title>
<polygon fill="none" stroke="#000000" points="1318.1728,-1399.4518 1217.6602,-1399.4518 1217.6602,-1363.4518 1318.1728,-1363.4518 1318.1728,-1399.4518"/>
<text text-anchor="middle" x="1267.9165" y="-1377.2518" font-family="Times,serif" font-size="14.00" fill="#000000">Flipper_SAI&#45;A</text>
</g>
<!-- Flipper_SAI&#45;A&#45;&gt;MCD_CAT -->
<g id="edge52" class="edge">
<title>Flipper_SAI&#45;A&#45;&gt;MCD_CAT</title>
<path fill="none" stroke="#000000" d="M1217.3217,-1365.6413C1120.0357,-1335.2402 908.9707,-1269.2839 823.5967,-1242.6052"/>
<polygon fill="#000000" stroke="#000000" points="824.4132,-1239.1935 813.8244,-1239.5514 822.3253,-1245.8749 824.4132,-1239.1935"/>
<text text-anchor="middle" x="1009.5763" y="-1308.3233" font-family="Times,serif" font-size="14.00" fill="#000000">rely</text>
</g>
<!-- Flipper_SAI&#45;A&#45;&gt;MCD_PAUSE_PROXY -->
<g id="edge54" class="edge">
<title>Flipper_SAI&#45;A&#45;&gt;MCD_PAUSE_PROXY</title>
<path fill="none" stroke="#000000" d="M1258.3148,-1363.1216C1203.8945,-1259.23 934.3183,-744.593 869.1041,-620.0951"/>
<polygon fill="#000000" stroke="#000000" points="872.1713,-618.4076 864.4307,-611.1734 865.9705,-621.6558 872.1713,-618.4076"/>
<text text-anchor="middle" x="1052.8265" y="-995.8084" font-family="Times,serif" font-size="14.00" fill="#000000">rely</text>
</g>
<!-- Flipper_SAI&#45;A&#45;&gt;MCD_END -->
<g id="edge53" class="edge">
<title>Flipper_SAI&#45;A&#45;&gt;MCD_END</title>
<path fill="none" stroke="#000000" d="M1302.3366,-1363.422C1327.8758,-1350.044 1362.6207,-1331.8441 1388.572,-1318.2503"/>
<polygon fill="#000000" stroke="#000000" points="1390.4676,-1321.2085 1397.7018,-1313.4679 1387.2195,-1315.0077 1390.4676,-1321.2085"/>
<text text-anchor="middle" x="1334.5714" y="-1345.0361" font-family="Times,serif" font-size="14.00" fill="#000000">rely</text>
</g>
<!-- isolated -->
<g id="node33" class="node">
<title>isolated</title>
<polygon fill="none" stroke="#000000" points="1609.8078,-248.4467 954.5744,-248.4467 954.5744,-105.6456 1609.8078,-105.6456 1609.8078,-248.4467"/>
<text text-anchor="middle" x="1282.1911" y="-231.6461" font-family="Times,serif" font-size="14.00" fill="#000000">Isolated Contracts:&#13;</text>
<text text-anchor="middle" x="1282.1911" y="-214.8461" font-family="Times,serif" font-size="14.00" fill="#000000"> MULTICALL, PROXY_ACTIONS, PROXY_ACTIONS_END, PROXY_ACTIONS_DSR, CDP_MANAGER,&#13;</text>
<text text-anchor="middle" x="1282.1911" y="-198.0461" font-family="Times,serif" font-size="14.00" fill="#000000"> GET_CDPS, PROXY_FACTORY, PROXY_REGISTRY, PROXY_PAUSE_ACTIONS,&#13;</text>
<text text-anchor="middle" x="1282.1911" y="-181.2461" font-family="Times,serif" font-size="14.00" fill="#000000"> MCD_GOV_ACTIONS, MIGRATION_PROXY_ACTIONS, ETH, PIP_ETH,&#13;</text>
<text text-anchor="middle" x="1282.1911" y="-164.4461" font-family="Times,serif" font-size="14.00" fill="#000000"> BAT, PIP_BAT, PIP_SAI, vatFab,&#13;</text>
<text text-anchor="middle" x="1282.1911" y="-147.6461" font-family="Times,serif" font-size="14.00" fill="#000000"> jugFab, vowFab, catFab, daiFab,&#13;</text>
<text text-anchor="middle" x="1282.1911" y="-130.8461" font-family="Times,serif" font-size="14.00" fill="#000000"> daiJoinFab, flapFab, flopFab, flipFab,&#13;</text>
<text text-anchor="middle" x="1282.1911" y="-114.0461" font-family="Times,serif" font-size="14.00" fill="#000000"> spotFab, potFab, pauseFab, endFab,&#13;</text>
</g>
</g>
</svg>
