<?xml version="1.0" encoding="UTF-8" standalone="no"?>
<!DOCTYPE svg PUBLIC "-//W3C//DTD SVG 1.1//EN"
 "http://www.w3.org/Graphics/SVG/1.1/DTD/svg11.dtd">
<!-- Generated by graphviz version 2.40.1 (20161225.0304)
 -->
<!-- Title: %0 Pages: 1 -->
<svg width="1625pt" height="1700pt"
 viewBox="0.00 0.00 1625.01 1699.92" xmlns="http://www.w3.org/2000/svg" xmlns:xlink="http://www.w3.org/1999/xlink">
<g id="graph0" class="graph" transform="scale(1 1) rotate(0) translate(4 1695.9233)">
<title>%0</title>
<polygon fill="#ffffff" stroke="transparent" points="-4,4 -4,-1695.9233 1621.0104,-1695.9233 1621.0104,4 -4,4"/>
<!-- zero -->
<g id="node1" class="node">
<title>zero</title>
<polygon fill="none" stroke="#000000" points="284.8921,-846.0461 230.8921,-846.0461 230.8921,-810.0461 284.8921,-810.0461 284.8921,-846.0461"/>
<text text-anchor="middle" x="257.8921" y="-823.8461" font-family="Times,serif" font-size="14.00" fill="#000000">zero</text>
</g>
<!-- deployer -->
<g id="node2" class="node">
<title>deployer</title>
<polygon fill="none" stroke="#000000" points="64.9706,-846.0461 .0098,-846.0461 .0098,-810.0461 64.9706,-810.0461 64.9706,-846.0461"/>
<text text-anchor="middle" x="32.4902" y="-823.8461" font-family="Times,serif" font-size="14.00" fill="#000000">deployer</text>
</g>
<!-- MCD_DEPLOY -->
<g id="node3" class="node">
<title>MCD_DEPLOY</title>
<polygon fill="none" stroke="#000000" points="184.399,-733.3452 105.9832,-733.3452 105.9832,-697.3452 184.399,-697.3452 184.399,-733.3452"/>
<text text-anchor="middle" x="145.1911" y="-711.1452" font-family="Times,serif" font-size="14.00" fill="#000000">DssDeploy</text>
</g>
<!-- MCD_DEPLOY&#45;&gt;zero -->
<g id="edge9" class="edge">
<title>MCD_DEPLOY&#45;&gt;zero</title>
<path fill="none" stroke="#000000" d="M163.2985,-733.4526C182.0294,-752.1835 211.4344,-781.5884 232.4867,-802.6408"/>
<polygon fill="#000000" stroke="#000000" points="230.2837,-805.3875 239.8296,-809.9837 235.2334,-800.4377 230.2837,-805.3875"/>
<text text-anchor="middle" x="172.6191" y="-772.2467" font-family="Times,serif" font-size="14.00" fill="#000000">authority</text>
</g>
<!-- MCD_DEPLOY&#45;&gt;deployer -->
<g id="edge2" class="edge">
<title>MCD_DEPLOY&#45;&gt;deployer</title>
<path fill="none" stroke="#000000" d="M127.0838,-733.4526C108.3528,-752.1835 78.9479,-781.5884 57.8956,-802.6408"/>
<polygon fill="#000000" stroke="#000000" points="55.1488,-800.4377 50.5526,-809.9837 60.0986,-805.3875 55.1488,-800.4377"/>
<text text-anchor="middle" x="74.9988" y="-772.2467" font-family="Times,serif" font-size="14.00" fill="#000000">owner</text>
</g>
<!-- MCD_VAT -->
<g id="node4" class="node">
<title>MCD_VAT</title>
<polygon fill="none" stroke="#000000" points="1561.869,-1195.0166 1507.869,-1195.0166 1507.869,-1159.0166 1561.869,-1159.0166 1561.869,-1195.0166"/>
<text text-anchor="middle" x="1534.869" y="-1172.8166" font-family="Times,serif" font-size="14.00" fill="#000000">Vat</text>
</g>
<!-- MCD_JUG -->
<g id="node7" class="node">
<title>MCD_JUG</title>
<polygon fill="none" stroke="#000000" points="1616.3353,-1026.5429 1562.3353,-1026.5429 1562.3353,-990.5429 1616.3353,-990.5429 1616.3353,-1026.5429"/>
<text text-anchor="middle" x="1589.3353" y="-1004.3429" font-family="Times,serif" font-size="14.00" fill="#000000">Jug</text>
</g>
<!-- MCD_VAT&#45;&gt;MCD_JUG -->
<g id="edge22" class="edge">
<title>MCD_VAT&#45;&gt;MCD_JUG</title>
<path fill="none" stroke="#000000" d="M1540.6978,-1158.9869C1550.2142,-1129.5511 1569.1507,-1070.9773 1580.3818,-1036.2376"/>
<polygon fill="#000000" stroke="#000000" points="1583.7201,-1037.2893 1583.4661,-1026.6976 1577.0595,-1035.136 1583.7201,-1037.2893"/>
<text text-anchor="middle" x="1549.6569" y="-1101.8123" font-family="Times,serif" font-size="14.00" fill="#000000">rely</text>
</g>
<!-- MCD_POT -->
<g id="node8" class="node">
<title>MCD_POT</title>
<polygon fill="none" stroke="#000000" points="1218.2887,-523.1491 1164.2887,-523.1491 1164.2887,-487.1491 1218.2887,-487.1491 1218.2887,-523.1491"/>
<text text-anchor="middle" x="1191.2887" y="-500.9491" font-family="Times,serif" font-size="14.00" fill="#000000">Pot</text>
</g>
<!-- MCD_VAT&#45;&gt;MCD_POT -->
<g id="edge23" class="edge">
<title>MCD_VAT&#45;&gt;MCD_POT</title>
<path fill="none" stroke="#000000" d="M1525.5008,-1158.6973C1477.8466,-1065.51 1262.374,-644.1557 1205.2331,-532.4172"/>
<polygon fill="#000000" stroke="#000000" points="1208.3177,-530.7618 1200.6484,-523.452 1202.0853,-533.9489 1208.3177,-530.7618"/>
<text text-anchor="middle" x="1354.4841" y="-849.7573" font-family="Times,serif" font-size="14.00" fill="#000000">rely</text>
</g>
<!-- MCD_CAT -->
<g id="node12" class="node">
<title>MCD_CAT</title>
<polygon fill="none" stroke="#000000" points="809.6619,-1255.3308 755.6619,-1255.3308 755.6619,-1219.3308 809.6619,-1219.3308 809.6619,-1255.3308"/>
<text text-anchor="middle" x="782.6619" y="-1233.1308" font-family="Times,serif" font-size="14.00" fill="#000000">Cat</text>
</g>
<!-- MCD_VAT&#45;&gt;MCD_CAT -->
<g id="edge26" class="edge">
<title>MCD_VAT&#45;&gt;MCD_CAT</title>
<path fill="none" stroke="#000000" d="M1507.6531,-1179.1988C1393.2789,-1188.3697 951.4137,-1223.7998 819.8357,-1234.3501"/>
<polygon fill="#000000" stroke="#000000" points="819.5294,-1230.8634 809.8411,-1235.1515 820.0889,-1237.841 819.5294,-1230.8634"/>
<text text-anchor="middle" x="1152.8615" y="-1210.9745" font-family="Times,serif" font-size="14.00" fill="#000000">rely</text>
</g>
<!-- MCD_SPOT -->
<g id="node13" class="node">
<title>MCD_SPOT</title>
<polygon fill="none" stroke="#000000" points="1043.2367,-537.3008 986.3552,-537.3008 986.3552,-501.3008 1043.2367,-501.3008 1043.2367,-537.3008"/>
<text text-anchor="middle" x="1014.7959" y="-515.1008" font-family="Times,serif" font-size="14.00" fill="#000000">Spotter</text>
</g>
<!-- MCD_VAT&#45;&gt;MCD_SPOT -->
<g id="edge20" class="edge">
<title>MCD_VAT&#45;&gt;MCD_SPOT</title>
<path fill="none" stroke="#000000" d="M1520.4164,-1158.739C1447.6602,-1066.7271 1121.5852,-654.353 1035.6243,-545.6416"/>
<polygon fill="#000000" stroke="#000000" points="1038.1266,-543.1632 1029.1786,-537.49 1032.6357,-547.505 1038.1266,-543.1632"/>
<text text-anchor="middle" x="1267.1375" y="-856.3903" font-family="Times,serif" font-size="14.00" fill="#000000">rely</text>
</g>
<!-- MCD_PAUSE_PROXY -->
<g id="node16" class="node">
<title>MCD_PAUSE_PROXY</title>
<polygon fill="none" stroke="#000000" points="907.1424,-617.9162 807.1648,-617.9162 807.1648,-581.9162 907.1424,-581.9162 907.1424,-617.9162"/>
<text text-anchor="middle" x="857.1536" y="-595.7162" font-family="Times,serif" font-size="14.00" fill="#000000">DSPauseProxy</text>
</g>
<!-- MCD_VAT&#45;&gt;MCD_PAUSE_PROXY -->
<g id="edge34" class="edge">
<title>MCD_VAT&#45;&gt;MCD_PAUSE_PROXY</title>
<path fill="none" stroke="#000000" d="M1513.467,-1158.7919C1414.3717,-1074.4086 1000.1115,-721.6503 886.2325,-624.6779"/>
<polygon fill="#000000" stroke="#000000" points="888.4435,-621.9637 878.5607,-618.1452 883.9052,-627.2933 888.4435,-621.9637"/>
<text text-anchor="middle" x="1188.9668" y="-895.9349" font-family="Times,serif" font-size="14.00" fill="#000000">rely</text>
</g>
<!-- MCD_END -->
<g id="node22" class="node">
<title>MCD_END</title>
<polygon fill="none" stroke="#000000" points="1447.0766,-1329.8225 1393.0766,-1329.8225 1393.0766,-1293.8225 1447.0766,-1293.8225 1447.0766,-1329.8225"/>
<text text-anchor="middle" x="1420.0766" y="-1307.6225" font-family="Times,serif" font-size="14.00" fill="#000000">End</text>
</g>
<!-- MCD_VAT&#45;&gt;MCD_END -->
<g id="edge28" class="edge">
<title>MCD_VAT&#45;&gt;MCD_END</title>
<path fill="none" stroke="#000000" d="M1519.3876,-1195.1971C1499.5326,-1218.5137 1464.9638,-1259.1094 1442.3009,-1285.7235"/>
<polygon fill="#000000" stroke="#000000" points="1439.4979,-1283.6167 1435.6793,-1293.4995 1444.8274,-1288.155 1439.4979,-1283.6167"/>
<text text-anchor="middle" x="1469.9613" y="-1244.6603" font-family="Times,serif" font-size="14.00" fill="#000000">rely</text>
</g>
<!-- ETHJoin_A -->
<g id="node26" class="node">
<title>ETHJoin_A</title>
<polygon fill="none" stroke="#000000" points="1616.8379,-850.0502 1533.5293,-850.0502 1533.5293,-814.0502 1616.8379,-814.0502 1616.8379,-850.0502"/>
<text text-anchor="middle" x="1575.1836" y="-827.8502" font-family="Times,serif" font-size="14.00" fill="#000000">ETHJoin_A</text>
</g>
<!-- MCD_VAT&#45;&gt;ETHJoin_A -->
<g id="edge43" class="edge">
<title>MCD_VAT&#45;&gt;ETHJoin_A</title>
<path fill="none" stroke="#000000" d="M1536.9797,-1158.9554C1543.5771,-1102.5025 1563.8467,-929.0585 1571.867,-860.4294"/>
<polygon fill="#000000" stroke="#000000" points="1575.3606,-860.6875 1573.0451,-850.3488 1568.4079,-859.8749 1575.3606,-860.6875"/>
<text text-anchor="middle" x="1543.5405" y="-1013.8924" font-family="Times,serif" font-size="14.00" fill="#000000">rely</text>
</g>
<!-- BATJoin_A -->
<g id="node28" class="node">
<title>BATJoin_A</title>
<polygon fill="none" stroke="#000000" points="1537.007,-692.4078 1452.1295,-692.4078 1452.1295,-656.4078 1537.007,-656.4078 1537.007,-692.4078"/>
<text text-anchor="middle" x="1494.5683" y="-670.2078" font-family="Times,serif" font-size="14.00" fill="#000000">BATJoin_A</text>
</g>
<!-- MCD_VAT&#45;&gt;BATJoin_A -->
<g id="edge47" class="edge">
<title>MCD_VAT&#45;&gt;BATJoin_A</title>
<path fill="none" stroke="#000000" d="M1533.4108,-1158.8315C1527.363,-1083.4056 1504.2238,-794.8265 1496.8441,-702.7905"/>
<polygon fill="#000000" stroke="#000000" points="1500.3126,-702.2567 1496.0244,-692.5684 1493.335,-702.8162 1500.3126,-702.2567"/>
<text text-anchor="middle" x="1504.2446" y="-935.011" font-family="Times,serif" font-size="14.00" fill="#000000">rely</text>
</g>
<!-- SAIJoin_A -->
<g id="node31" class="node">
<title>SAIJoin_A</title>
<polygon fill="none" stroke="#000000" points="1399.2539,-577.6154 1320.2707,-577.6154 1320.2707,-541.6154 1399.2539,-541.6154 1399.2539,-577.6154"/>
<text text-anchor="middle" x="1359.7623" y="-555.4154" font-family="Times,serif" font-size="14.00" fill="#000000">SAIJoin_A</text>
</g>
<!-- MCD_VAT&#45;&gt;SAIJoin_A -->
<g id="edge51" class="edge">
<title>MCD_VAT&#45;&gt;SAIJoin_A</title>
<path fill="none" stroke="#000000" d="M1529.7232,-1158.8733C1504.9299,-1071.4557 1397.7569,-693.5789 1367.6534,-587.4383"/>
<polygon fill="#000000" stroke="#000000" points="1371.0042,-586.4252 1364.9083,-577.7597 1364.2698,-588.3353 1371.0042,-586.4252"/>
<text text-anchor="middle" x="1437.8054" y="-877.3558" font-family="Times,serif" font-size="14.00" fill="#000000">rely</text>
</g>
<!-- MCD_DAI -->
<g id="node5" class="node">
<title>MCD_DAI</title>
<polygon fill="none" stroke="#000000" points="266.4176,-1520.0461 212.4176,-1520.0461 212.4176,-1484.0461 266.4176,-1484.0461 266.4176,-1520.0461"/>
<text text-anchor="middle" x="239.4176" y="-1497.8461" font-family="Times,serif" font-size="14.00" fill="#000000">Dai</text>
</g>
<!-- MCD_JOIN_DAI -->
<g id="node6" class="node">
<title>MCD_JOIN_DAI</title>
<polygon fill="none" stroke="#000000" points="397.7398,-1520.0461 338.6424,-1520.0461 338.6424,-1484.0461 397.7398,-1484.0461 397.7398,-1520.0461"/>
<text text-anchor="middle" x="368.1911" y="-1497.8461" font-family="Times,serif" font-size="14.00" fill="#000000">DaiJoin</text>
</g>
<!-- MCD_DAI&#45;&gt;MCD_JOIN_DAI -->
<g id="edge21" class="edge">
<title>MCD_DAI&#45;&gt;MCD_JOIN_DAI</title>
<path fill="none" stroke="#000000" d="M266.7272,-1502.0461C284.5822,-1502.0461 308.2077,-1502.0461 328.1686,-1502.0461"/>
<polygon fill="#000000" stroke="#000000" points="328.2229,-1505.5462 338.2229,-1502.0461 328.2228,-1498.5462 328.2229,-1505.5462"/>
<text text-anchor="middle" x="286.565" y="-1506.2461" font-family="Times,serif" font-size="14.00" fill="#000000">rely</text>
</g>
<!-- MCD_JUG&#45;&gt;MCD_PAUSE_PROXY -->
<g id="edge37" class="edge">
<title>MCD_JUG&#45;&gt;MCD_PAUSE_PROXY</title>
<path fill="none" stroke="#000000" d="M1561.9692,-993.27C1450.6867,-931.1639 1031.7193,-697.3403 898.2599,-622.8574"/>
<polygon fill="#000000" stroke="#000000" points="899.9576,-619.7967 889.5198,-617.9796 896.5463,-625.9092 899.9576,-619.7967"/>
<text text-anchor="middle" x="1219.2317" y="-812.2637" font-family="Times,serif" font-size="14.00" fill="#000000">rely</text>
</g>
<!-- MCD_POT&#45;&gt;MCD_PAUSE_PROXY -->
<g id="edge38" class="edge">
<title>MCD_POT&#45;&gt;MCD_PAUSE_PROXY</title>
<path fill="none" stroke="#000000" d="M1164.228,-512.824C1110.7355,-527.9955 990.3227,-562.1469 917.1839,-582.8904"/>
<polygon fill="#000000" stroke="#000000" points="915.8548,-579.6292 907.1893,-585.7251 917.7649,-586.3636 915.8548,-579.6292"/>
<text text-anchor="middle" x="1029.823" y="-552.0572" font-family="Times,serif" font-size="14.00" fill="#000000">rely</text>
</g>
<!-- MCD_POT&#45;&gt;MCD_END -->
<g id="edge31" class="edge">
<title>MCD_POT&#45;&gt;MCD_END</title>
<path fill="none" stroke="#000000" d="M1196.4971,-523.5132C1226.3539,-628.7842 1375.7104,-1155.3938 1412.0819,-1283.6343"/>
<polygon fill="#000000" stroke="#000000" points="1408.7805,-1284.8215 1414.8763,-1293.4871 1415.5148,-1282.9115 1408.7805,-1284.8215"/>
<text text-anchor="middle" x="1293.4066" y="-907.7738" font-family="Times,serif" font-size="14.00" fill="#000000">rely</text>
</g>
<!-- MCD_FLAP -->
<g id="node9" class="node">
<title>MCD_FLAP</title>
<polygon fill="none" stroke="#000000" points="771.6246,-752.7221 713.0977,-752.7221 713.0977,-716.7221 771.6246,-716.7221 771.6246,-752.7221"/>
<text text-anchor="middle" x="742.3612" y="-730.5221" font-family="Times,serif" font-size="14.00" fill="#000000">Flapper</text>
</g>
<!-- MCD_VOW -->
<g id="node11" class="node">
<title>MCD_VOW</title>
<polygon fill="none" stroke="#000000" points="729.0466,-1097.6885 675.0466,-1097.6885 675.0466,-1061.6885 729.0466,-1061.6885 729.0466,-1097.6885"/>
<text text-anchor="middle" x="702.0466" y="-1075.4885" font-family="Times,serif" font-size="14.00" fill="#000000">Vow</text>
</g>
<!-- MCD_FLAP&#45;&gt;MCD_VOW -->
<g id="edge24" class="edge">
<title>MCD_FLAP&#45;&gt;MCD_VOW</title>
<path fill="none" stroke="#000000" d="M740.2504,-752.7833C733.6531,-809.2362 713.3835,-982.6802 705.3631,-1051.3093"/>
<polygon fill="#000000" stroke="#000000" points="701.8695,-1051.0512 704.185,-1061.3899 708.8222,-1051.8638 701.8695,-1051.0512"/>
<text text-anchor="middle" x="733.6897" y="-906.2463" font-family="Times,serif" font-size="14.00" fill="#000000">rely</text>
</g>
<!-- MCD_FLAP&#45;&gt;MCD_PAUSE_PROXY -->
<g id="edge40" class="edge">
<title>MCD_FLAP&#45;&gt;MCD_PAUSE_PROXY</title>
<path fill="none" stroke="#000000" d="M757.8426,-716.5416C777.6975,-693.225 812.2664,-652.6293 834.9292,-626.0152"/>
<polygon fill="#000000" stroke="#000000" points="837.7323,-628.122 841.5508,-618.2392 832.4027,-623.5837 837.7323,-628.122"/>
<text text-anchor="middle" x="785.503" y="-675.4784" font-family="Times,serif" font-size="14.00" fill="#000000">rely</text>
</g>
<!-- MCD_FLOP -->
<g id="node10" class="node">
<title>MCD_FLOP</title>
<polygon fill="none" stroke="#000000" points="717.4449,-921.1958 658.3447,-921.1958 658.3447,-885.1958 717.4449,-885.1958 717.4449,-921.1958"/>
<text text-anchor="middle" x="687.8948" y="-898.9958" font-family="Times,serif" font-size="14.00" fill="#000000">Flopper</text>
</g>
<!-- MCD_FLOP&#45;&gt;MCD_VOW -->
<g id="edge25" class="edge">
<title>MCD_FLOP&#45;&gt;MCD_VOW</title>
<path fill="none" stroke="#000000" d="M689.356,-921.4188C691.8306,-952.2806 696.8622,-1015.032 699.7917,-1051.5673"/>
<polygon fill="#000000" stroke="#000000" points="696.3052,-1051.8763 700.5933,-1061.5645 703.2828,-1051.3168 696.3052,-1051.8763"/>
<text text-anchor="middle" x="683.691" y="-990.6931" font-family="Times,serif" font-size="14.00" fill="#000000">rely</text>
</g>
<!-- MCD_FLOP&#45;&gt;MCD_PAUSE_PROXY -->
<g id="edge41" class="edge">
<title>MCD_FLOP&#45;&gt;MCD_PAUSE_PROXY</title>
<path fill="none" stroke="#000000" d="M697.9758,-885.1325C726.4838,-834.0516 807.8162,-688.3194 841.8676,-627.3057"/>
<polygon fill="#000000" stroke="#000000" points="845.0942,-628.7061 846.9114,-618.2682 838.9817,-625.2947 845.0942,-628.7061"/>
<text text-anchor="middle" x="759.0388" y="-760.4191" font-family="Times,serif" font-size="14.00" fill="#000000">rely</text>
</g>
<!-- MCD_VOW&#45;&gt;MCD_CAT -->
<g id="edge27" class="edge">
<title>MCD_VOW&#45;&gt;MCD_CAT</title>
<path fill="none" stroke="#000000" d="M711.2942,-1097.7721C725.3118,-1125.1833 752.0457,-1177.4612 768.517,-1209.6706"/>
<polygon fill="#000000" stroke="#000000" points="765.6046,-1211.6628 773.2738,-1218.9726 771.8369,-1208.4756 765.6046,-1211.6628"/>
<text text-anchor="middle" x="729.0227" y="-1157.9213" font-family="Times,serif" font-size="14.00" fill="#000000">rely</text>
</g>
<!-- MCD_VOW&#45;&gt;MCD_PAUSE_PROXY -->
<g id="edge36" class="edge">
<title>MCD_VOW&#45;&gt;MCD_PAUSE_PROXY</title>
<path fill="none" stroke="#000000" d="M707.9375,-1061.4667C731.5711,-988.3641 819.6042,-716.0627 848.1531,-627.7562"/>
<polygon fill="#000000" stroke="#000000" points="851.5108,-628.7479 851.2567,-618.1561 844.8502,-626.5946 851.5108,-628.7479"/>
<text text-anchor="middle" x="767.1624" y="-848.8114" font-family="Times,serif" font-size="14.00" fill="#000000">rely</text>
</g>
<!-- MCD_VOW&#45;&gt;MCD_END -->
<g id="edge30" class="edge">
<title>MCD_VOW&#45;&gt;MCD_END</title>
<path fill="none" stroke="#000000" d="M729.3174,-1088.5049C840.056,-1124.306 1256.2249,-1258.8504 1383.1176,-1299.8739"/>
<polygon fill="#000000" stroke="#000000" points="1382.1867,-1303.2513 1392.7785,-1302.9973 1384.3401,-1296.5907 1382.1867,-1303.2513"/>
<text text-anchor="middle" x="1045.3346" y="-1198.3894" font-family="Times,serif" font-size="14.00" fill="#000000">rely</text>
</g>
<!-- MCD_CAT&#45;&gt;MCD_PAUSE_PROXY -->
<g id="edge35" class="edge">
<title>MCD_CAT&#45;&gt;MCD_PAUSE_PROXY</title>
<path fill="none" stroke="#000000" d="M784.7713,-1219.281C795.1751,-1130.2569 841.0341,-737.8484 853.8286,-628.3674"/>
<polygon fill="#000000" stroke="#000000" points="857.3426,-628.4511 855.0271,-618.1124 850.3899,-627.6385 857.3426,-628.4511"/>
<text text-anchor="middle" x="808.417" y="-928.0242" font-family="Times,serif" font-size="14.00" fill="#000000">rely</text>
</g>
<!-- MCD_CAT&#45;&gt;MCD_END -->
<g id="edge29" class="edge">
<title>MCD_CAT&#45;&gt;MCD_END</title>
<path fill="none" stroke="#000000" d="M810.0508,-1240.5317C911.4938,-1252.3868 1265.9756,-1293.8135 1382.5795,-1307.4404"/>
<polygon fill="#000000" stroke="#000000" points="1382.451,-1310.9491 1392.7897,-1308.6336 1383.2636,-1303.9965 1382.451,-1310.9491"/>
<text text-anchor="middle" x="1085.4323" y="-1278.186" font-family="Times,serif" font-size="14.00" fill="#000000">rely</text>
</g>
<!-- MCD_SPOT&#45;&gt;MCD_PAUSE_PROXY -->
<g id="edge39" class="edge">
<title>MCD_SPOT&#45;&gt;MCD_PAUSE_PROXY</title>
<path fill="none" stroke="#000000" d="M986.2481,-533.8997C962.5726,-546.0069 928.5111,-563.4253 901.3198,-577.3304"/>
<polygon fill="#000000" stroke="#000000" points="899.6965,-574.2293 892.3867,-581.8986 902.8837,-580.4617 899.6965,-574.2293"/>
<text text-anchor="middle" x="932.901" y="-559.815" font-family="Times,serif" font-size="14.00" fill="#000000">rely</text>
</g>
<!-- MCD_SPOT&#45;&gt;MCD_END -->
<g id="edge32" class="edge">
<title>MCD_SPOT&#45;&gt;MCD_END</title>
<path fill="none" stroke="#000000" d="M1024.0223,-537.3428C1077.0176,-640.9747 1342.5486,-1160.2175 1406.3002,-1284.8831"/>
<polygon fill="#000000" stroke="#000000" points="1403.1954,-1286.4989 1410.8647,-1293.8087 1409.4278,-1283.3118 1403.1954,-1286.4989"/>
<text text-anchor="middle" x="1204.2784" y="-915.3129" font-family="Times,serif" font-size="14.00" fill="#000000">rely</text>
</g>
<!-- MCD_GOV -->
<g id="node14" class="node">
<title>MCD_GOV</title>
<polygon fill="none" stroke="#000000" points="660.6687,-159.7639 606.6687,-159.7639 606.6687,-123.7639 660.6687,-123.7639 660.6687,-159.7639"/>
<text text-anchor="middle" x="633.6687" y="-137.5639" font-family="Times,serif" font-size="14.00" fill="#000000">MKR</text>
</g>
<!-- MCD_GOV&#45;&gt;zero -->
<g id="edge8" class="edge">
<title>MCD_GOV&#45;&gt;zero</title>
<path fill="none" stroke="#000000" d="M623.8108,-159.7675C572.3889,-253.6795 334.9159,-687.3772 272.7961,-800.8268"/>
<polygon fill="#000000" stroke="#000000" points="269.5532,-799.4619 267.8204,-809.914 275.693,-802.8238 269.5532,-799.4619"/>
<text text-anchor="middle" x="423.0299" y="-484.4972" font-family="Times,serif" font-size="14.00" fill="#000000">authority</text>
</g>
<!-- MKR_AUTH -->
<g id="node17" class="node">
<title>MKR_AUTH</title>
<polygon fill="none" stroke="#000000" points="774.5876,-36 668.9337,-36 668.9337,0 774.5876,0 774.5876,-36"/>
<text text-anchor="middle" x="721.7606" y="-13.8" font-family="Times,serif" font-size="14.00" fill="#000000">MKR Authority</text>
</g>
<!-- MCD_GOV&#45;&gt;MKR_AUTH -->
<g id="edge18" class="edge">
<title>MCD_GOV&#45;&gt;MKR_AUTH</title>
<path fill="none" stroke="#000000" d="M646.667,-123.5021C661.5005,-102.6618 685.8929,-68.3921 702.8355,-44.5886"/>
<polygon fill="#000000" stroke="#000000" points="705.7616,-46.5133 708.709,-36.3367 700.0587,-42.4541 705.7616,-46.5133"/>
<text text-anchor="middle" x="657.2604" y="-88.2454" font-family="Times,serif" font-size="14.00" fill="#000000">owner</text>
</g>
<!-- MCD_PAUSE -->
<g id="node15" class="node">
<title>MCD_PAUSE</title>
<polygon fill="none" stroke="#000000" points="727.2935,-411.8938 661.1992,-411.8938 661.1992,-375.8938 727.2935,-375.8938 727.2935,-411.8938"/>
<text text-anchor="middle" x="694.2463" y="-389.6938" font-family="Times,serif" font-size="14.00" fill="#000000">DSPause</text>
</g>
<!-- MCD_PAUSE&#45;&gt;zero -->
<g id="edge17" class="edge">
<title>MCD_PAUSE&#45;&gt;zero</title>
<path fill="none" stroke="#000000" d="M676.0523,-411.9961C607.3,-480.4014 363.2008,-723.2688 283.3656,-802.7012"/>
<polygon fill="#000000" stroke="#000000" points="280.7841,-800.3323 276.1638,-809.8666 285.7214,-805.2946 280.7841,-800.3323"/>
<text text-anchor="middle" x="462.218" y="-611.5486" font-family="Times,serif" font-size="14.00" fill="#000000">owner</text>
</g>
<!-- MCD_ADM -->
<g id="node19" class="node">
<title>MCD_ADM</title>
<polygon fill="none" stroke="#000000" points="710.1302,-298.5276 645.147,-298.5276 645.147,-262.5276 710.1302,-262.5276 710.1302,-298.5276"/>
<text text-anchor="middle" x="677.6386" y="-276.3276" font-family="Times,serif" font-size="14.00" fill="#000000">DSChief</text>
</g>
<!-- MCD_PAUSE&#45;&gt;MCD_ADM -->
<g id="edge7" class="edge">
<title>MCD_PAUSE&#45;&gt;MCD_ADM</title>
<path fill="none" stroke="#000000" d="M691.578,-375.6796C688.9267,-357.5818 684.8243,-329.5779 681.7553,-308.6288"/>
<polygon fill="#000000" stroke="#000000" points="685.2129,-308.0837 680.3003,-298.6966 678.2868,-309.0984 685.2129,-308.0837"/>
<text text-anchor="middle" x="661.3932" y="-346.3542" font-family="Times,serif" font-size="14.00" fill="#000000">authority</text>
</g>
<!-- MCD_PAUSE_PROXY&#45;&gt;MCD_PAUSE -->
<g id="edge16" class="edge">
<title>MCD_PAUSE_PROXY&#45;&gt;MCD_PAUSE</title>
<path fill="none" stroke="#000000" d="M842.6966,-581.633C813.7144,-544.9803 748.4233,-462.4093 714.9262,-420.0468"/>
<polygon fill="#000000" stroke="#000000" points="717.6188,-417.8091 708.6709,-412.136 712.128,-422.1509 717.6188,-417.8091"/>
<text text-anchor="middle" x="761.3205" y="-505.0399" font-family="Times,serif" font-size="14.00" fill="#000000">owner</text>
</g>
<!-- MCD_IOU -->
<g id="node18" class="node">
<title>MCD_IOU</title>
<polygon fill="none" stroke="#000000" points="614.7644,-369.5934 560.7644,-369.5934 560.7644,-333.5934 614.7644,-333.5934 614.7644,-369.5934"/>
<text text-anchor="middle" x="587.7644" y="-347.3934" font-family="Times,serif" font-size="14.00" fill="#000000">IOU</text>
</g>
<!-- MCD_IOU&#45;&gt;zero -->
<g id="edge6" class="edge">
<title>MCD_IOU&#45;&gt;zero</title>
<path fill="none" stroke="#000000" d="M575.2358,-369.6891C524.7693,-442.5807 336.2269,-714.9028 276.3003,-801.458"/>
<polygon fill="#000000" stroke="#000000" points="273.2479,-799.7183 270.4331,-809.9324 279.0031,-803.7029 273.2479,-799.7183"/>
<text text-anchor="middle" x="400.4946" y="-589.7736" font-family="Times,serif" font-size="14.00" fill="#000000">authority</text>
</g>
<!-- MCD_IOU&#45;&gt;MCD_ADM -->
<g id="edge15" class="edge">
<title>MCD_IOU&#45;&gt;MCD_ADM</title>
<path fill="none" stroke="#000000" d="M610.9092,-333.2922C621.8118,-324.6713 634.9725,-314.2647 646.7148,-304.9798"/>
<polygon fill="#000000" stroke="#000000" points="648.899,-307.7147 654.5722,-298.7668 644.5572,-302.2239 648.899,-307.7147"/>
<text text-anchor="middle" x="611.3211" y="-306.536" font-family="Times,serif" font-size="14.00" fill="#000000">owner</text>
</g>
<!-- MCD_ADM&#45;&gt;zero -->
<g id="edge14" class="edge">
<title>MCD_ADM&#45;&gt;zero</title>
<path fill="none" stroke="#000000" d="M663.6729,-298.7445C601.6044,-379.7068 350.624,-707.0863 277.7945,-802.0853"/>
<polygon fill="#000000" stroke="#000000" points="275.0037,-799.973 271.6972,-810.0386 280.5591,-804.2319 275.0037,-799.973"/>
<text text-anchor="middle" x="453.2428" y="-554.6149" font-family="Times,serif" font-size="14.00" fill="#000000">owner</text>
</g>
<!-- MCD_ADM&#45;&gt;MCD_ADM -->
<g id="edge5" class="edge">
<title>MCD_ADM&#45;&gt;MCD_ADM</title>
<path fill="none" stroke="#000000" d="M710.1783,-287.271C720.2362,-287.1347 728.1344,-284.8869 728.1344,-280.5276 728.1344,-277.803 725.0491,-275.9032 720.2797,-274.8282"/>
<polygon fill="#000000" stroke="#000000" points="720.4852,-271.3309 710.1783,-273.7842 719.7655,-278.2938 720.4852,-271.3309"/>
<text text-anchor="middle" x="753.4079" y="-276.3276" font-family="Times,serif" font-size="14.00" fill="#000000">authority</text>
</g>
<!-- PROXY_DEPLOYER -->
<g id="node20" class="node">
<title>PROXY_DEPLOYER</title>
<polygon fill="none" stroke="#000000" points="197.7213,-958.7471 92.6609,-958.7471 92.6609,-922.7471 197.7213,-922.7471 197.7213,-958.7471"/>
<text text-anchor="middle" x="145.1911" y="-936.5471" font-family="Times,serif" font-size="14.00" fill="#000000">Proxy Deployer</text>
</g>
<!-- PROXY_DEPLOYER&#45;&gt;zero -->
<g id="edge4" class="edge">
<title>PROXY_DEPLOYER&#45;&gt;zero</title>
<path fill="none" stroke="#000000" d="M163.2985,-922.6397C182.0294,-903.9088 211.4344,-874.5038 232.4867,-853.4515"/>
<polygon fill="#000000" stroke="#000000" points="235.2334,-855.6545 239.8296,-846.1086 230.2837,-850.7048 235.2334,-855.6545"/>
<text text-anchor="middle" x="172.6191" y="-892.2456" font-family="Times,serif" font-size="14.00" fill="#000000">authority</text>
</g>
<!-- PROXY_DEPLOYER&#45;&gt;deployer -->
<g id="edge13" class="edge">
<title>PROXY_DEPLOYER&#45;&gt;deployer</title>
<path fill="none" stroke="#000000" d="M127.0838,-922.6397C108.3528,-903.9088 78.9479,-874.5038 57.8956,-853.4515"/>
<polygon fill="#000000" stroke="#000000" points="60.0986,-850.7048 50.5526,-846.1086 55.1488,-855.6545 60.0986,-850.7048"/>
<text text-anchor="middle" x="74.9988" y="-892.2456" font-family="Times,serif" font-size="14.00" fill="#000000">owner</text>
</g>
<!-- SAI_PROXY -->
<g id="node21" class="node">
<title>SAI_PROXY</title>
<polygon fill="none" stroke="#000000" points="644.3441,-1573.916 573.6817,-1573.916 573.6817,-1537.916 644.3441,-1537.916 644.3441,-1573.916"/>
<text text-anchor="middle" x="609.0129" y="-1551.716" font-family="Times,serif" font-size="14.00" fill="#000000">Sai Proxy</text>
</g>
<!-- SAI_PROXY&#45;&gt;zero -->
<g id="edge3" class="edge">
<title>SAI_PROXY&#45;&gt;zero</title>
<path fill="none" stroke="#000000" d="M602.7072,-1537.6635C561.7183,-1439.3452 337.0753,-973.2201 274.1423,-855.2243"/>
<polygon fill="#000000" stroke="#000000" points="277.0552,-853.2521 269.2258,-846.1141 270.8951,-856.5767 277.0552,-853.2521"/>
<text text-anchor="middle" x="413.1513" y="-1183.8439" font-family="Times,serif" font-size="14.00" fill="#000000">authority</text>
</g>
<!-- SAI_PROXY&#45;&gt;zero -->
<g id="edge12" class="edge">
<title>SAI_PROXY&#45;&gt;zero</title>
<path fill="none" stroke="#000000" d="M597.6779,-1537.8459C544.1582,-1440.0766 319.5459,-974.7524 268.2265,-855.7809"/>
<polygon fill="#000000" stroke="#000000" points="271.3211,-854.1139 264.1894,-846.2787 264.8784,-856.8511 271.3211,-854.1139"/>
<text text-anchor="middle" x="415.4613" y="-1201.0134" font-family="Times,serif" font-size="14.00" fill="#000000">owner</text>
</g>
<!-- MCD_END&#45;&gt;MCD_PAUSE_PROXY -->
<g id="edge42" class="edge">
<title>MCD_END&#45;&gt;MCD_PAUSE_PROXY</title>
<path fill="none" stroke="#000000" d="M1405.5959,-1293.5093C1328.7026,-1196.2655 968.3286,-740.5148 877.818,-626.0496"/>
<polygon fill="#000000" stroke="#000000" points="880.4865,-623.7814 871.5385,-618.1083 874.9957,-628.1232 880.4865,-623.7814"/>
<text text-anchor="middle" x="1130.824" y="-963.9795" font-family="Times,serif" font-size="14.00" fill="#000000">rely</text>
</g>
<!-- MCD_ESM -->
<g id="node23" class="node">
<title>MCD_ESM</title>
<polygon fill="none" stroke="#000000" points="1508.4813,-1407.4786 1454.4813,-1407.4786 1454.4813,-1371.4786 1508.4813,-1371.4786 1508.4813,-1407.4786"/>
<text text-anchor="middle" x="1481.4813" y="-1385.2786" font-family="Times,serif" font-size="14.00" fill="#000000">ESM</text>
</g>
<!-- MCD_END&#45;&gt;MCD_ESM -->
<g id="edge33" class="edge">
<title>MCD_END&#45;&gt;MCD_ESM</title>
<path fill="none" stroke="#000000" d="M1434.3184,-1329.8336C1442.167,-1339.7594 1452.0531,-1352.262 1460.7443,-1363.2534"/>
<polygon fill="#000000" stroke="#000000" points="1458.156,-1365.623 1467.104,-1371.2962 1463.6469,-1361.2813 1458.156,-1365.623"/>
<text text-anchor="middle" x="1436.6484" y="-1350.7435" font-family="Times,serif" font-size="14.00" fill="#000000">rely</text>
</g>
<!-- SAI_TUB -->
<g id="node24" class="node">
<title>SAI_TUB</title>
<polygon fill="none" stroke="#000000" points="642.6209,-1691.9233 585.7366,-1691.9233 585.7366,-1655.9233 642.6209,-1655.9233 642.6209,-1691.9233"/>
<text text-anchor="middle" x="614.1788" y="-1669.7233" font-family="Times,serif" font-size="14.00" fill="#000000">SaiTub</text>
</g>
<!-- SAI_TUB&#45;&gt;zero -->
<g id="edge11" class="edge">
<title>SAI_TUB&#45;&gt;zero</title>
<path fill="none" stroke="#000000" d="M606.5724,-1655.8646C561.0647,-1547.8227 324.9335,-987.2124 269.5338,-855.6854"/>
<polygon fill="#000000" stroke="#000000" points="272.6859,-854.1523 265.5786,-846.295 266.2348,-856.8695 272.6859,-854.1523"/>
<text text-anchor="middle" x="420.5622" y="-1259.975" font-family="Times,serif" font-size="14.00" fill="#000000">owner</text>
</g>
<!-- SAI_TUB&#45;&gt;SAI_PROXY -->
<g id="edge10" class="edge">
<title>SAI_TUB&#45;&gt;SAI_PROXY</title>
<path fill="none" stroke="#000000" d="M613.3829,-1655.7433C612.5462,-1636.6304 611.2188,-1606.3082 610.2463,-1584.0929"/>
<polygon fill="#000000" stroke="#000000" points="613.7352,-1583.7604 609.8011,-1573.923 606.7419,-1584.0666 613.7352,-1583.7604"/>
<text text-anchor="middle" x="586.5411" y="-1624.1181" font-family="Times,serif" font-size="14.00" fill="#000000">authority</text>
</g>
<!-- MIGRATION -->
<g id="node25" class="node">
<title>MIGRATION</title>
<polygon fill="none" stroke="#000000" points="1482.9098,-462.9414 1364.6127,-462.9414 1364.6127,-426.9414 1482.9098,-426.9414 1482.9098,-462.9414"/>
<text text-anchor="middle" x="1423.7612" y="-440.7414" font-family="Times,serif" font-size="14.00" fill="#000000">ScdMcdMigration</text>
</g>
<!-- ETHJoin_A&#45;&gt;MCD_PAUSE_PROXY -->
<g id="edge57" class="edge">
<title>ETHJoin_A&#45;&gt;MCD_PAUSE_PROXY</title>
<path fill="none" stroke="#000000" d="M1533.4757,-818.5663C1412.1745,-779.3505 1059.1549,-665.2218 917.2516,-619.3454"/>
<polygon fill="#000000" stroke="#000000" points="917.9972,-615.9082 907.4054,-616.1622 915.8439,-622.5687 917.9972,-615.9082"/>
<text text-anchor="middle" x="1214.4807" y="-723.1559" font-family="Times,serif" font-size="14.00" fill="#000000">rely</text>
</g>
<!-- Flipper_ETH&#45;A -->
<g id="node27" class="node">
<title>Flipper_ETH&#45;A</title>
<polygon fill="none" stroke="#000000" points="970.3867,-1370.1232 864.549,-1370.1232 864.549,-1334.1232 970.3867,-1334.1232 970.3867,-1370.1232"/>
<text text-anchor="middle" x="917.4679" y="-1347.9232" font-family="Times,serif" font-size="14.00" fill="#000000">Flipper_ETH&#45;A</text>
</g>
<!-- Flipper_ETH&#45;A&#45;&gt;MCD_CAT -->
<g id="edge44" class="edge">
<title>Flipper_ETH&#45;A&#45;&gt;MCD_CAT</title>
<path fill="none" stroke="#000000" d="M896.1075,-1333.934C873.3304,-1314.5385 837.1167,-1283.7011 811.7473,-1262.0982"/>
<polygon fill="#000000" stroke="#000000" points="813.8052,-1259.2535 803.9224,-1255.4349 809.2668,-1264.583 813.8052,-1259.2535"/>
<text text-anchor="middle" x="843.0445" y="-1302.2161" font-family="Times,serif" font-size="14.00" fill="#000000">rely</text>
</g>
<!-- Flipper_ETH&#45;A&#45;&gt;MCD_PAUSE_PROXY -->
<g id="edge46" class="edge">
<title>Flipper_ETH&#45;A&#45;&gt;MCD_PAUSE_PROXY</title>
<path fill="none" stroke="#000000" d="M916.0068,-1333.902C907.9825,-1233.8272 869.2735,-751.0696 859.4328,-628.3415"/>
<polygon fill="#000000" stroke="#000000" points="862.9105,-627.9218 858.6223,-618.2335 855.9329,-628.4813 862.9105,-627.9218"/>
<text text-anchor="middle" x="876.8369" y="-985.3217" font-family="Times,serif" font-size="14.00" fill="#000000">rely</text>
</g>
<!-- Flipper_ETH&#45;A&#45;&gt;MCD_END -->
<g id="edge45" class="edge">
<title>Flipper_ETH&#45;A&#45;&gt;MCD_END</title>
<path fill="none" stroke="#000000" d="M970.3058,-1347.8865C1072.3896,-1339.7011 1294.4326,-1321.897 1382.7537,-1314.8152"/>
<polygon fill="#000000" stroke="#000000" points="1383.1563,-1318.2942 1392.8446,-1314.0061 1382.5968,-1311.3166 1383.1563,-1318.2942"/>
<text text-anchor="middle" x="1165.6469" y="-1335.5509" font-family="Times,serif" font-size="14.00" fill="#000000">rely</text>
</g>
<!-- BATJoin_A&#45;&gt;MCD_PAUSE_PROXY -->
<g id="edge58" class="edge">
<title>BATJoin_A&#45;&gt;MCD_PAUSE_PROXY</title>
<path fill="none" stroke="#000000" d="M1452.2521,-669.4625C1341.9325,-656.57 1045.2384,-621.8968 917.2636,-606.9409"/>
<polygon fill="#000000" stroke="#000000" points="917.5834,-603.4546 907.2447,-605.7701 916.7708,-610.4073 917.5834,-603.4546"/>
<text text-anchor="middle" x="1173.8749" y="-642.4017" font-family="Times,serif" font-size="14.00" fill="#000000">rely</text>
</g>
<!-- Flipper_BAT&#45;A -->
<g id="node29" class="node">
<title>Flipper_BAT&#45;A</title>
<polygon fill="none" stroke="#000000" points="1139.1437,-1424.5896 1032.7393,-1424.5896 1032.7393,-1388.5896 1139.1437,-1388.5896 1139.1437,-1424.5896"/>
<text text-anchor="middle" x="1085.9415" y="-1402.3896" font-family="Times,serif" font-size="14.00" fill="#000000">Flipper_BAT&#45;A</text>
</g>
<!-- Flipper_BAT&#45;A&#45;&gt;MCD_CAT -->
<g id="edge48" class="edge">
<title>Flipper_BAT&#45;A&#45;&gt;MCD_CAT</title>
<path fill="none" stroke="#000000" d="M1053.4853,-1388.4759C996.4812,-1356.6623 878.7748,-1290.971 819.0825,-1257.657"/>
<polygon fill="#000000" stroke="#000000" points="820.4564,-1254.4156 810.0186,-1252.5985 817.045,-1260.5281 820.4564,-1254.4156"/>
<text text-anchor="middle" x="925.401" y="-1310.4665" font-family="Times,serif" font-size="14.00" fill="#000000">rely</text>
</g>
<!-- Flipper_BAT&#45;A&#45;&gt;MCD_PAUSE_PROXY -->
<g id="edge50" class="edge">
<title>Flipper_BAT&#45;A&#45;&gt;MCD_PAUSE_PROXY</title>
<path fill="none" stroke="#000000" d="M1080.7331,-1388.2254C1050.8762,-1282.9545 901.5197,-756.3449 865.1483,-628.1044"/>
<polygon fill="#000000" stroke="#000000" points="868.4497,-626.9171 862.3539,-618.2516 861.7153,-628.8272 868.4497,-626.9171"/>
<text text-anchor="middle" x="962.0578" y="-1012.3649" font-family="Times,serif" font-size="14.00" fill="#000000">rely</text>
</g>
<!-- Flipper_BAT&#45;A&#45;&gt;MCD_END -->
<g id="edge49" class="edge">
<title>Flipper_BAT&#45;A&#45;&gt;MCD_END</title>
<path fill="none" stroke="#000000" d="M1139.2557,-1391.4687C1207.5314,-1372.1044 1324.0773,-1339.0498 1383.2575,-1322.2651"/>
<polygon fill="#000000" stroke="#000000" points="1384.2665,-1325.6171 1392.932,-1319.5212 1382.3565,-1318.8827 1384.2665,-1325.6171"/>
<text text-anchor="middle" x="1250.3737" y="-1361.0669" font-family="Times,serif" font-size="14.00" fill="#000000">rely</text>
</g>
<!-- SAI -->
<g id="node30" class="node">
<title>SAI</title>
<polygon fill="none" stroke="#000000" points="740.7931,-1628.4459 686.7931,-1628.4459 686.7931,-1592.4459 740.7931,-1592.4459 740.7931,-1628.4459"/>
<text text-anchor="middle" x="713.7931" y="-1606.2459" font-family="Times,serif" font-size="14.00" fill="#000000">SAI</text>
</g>
<!-- SAI&#45;&gt;zero -->
<g id="edge19" class="edge">
<title>SAI&#45;&gt;zero</title>
<path fill="none" stroke="#000000" d="M703.1949,-1592.2576C643.1267,-1489.1709 345.5729,-978.5207 273.5906,-854.9873"/>
<polygon fill="#000000" stroke="#000000" points="276.4909,-853.0128 268.4322,-846.1347 270.4428,-856.537 276.4909,-853.0128"/>
<text text-anchor="middle" x="470.9018" y="-1227.8225" font-family="Times,serif" font-size="14.00" fill="#000000">owner</text>
</g>
<!-- SAI&#45;&gt;SAI_PROXY -->
<g id="edge1" class="edge">
<title>SAI&#45;&gt;SAI_PROXY</title>
<path fill="none" stroke="#000000" d="M686.5369,-1596.2611C676.2021,-1590.8827 664.1573,-1584.6143 652.6861,-1578.6445"/>
<polygon fill="#000000" stroke="#000000" points="654.1395,-1575.4553 643.6531,-1573.9435 650.908,-1581.6648 654.1395,-1575.4553"/>
<text text-anchor="middle" x="644.338" y="-1591.6528" font-family="Times,serif" font-size="14.00" fill="#000000">authority</text>
</g>
<!-- SAIJoin_A&#45;&gt;MCD_PAUSE_PROXY -->
<g id="edge56" class="edge">
<title>SAIJoin_A&#45;&gt;MCD_PAUSE_PROXY</title>
<path fill="none" stroke="#000000" d="M1319.9033,-562.8115C1232.0454,-569.8562 1021.293,-586.755 917.2882,-595.0944"/>
<polygon fill="#000000" stroke="#000000" points="916.95,-591.6102 907.2618,-595.8983 917.5096,-598.5878 916.95,-591.6102"/>
<text text-anchor="middle" x="1107.7129" y="-583.1529" font-family="Times,serif" font-size="14.00" fill="#000000">rely</text>
</g>
<!-- SAIJoin_A&#45;&gt;MIGRATION -->
<g id="edge55" class="edge">
<title>SAIJoin_A&#45;&gt;MIGRATION</title>
<path fill="none" stroke="#000000" d="M1369.9031,-541.445C1380.342,-522.7405 1396.7257,-493.3839 1408.6836,-471.9577"/>
<polygon fill="#000000" stroke="#000000" points="1411.8507,-473.4647 1413.6679,-463.0269 1405.7382,-470.0533 1411.8507,-473.4647"/>
<text text-anchor="middle" x="1378.4105" y="-510.9014" font-family="Times,serif" font-size="14.00" fill="#000000">rely</text>
</g>
<!-- Flipper_SAI&#45;A -->
<g id="node32" class="node">
<title>Flipper_SAI&#45;A</title>
<polygon fill="none" stroke="#000000" points="1312.6905,-1410.4379 1212.1779,-1410.4379 1212.1779,-1374.4379 1312.6905,-1374.4379 1312.6905,-1410.4379"/>
<text text-anchor="middle" x="1262.4342" y="-1388.2379" font-family="Times,serif" font-size="14.00" fill="#000000">Flipper_SAI&#45;A</text>
</g>
<!-- Flipper_SAI&#45;A&#45;&gt;MCD_CAT -->
<g id="edge52" class="edge">
<title>Flipper_SAI&#45;A&#45;&gt;MCD_CAT</title>
<path fill="none" stroke="#000000" d="M1211.997,-1376.1318C1115.0138,-1344.7779 904.606,-1276.7545 819.4977,-1249.2396"/>
<polygon fill="#000000" stroke="#000000" points="820.3477,-1245.8361 809.7559,-1246.0901 818.1943,-1252.4967 820.3477,-1245.8361"/>
<text text-anchor="middle" x="1004.8644" y="-1316.8857" font-family="Times,serif" font-size="14.00" fill="#000000">rely</text>
</g>
<!-- Flipper_SAI&#45;A&#45;&gt;MCD_PAUSE_PROXY -->
<g id="edge54" class="edge">
<title>Flipper_SAI&#45;A&#45;&gt;MCD_PAUSE_PROXY</title>
<path fill="none" stroke="#000000" d="M1253.2079,-1374.3959C1200.2125,-1270.764 934.6815,-751.5211 870.9299,-626.8556"/>
<polygon fill="#000000" stroke="#000000" points="874.0348,-625.2398 866.3655,-617.93 867.8024,-628.4269 874.0348,-625.2398"/>
<text text-anchor="middle" x="1051.186" y="-1004.8257" font-family="Times,serif" font-size="14.00" fill="#000000">rely</text>
</g>
<!-- Flipper_SAI&#45;A&#45;&gt;MCD_END -->
<g id="edge53" class="edge">
<title>Flipper_SAI&#45;A&#45;&gt;MCD_END</title>
<path fill="none" stroke="#000000" d="M1297.8122,-1374.3462C1323.3605,-1361.2813 1357.7642,-1343.6879 1383.5685,-1330.4921"/>
<polygon fill="#000000" stroke="#000000" points="1385.3442,-1333.5152 1392.654,-1325.8459 1382.157,-1327.2828 1385.3442,-1333.5152"/>
<text text-anchor="middle" x="1329.8075" y="-1356.6191" font-family="Times,serif" font-size="14.00" fill="#000000">rely</text>
</g>
<!-- isolated -->
<g id="node33" class="node">
<title>isolated</title>
<polygon fill="none" stroke="#000000" points="1609.8078,-248.4467 954.5744,-248.4467 954.5744,-105.6456 1609.8078,-105.6456 1609.8078,-248.4467"/>
<text text-anchor="middle" x="1282.1911" y="-231.6461" font-family="Times,serif" font-size="14.00" fill="#000000">Isolated Contracts:&#13;</text>
<text text-anchor="middle" x="1282.1911" y="-214.8461" font-family="Times,serif" font-size="14.00" fill="#000000"> MULTICALL, PROXY_ACTIONS, PROXY_ACTIONS_END, PROXY_ACTIONS_DSR, CDP_MANAGER,&#13;</text>
<text text-anchor="middle" x="1282.1911" y="-198.0461" font-family="Times,serif" font-size="14.00" fill="#000000"> GET_CDPS, PROXY_FACTORY, PROXY_REGISTRY, PROXY_PAUSE_ACTIONS,&#13;</text>
<text text-anchor="middle" x="1282.1911" y="-181.2461" font-family="Times,serif" font-size="14.00" fill="#000000"> MCD_GOV_ACTIONS, MIGRATION_PROXY_ACTIONS, ETH, PIP_ETH,&#13;</text>
<text text-anchor="middle" x="1282.1911" y="-164.4461" font-family="Times,serif" font-size="14.00" fill="#000000"> BAT, PIP_BAT, PIP_SAI, vatFab,&#13;</text>
<text text-anchor="middle" x="1282.1911" y="-147.6461" font-family="Times,serif" font-size="14.00" fill="#000000"> jugFab, vowFab, catFab, daiFab,&#13;</text>
<text text-anchor="middle" x="1282.1911" y="-130.8461" font-family="Times,serif" font-size="14.00" fill="#000000"> daiJoinFab, flapFab, flopFab, flipFab,&#13;</text>
<text text-anchor="middle" x="1282.1911" y="-114.0461" font-family="Times,serif" font-size="14.00" fill="#000000"> spotFab, potFab, pauseFab, endFab,&#13;</text>
</g>
</g>
</svg>
