<?xml version="1.0" encoding="UTF-8" standalone="no"?>
<!DOCTYPE svg PUBLIC "-//W3C//DTD SVG 1.1//EN"
 "http://www.w3.org/Graphics/SVG/1.1/DTD/svg11.dtd">
<!-- Generated by graphviz version 2.40.1 (20161225.0304)
 -->
<!-- Title: %0 Pages: 1 -->
<svg width="3337pt" height="1872pt"
 viewBox="0.00 0.00 3336.73 1872.18" xmlns="http://www.w3.org/2000/svg" xmlns:xlink="http://www.w3.org/1999/xlink">
<g id="graph0" class="graph" transform="scale(1 1) rotate(0) translate(4 1868.1834)">
<title>%0</title>
<polygon fill="#ffffff" stroke="transparent" points="-4,4 -4,-1868.1834 3332.726,-1868.1834 3332.726,4 -4,4"/>
<!-- zero -->
<g id="node1" class="node">
<title>zero</title>
<polygon fill="none" stroke="#000000" points="1640.5911,-613.3788 1586.5911,-613.3788 1586.5911,-577.3788 1640.5911,-577.3788 1640.5911,-613.3788"/>
<text text-anchor="middle" x="1613.5911" y="-591.1788" font-family="Times,serif" font-size="14.00" fill="#000000">zero</text>
</g>
<!-- deployer -->
<g id="node2" class="node">
<title>deployer</title>
<polygon fill="none" stroke="#000000" points="2118.4143,-80.214 2053.4535,-80.214 2053.4535,-44.214 2118.4143,-44.214 2118.4143,-80.214"/>
<text text-anchor="middle" x="2085.9339" y="-58.014" font-family="Times,serif" font-size="14.00" fill="#000000">deployer</text>
</g>
<!-- MCD_DEPLOY -->
<g id="node3" class="node">
<title>MCD_DEPLOY</title>
<polygon fill="none" stroke="#000000" points="469.4359,-321.706 391.0201,-321.706 391.0201,-285.706 469.4359,-285.706 469.4359,-321.706"/>
<text text-anchor="middle" x="430.228" y="-299.506" font-family="Times,serif" font-size="14.00" fill="#000000">DssDeploy</text>
</g>
<!-- MCD_DEPLOY&#45;&gt;zero -->
<g id="edge9" class="edge">
<title>MCD_DEPLOY&#45;&gt;zero</title>
<path fill="none" stroke="#000000" d="M469.6006,-313.4105C650.5734,-358.0163 1401.2027,-543.0298 1576.7522,-586.2989"/>
<polygon fill="#000000" stroke="#000000" points="1576.0024,-589.7187 1586.5495,-588.7137 1577.6777,-582.9222 1576.0024,-589.7187"/>
<text text-anchor="middle" x="1005.6855" y="-454.0547" font-family="Times,serif" font-size="14.00" fill="#000000">owner</text>
</g>
<!-- 0xD23F2b559045967dA88d497CAddF5f813cAFF68B -->
<g id="node39" class="node">
<title>0xD23F2b559045967dA88d497CAddF5f813cAFF68B</title>
<polygon fill="none" stroke="#000000" points="327.1578,-255.9764 -.0526,-255.9764 -.0526,-219.9764 327.1578,-219.9764 327.1578,-255.9764"/>
<text text-anchor="middle" x="163.5526" y="-233.7764" font-family="Times,serif" font-size="14.00" fill="#000000">0xD23F2b559045967dA88d497CAddF5f813cAFF68B</text>
</g>
<!-- MCD_DEPLOY&#45;&gt;0xD23F2b559045967dA88d497CAddF5f813cAFF68B -->
<g id="edge1" class="edge">
<title>MCD_DEPLOY&#45;&gt;0xD23F2b559045967dA88d497CAddF5f813cAFF68B</title>
<path fill="none" stroke="#000000" d="M390.8791,-294.0074C353.062,-284.6863 294.722,-270.3068 246.6127,-258.4489"/>
<polygon fill="#000000" stroke="#000000" points="247.3722,-255.0315 236.8252,-256.0365 245.697,-261.828 247.3722,-255.0315"/>
<text text-anchor="middle" x="293.4724" y="-280.4282" font-family="Times,serif" font-size="14.00" fill="#000000">authority</text>
</g>
<!-- MCD_VAT -->
<g id="node4" class="node">
<title>MCD_VAT</title>
<polygon fill="none" stroke="#000000" points="1640.5911,-980.1881 1586.5911,-980.1881 1586.5911,-944.1881 1640.5911,-944.1881 1640.5911,-980.1881"/>
<text text-anchor="middle" x="1613.5911" y="-957.9881" font-family="Times,serif" font-size="14.00" fill="#000000">Vat</text>
</g>
<!-- MCD_JUG -->
<g id="node7" class="node">
<title>MCD_JUG</title>
<polygon fill="none" stroke="#000000" points="1618.3217,-796.7834 1564.3217,-796.7834 1564.3217,-760.7834 1618.3217,-760.7834 1618.3217,-796.7834"/>
<text text-anchor="middle" x="1591.3217" y="-774.5834" font-family="Times,serif" font-size="14.00" fill="#000000">Jug</text>
</g>
<!-- MCD_VAT&#45;&gt;MCD_JUG -->
<g id="edge19" class="edge">
<title>MCD_VAT&#45;&gt;MCD_JUG</title>
<path fill="none" stroke="#000000" d="M1611.3744,-943.932C1607.4893,-911.9355 1599.424,-845.5116 1594.7931,-807.3728"/>
<polygon fill="#000000" stroke="#000000" points="1598.2094,-806.4709 1593.5294,-796.9657 1591.2604,-807.3147 1598.2094,-806.4709"/>
<text text-anchor="middle" x="1592.2008" y="-879.8524" font-family="Times,serif" font-size="14.00" fill="#000000">rely</text>
</g>
<!-- MCD_POT -->
<g id="node8" class="node">
<title>MCD_POT</title>
<polygon fill="none" stroke="#000000" points="1706.1049,-1152.9339 1652.1049,-1152.9339 1652.1049,-1116.9339 1706.1049,-1116.9339 1706.1049,-1152.9339"/>
<text text-anchor="middle" x="1679.1049" y="-1130.7339" font-family="Times,serif" font-size="14.00" fill="#000000">Pot</text>
</g>
<!-- MCD_VAT&#45;&gt;MCD_POT -->
<g id="edge20" class="edge">
<title>MCD_VAT&#45;&gt;MCD_POT</title>
<path fill="none" stroke="#000000" d="M1620.4784,-980.3484C1631.9304,-1010.5449 1654.9643,-1071.2804 1668.5008,-1106.9732"/>
<polygon fill="#000000" stroke="#000000" points="1665.3929,-1108.6486 1672.2116,-1116.7577 1671.938,-1106.1664 1665.3929,-1108.6486"/>
<text text-anchor="middle" x="1633.6067" y="-1047.8608" font-family="Times,serif" font-size="14.00" fill="#000000">rely</text>
</g>
<!-- MCD_VOW -->
<g id="node11" class="node">
<title>MCD_VOW</title>
<polygon fill="none" stroke="#000000" points="2958.3299,-288.5854 2904.3299,-288.5854 2904.3299,-252.5854 2958.3299,-252.5854 2958.3299,-288.5854"/>
<text text-anchor="middle" x="2931.3299" y="-266.3854" font-family="Times,serif" font-size="14.00" fill="#000000">Vow</text>
</g>
<!-- MCD_VAT&#45;&gt;MCD_VOW -->
<g id="edge18" class="edge">
<title>MCD_VAT&#45;&gt;MCD_VOW</title>
<path fill="none" stroke="#000000" d="M1640.8114,-947.9017C1808.7671,-859.7518 2703.2897,-390.2701 2895.0996,-289.6005"/>
<polygon fill="#000000" stroke="#000000" points="2896.9782,-292.5674 2904.2062,-284.821 2893.7251,-286.3692 2896.9782,-292.5674"/>
<text text-anchor="middle" x="2257.0726" y="-622.9511" font-family="Times,serif" font-size="14.00" fill="#000000">rely</text>
</g>
<!-- MCD_CAT -->
<g id="node12" class="node">
<title>MCD_CAT</title>
<polygon fill="none" stroke="#000000" points="3128.7947,-613.3788 3074.7947,-613.3788 3074.7947,-577.3788 3128.7947,-577.3788 3128.7947,-613.3788"/>
<text text-anchor="middle" x="3101.7947" y="-591.1788" font-family="Times,serif" font-size="14.00" fill="#000000">Cat</text>
</g>
<!-- MCD_VAT&#45;&gt;MCD_CAT -->
<g id="edge23" class="edge">
<title>MCD_VAT&#45;&gt;MCD_CAT</title>
<path fill="none" stroke="#000000" d="M1640.692,-955.5083C1821.8049,-910.868 2855.7136,-656.0324 3064.8944,-604.4739"/>
<polygon fill="#000000" stroke="#000000" points="3065.9034,-607.8301 3074.7752,-602.0385 3064.2282,-601.0335 3065.9034,-607.8301"/>
<text text-anchor="middle" x="2341.9103" y="-784.1911" font-family="Times,serif" font-size="14.00" fill="#000000">rely</text>
</g>
<!-- MCD_SPOT -->
<g id="node13" class="node">
<title>MCD_SPOT</title>
<polygon fill="none" stroke="#000000" points="1812.4965,-1304.9815 1755.6151,-1304.9815 1755.6151,-1268.9815 1812.4965,-1268.9815 1812.4965,-1304.9815"/>
<text text-anchor="middle" x="1784.0558" y="-1282.7815" font-family="Times,serif" font-size="14.00" fill="#000000">Spotter</text>
</g>
<!-- MCD_VAT&#45;&gt;MCD_SPOT -->
<g id="edge16" class="edge">
<title>MCD_VAT&#45;&gt;MCD_SPOT</title>
<path fill="none" stroke="#000000" d="M1623.2444,-980.581C1651.783,-1034.9568 1735.8701,-1195.1713 1769.7086,-1259.6453"/>
<polygon fill="#000000" stroke="#000000" points="1766.762,-1261.5623 1774.5083,-1268.7903 1772.9602,-1258.3092 1766.762,-1261.5623"/>
<text text-anchor="middle" x="1707.3594" y="-1107.5131" font-family="Times,serif" font-size="14.00" fill="#000000">rely</text>
</g>
<!-- MCD_PAUSE_PROXY -->
<g id="node16" class="node">
<title>MCD_PAUSE_PROXY</title>
<polygon fill="none" stroke="#000000" points="1972.3332,-1427.4945 1872.3556,-1427.4945 1872.3556,-1391.4945 1972.3332,-1391.4945 1972.3332,-1427.4945"/>
<text text-anchor="middle" x="1922.3444" y="-1405.2945" font-family="Times,serif" font-size="14.00" fill="#000000">DSPauseProxy</text>
</g>
<!-- MCD_VAT&#45;&gt;MCD_PAUSE_PROXY -->
<g id="edge29" class="edge">
<title>MCD_VAT&#45;&gt;MCD_PAUSE_PROXY</title>
<path fill="none" stroke="#000000" d="M1626.077,-980.277C1674.0806,-1049.8223 1846.9116,-1300.2112 1903.9419,-1382.834"/>
<polygon fill="#000000" stroke="#000000" points="1901.142,-1384.9389 1909.7032,-1391.1805 1906.9029,-1380.9624 1901.142,-1384.9389"/>
<text text-anchor="middle" x="1754.1266" y="-1185.7555" font-family="Times,serif" font-size="14.00" fill="#000000">rely</text>
</g>
<!-- MCD_END -->
<g id="node21" class="node">
<title>MCD_END</title>
<polygon fill="none" stroke="#000000" points="3151.064,-796.7834 3097.064,-796.7834 3097.064,-760.7834 3151.064,-760.7834 3151.064,-796.7834"/>
<text text-anchor="middle" x="3124.064" y="-774.5834" font-family="Times,serif" font-size="14.00" fill="#000000">End</text>
</g>
<!-- MCD_VAT&#45;&gt;MCD_END -->
<g id="edge25" class="edge">
<title>MCD_VAT&#45;&gt;MCD_END</title>
<path fill="none" stroke="#000000" d="M1640.7725,-958.8877C1823.7664,-936.6682 2875.1721,-809.0044 3086.9133,-783.2944"/>
<polygon fill="#000000" stroke="#000000" points="3087.4058,-786.7604 3096.9109,-782.0804 3086.5619,-779.8114 3087.4058,-786.7604"/>
<text text-anchor="middle" x="2352.96" y="-875.291" font-family="Times,serif" font-size="14.00" fill="#000000">rely</text>
</g>
<!-- ETHJoin_A -->
<g id="node22" class="node">
<title>ETHJoin_A</title>
<polygon fill="none" stroke="#000000" points="876.0093,-1743.0917 792.7007,-1743.0917 792.7007,-1707.0917 876.0093,-1707.0917 876.0093,-1743.0917"/>
<text text-anchor="middle" x="834.355" y="-1720.8917" font-family="Times,serif" font-size="14.00" fill="#000000">ETHJoin_A</text>
</g>
<!-- MCD_VAT&#45;&gt;ETHJoin_A -->
<g id="edge39" class="edge">
<title>MCD_VAT&#45;&gt;ETHJoin_A</title>
<path fill="none" stroke="#000000" d="M1595.0975,-980.294C1491.357,-1081.8602 982.0587,-1580.4838 860.4617,-1699.5322"/>
<polygon fill="#000000" stroke="#000000" points="857.7184,-1697.3198 853.0214,-1706.8166 862.6155,-1702.3217 857.7184,-1697.3198"/>
<text text-anchor="middle" x="1216.8967" y="-1344.1131" font-family="Times,serif" font-size="14.00" fill="#000000">rely</text>
</g>
<!-- ETHJoin_B -->
<g id="node24" class="node">
<title>ETHJoin_B</title>
<polygon fill="none" stroke="#000000" points="799.6149,-1607.8199 716.8476,-1607.8199 716.8476,-1571.8199 799.6149,-1571.8199 799.6149,-1607.8199"/>
<text text-anchor="middle" x="758.2312" y="-1585.6199" font-family="Times,serif" font-size="14.00" fill="#000000">ETHJoin_B</text>
</g>
<!-- MCD_VAT&#45;&gt;ETHJoin_B -->
<g id="edge42" class="edge">
<title>MCD_VAT&#45;&gt;ETHJoin_B</title>
<path fill="none" stroke="#000000" d="M1588.9143,-980.295C1467.1065,-1069.6731 930.2602,-1463.5914 791.2114,-1565.6203"/>
<polygon fill="#000000" stroke="#000000" points="789,-1562.9017 783.0082,-1571.6395 793.1412,-1568.5454 789,-1562.9017"/>
<text text-anchor="middle" x="1179.18" y="-1277.1576" font-family="Times,serif" font-size="14.00" fill="#000000">rely</text>
</g>
<!-- ETHJoin_C -->
<g id="node26" class="node">
<title>ETHJoin_C</title>
<polygon fill="none" stroke="#000000" points="735.6175,-1466.8293 652.8501,-1466.8293 652.8501,-1430.8293 735.6175,-1430.8293 735.6175,-1466.8293"/>
<text text-anchor="middle" x="694.2338" y="-1444.6293" font-family="Times,serif" font-size="14.00" fill="#000000">ETHJoin_C</text>
</g>
<!-- MCD_VAT&#45;&gt;ETHJoin_C -->
<g id="edge45" class="edge">
<title>MCD_VAT&#45;&gt;ETHJoin_C</title>
<path fill="none" stroke="#000000" d="M1586.5743,-976.4888C1456.8763,-1045.1415 897.8028,-1341.0746 737.4046,-1425.9778"/>
<polygon fill="#000000" stroke="#000000" points="735.501,-1423.0253 728.3003,-1430.797 738.7759,-1429.212 735.501,-1423.0253"/>
<text text-anchor="middle" x="1151.1066" y="-1205.4333" font-family="Times,serif" font-size="14.00" fill="#000000">rely</text>
</g>
<!-- COL1Join_A -->
<g id="node28" class="node">
<title>COL1Join_A</title>
<polygon fill="none" stroke="#000000" points="687.3302,-1316.7521 595.4529,-1316.7521 595.4529,-1280.7521 687.3302,-1280.7521 687.3302,-1316.7521"/>
<text text-anchor="middle" x="641.3915" y="-1294.5521" font-family="Times,serif" font-size="14.00" fill="#000000">COL1Join_A</text>
</g>
<!-- MCD_VAT&#45;&gt;COL1Join_A -->
<g id="edge48" class="edge">
<title>MCD_VAT&#45;&gt;COL1Join_A</title>
<path fill="none" stroke="#000000" d="M1586.5742,-971.541C1454.9034,-1017.1239 879.4041,-1216.355 697.0353,-1279.4889"/>
<polygon fill="#000000" stroke="#000000" points="695.6785,-1276.2548 687.3737,-1282.8336 697.9685,-1282.8696 695.6785,-1276.2548"/>
<text text-anchor="middle" x="1130.9219" y="-1129.7149" font-family="Times,serif" font-size="14.00" fill="#000000">rely</text>
</g>
<!-- COL2Join_A -->
<g id="node30" class="node">
<title>COL2Join_A</title>
<polygon fill="none" stroke="#000000" points="647.1306,-1158.3938 555.2533,-1158.3938 555.2533,-1122.3938 647.1306,-1122.3938 647.1306,-1158.3938"/>
<text text-anchor="middle" x="601.1919" y="-1136.1938" font-family="Times,serif" font-size="14.00" fill="#000000">COL2Join_A</text>
</g>
<!-- MCD_VAT&#45;&gt;COL2Join_A -->
<g id="edge51" class="edge">
<title>MCD_VAT&#45;&gt;COL2Join_A</title>
<path fill="none" stroke="#000000" d="M1586.5118,-966.9546C1450.9609,-990.8148 845.2167,-1097.4398 657.1052,-1130.5518"/>
<polygon fill="#000000" stroke="#000000" points="656.3936,-1127.1231 647.1517,-1132.3038 657.6071,-1134.0172 656.3936,-1127.1231"/>
<text text-anchor="middle" x="1110.9256" y="-1052.9532" font-family="Times,serif" font-size="14.00" fill="#000000">rely</text>
</g>
<!-- COL3Join_A -->
<g id="node32" class="node">
<title>COL3Join_A</title>
<polygon fill="none" stroke="#000000" points="621.5099,-997.0341 529.6326,-997.0341 529.6326,-961.0341 621.5099,-961.0341 621.5099,-997.0341"/>
<text text-anchor="middle" x="575.5713" y="-974.8341" font-family="Times,serif" font-size="14.00" fill="#000000">COL3Join_A</text>
</g>
<!-- MCD_VAT&#45;&gt;COL3Join_A -->
<g id="edge54" class="edge">
<title>MCD_VAT&#45;&gt;COL3Join_A</title>
<path fill="none" stroke="#000000" d="M1586.3601,-962.63C1448.1565,-964.8729 823.4349,-975.0115 631.7032,-978.1232"/>
<polygon fill="#000000" stroke="#000000" points="631.5076,-974.6258 621.5657,-978.2877 631.6213,-981.6248 631.5076,-974.6258"/>
<text text-anchor="middle" x="1098.1488" y="-974.5766" font-family="Times,serif" font-size="14.00" fill="#000000">rely</text>
</g>
<!-- COL4Join_A -->
<g id="node34" class="node">
<title>COL4Join_A</title>
<polygon fill="none" stroke="#000000" points="610.681,-834.0123 518.8037,-834.0123 518.8037,-798.0123 610.681,-798.0123 610.681,-834.0123"/>
<text text-anchor="middle" x="564.7423" y="-811.8123" font-family="Times,serif" font-size="14.00" fill="#000000">COL4Join_A</text>
</g>
<!-- MCD_VAT&#45;&gt;COL4Join_A -->
<g id="edge57" class="edge">
<title>MCD_VAT&#45;&gt;COL4Join_A</title>
<path fill="none" stroke="#000000" d="M1586.3438,-958.3907C1447.0262,-938.9743 813.3759,-850.6639 620.5707,-823.793"/>
<polygon fill="#000000" stroke="#000000" points="621.0376,-820.3243 610.6501,-822.4104 620.0713,-827.2573 621.0376,-820.3243"/>
<text text-anchor="middle" x="1092.5744" y="-895.2919" font-family="Times,serif" font-size="14.00" fill="#000000">rely</text>
</g>
<!-- COL5Join_A -->
<g id="node36" class="node">
<title>COL5Join_A</title>
<polygon fill="none" stroke="#000000" points="614.7335,-670.6816 522.8562,-670.6816 522.8562,-634.6816 614.7335,-634.6816 614.7335,-670.6816"/>
<text text-anchor="middle" x="568.7949" y="-648.4816" font-family="Times,serif" font-size="14.00" fill="#000000">COL5Join_A</text>
</g>
<!-- MCD_VAT&#45;&gt;COL5Join_A -->
<g id="edge60" class="edge">
<title>MCD_VAT&#45;&gt;COL5Join_A</title>
<path fill="none" stroke="#000000" d="M1586.449,-954.1476C1447.6008,-913.0157 815.8402,-725.8654 624.1216,-669.0713"/>
<polygon fill="#000000" stroke="#000000" points="625.1076,-665.7132 614.5253,-666.2286 623.1193,-672.4249 625.1076,-665.7132"/>
<text text-anchor="middle" x="1094.4024" y="-815.8095" font-family="Times,serif" font-size="14.00" fill="#000000">rely</text>
</g>
<!-- MCD_DAI -->
<g id="node5" class="node">
<title>MCD_DAI</title>
<polygon fill="none" stroke="#000000" points="1117.9194,-339.7834 1063.9194,-339.7834 1063.9194,-303.7834 1117.9194,-303.7834 1117.9194,-339.7834"/>
<text text-anchor="middle" x="1090.9194" y="-317.5834" font-family="Times,serif" font-size="14.00" fill="#000000">Dai</text>
</g>
<!-- MCD_JOIN_DAI -->
<g id="node6" class="node">
<title>MCD_JOIN_DAI</title>
<polygon fill="none" stroke="#000000" points="1249.2416,-339.7834 1190.1442,-339.7834 1190.1442,-303.7834 1249.2416,-303.7834 1249.2416,-339.7834"/>
<text text-anchor="middle" x="1219.6929" y="-317.5834" font-family="Times,serif" font-size="14.00" fill="#000000">DaiJoin</text>
</g>
<!-- MCD_DAI&#45;&gt;MCD_JOIN_DAI -->
<g id="edge17" class="edge">
<title>MCD_DAI&#45;&gt;MCD_JOIN_DAI</title>
<path fill="none" stroke="#000000" d="M1118.2289,-321.7834C1136.0839,-321.7834 1159.7095,-321.7834 1179.6703,-321.7834"/>
<polygon fill="#000000" stroke="#000000" points="1179.7246,-325.2835 1189.7246,-321.7834 1179.7246,-318.2835 1179.7246,-325.2835"/>
<text text-anchor="middle" x="1138.0667" y="-325.9834" font-family="Times,serif" font-size="14.00" fill="#000000">rely</text>
</g>
<!-- MCD_JUG&#45;&gt;MCD_PAUSE_PROXY -->
<g id="edge32" class="edge">
<title>MCD_JUG&#45;&gt;MCD_PAUSE_PROXY</title>
<path fill="none" stroke="#000000" d="M1600.8716,-796.9792C1647.588,-885.9899 1852.054,-1275.5673 1908.0956,-1382.3457"/>
<polygon fill="#000000" stroke="#000000" points="1905.0094,-1383.9969 1912.7558,-1391.2249 1911.2076,-1380.7438 1905.0094,-1383.9969"/>
<text text-anchor="middle" x="1743.6007" y="-1093.8625" font-family="Times,serif" font-size="14.00" fill="#000000">rely</text>
</g>
<!-- MCD_POT&#45;&gt;MCD_PAUSE_PROXY -->
<g id="edge33" class="edge">
<title>MCD_POT&#45;&gt;MCD_PAUSE_PROXY</title>
<path fill="none" stroke="#000000" d="M1695.0645,-1152.9486C1737.0721,-1200.3653 1850.8205,-1328.7607 1899.6145,-1383.8378"/>
<polygon fill="#000000" stroke="#000000" points="1897.075,-1386.2493 1906.326,-1391.4135 1902.3146,-1381.6075 1897.075,-1386.2493"/>
<text text-anchor="middle" x="1786.4566" y="-1255.7932" font-family="Times,serif" font-size="14.00" fill="#000000">rely</text>
</g>
<!-- MCD_FLAP -->
<g id="node9" class="node">
<title>MCD_FLAP</title>
<polygon fill="none" stroke="#000000" points="3065.5443,-440.633 3007.0173,-440.633 3007.0173,-404.633 3065.5443,-404.633 3065.5443,-440.633"/>
<text text-anchor="middle" x="3036.2808" y="-418.433" font-family="Times,serif" font-size="14.00" fill="#000000">Flapper</text>
</g>
<!-- MCD_FLAP&#45;&gt;MCD_VOW -->
<g id="edge21" class="edge">
<title>MCD_FLAP&#45;&gt;MCD_VOW</title>
<path fill="none" stroke="#000000" d="M3023.8294,-404.5941C3005.4454,-377.9602 2970.9257,-327.9498 2949.6502,-297.1268"/>
<polygon fill="#000000" stroke="#000000" points="2952.3262,-294.8425 2943.7651,-288.6008 2946.5653,-298.8189 2952.3262,-294.8425"/>
<text text-anchor="middle" x="2975.8569" y="-355.0604" font-family="Times,serif" font-size="14.00" fill="#000000">rely</text>
</g>
<!-- MCD_FLAP&#45;&gt;MCD_PAUSE_PROXY -->
<g id="edge35" class="edge">
<title>MCD_FLAP&#45;&gt;MCD_PAUSE_PROXY</title>
<path fill="none" stroke="#000000" d="M3015.512,-441.0326C2878.8673,-562.0892 2109.349,-1243.8229 1950.8823,-1384.2122"/>
<polygon fill="#000000" stroke="#000000" points="1948.1343,-1381.9707 1942.9701,-1391.2218 1952.7762,-1387.2103 1948.1343,-1381.9707"/>
<text text-anchor="middle" x="2472.3142" y="-916.8224" font-family="Times,serif" font-size="14.00" fill="#000000">rely</text>
</g>
<!-- MCD_FLOP -->
<g id="node10" class="node">
<title>MCD_FLOP</title>
<polygon fill="none" stroke="#000000" points="2822.5914,-166.0724 2763.4912,-166.0724 2763.4912,-130.0724 2822.5914,-130.0724 2822.5914,-166.0724"/>
<text text-anchor="middle" x="2793.0413" y="-143.8724" font-family="Times,serif" font-size="14.00" fill="#000000">Flopper</text>
</g>
<!-- MCD_FLOP&#45;&gt;MCD_VOW -->
<g id="edge22" class="edge">
<title>MCD_FLOP&#45;&gt;MCD_VOW</title>
<path fill="none" stroke="#000000" d="M2813.4463,-166.1496C2837.243,-187.2316 2876.7106,-222.1969 2903.3536,-245.8005"/>
<polygon fill="#000000" stroke="#000000" points="2901.0352,-248.4225 2910.8412,-252.434 2905.677,-243.1829 2901.0352,-248.4225"/>
<text text-anchor="middle" x="2847.517" y="-210.175" font-family="Times,serif" font-size="14.00" fill="#000000">rely</text>
</g>
<!-- MCD_FLOP&#45;&gt;MCD_PAUSE_PROXY -->
<g id="edge36" class="edge">
<title>MCD_FLOP&#45;&gt;MCD_PAUSE_PROXY</title>
<path fill="none" stroke="#000000" d="M2780.3972,-166.3905C2683.2187,-307.1778 2055.6432,-1216.3779 1940.4833,-1383.2159"/>
<polygon fill="#000000" stroke="#000000" points="1937.6001,-1381.2317 1934.7998,-1391.4498 1943.361,-1385.2082 1937.6001,-1381.2317"/>
<text text-anchor="middle" x="2349.5573" y="-762.2032" font-family="Times,serif" font-size="14.00" fill="#000000">rely</text>
</g>
<!-- MCD_VOW&#45;&gt;MCD_CAT -->
<g id="edge24" class="edge">
<title>MCD_VOW&#45;&gt;MCD_CAT</title>
<path fill="none" stroke="#000000" d="M2940.9833,-288.9783C2969.5219,-343.3541 3053.6089,-503.5686 3087.4475,-568.0426"/>
<polygon fill="#000000" stroke="#000000" points="3084.5008,-569.9596 3092.2472,-577.1876 3090.699,-566.7065 3084.5008,-569.9596"/>
<text text-anchor="middle" x="3003.3325" y="-432.7104" font-family="Times,serif" font-size="14.00" fill="#000000">rely</text>
</g>
<!-- MCD_VOW&#45;&gt;MCD_PAUSE_PROXY -->
<g id="edge31" class="edge">
<title>MCD_VOW&#45;&gt;MCD_PAUSE_PROXY</title>
<path fill="none" stroke="#000000" d="M2915.0725,-288.9362C2797.9087,-421.1868 2083.1875,-1227.9403 1945.3413,-1383.5364"/>
<polygon fill="#000000" stroke="#000000" points="1942.5143,-1381.4494 1938.5028,-1391.2555 1947.7539,-1386.0913 1942.5143,-1381.4494"/>
<text text-anchor="middle" x="2419.324" y="-840.4363" font-family="Times,serif" font-size="14.00" fill="#000000">rely</text>
</g>
<!-- MCD_VOW&#45;&gt;MCD_END -->
<g id="edge27" class="edge">
<title>MCD_VOW&#45;&gt;MCD_END</title>
<path fill="none" stroke="#000000" d="M2938.1894,-288.6724C2967.0488,-364.7684 3078.7201,-659.2215 3113.5963,-751.1822"/>
<polygon fill="#000000" stroke="#000000" points="3110.3677,-752.5394 3117.1863,-760.6485 3116.9128,-750.0572 3110.3677,-752.5394"/>
<text text-anchor="middle" x="3015.0099" y="-524.1273" font-family="Times,serif" font-size="14.00" fill="#000000">rely</text>
</g>
<!-- MCD_CAT&#45;&gt;MCD_PAUSE_PROXY -->
<g id="edge30" class="edge">
<title>MCD_CAT&#45;&gt;MCD_PAUSE_PROXY</title>
<path fill="none" stroke="#000000" d="M3075.5065,-613.5242C2920.9985,-720.1734 2131.8496,-1264.8836 1956.777,-1385.7275"/>
<polygon fill="#000000" stroke="#000000" points="1954.683,-1382.92 1948.4414,-1391.4811 1958.6595,-1388.6809 1954.683,-1382.92"/>
<text text-anchor="middle" x="2505.2588" y="-1003.8259" font-family="Times,serif" font-size="14.00" fill="#000000">rely</text>
</g>
<!-- MCD_CAT&#45;&gt;MCD_END -->
<g id="edge26" class="edge">
<title>MCD_CAT&#45;&gt;MCD_END</title>
<path fill="none" stroke="#000000" d="M3104.0114,-613.6349C3107.8964,-645.6314 3115.9618,-712.0553 3120.5926,-750.1941"/>
<polygon fill="#000000" stroke="#000000" points="3117.1764,-751.096 3121.8563,-760.6012 3124.1253,-750.2522 3117.1764,-751.096"/>
<text text-anchor="middle" x="3101.4191" y="-686.1145" font-family="Times,serif" font-size="14.00" fill="#000000">rely</text>
</g>
<!-- MCD_SPOT&#45;&gt;MCD_PAUSE_PROXY -->
<g id="edge34" class="edge">
<title>MCD_SPOT&#45;&gt;MCD_PAUSE_PROXY</title>
<path fill="none" stroke="#000000" d="M1804.4608,-1305.0587C1828.2575,-1326.1408 1867.7251,-1361.1061 1894.3681,-1384.7097"/>
<polygon fill="#000000" stroke="#000000" points="1892.0497,-1387.3317 1901.8558,-1391.3432 1896.6916,-1382.0921 1892.0497,-1387.3317"/>
<text text-anchor="middle" x="1838.5315" y="-1349.0842" font-family="Times,serif" font-size="14.00" fill="#000000">rely</text>
</g>
<!-- MCD_GOV -->
<g id="node14" class="node">
<title>MCD_GOV</title>
<polygon fill="none" stroke="#000000" points="2656.4518,-80.214 2602.4518,-80.214 2602.4518,-44.214 2656.4518,-44.214 2656.4518,-80.214"/>
<text text-anchor="middle" x="2629.4518" y="-58.014" font-family="Times,serif" font-size="14.00" fill="#000000">MKR</text>
</g>
<!-- MCD_GOV&#45;&gt;deployer -->
<g id="edge11" class="edge">
<title>MCD_GOV&#45;&gt;deployer</title>
<path fill="none" stroke="#000000" d="M2602.1262,-62.214C2513.899,-62.214 2236.1524,-62.214 2128.839,-62.214"/>
<polygon fill="#000000" stroke="#000000" points="2128.6987,-58.7141 2118.6987,-62.214 2128.6987,-65.7141 2128.6987,-58.7141"/>
<text text-anchor="middle" x="2347.9917" y="-66.414" font-family="Times,serif" font-size="14.00" fill="#000000">owner</text>
</g>
<!-- MCD_GOV&#45;&gt;MCD_FLOP -->
<g id="edge38" class="edge">
<title>MCD_GOV&#45;&gt;MCD_FLOP</title>
<path fill="none" stroke="#000000" d="M2656.4653,-76.3917C2683.1118,-90.3769 2724.1135,-111.8962 2754.2417,-127.7087"/>
<polygon fill="#000000" stroke="#000000" points="2752.7337,-130.87 2763.2148,-132.4182 2755.9868,-124.6718 2752.7337,-130.87"/>
<text text-anchor="middle" x="2671.9138" y="-106.2502" font-family="Times,serif" font-size="14.00" fill="#000000">permit&#45;mint</text>
</g>
<!-- MCD_GOV_GUARD -->
<g id="node17" class="node">
<title>MCD_GOV_GUARD</title>
<polygon fill="none" stroke="#000000" points="2489.1582,-36 2410.9792,-36 2410.9792,0 2489.1582,0 2489.1582,-36"/>
<text text-anchor="middle" x="2450.0687" y="-13.8" font-family="Times,serif" font-size="14.00" fill="#000000">Gov Guard</text>
</g>
<!-- MCD_GOV&#45;&gt;MCD_GOV_GUARD -->
<g id="edge8" class="edge">
<title>MCD_GOV&#45;&gt;MCD_GOV_GUARD</title>
<path fill="none" stroke="#000000" d="M2602.2074,-55.4988C2574.9388,-48.7777 2532.3821,-38.2884 2499.2041,-30.1108"/>
<polygon fill="#000000" stroke="#000000" points="2499.783,-26.6488 2489.2359,-27.6539 2498.1077,-33.4454 2499.783,-26.6488"/>
<text text-anchor="middle" x="2525.4323" y="-47.0048" font-family="Times,serif" font-size="14.00" fill="#000000">authority</text>
</g>
<!-- MCD_PAUSE -->
<g id="node15" class="node">
<title>MCD_PAUSE</title>
<polygon fill="none" stroke="#000000" points="1712.152,-440.633 1646.0578,-440.633 1646.0578,-404.633 1712.152,-404.633 1712.152,-440.633"/>
<text text-anchor="middle" x="1679.1049" y="-418.433" font-family="Times,serif" font-size="14.00" fill="#000000">DSPause</text>
</g>
<!-- MCD_PAUSE&#45;&gt;zero -->
<g id="edge2" class="edge">
<title>MCD_PAUSE&#45;&gt;zero</title>
<path fill="none" stroke="#000000" d="M1672.2176,-440.7933C1660.7656,-470.9898 1637.7316,-531.7253 1624.1951,-567.4182"/>
<polygon fill="#000000" stroke="#000000" points="1620.7579,-566.6113 1620.4844,-577.2026 1627.3031,-569.0936 1620.7579,-566.6113"/>
<text text-anchor="middle" x="1630.7155" y="-508.3057" font-family="Times,serif" font-size="14.00" fill="#000000">owner</text>
</g>
<!-- MCD_ADM -->
<g id="node19" class="node">
<title>MCD_ADM</title>
<polygon fill="none" stroke="#000000" points="1816.5474,-288.5854 1751.5642,-288.5854 1751.5642,-252.5854 1816.5474,-252.5854 1816.5474,-288.5854"/>
<text text-anchor="middle" x="1784.0558" y="-266.3854" font-family="Times,serif" font-size="14.00" fill="#000000">DSChief</text>
</g>
<!-- MCD_PAUSE&#45;&gt;MCD_ADM -->
<g id="edge3" class="edge">
<title>MCD_PAUSE&#45;&gt;MCD_ADM</title>
<path fill="none" stroke="#000000" d="M1691.5563,-404.5941C1709.9403,-377.9602 1744.46,-327.9498 1765.7356,-297.1268"/>
<polygon fill="#000000" stroke="#000000" points="1768.8204,-298.8189 1771.6206,-288.6008 1763.0595,-294.8425 1768.8204,-298.8189"/>
<text text-anchor="middle" x="1703.3724" y="-355.0604" font-family="Times,serif" font-size="14.00" fill="#000000">authority</text>
</g>
<!-- MCD_PAUSE_PROXY&#45;&gt;MCD_PAUSE -->
<g id="edge14" class="edge">
<title>MCD_PAUSE_PROXY&#45;&gt;MCD_PAUSE</title>
<path fill="none" stroke="#000000" d="M1917.8093,-1391.095C1888.1792,-1270.8807 1722.271,-597.7648 1686.0781,-450.9242"/>
<polygon fill="#000000" stroke="#000000" points="1689.4003,-449.7776 1683.6087,-440.9058 1682.6037,-451.4528 1689.4003,-449.7776"/>
<text text-anchor="middle" x="1784.4528" y="-925.2096" font-family="Times,serif" font-size="14.00" fill="#000000">owner</text>
</g>
<!-- MCD_GOV_GUARD&#45;&gt;zero -->
<g id="edge4" class="edge">
<title>MCD_GOV_GUARD&#45;&gt;zero</title>
<path fill="none" stroke="#000000" d="M2423.653,-36.2334C2301.099,-120.8263 1787.9917,-474.9988 1648.6431,-571.1841"/>
<polygon fill="#000000" stroke="#000000" points="1646.2547,-568.5799 1640.0131,-577.141 1650.2312,-574.3408 1646.2547,-568.5799"/>
<text text-anchor="middle" x="2010.8746" y="-307.9088" font-family="Times,serif" font-size="14.00" fill="#000000">authority</text>
</g>
<!-- MCD_GOV_GUARD&#45;&gt;deployer -->
<g id="edge13" class="edge">
<title>MCD_GOV_GUARD&#45;&gt;deployer</title>
<path fill="none" stroke="#000000" d="M2410.7539,-22.7737C2341.781,-31.1485 2199.5595,-48.4173 2128.4136,-57.056"/>
<polygon fill="#000000" stroke="#000000" points="2127.9547,-53.5859 2118.4495,-58.2659 2128.7985,-60.5349 2127.9547,-53.5859"/>
<text text-anchor="middle" x="2252.0928" y="-44.1148" font-family="Times,serif" font-size="14.00" fill="#000000">owner</text>
</g>
<!-- MCD_IOU -->
<g id="node18" class="node">
<title>MCD_IOU</title>
<polygon fill="none" stroke="#000000" points="2292.317,-36 2238.317,-36 2238.317,0 2292.317,0 2292.317,-36"/>
<text text-anchor="middle" x="2265.317" y="-13.8" font-family="Times,serif" font-size="14.00" fill="#000000">IOU</text>
</g>
<!-- MCD_IOU&#45;&gt;deployer -->
<g id="edge12" class="edge">
<title>MCD_IOU&#45;&gt;deployer</title>
<path fill="none" stroke="#000000" d="M2238.0726,-24.7152C2209.0275,-31.8741 2162.6375,-43.3082 2128.7113,-51.6703"/>
<polygon fill="#000000" stroke="#000000" points="2127.4874,-48.3671 2118.6156,-54.1587 2129.1626,-55.1637 2127.4874,-48.3671"/>
<text text-anchor="middle" x="2165.901" y="-42.3927" font-family="Times,serif" font-size="14.00" fill="#000000">owner</text>
</g>
<!-- MCD_IOU&#45;&gt;MCD_GOV_GUARD -->
<g id="edge5" class="edge">
<title>MCD_IOU&#45;&gt;MCD_GOV_GUARD</title>
<path fill="none" stroke="#000000" d="M2292.5778,-18C2320.8677,-18 2365.7353,-18 2400.3568,-18"/>
<polygon fill="#000000" stroke="#000000" points="2400.7428,-21.5001 2410.7428,-18 2400.7427,-14.5001 2400.7428,-21.5001"/>
<text text-anchor="middle" x="2321.1938" y="-22.2" font-family="Times,serif" font-size="14.00" fill="#000000">authority</text>
</g>
<!-- MCD_IOU&#45;&gt;MCD_ADM -->
<g id="edge63" class="edge">
<title>MCD_IOU&#45;&gt;MCD_ADM</title>
<path fill="none" stroke="#000000" d="M2238.2746,-28.5294C2156.5541,-66.3746 1912.3031,-194.3434 1819.9418,-247.4154"/>
<polygon fill="#000000" stroke="#000000" points="1818.1297,-244.4202 1811.2318,-252.462 1821.6391,-250.477 1818.1297,-244.4202"/>
<text text-anchor="middle" x="2062.5479" y="-125.3724" font-family="Times,serif" font-size="14.00" fill="#000000">permit&#45;mint</text>
</g>
<!-- MCD_IOU&#45;&gt;MCD_ADM -->
<g id="edge64" class="edge">
<title>MCD_IOU&#45;&gt;MCD_ADM</title>
<path fill="none" stroke="#000000" d="M2238.2393,-36.0659C2158.1676,-82.9107 1922.2781,-206.9118 1825.8371,-253.1015"/>
<polygon fill="#000000" stroke="#000000" points="1824.2093,-249.9998 1816.6775,-257.4512 1827.2121,-256.3231 1824.2093,-249.9998"/>
<text text-anchor="middle" x="2065.4723" y="-148.7837" font-family="Times,serif" font-size="14.00" fill="#000000">permit&#45;burn</text>
</g>
<!-- MCD_ADM&#45;&gt;zero -->
<g id="edge10" class="edge">
<title>MCD_ADM&#45;&gt;zero</title>
<path fill="none" stroke="#000000" d="M1774.4025,-288.9783C1745.8638,-343.3541 1661.7768,-503.5686 1627.9382,-568.0426"/>
<polygon fill="#000000" stroke="#000000" points="1624.6867,-566.7065 1623.1385,-577.1876 1630.8849,-569.9596 1624.6867,-566.7065"/>
<text text-anchor="middle" x="1718.6613" y="-432.7104" font-family="Times,serif" font-size="14.00" fill="#000000">owner</text>
</g>
<!-- MCD_ADM&#45;&gt;MCD_ADM -->
<g id="edge6" class="edge">
<title>MCD_ADM&#45;&gt;MCD_ADM</title>
<path fill="none" stroke="#000000" d="M1816.5956,-277.3288C1826.6534,-277.1925 1834.5516,-274.9447 1834.5516,-270.5854 1834.5516,-267.8608 1831.4664,-265.961 1826.6969,-264.886"/>
<polygon fill="#000000" stroke="#000000" points="1826.9025,-261.3887 1816.5956,-263.842 1826.1827,-268.3516 1826.9025,-261.3887"/>
<text text-anchor="middle" x="1859.8251" y="-266.3854" font-family="Times,serif" font-size="14.00" fill="#000000">authority</text>
</g>
<!-- PROXY_DEPLOYER -->
<g id="node20" class="node">
<title>PROXY_DEPLOYER</title>
<polygon fill="none" stroke="#000000" points="1974.8746,-166.0724 1869.8142,-166.0724 1869.8142,-130.0724 1974.8746,-130.0724 1974.8746,-166.0724"/>
<text text-anchor="middle" x="1922.3444" y="-143.8724" font-family="Times,serif" font-size="14.00" fill="#000000">Proxy Deployer</text>
</g>
<!-- PROXY_DEPLOYER&#45;&gt;zero -->
<g id="edge7" class="edge">
<title>PROXY_DEPLOYER&#45;&gt;zero</title>
<path fill="none" stroke="#000000" d="M1909.8585,-166.1613C1861.8549,-235.7066 1689.0239,-486.0955 1631.9935,-568.7182"/>
<polygon fill="#000000" stroke="#000000" points="1629.0326,-566.8467 1626.2323,-577.0648 1634.7935,-570.8232 1629.0326,-566.8467"/>
<text text-anchor="middle" x="1745.6525" y="-371.6398" font-family="Times,serif" font-size="14.00" fill="#000000">authority</text>
</g>
<!-- PROXY_DEPLOYER&#45;&gt;deployer -->
<g id="edge15" class="edge">
<title>PROXY_DEPLOYER&#45;&gt;deployer</title>
<path fill="none" stroke="#000000" d="M1957.0375,-129.864C1982.4585,-116.522 2017.0872,-98.3475 2044.0507,-84.196"/>
<polygon fill="#000000" stroke="#000000" points="2046.0127,-87.1191 2053.2407,-79.3727 2042.7596,-80.9209 2046.0127,-87.1191"/>
<text text-anchor="middle" x="1983.0532" y="-111.23" font-family="Times,serif" font-size="14.00" fill="#000000">owner</text>
</g>
<!-- MCD_END&#45;&gt;MCD_PAUSE_PROXY -->
<g id="edge37" class="edge">
<title>MCD_END&#45;&gt;MCD_PAUSE_PROXY</title>
<path fill="none" stroke="#000000" d="M3096.9937,-792.991C2941.2758,-874.7181 2159.8523,-1284.8408 1965.9428,-1386.6123"/>
<polygon fill="#000000" stroke="#000000" points="1964.1218,-1383.6152 1956.8938,-1391.3616 1967.3749,-1389.8134 1964.1218,-1383.6152"/>
<text text-anchor="middle" x="2520.5854" y="-1094.0017" font-family="Times,serif" font-size="14.00" fill="#000000">rely</text>
</g>
<!-- Empty &#45; MCD_ESM -->
<g id="node38" class="node">
<title>Empty &#45; MCD_ESM</title>
<polygon fill="none" stroke="#000000" points="3328.5575,-796.7834 3196.2326,-796.7834 3196.2326,-760.7834 3328.5575,-760.7834 3328.5575,-796.7834"/>
<text text-anchor="middle" x="3262.395" y="-774.5834" font-family="Times,serif" font-size="14.00" fill="#000000">Empty &#45; MCD_ESM</text>
</g>
<!-- MCD_END&#45;&gt;Empty &#45; MCD_ESM -->
<g id="edge28" class="edge">
<title>MCD_END&#45;&gt;Empty &#45; MCD_ESM</title>
<path fill="none" stroke="#000000" d="M3151.3938,-778.7834C3161.583,-778.7834 3173.7125,-778.7834 3186.1505,-778.7834"/>
<polygon fill="#000000" stroke="#000000" points="3186.1606,-782.2835 3196.1606,-778.7834 3186.1606,-775.2835 3186.1606,-782.2835"/>
<text text-anchor="middle" x="3179.6551" y="-782.9834" font-family="Times,serif" font-size="14.00" fill="#000000">rely</text>
</g>
<!-- Flipper_ETH&#45;A -->
<g id="node23" class="node">
<title>Flipper_ETH&#45;A</title>
<polygon fill="none" stroke="#000000" points="2138.8527,-1513.3529 2033.0151,-1513.3529 2033.0151,-1477.3529 2138.8527,-1477.3529 2138.8527,-1513.3529"/>
<text text-anchor="middle" x="2085.9339" y="-1491.1529" font-family="Times,serif" font-size="14.00" fill="#000000">Flipper_ETH&#45;A</text>
</g>
<!-- Flipper_ETH&#45;A&#45;&gt;MCD_PAUSE_PROXY -->
<g id="edge41" class="edge">
<title>Flipper_ETH&#45;A&#45;&gt;MCD_PAUSE_PROXY</title>
<path fill="none" stroke="#000000" d="M2051.2408,-1477.1446C2026.3232,-1464.0668 1992.559,-1446.346 1965.8383,-1432.3219"/>
<polygon fill="#000000" stroke="#000000" points="1967.1878,-1429.0774 1956.7067,-1427.5293 1963.9347,-1435.2756 1967.1878,-1429.0774"/>
<text text-anchor="middle" x="1997.6566" y="-1458.9332" font-family="Times,serif" font-size="14.00" fill="#000000">rely</text>
</g>
<!-- Flipper_ETH&#45;A&#45;&gt;MCD_END -->
<g id="edge40" class="edge">
<title>Flipper_ETH&#45;A&#45;&gt;MCD_END</title>
<path fill="none" stroke="#000000" d="M2112.1149,-1477.2815C2253.7753,-1379.5003 2928.1085,-914.0418 3089.3651,-802.7344"/>
<polygon fill="#000000" stroke="#000000" points="3091.7122,-805.3672 3097.9538,-796.806 3087.7357,-799.6063 3091.7122,-805.3672"/>
<text text-anchor="middle" x="2589.8571" y="-1144.2079" font-family="Times,serif" font-size="14.00" fill="#000000">rely</text>
</g>
<!-- Flipper_ETH&#45;B -->
<g id="node25" class="node">
<title>Flipper_ETH&#45;B</title>
<polygon fill="none" stroke="#000000" points="2317.4656,-1557.5669 2213.1684,-1557.5669 2213.1684,-1521.5669 2317.4656,-1521.5669 2317.4656,-1557.5669"/>
<text text-anchor="middle" x="2265.317" y="-1535.3669" font-family="Times,serif" font-size="14.00" fill="#000000">Flipper_ETH&#45;B</text>
</g>
<!-- Flipper_ETH&#45;B&#45;&gt;MCD_PAUSE_PROXY -->
<g id="edge44" class="edge">
<title>Flipper_ETH&#45;B&#45;&gt;MCD_PAUSE_PROXY</title>
<path fill="none" stroke="#000000" d="M2217.6282,-1521.4809C2155.2615,-1497.8283 2046.1182,-1456.4357 1979.4251,-1431.1424"/>
<polygon fill="#000000" stroke="#000000" points="1980.4951,-1427.805 1969.9038,-1427.5314 1978.0128,-1434.3501 1980.4951,-1427.805"/>
<text text-anchor="middle" x="2087.6437" y="-1463.7116" font-family="Times,serif" font-size="14.00" fill="#000000">rely</text>
</g>
<!-- Flipper_ETH&#45;B&#45;&gt;MCD_END -->
<g id="edge43" class="edge">
<title>Flipper_ETH&#45;B&#45;&gt;MCD_END</title>
<path fill="none" stroke="#000000" d="M2285.6976,-1521.5113C2400.1376,-1420.1263 2962.4098,-921.9966 3095.6934,-803.9176"/>
<polygon fill="#000000" stroke="#000000" points="3098.3288,-806.2589 3103.493,-797.0078 3093.6869,-801.0193 3098.3288,-806.2589"/>
<text text-anchor="middle" x="2679.8126" y="-1166.9145" font-family="Times,serif" font-size="14.00" fill="#000000">rely</text>
</g>
<!-- Flipper_ETH&#45;C -->
<g id="node27" class="node">
<title>Flipper_ETH&#45;C</title>
<polygon fill="none" stroke="#000000" points="2502.2173,-1557.5669 2397.9201,-1557.5669 2397.9201,-1521.5669 2502.2173,-1521.5669 2502.2173,-1557.5669"/>
<text text-anchor="middle" x="2450.0687" y="-1535.3669" font-family="Times,serif" font-size="14.00" fill="#000000">Flipper_ETH&#45;C</text>
</g>
<!-- Flipper_ETH&#45;C&#45;&gt;MCD_PAUSE_PROXY -->
<g id="edge47" class="edge">
<title>Flipper_ETH&#45;C&#45;&gt;MCD_PAUSE_PROXY</title>
<path fill="none" stroke="#000000" d="M2397.5392,-1526.6195C2298.7885,-1502.2797 2086.0697,-1449.8492 1982.0593,-1424.213"/>
<polygon fill="#000000" stroke="#000000" points="1982.8877,-1420.8124 1972.3407,-1421.8175 1981.2124,-1427.609 1982.8877,-1420.8124"/>
<text text-anchor="middle" x="2178.9163" y="-1479.6162" font-family="Times,serif" font-size="14.00" fill="#000000">rely</text>
</g>
<!-- Flipper_ETH&#45;C&#45;&gt;MCD_END -->
<g id="edge46" class="edge">
<title>Flipper_ETH&#45;C&#45;&gt;MCD_END</title>
<path fill="none" stroke="#000000" d="M2466.0646,-1521.5113C2555.7048,-1420.3284 2995.4297,-923.9816 3101.1673,-804.6285"/>
<polygon fill="#000000" stroke="#000000" points="3103.9072,-806.8139 3107.9186,-797.0078 3098.6676,-802.172 3103.9072,-806.8139"/>
<text text-anchor="middle" x="2772.733" y="-1167.2699" font-family="Times,serif" font-size="14.00" fill="#000000">rely</text>
</g>
<!-- Flipper_COL1&#45;A -->
<g id="node29" class="node">
<title>Flipper_COL1&#45;A</title>
<polygon fill="none" stroke="#000000" points="2686.154,-1513.3529 2572.7496,-1513.3529 2572.7496,-1477.3529 2686.154,-1477.3529 2686.154,-1513.3529"/>
<text text-anchor="middle" x="2629.4518" y="-1491.1529" font-family="Times,serif" font-size="14.00" fill="#000000">Flipper_COL1&#45;A</text>
</g>
<!-- Flipper_COL1&#45;A&#45;&gt;MCD_PAUSE_PROXY -->
<g id="edge50" class="edge">
<title>Flipper_COL1&#45;A&#45;&gt;MCD_PAUSE_PROXY</title>
<path fill="none" stroke="#000000" d="M2572.7816,-1488.4719C2441.5076,-1472.5324 2117.5221,-1433.1934 1982.7113,-1416.8244"/>
<polygon fill="#000000" stroke="#000000" points="1982.9159,-1413.3236 1972.5669,-1415.5927 1982.0721,-1420.2726 1982.9159,-1413.3236"/>
<text text-anchor="middle" x="2266.8635" y="-1456.8482" font-family="Times,serif" font-size="14.00" fill="#000000">rely</text>
</g>
<!-- Flipper_COL1&#45;A&#45;&gt;MCD_END -->
<g id="edge49" class="edge">
<title>Flipper_COL1&#45;A&#45;&gt;MCD_END</title>
<path fill="none" stroke="#000000" d="M2641.9256,-1477.2815C2708.949,-1380.1814 3026.2387,-920.5079 3105.8911,-805.1115"/>
<polygon fill="#000000" stroke="#000000" points="3108.8237,-807.0241 3111.6239,-796.806 3103.0628,-803.0477 3108.8237,-807.0241"/>
<text text-anchor="middle" x="2863.0255" y="-1145.3965" font-family="Times,serif" font-size="14.00" fill="#000000">rely</text>
</g>
<!-- Flipper_COL2&#45;A -->
<g id="node31" class="node">
<title>Flipper_COL2&#45;A</title>
<polygon fill="none" stroke="#000000" points="2849.7435,-1427.4945 2736.3391,-1427.4945 2736.3391,-1391.4945 2849.7435,-1391.4945 2849.7435,-1427.4945"/>
<text text-anchor="middle" x="2793.0413" y="-1405.2945" font-family="Times,serif" font-size="14.00" fill="#000000">Flipper_COL2&#45;A</text>
</g>
<!-- Flipper_COL2&#45;A&#45;&gt;MCD_PAUSE_PROXY -->
<g id="edge53" class="edge">
<title>Flipper_COL2&#45;A&#45;&gt;MCD_PAUSE_PROXY</title>
<path fill="none" stroke="#000000" d="M2736.2483,-1409.4945C2579.7755,-1409.4945 2143.4118,-1409.4945 1982.7362,-1409.4945"/>
<polygon fill="#000000" stroke="#000000" points="1982.5574,-1405.9946 1972.5573,-1409.4945 1982.5573,-1412.9946 1982.5574,-1405.9946"/>
<text text-anchor="middle" x="2348.6094" y="-1413.6945" font-family="Times,serif" font-size="14.00" fill="#000000">rely</text>
</g>
<!-- Flipper_COL2&#45;A&#45;&gt;MCD_END -->
<g id="edge52" class="edge">
<title>Flipper_COL2&#45;A&#45;&gt;MCD_END</title>
<path fill="none" stroke="#000000" d="M2802.5912,-1391.2988C2849.3076,-1302.2881 3053.7736,-912.7107 3109.8152,-805.9323"/>
<polygon fill="#000000" stroke="#000000" points="3112.9272,-807.5342 3114.4754,-797.053 3106.729,-804.2811 3112.9272,-807.5342"/>
<text text-anchor="middle" x="2945.3203" y="-1102.8155" font-family="Times,serif" font-size="14.00" fill="#000000">rely</text>
</g>
<!-- Flipper_COL3&#45;A -->
<g id="node33" class="node">
<title>Flipper_COL3&#45;A</title>
<polygon fill="none" stroke="#000000" points="2988.0321,-1304.9815 2874.6277,-1304.9815 2874.6277,-1268.9815 2988.0321,-1268.9815 2988.0321,-1304.9815"/>
<text text-anchor="middle" x="2931.3299" y="-1282.7815" font-family="Times,serif" font-size="14.00" fill="#000000">Flipper_COL3&#45;A</text>
</g>
<!-- Flipper_COL3&#45;A&#45;&gt;MCD_PAUSE_PROXY -->
<g id="edge56" class="edge">
<title>Flipper_COL3&#45;A&#45;&gt;MCD_PAUSE_PROXY</title>
<path fill="none" stroke="#000000" d="M2874.5565,-1293.8751C2698.594,-1315.2408 2163.3502,-1380.2311 1982.6606,-1402.1708"/>
<polygon fill="#000000" stroke="#000000" points="1982.0489,-1398.7193 1972.5437,-1403.3993 1982.8927,-1405.6683 1982.0489,-1398.7193"/>
<text text-anchor="middle" x="2417.7257" y="-1352.223" font-family="Times,serif" font-size="14.00" fill="#000000">rely</text>
</g>
<!-- Flipper_COL3&#45;A&#45;&gt;MCD_END -->
<g id="edge55" class="edge">
<title>Flipper_COL3&#45;A&#45;&gt;MCD_END</title>
<path fill="none" stroke="#000000" d="M2938.1894,-1268.8945C2967.0488,-1192.7985 3078.7201,-898.3454 3113.5963,-806.3847"/>
<polygon fill="#000000" stroke="#000000" points="3116.9128,-807.5097 3117.1863,-796.9184 3110.3677,-805.0275 3116.9128,-807.5097"/>
<text text-anchor="middle" x="3015.0099" y="-1041.8396" font-family="Times,serif" font-size="14.00" fill="#000000">rely</text>
</g>
<!-- Flipper_COL4&#45;A -->
<g id="node35" class="node">
<title>Flipper_COL4&#45;A</title>
<polygon fill="none" stroke="#000000" points="3092.983,-1152.9339 2979.5786,-1152.9339 2979.5786,-1116.9339 3092.983,-1116.9339 3092.983,-1152.9339"/>
<text text-anchor="middle" x="3036.2808" y="-1130.7339" font-family="Times,serif" font-size="14.00" fill="#000000">Flipper_COL4&#45;A</text>
</g>
<!-- Flipper_COL4&#45;A&#45;&gt;MCD_PAUSE_PROXY -->
<g id="edge59" class="edge">
<title>Flipper_COL4&#45;A&#45;&gt;MCD_PAUSE_PROXY</title>
<path fill="none" stroke="#000000" d="M2979.5091,-1148.9269C2789.5092,-1195.7576 2176.9392,-1346.7426 1982.3005,-1394.7167"/>
<polygon fill="#000000" stroke="#000000" points="1981.4032,-1391.333 1972.5314,-1397.1246 1983.0785,-1398.1296 1981.4032,-1391.333"/>
<text text-anchor="middle" x="2470.0219" y="-1276.0218" font-family="Times,serif" font-size="14.00" fill="#000000">rely</text>
</g>
<!-- Flipper_COL4&#45;A&#45;&gt;MCD_END -->
<g id="edge58" class="edge">
<title>Flipper_COL4&#45;A&#45;&gt;MCD_END</title>
<path fill="none" stroke="#000000" d="M3040.7547,-1116.7827C3055.0779,-1058.6711 3099.8746,-876.9239 3117.1621,-806.7855"/>
<polygon fill="#000000" stroke="#000000" points="3120.6042,-807.4451 3119.5992,-796.8981 3113.8076,-805.7699 3120.6042,-807.4451"/>
<text text-anchor="middle" x="3068.0755" y="-965.9841" font-family="Times,serif" font-size="14.00" fill="#000000">rely</text>
</g>
<!-- Flipper_COL5&#45;A -->
<g id="node37" class="node">
<title>Flipper_COL5&#45;A</title>
<polygon fill="none" stroke="#000000" points="3158.4969,-980.1881 3045.0925,-980.1881 3045.0925,-944.1881 3158.4969,-944.1881 3158.4969,-980.1881"/>
<text text-anchor="middle" x="3101.7947" y="-957.9881" font-family="Times,serif" font-size="14.00" fill="#000000">Flipper_COL5&#45;A</text>
</g>
<!-- Flipper_COL5&#45;A&#45;&gt;MCD_PAUSE_PROXY -->
<g id="edge62" class="edge">
<title>Flipper_COL5&#45;A&#45;&gt;MCD_PAUSE_PROXY</title>
<path fill="none" stroke="#000000" d="M3054.098,-980.277C2866.8909,-1051.2753 2182.7047,-1310.7529 1979.5752,-1387.7898"/>
<polygon fill="#000000" stroke="#000000" points="1978.0955,-1384.6076 1969.9865,-1391.4263 1980.5778,-1391.1527 1978.0955,-1384.6076"/>
<text text-anchor="middle" x="2505.9537" y="-1188.2334" font-family="Times,serif" font-size="14.00" fill="#000000">rely</text>
</g>
<!-- Flipper_COL5&#45;A&#45;&gt;MCD_END -->
<g id="edge61" class="edge">
<title>Flipper_COL5&#45;A&#45;&gt;MCD_END</title>
<path fill="none" stroke="#000000" d="M3104.0114,-943.932C3107.8964,-911.9355 3115.9618,-845.5116 3120.5926,-807.3728"/>
<polygon fill="#000000" stroke="#000000" points="3124.1253,-807.3147 3121.8563,-796.9657 3117.1764,-806.4709 3124.1253,-807.3147"/>
<text text-anchor="middle" x="3101.4191" y="-879.8524" font-family="Times,serif" font-size="14.00" fill="#000000">rely</text>
</g>
<!-- isolated -->
<g id="node40" class="node">
<title>isolated</title>
<polygon fill="none" stroke="#000000" points="1941.6587,-1864.0836 1367.7271,-1864.0836 1367.7271,-1671.4833 1941.6587,-1671.4833 1941.6587,-1864.0836"/>
<text text-anchor="middle" x="1654.6929" y="-1847.5834" font-family="Times,serif" font-size="14.00" fill="#000000">Isolated Contracts:&#13;</text>
<text text-anchor="middle" x="1654.6929" y="-1830.7834" font-family="Times,serif" font-size="14.00" fill="#000000"> MULTICALL, FAUCET, VOTE_PROXY_FACTORY, PROXY_ACTIONS, CDP_MANAGER,&#13;</text>
<text text-anchor="middle" x="1654.6929" y="-1813.9834" font-family="Times,serif" font-size="14.00" fill="#000000"> GET_CDPS, PROXY_FACTORY, PROXY_REGISTRY, PROXY_PAUSE_ACTIONS,&#13;</text>
<text text-anchor="middle" x="1654.6929" y="-1797.1834" font-family="Times,serif" font-size="14.00" fill="#000000"> MCD_GOV_ACTIONS, GOV_POLL_GEN, VOTE_YES, VOTE_NO,&#13;</text>
<text text-anchor="middle" x="1654.6929" y="-1780.3834" font-family="Times,serif" font-size="14.00" fill="#000000"> ETH, PIP_ETH, COL1, PIP_COL1,&#13;</text>
<text text-anchor="middle" x="1654.6929" y="-1763.5834" font-family="Times,serif" font-size="14.00" fill="#000000"> COL2, PIP_COL2, COL3, PIP_COL3,&#13;</text>
<text text-anchor="middle" x="1654.6929" y="-1746.7834" font-family="Times,serif" font-size="14.00" fill="#000000"> COL4, PIP_COL4, COL5, PIP_COL5,&#13;</text>
<text text-anchor="middle" x="1654.6929" y="-1729.9834" font-family="Times,serif" font-size="14.00" fill="#000000"> vatFab, jugFab, vowFab, catFab,&#13;</text>
<text text-anchor="middle" x="1654.6929" y="-1713.1834" font-family="Times,serif" font-size="14.00" fill="#000000"> daiFab, daiJoinFab, flapFab, flopFab,&#13;</text>
<text text-anchor="middle" x="1654.6929" y="-1696.3834" font-family="Times,serif" font-size="14.00" fill="#000000"> flipFab, spotFab, potFab, pauseFab,&#13;</text>
<text text-anchor="middle" x="1654.6929" y="-1679.5834" font-family="Times,serif" font-size="14.00" fill="#000000"> 0xfbabcd836653f575067660ca578925a60cc92b04</text>
</g>
</g>
</svg>
