<?xml version="1.0" encoding="UTF-8" standalone="no"?>
<!DOCTYPE svg PUBLIC "-//W3C//DTD SVG 1.1//EN"
 "http://www.w3.org/Graphics/SVG/1.1/DTD/svg11.dtd">
<!-- Generated by graphviz version 2.40.1 (20161225.0304)
 -->
<!-- Title: %0 Pages: 1 -->
<svg width="2453pt" height="1421pt"
 viewBox="0.00 0.00 2452.98 1421.17" xmlns="http://www.w3.org/2000/svg" xmlns:xlink="http://www.w3.org/1999/xlink">
<g id="graph0" class="graph" transform="scale(1 1) rotate(0) translate(4 1417.1727)">
<title>%0</title>
<polygon fill="#ffffff" stroke="transparent" points="-4,4 -4,-1417.1727 2448.9829,-1417.1727 2448.9829,4 -4,4"/>
<!-- zero -->
<g id="node1" class="node">
<title>zero</title>
<polygon fill="none" stroke="#000000" points="886.1891,-633.8608 832.1891,-633.8608 832.1891,-597.8608 886.1891,-597.8608 886.1891,-633.8608"/>
<text text-anchor="middle" x="859.1891" y="-611.6608" font-family="Times,serif" font-size="14.00" fill="#000000">zero</text>
</g>
<!-- deployer -->
<g id="node2" class="node">
<title>deployer</title>
<polygon fill="none" stroke="#000000" points="656.9661,-968.3653 592.0053,-968.3653 592.0053,-932.3653 656.9661,-932.3653 656.9661,-968.3653"/>
<text text-anchor="middle" x="624.4857" y="-946.1653" font-family="Times,serif" font-size="14.00" fill="#000000">deployer</text>
</g>
<!-- MCD_DEPLOY -->
<g id="node3" class="node">
<title>MCD_DEPLOY</title>
<polygon fill="none" stroke="#000000" points="1133.8477,-985.6872 1055.432,-985.6872 1055.432,-949.6872 1133.8477,-949.6872 1133.8477,-985.6872"/>
<text text-anchor="middle" x="1094.6399" y="-963.4872" font-family="Times,serif" font-size="14.00" fill="#000000">DssDeploy</text>
</g>
<!-- MCD_DEPLOY&#45;&gt;zero -->
<g id="edge2" class="edge">
<title>MCD_DEPLOY&#45;&gt;zero</title>
<path fill="none" stroke="#000000" d="M1082.3125,-949.2668C1043.3739,-891.0822 922.8864,-711.0416 877.0962,-642.6188"/>
<polygon fill="#000000" stroke="#000000" points="879.8649,-640.4629 871.3944,-634.0988 874.0474,-644.3562 879.8649,-640.4629"/>
<text text-anchor="middle" x="962.2135" y="-800.1428" font-family="Times,serif" font-size="14.00" fill="#000000">owner</text>
</g>
<!-- 0xd1d1c361D4770c24591FF487df7c9614e015768D -->
<g id="node32" class="node">
<title>0xd1d1c361D4770c24591FF487df7c9614e015768D</title>
<polygon fill="none" stroke="#000000" points="1369.4333,-1225.2339 1056.8382,-1225.2339 1056.8382,-1189.2339 1369.4333,-1189.2339 1369.4333,-1225.2339"/>
<text text-anchor="middle" x="1213.1357" y="-1203.0339" font-family="Times,serif" font-size="14.00" fill="#000000">0xd1d1c361D4770c24591FF487df7c9614e015768D</text>
</g>
<!-- MCD_DEPLOY&#45;&gt;0xd1d1c361D4770c24591FF487df7c9614e015768D -->
<g id="edge7" class="edge">
<title>MCD_DEPLOY&#45;&gt;0xd1d1c361D4770c24591FF487df7c9614e015768D</title>
<path fill="none" stroke="#000000" d="M1103.5463,-985.6921C1124.1338,-1027.3109 1175.1241,-1130.391 1199.6009,-1179.8725"/>
<polygon fill="#000000" stroke="#000000" points="1196.5549,-1181.6086 1204.1259,-1189.02 1202.8292,-1178.5048 1196.5549,-1181.6086"/>
<text text-anchor="middle" x="1126.3001" y="-1086.9823" font-family="Times,serif" font-size="14.00" fill="#000000">authority</text>
</g>
<!-- MCD_VAT -->
<g id="node4" class="node">
<title>MCD_VAT</title>
<polygon fill="none" stroke="#000000" points="2311.4404,-402.9157 2257.4404,-402.9157 2257.4404,-366.9157 2311.4404,-366.9157 2311.4404,-402.9157"/>
<text text-anchor="middle" x="2284.4404" y="-380.7157" font-family="Times,serif" font-size="14.00" fill="#000000">Vat</text>
</g>
<!-- MCD_JUG -->
<g id="node7" class="node">
<title>MCD_JUG</title>
<polygon fill="none" stroke="#000000" points="2213.0716,-255.6964 2159.0716,-255.6964 2159.0716,-219.6964 2213.0716,-219.6964 2213.0716,-255.6964"/>
<text text-anchor="middle" x="2186.0716" y="-233.4964" font-family="Times,serif" font-size="14.00" fill="#000000">Jug</text>
</g>
<!-- MCD_VAT&#45;&gt;MCD_JUG -->
<g id="edge18" class="edge">
<title>MCD_VAT&#45;&gt;MCD_JUG</title>
<path fill="none" stroke="#000000" d="M2272.3784,-366.8637C2255.2688,-341.2573 2223.8302,-294.2062 2203.9888,-264.5114"/>
<polygon fill="#000000" stroke="#000000" points="2206.6981,-262.2662 2198.2322,-255.896 2200.8778,-266.1552 2206.6981,-262.2662"/>
<text text-anchor="middle" x="2227.3007" y="-319.8876" font-family="Times,serif" font-size="14.00" fill="#000000">rely</text>
</g>
<!-- MCD_POT -->
<g id="node8" class="node">
<title>MCD_POT</title>
<polygon fill="none" stroke="#000000" points="1571.3189,-255.6964 1517.3189,-255.6964 1517.3189,-219.6964 1571.3189,-219.6964 1571.3189,-255.6964"/>
<text text-anchor="middle" x="1544.3189" y="-233.4964" font-family="Times,serif" font-size="14.00" fill="#000000">Pot</text>
</g>
<!-- MCD_VAT&#45;&gt;MCD_POT -->
<g id="edge19" class="edge">
<title>MCD_VAT&#45;&gt;MCD_POT</title>
<path fill="none" stroke="#000000" d="M2257.2213,-379.5015C2144.1,-357.0002 1710.9921,-270.8497 1581.2544,-245.0433"/>
<polygon fill="#000000" stroke="#000000" points="1581.8846,-241.6002 1571.3939,-243.0819 1580.5189,-248.4656 1581.8846,-241.6002"/>
<text text-anchor="middle" x="1908.355" y="-316.4724" font-family="Times,serif" font-size="14.00" fill="#000000">rely</text>
</g>
<!-- MCD_CAT -->
<g id="node12" class="node">
<title>MCD_CAT</title>
<polygon fill="none" stroke="#000000" points="1892.1952,-1030.3604 1838.1952,-1030.3604 1838.1952,-994.3604 1892.1952,-994.3604 1892.1952,-1030.3604"/>
<text text-anchor="middle" x="1865.1952" y="-1008.1604" font-family="Times,serif" font-size="14.00" fill="#000000">Cat</text>
</g>
<!-- MCD_VAT&#45;&gt;MCD_CAT -->
<g id="edge22" class="edge">
<title>MCD_VAT&#45;&gt;MCD_CAT</title>
<path fill="none" stroke="#000000" d="M2272.3453,-403.0172C2213.1188,-491.6559 1953.6978,-879.9068 1883.0279,-985.6719"/>
<polygon fill="#000000" stroke="#000000" points="1879.985,-983.9262 1877.3394,-994.1854 1885.8053,-987.8152 1879.985,-983.9262"/>
<text text-anchor="middle" x="2066.8037" y="-698.5445" font-family="Times,serif" font-size="14.00" fill="#000000">rely</text>
</g>
<!-- MCD_SPOT -->
<g id="node13" class="node">
<title>MCD_SPOT</title>
<polygon fill="none" stroke="#000000" points="1474.3908,-402.9157 1417.5094,-402.9157 1417.5094,-366.9157 1474.3908,-366.9157 1474.3908,-402.9157"/>
<text text-anchor="middle" x="1445.9501" y="-380.7157" font-family="Times,serif" font-size="14.00" fill="#000000">Spotter</text>
</g>
<!-- MCD_VAT&#45;&gt;MCD_SPOT -->
<g id="edge16" class="edge">
<title>MCD_VAT&#45;&gt;MCD_SPOT</title>
<path fill="none" stroke="#000000" d="M2257.019,-384.9157C2133.5236,-384.9157 1628.7605,-384.9157 1484.5768,-384.9157"/>
<polygon fill="#000000" stroke="#000000" points="1484.4413,-381.4158 1474.4413,-384.9157 1484.4413,-388.4158 1484.4413,-381.4158"/>
<text text-anchor="middle" x="1859.915" y="-389.1157" font-family="Times,serif" font-size="14.00" fill="#000000">rely</text>
</g>
<!-- MCD_PAUSE_PROXY -->
<g id="node16" class="node">
<title>MCD_PAUSE_PROXY</title>
<polygon fill="none" stroke="#000000" points="1461.3964,-576.5727 1361.4188,-576.5727 1361.4188,-540.5727 1461.3964,-540.5727 1461.3964,-576.5727"/>
<text text-anchor="middle" x="1411.4076" y="-554.3727" font-family="Times,serif" font-size="14.00" fill="#000000">DSPauseProxy</text>
</g>
<!-- MCD_VAT&#45;&gt;MCD_PAUSE_PROXY -->
<g id="edge30" class="edge">
<title>MCD_VAT&#45;&gt;MCD_PAUSE_PROXY</title>
<path fill="none" stroke="#000000" d="M2257.3549,-390.3033C2136.3666,-414.3694 1643.7842,-512.3501 1471.3604,-546.6473"/>
<polygon fill="#000000" stroke="#000000" points="1470.5678,-543.2363 1461.4428,-548.6201 1471.9335,-550.1018 1470.5678,-543.2363"/>
<text text-anchor="middle" x="1853.4747" y="-472.6753" font-family="Times,serif" font-size="14.00" fill="#000000">rely</text>
</g>
<!-- MCD_END -->
<g id="node19" class="node">
<title>MCD_END</title>
<polygon fill="none" stroke="#000000" points="2345.9829,-576.5727 2291.9829,-576.5727 2291.9829,-540.5727 2345.9829,-540.5727 2345.9829,-576.5727"/>
<text text-anchor="middle" x="2318.9829" y="-554.3727" font-family="Times,serif" font-size="14.00" fill="#000000">End</text>
</g>
<!-- MCD_VAT&#45;&gt;MCD_END -->
<g id="edge24" class="edge">
<title>MCD_VAT&#45;&gt;MCD_END</title>
<path fill="none" stroke="#000000" d="M2288.0717,-403.1718C2294.1256,-433.6068 2306.3181,-494.9025 2313.4476,-530.7451"/>
<polygon fill="#000000" stroke="#000000" points="2310.0164,-531.4362 2315.4002,-540.5612 2316.8819,-530.0705 2310.0164,-531.4362"/>
<text text-anchor="middle" x="2289.8768" y="-471.1584" font-family="Times,serif" font-size="14.00" fill="#000000">rely</text>
</g>
<!-- ETHJoin_A -->
<g id="node23" class="node">
<title>ETHJoin_A</title>
<polygon fill="none" stroke="#000000" points="2080.5066,-157.3276 1997.1979,-157.3276 1997.1979,-121.3276 2080.5066,-121.3276 2080.5066,-157.3276"/>
<text text-anchor="middle" x="2038.8522" y="-135.1276" font-family="Times,serif" font-size="14.00" fill="#000000">ETHJoin_A</text>
</g>
<!-- MCD_VAT&#45;&gt;ETHJoin_A -->
<g id="edge39" class="edge">
<title>MCD_VAT&#45;&gt;ETHJoin_A</title>
<path fill="none" stroke="#000000" d="M2266.3817,-366.857C2223.1825,-323.6579 2113.7884,-214.2637 2064.1005,-164.5758"/>
<polygon fill="#000000" stroke="#000000" points="2066.4834,-162.0089 2056.9374,-157.4127 2061.5336,-166.9587 2066.4834,-162.0089"/>
<text text-anchor="middle" x="2154.3582" y="-269.9164" font-family="Times,serif" font-size="14.00" fill="#000000">rely</text>
</g>
<!-- BATJoin_A -->
<g id="node25" class="node">
<title>BATJoin_A</title>
<polygon fill="none" stroke="#000000" points="1907.634,-122.785 1822.7565,-122.785 1822.7565,-86.785 1907.634,-86.785 1907.634,-122.785"/>
<text text-anchor="middle" x="1865.1952" y="-100.585" font-family="Times,serif" font-size="14.00" fill="#000000">BATJoin_A</text>
</g>
<!-- MCD_VAT&#45;&gt;BATJoin_A -->
<g id="edge43" class="edge">
<title>MCD_VAT&#45;&gt;BATJoin_A</title>
<path fill="none" stroke="#000000" d="M2257.2555,-366.7514C2184.0758,-317.8542 1982.9192,-183.4456 1900.808,-128.5807"/>
<polygon fill="#000000" stroke="#000000" points="1902.5776,-125.5537 1892.3184,-122.9081 1898.6886,-131.374 1902.5776,-125.5537"/>
<text text-anchor="middle" x="2068.1489" y="-251.866" font-family="Times,serif" font-size="14.00" fill="#000000">rely</text>
</g>
<!-- SAIJoin_A -->
<g id="node28" class="node">
<title>SAIJoin_A</title>
<polygon fill="none" stroke="#000000" points="1731.0298,-157.3276 1652.0466,-157.3276 1652.0466,-121.3276 1731.0298,-121.3276 1731.0298,-157.3276"/>
<text text-anchor="middle" x="1691.5382" y="-135.1276" font-family="Times,serif" font-size="14.00" fill="#000000">SAIJoin_A</text>
</g>
<!-- MCD_VAT&#45;&gt;SAIJoin_A -->
<g id="edge47" class="edge">
<title>MCD_VAT&#45;&gt;SAIJoin_A</title>
<path fill="none" stroke="#000000" d="M2257.4239,-373.7251C2165.006,-335.4444 1860.6032,-209.3566 1740.6993,-159.6908"/>
<polygon fill="#000000" stroke="#000000" points="1741.9499,-156.4204 1731.3717,-155.8271 1739.2711,-162.8876 1741.9499,-156.4204"/>
<text text-anchor="middle" x="1988.1787" y="-270.9079" font-family="Times,serif" font-size="14.00" fill="#000000">rely</text>
</g>
<!-- MCD_DAI -->
<g id="node5" class="node">
<title>MCD_DAI</title>
<polygon fill="none" stroke="#000000" points="1422.4909,-1061.5727 1368.4909,-1061.5727 1368.4909,-1025.5727 1422.4909,-1025.5727 1422.4909,-1061.5727"/>
<text text-anchor="middle" x="1395.4909" y="-1039.3727" font-family="Times,serif" font-size="14.00" fill="#000000">Dai</text>
</g>
<!-- MCD_JOIN_DAI -->
<g id="node6" class="node">
<title>MCD_JOIN_DAI</title>
<polygon fill="none" stroke="#000000" points="1553.8131,-1061.5727 1494.7157,-1061.5727 1494.7157,-1025.5727 1553.8131,-1025.5727 1553.8131,-1061.5727"/>
<text text-anchor="middle" x="1524.2644" y="-1039.3727" font-family="Times,serif" font-size="14.00" fill="#000000">DaiJoin</text>
</g>
<!-- MCD_DAI&#45;&gt;MCD_JOIN_DAI -->
<g id="edge17" class="edge">
<title>MCD_DAI&#45;&gt;MCD_JOIN_DAI</title>
<path fill="none" stroke="#000000" d="M1422.8005,-1043.5727C1440.6555,-1043.5727 1464.281,-1043.5727 1484.2419,-1043.5727"/>
<polygon fill="#000000" stroke="#000000" points="1484.2962,-1047.0728 1494.2962,-1043.5727 1484.2961,-1040.0728 1484.2962,-1047.0728"/>
<text text-anchor="middle" x="1442.6383" y="-1047.7727" font-family="Times,serif" font-size="14.00" fill="#000000">rely</text>
</g>
<!-- MCD_JUG&#45;&gt;MCD_PAUSE_PROXY -->
<g id="edge33" class="edge">
<title>MCD_JUG&#45;&gt;MCD_PAUSE_PROXY</title>
<path fill="none" stroke="#000000" d="M2158.9551,-248.9284C2046.5401,-295.4922 1615.9458,-473.8502 1464.483,-536.5881"/>
<polygon fill="#000000" stroke="#000000" points="1462.8158,-533.4902 1454.9164,-540.5507 1465.4947,-539.9574 1462.8158,-533.4902"/>
<text text-anchor="middle" x="1800.8362" y="-396.9582" font-family="Times,serif" font-size="14.00" fill="#000000">rely</text>
</g>
<!-- MCD_POT&#45;&gt;MCD_PAUSE_PROXY -->
<g id="edge34" class="edge">
<title>MCD_POT&#45;&gt;MCD_PAUSE_PROXY</title>
<path fill="none" stroke="#000000" d="M1536.7922,-255.8674C1514.6384,-309.3513 1449.5535,-466.4801 1422.9443,-530.7206"/>
<polygon fill="#000000" stroke="#000000" points="1419.6098,-529.625 1419.0165,-540.2032 1426.0769,-532.3038 1419.6098,-529.625"/>
<text text-anchor="middle" x="1490.7511" y="-397.494" font-family="Times,serif" font-size="14.00" fill="#000000">rely</text>
</g>
<!-- MCD_POT&#45;&gt;MCD_END -->
<g id="edge27" class="edge">
<title>MCD_POT&#45;&gt;MCD_END</title>
<path fill="none" stroke="#000000" d="M1571.4354,-248.9284C1688.2164,-297.3006 2148.3718,-487.9033 2282.257,-543.3603"/>
<polygon fill="#000000" stroke="#000000" points="2281.1067,-546.6722 2291.685,-547.2655 2283.7856,-540.205 2281.1067,-546.6722"/>
<text text-anchor="middle" x="1915.9633" y="-400.3443" font-family="Times,serif" font-size="14.00" fill="#000000">rely</text>
</g>
<!-- MCD_FLAP -->
<g id="node9" class="node">
<title>MCD_FLAP</title>
<polygon fill="none" stroke="#000000" points="1475.2136,-750.2297 1416.6866,-750.2297 1416.6866,-714.2297 1475.2136,-714.2297 1475.2136,-750.2297"/>
<text text-anchor="middle" x="1445.9501" y="-728.0297" font-family="Times,serif" font-size="14.00" fill="#000000">Flapper</text>
</g>
<!-- MCD_VOW -->
<g id="node11" class="node">
<title>MCD_VOW</title>
<polygon fill="none" stroke="#000000" points="1718.5382,-995.8178 1664.5382,-995.8178 1664.5382,-959.8178 1718.5382,-959.8178 1718.5382,-995.8178"/>
<text text-anchor="middle" x="1691.5382" y="-973.6178" font-family="Times,serif" font-size="14.00" fill="#000000">Vow</text>
</g>
<!-- MCD_FLAP&#45;&gt;MCD_VOW -->
<g id="edge20" class="edge">
<title>MCD_FLAP&#45;&gt;MCD_VOW</title>
<path fill="none" stroke="#000000" d="M1464.0088,-750.2884C1507.2079,-793.4875 1616.602,-902.8817 1666.29,-952.5696"/>
<polygon fill="#000000" stroke="#000000" points="1663.9071,-955.1365 1673.4531,-959.7327 1668.8568,-950.1867 1663.9071,-955.1365"/>
<text text-anchor="middle" x="1554.2665" y="-838.829" font-family="Times,serif" font-size="14.00" fill="#000000">rely</text>
</g>
<!-- MCD_FLAP&#45;&gt;MCD_PAUSE_PROXY -->
<g id="edge36" class="edge">
<title>MCD_FLAP&#45;&gt;MCD_PAUSE_PROXY</title>
<path fill="none" stroke="#000000" d="M1442.3187,-713.9736C1436.2648,-683.5386 1424.0724,-622.2429 1416.9428,-586.4003"/>
<polygon fill="#000000" stroke="#000000" points="1420.374,-585.7092 1414.9903,-576.5842 1413.5085,-587.0749 1420.374,-585.7092"/>
<text text-anchor="middle" x="1418.7479" y="-654.387" font-family="Times,serif" font-size="14.00" fill="#000000">rely</text>
</g>
<!-- MCD_FLOP -->
<g id="node10" class="node">
<title>MCD_FLOP</title>
<polygon fill="none" stroke="#000000" points="1573.869,-897.449 1514.7688,-897.449 1514.7688,-861.449 1573.869,-861.449 1573.869,-897.449"/>
<text text-anchor="middle" x="1544.3189" y="-875.249" font-family="Times,serif" font-size="14.00" fill="#000000">Flopper</text>
</g>
<!-- MCD_FLOP&#45;&gt;MCD_VOW -->
<g id="edge21" class="edge">
<title>MCD_FLOP&#45;&gt;MCD_VOW</title>
<path fill="none" stroke="#000000" d="M1571.3212,-897.4914C1595.1119,-913.3878 1629.9369,-936.6572 1655.9883,-954.0642"/>
<polygon fill="#000000" stroke="#000000" points="1654.199,-957.078 1664.4582,-959.7236 1658.088,-951.2577 1654.199,-957.078"/>
<text text-anchor="middle" x="1602.7719" y="-929.9778" font-family="Times,serif" font-size="14.00" fill="#000000">rely</text>
</g>
<!-- MCD_FLOP&#45;&gt;MCD_PAUSE_PROXY -->
<g id="edge37" class="edge">
<title>MCD_FLOP&#45;&gt;MCD_PAUSE_PROXY</title>
<path fill="none" stroke="#000000" d="M1536.7922,-861.278C1514.6384,-807.7941 1449.5535,-650.6653 1422.9443,-586.4248"/>
<polygon fill="#000000" stroke="#000000" points="1426.0769,-584.8416 1419.0165,-576.9422 1419.6098,-587.5204 1426.0769,-584.8416"/>
<text text-anchor="middle" x="1490.7511" y="-728.0514" font-family="Times,serif" font-size="14.00" fill="#000000">rely</text>
</g>
<!-- MCD_VOW&#45;&gt;MCD_CAT -->
<g id="edge23" class="edge">
<title>MCD_VOW&#45;&gt;MCD_CAT</title>
<path fill="none" stroke="#000000" d="M1718.6721,-983.2151C1748.0244,-989.0536 1795.0166,-998.401 1827.8452,-1004.931"/>
<polygon fill="#000000" stroke="#000000" points="1827.4752,-1008.4259 1837.9659,-1006.9441 1828.8408,-1001.5604 1827.4752,-1008.4259"/>
<text text-anchor="middle" x="1762.3758" y="-998.273" font-family="Times,serif" font-size="14.00" fill="#000000">rely</text>
</g>
<!-- MCD_VOW&#45;&gt;MCD_PAUSE_PROXY -->
<g id="edge32" class="edge">
<title>MCD_VOW&#45;&gt;MCD_PAUSE_PROXY</title>
<path fill="none" stroke="#000000" d="M1679.5013,-959.8034C1635.3343,-893.7028 1482.0233,-664.2566 1429.3452,-585.4183"/>
<polygon fill="#000000" stroke="#000000" points="1432.181,-583.3624 1423.7151,-576.9922 1426.3607,-587.2514 1432.181,-583.3624"/>
<text text-anchor="middle" x="1543.5404" y="-776.8108" font-family="Times,serif" font-size="14.00" fill="#000000">rely</text>
</g>
<!-- MCD_VOW&#45;&gt;MCD_END -->
<g id="edge26" class="edge">
<title>MCD_VOW&#45;&gt;MCD_END</title>
<path fill="none" stroke="#000000" d="M1718.4987,-959.8034C1818.7435,-892.822 2170.0111,-658.1124 2283.4014,-582.3475"/>
<polygon fill="#000000" stroke="#000000" points="2285.4003,-585.2213 2291.7705,-576.7554 2281.5113,-579.401 2285.4003,-585.2213"/>
<text text-anchor="middle" x="1990.0671" y="-775.2754" font-family="Times,serif" font-size="14.00" fill="#000000">rely</text>
</g>
<!-- MCD_CAT&#45;&gt;MCD_PAUSE_PROXY -->
<g id="edge31" class="edge">
<title>MCD_CAT&#45;&gt;MCD_PAUSE_PROXY</title>
<path fill="none" stroke="#000000" d="M1847.1262,-994.2913C1776.5429,-923.7081 1519.2744,-666.4396 1436.938,-584.1032"/>
<polygon fill="#000000" stroke="#000000" points="1439.0742,-581.2896 1429.5282,-576.6934 1434.1244,-586.2393 1439.0742,-581.2896"/>
<text text-anchor="middle" x="1631.1492" y="-793.3972" font-family="Times,serif" font-size="14.00" fill="#000000">rely</text>
</g>
<!-- MCD_CAT&#45;&gt;MCD_END -->
<g id="edge25" class="edge">
<title>MCD_CAT&#45;&gt;MCD_END</title>
<path fill="none" stroke="#000000" d="M1883.2643,-994.2913C1953.8475,-923.7081 2211.116,-666.4396 2293.4524,-584.1032"/>
<polygon fill="#000000" stroke="#000000" points="2296.266,-586.2393 2300.8622,-576.6934 2291.3162,-581.2896 2296.266,-586.2393"/>
<text text-anchor="middle" x="2077.4754" y="-793.3972" font-family="Times,serif" font-size="14.00" fill="#000000">rely</text>
</g>
<!-- MCD_SPOT&#45;&gt;MCD_PAUSE_PROXY -->
<g id="edge35" class="edge">
<title>MCD_SPOT&#45;&gt;MCD_PAUSE_PROXY</title>
<path fill="none" stroke="#000000" d="M1442.3187,-403.1718C1436.2648,-433.6068 1424.0724,-494.9025 1416.9428,-530.7451"/>
<polygon fill="#000000" stroke="#000000" points="1413.5085,-530.0705 1414.9903,-540.5612 1420.374,-531.4362 1413.5085,-530.0705"/>
<text text-anchor="middle" x="1418.7479" y="-471.1584" font-family="Times,serif" font-size="14.00" fill="#000000">rely</text>
</g>
<!-- MCD_SPOT&#45;&gt;MCD_END -->
<g id="edge28" class="edge">
<title>MCD_SPOT&#45;&gt;MCD_END</title>
<path fill="none" stroke="#000000" d="M1474.5011,-390.5948C1603.9441,-416.3426 2135.6901,-522.1135 2281.7268,-551.162"/>
<polygon fill="#000000" stroke="#000000" points="2281.4628,-554.678 2291.9535,-553.1962 2282.8285,-547.8125 2281.4628,-554.678"/>
<text text-anchor="middle" x="1888.9968" y="-475.0784" font-family="Times,serif" font-size="14.00" fill="#000000">rely</text>
</g>
<!-- MCD_GOV -->
<g id="node14" class="node">
<title>MCD_GOV</title>
<polygon fill="none" stroke="#000000" points="577.29,-1076.9225 523.29,-1076.9225 523.29,-1040.9225 577.29,-1040.9225 577.29,-1076.9225"/>
<text text-anchor="middle" x="550.29" y="-1054.7225" font-family="Times,serif" font-size="14.00" fill="#000000">MKR</text>
</g>
<!-- MCD_GOV&#45;&gt;deployer -->
<g id="edge14" class="edge">
<title>MCD_GOV&#45;&gt;deployer</title>
<path fill="none" stroke="#000000" d="M562.8763,-1040.5072C574.8332,-1023.0128 592.9392,-996.5215 606.4328,-976.7789"/>
<polygon fill="#000000" stroke="#000000" points="609.3321,-978.7394 612.0853,-968.5085 603.553,-974.7895 609.3321,-978.7394"/>
<text text-anchor="middle" x="567.1636" y="-1012.843" font-family="Times,serif" font-size="14.00" fill="#000000">owner</text>
</g>
<!-- 0x2F1b834D8Bb7f469a7C75cc75873CD94EFc363AD -->
<g id="node31" class="node">
<title>0x2F1b834D8Bb7f469a7C75cc75873CD94EFc363AD</title>
<polygon fill="none" stroke="#000000" points="565.7221,-1293.6705 238.5761,-1293.6705 238.5761,-1257.6705 565.7221,-1257.6705 565.7221,-1293.6705"/>
<text text-anchor="middle" x="402.1491" y="-1271.4705" font-family="Times,serif" font-size="14.00" fill="#000000">0x2F1b834D8Bb7f469a7C75cc75873CD94EFc363AD</text>
</g>
<!-- MCD_GOV&#45;&gt;0x2F1b834D8Bb7f469a7C75cc75873CD94EFc363AD -->
<g id="edge6" class="edge">
<title>MCD_GOV&#45;&gt;0x2F1b834D8Bb7f469a7C75cc75873CD94EFc363AD</title>
<path fill="none" stroke="#000000" d="M537.9144,-1077.0295C511.772,-1115.2791 450.8251,-1204.4517 420.2784,-1249.1452"/>
<polygon fill="#000000" stroke="#000000" points="417.3468,-1247.2317 414.5937,-1257.4626 423.126,-1251.1816 417.3468,-1247.2317"/>
<text text-anchor="middle" x="453.8229" y="-1167.2873" font-family="Times,serif" font-size="14.00" fill="#000000">authority</text>
</g>
<!-- MCD_PAUSE -->
<g id="node15" class="node">
<title>MCD_PAUSE</title>
<polygon fill="none" stroke="#000000" points="991.4622,-576.5727 925.3679,-576.5727 925.3679,-540.5727 991.4622,-540.5727 991.4622,-576.5727"/>
<text text-anchor="middle" x="958.4151" y="-554.3727" font-family="Times,serif" font-size="14.00" fill="#000000">DSPause</text>
</g>
<!-- MCD_PAUSE&#45;&gt;zero -->
<g id="edge13" class="edge">
<title>MCD_PAUSE&#45;&gt;zero</title>
<path fill="none" stroke="#000000" d="M927.0194,-576.699C916.9192,-582.5304 905.6492,-589.0371 895.2416,-595.0459"/>
<polygon fill="#000000" stroke="#000000" points="893.2789,-592.1376 886.3686,-600.1687 896.7789,-598.1998 893.2789,-592.1376"/>
<text text-anchor="middle" x="893.6396" y="-573.2725" font-family="Times,serif" font-size="14.00" fill="#000000">owner</text>
</g>
<!-- MCD_ADM -->
<g id="node17" class="node">
<title>MCD_ADM</title>
<polygon fill="none" stroke="#000000" points="891.6807,-519.2845 826.6975,-519.2845 826.6975,-483.2845 891.6807,-483.2845 891.6807,-519.2845"/>
<text text-anchor="middle" x="859.1891" y="-497.0845" font-family="Times,serif" font-size="14.00" fill="#000000">DSChief</text>
</g>
<!-- MCD_PAUSE&#45;&gt;MCD_ADM -->
<g id="edge5" class="edge">
<title>MCD_PAUSE&#45;&gt;MCD_ADM</title>
<path fill="none" stroke="#000000" d="M927.0194,-540.4464C918.1558,-535.329 908.3915,-529.6916 899.0997,-524.3269"/>
<polygon fill="#000000" stroke="#000000" points="900.7909,-521.2619 890.3806,-519.293 897.2908,-527.3241 900.7909,-521.2619"/>
<text text-anchor="middle" x="887.786" y="-536.5866" font-family="Times,serif" font-size="14.00" fill="#000000">authority</text>
</g>
<!-- MCD_PAUSE_PROXY&#45;&gt;MCD_PAUSE -->
<g id="edge12" class="edge">
<title>MCD_PAUSE_PROXY&#45;&gt;MCD_PAUSE</title>
<path fill="none" stroke="#000000" d="M1361.1986,-558.5727C1271.7311,-558.5727 1086.2245,-558.5727 1001.8663,-558.5727"/>
<polygon fill="#000000" stroke="#000000" points="1001.6128,-555.0728 991.6128,-558.5727 1001.6128,-562.0728 1001.6128,-555.0728"/>
<text text-anchor="middle" x="1164.0416" y="-562.7727" font-family="Times,serif" font-size="14.00" fill="#000000">owner</text>
</g>
<!-- MCD_ADM&#45;&gt;zero -->
<g id="edge11" class="edge">
<title>MCD_ADM&#45;&gt;zero</title>
<path fill="none" stroke="#000000" d="M859.1891,-519.4395C859.1891,-537.7928 859.1891,-566.4108 859.1891,-587.708"/>
<polygon fill="#000000" stroke="#000000" points="855.6892,-587.7908 859.1891,-597.7908 862.6892,-587.7909 855.6892,-587.7908"/>
<text text-anchor="middle" x="841.6982" y="-557.7738" font-family="Times,serif" font-size="14.00" fill="#000000">owner</text>
</g>
<!-- MCD_ADM&#45;&gt;MCD_ADM -->
<g id="edge4" class="edge">
<title>MCD_ADM&#45;&gt;MCD_ADM</title>
<path fill="none" stroke="#000000" d="M891.7289,-508.028C901.7867,-507.8917 909.6849,-505.6439 909.6849,-501.2845 909.6849,-498.5599 906.5997,-496.6602 901.8302,-495.5852"/>
<polygon fill="#000000" stroke="#000000" points="902.0357,-492.0879 891.7289,-494.5411 901.316,-499.0508 902.0357,-492.0879"/>
<text text-anchor="middle" x="934.9584" y="-497.0845" font-family="Times,serif" font-size="14.00" fill="#000000">authority</text>
</g>
<!-- PROXY_DEPLOYER -->
<g id="node18" class="node">
<title>PROXY_DEPLOYER</title>
<polygon fill="none" stroke="#000000" points="765.6089,-838.743 660.5485,-838.743 660.5485,-802.743 765.6089,-802.743 765.6089,-838.743"/>
<text text-anchor="middle" x="713.0787" y="-816.543" font-family="Times,serif" font-size="14.00" fill="#000000">Proxy Deployer</text>
</g>
<!-- PROXY_DEPLOYER&#45;&gt;zero -->
<g id="edge3" class="edge">
<title>PROXY_DEPLOYER&#45;&gt;zero</title>
<path fill="none" stroke="#000000" d="M726.0451,-802.561C751.9308,-766.263 810.1108,-684.6806 840.2645,-642.3978"/>
<polygon fill="#000000" stroke="#000000" points="843.2952,-644.176 846.2518,-634.002 837.596,-640.1116 843.2952,-644.176"/>
<text text-anchor="middle" x="757.8813" y="-726.6794" font-family="Times,serif" font-size="14.00" fill="#000000">authority</text>
</g>
<!-- PROXY_DEPLOYER&#45;&gt;deployer -->
<g id="edge10" class="edge">
<title>PROXY_DEPLOYER&#45;&gt;deployer</title>
<path fill="none" stroke="#000000" d="M700.7603,-838.7664C685.7045,-860.7947 660.0955,-898.2638 642.7464,-923.6476"/>
<polygon fill="#000000" stroke="#000000" points="639.7383,-921.8461 636.9852,-932.077 645.5175,-925.7961 639.7383,-921.8461"/>
<text text-anchor="middle" x="654.2624" y="-885.407" font-family="Times,serif" font-size="14.00" fill="#000000">owner</text>
</g>
<!-- MCD_END&#45;&gt;MCD_PAUSE_PROXY -->
<g id="edge38" class="edge">
<title>MCD_END&#45;&gt;MCD_PAUSE_PROXY</title>
<path fill="none" stroke="#000000" d="M2291.821,-558.5727C2167.3291,-558.5727 1649.7417,-558.5727 1471.8018,-558.5727"/>
<polygon fill="#000000" stroke="#000000" points="1471.5781,-555.0728 1461.5781,-558.5727 1471.578,-562.0728 1471.5781,-555.0728"/>
<text text-anchor="middle" x="1870.9285" y="-562.7727" font-family="Times,serif" font-size="14.00" fill="#000000">rely</text>
</g>
<!-- MCD_ESM -->
<g id="node20" class="node">
<title>MCD_ESM</title>
<polygon fill="none" stroke="#000000" points="2444.9829,-576.5727 2390.9829,-576.5727 2390.9829,-540.5727 2444.9829,-540.5727 2444.9829,-576.5727"/>
<text text-anchor="middle" x="2417.9829" y="-554.3727" font-family="Times,serif" font-size="14.00" fill="#000000">ESM</text>
</g>
<!-- MCD_END&#45;&gt;MCD_ESM -->
<g id="edge29" class="edge">
<title>MCD_END&#45;&gt;MCD_ESM</title>
<path fill="none" stroke="#000000" d="M2346.0351,-558.5727C2356.7301,-558.5727 2369.1989,-558.5727 2380.7233,-558.5727"/>
<polygon fill="#000000" stroke="#000000" points="2380.9634,-562.0728 2390.9634,-558.5727 2380.9634,-555.0728 2380.9634,-562.0728"/>
<text text-anchor="middle" x="2374.2621" y="-562.7727" font-family="Times,serif" font-size="14.00" fill="#000000">rely</text>
</g>
<!-- SAI_TUB -->
<g id="node21" class="node">
<title>SAI_TUB</title>
<polygon fill="none" stroke="#000000" points="454.1521,-571.1041 397.2678,-571.1041 397.2678,-535.1041 454.1521,-535.1041 454.1521,-571.1041"/>
<text text-anchor="middle" x="425.7099" y="-548.9041" font-family="Times,serif" font-size="14.00" fill="#000000">SaiTub</text>
</g>
<!-- SAI_TUB&#45;&gt;zero -->
<g id="edge9" class="edge">
<title>SAI_TUB&#45;&gt;zero</title>
<path fill="none" stroke="#000000" d="M454.1517,-557.2217C530.0027,-568.203 737.1038,-598.186 822.0669,-610.4865"/>
<polygon fill="#000000" stroke="#000000" points="821.6439,-613.9617 832.0423,-611.9307 822.647,-607.0339 821.6439,-613.9617"/>
<text text-anchor="middle" x="620.6184" y="-588.0541" font-family="Times,serif" font-size="14.00" fill="#000000">owner</text>
</g>
<!-- 0x6a884c7aF48e29a20be9Ff04bddE112b5596FcEE -->
<g id="node30" class="node">
<title>0x6a884c7aF48e29a20be9Ff04bddE112b5596FcEE</title>
<polygon fill="none" stroke="#000000" points="309.2526,-410.3035 -.0842,-410.3035 -.0842,-374.3035 309.2526,-374.3035 309.2526,-410.3035"/>
<text text-anchor="middle" x="154.5842" y="-388.1035" font-family="Times,serif" font-size="14.00" fill="#000000">0x6a884c7aF48e29a20be9Ff04bddE112b5596FcEE</text>
</g>
<!-- SAI_TUB&#45;&gt;0x6a884c7aF48e29a20be9Ff04bddE112b5596FcEE -->
<g id="edge8" class="edge">
<title>SAI_TUB&#45;&gt;0x6a884c7aF48e29a20be9Ff04bddE112b5596FcEE</title>
<path fill="none" stroke="#000000" d="M397.462,-536.3507C348.8978,-507.548 249.4715,-448.5797 194.076,-415.7255"/>
<polygon fill="#000000" stroke="#000000" points="195.6366,-412.5818 185.2501,-410.491 192.0657,-418.6025 195.6366,-412.5818"/>
<text text-anchor="middle" x="270.4955" y="-480.2381" font-family="Times,serif" font-size="14.00" fill="#000000">authority</text>
</g>
<!-- MIGRATION -->
<g id="node22" class="node">
<title>MIGRATION</title>
<polygon fill="none" stroke="#000000" points="1700.4312,-36 1582.1342,-36 1582.1342,0 1700.4312,0 1700.4312,-36"/>
<text text-anchor="middle" x="1641.2827" y="-13.8" font-family="Times,serif" font-size="14.00" fill="#000000">ScdMcdMigration</text>
</g>
<!-- ETHJoin_A&#45;&gt;MCD_PAUSE_PROXY -->
<g id="edge53" class="edge">
<title>ETHJoin_A&#45;&gt;MCD_PAUSE_PROXY</title>
<path fill="none" stroke="#000000" d="M2011.8917,-157.342C1911.6469,-224.3234 1560.3793,-459.0329 1446.9891,-534.7979"/>
<polygon fill="#000000" stroke="#000000" points="1444.9901,-531.9241 1438.6199,-540.39 1448.8791,-537.7444 1444.9901,-531.9241"/>
<text text-anchor="middle" x="1718.5575" y="-350.2699" font-family="Times,serif" font-size="14.00" fill="#000000">rely</text>
</g>
<!-- Flipper_ETH&#45;A -->
<g id="node24" class="node">
<title>Flipper_ETH&#45;A</title>
<polygon fill="none" stroke="#000000" points="2091.7711,-995.8178 1985.9334,-995.8178 1985.9334,-959.8178 2091.7711,-959.8178 2091.7711,-995.8178"/>
<text text-anchor="middle" x="2038.8522" y="-973.6178" font-family="Times,serif" font-size="14.00" fill="#000000">Flipper_ETH&#45;A</text>
</g>
<!-- Flipper_ETH&#45;A&#45;&gt;MCD_CAT -->
<g id="edge40" class="edge">
<title>Flipper_ETH&#45;A&#45;&gt;MCD_CAT</title>
<path fill="none" stroke="#000000" d="M1985.8058,-988.3694C1958.75,-993.7512 1926.5097,-1000.1642 1902.172,-1005.0052"/>
<polygon fill="#000000" stroke="#000000" points="1901.3886,-1001.5924 1892.2636,-1006.9761 1902.7543,-1008.4579 1901.3886,-1001.5924"/>
<text text-anchor="middle" x="1933.106" y="-1000.8873" font-family="Times,serif" font-size="14.00" fill="#000000">rely</text>
</g>
<!-- Flipper_ETH&#45;A&#45;&gt;MCD_PAUSE_PROXY -->
<g id="edge42" class="edge">
<title>Flipper_ETH&#45;A&#45;&gt;MCD_PAUSE_PROXY</title>
<path fill="none" stroke="#000000" d="M2011.8917,-959.8034C1911.6469,-892.822 1560.3793,-658.1124 1446.9891,-582.3475"/>
<polygon fill="#000000" stroke="#000000" points="1448.8791,-579.401 1438.6199,-576.7554 1444.9901,-585.2213 1448.8791,-579.401"/>
<text text-anchor="middle" x="1718.5575" y="-775.2754" font-family="Times,serif" font-size="14.00" fill="#000000">rely</text>
</g>
<!-- Flipper_ETH&#45;A&#45;&gt;MCD_END -->
<g id="edge41" class="edge">
<title>Flipper_ETH&#45;A&#45;&gt;MCD_END</title>
<path fill="none" stroke="#000000" d="M2050.8891,-959.8034C2095.0561,-893.7028 2248.3672,-664.2566 2301.0452,-585.4183"/>
<polygon fill="#000000" stroke="#000000" points="2304.0298,-587.2514 2306.6754,-576.9922 2298.2095,-583.3624 2304.0298,-587.2514"/>
<text text-anchor="middle" x="2165.0843" y="-776.8108" font-family="Times,serif" font-size="14.00" fill="#000000">rely</text>
</g>
<!-- BATJoin_A&#45;&gt;MCD_PAUSE_PROXY -->
<g id="edge54" class="edge">
<title>BATJoin_A&#45;&gt;MCD_PAUSE_PROXY</title>
<path fill="none" stroke="#000000" d="M1847.1262,-122.8541C1776.5429,-193.4373 1519.2744,-450.7058 1436.938,-533.0422"/>
<polygon fill="#000000" stroke="#000000" points="1434.1244,-530.906 1429.5282,-540.452 1439.0742,-535.8558 1434.1244,-530.906"/>
<text text-anchor="middle" x="1631.1492" y="-332.1481" font-family="Times,serif" font-size="14.00" fill="#000000">rely</text>
</g>
<!-- Flipper_BAT&#45;A -->
<g id="node26" class="node">
<title>Flipper_BAT&#45;A</title>
<polygon fill="none" stroke="#000000" points="2239.2738,-897.449 2132.8694,-897.449 2132.8694,-861.449 2239.2738,-861.449 2239.2738,-897.449"/>
<text text-anchor="middle" x="2186.0716" y="-875.249" font-family="Times,serif" font-size="14.00" fill="#000000">Flipper_BAT&#45;A</text>
</g>
<!-- Flipper_BAT&#45;A&#45;&gt;MCD_CAT -->
<g id="edge44" class="edge">
<title>Flipper_BAT&#45;A&#45;&gt;MCD_CAT</title>
<path fill="none" stroke="#000000" d="M2142.4628,-897.5124C2078.6717,-923.9355 1961.0613,-972.6513 1901.6203,-997.2726"/>
<polygon fill="#000000" stroke="#000000" points="1900.1526,-994.0921 1892.2532,-1001.1526 1902.8315,-1000.5592 1900.1526,-994.0921"/>
<text text-anchor="middle" x="2011.1587" y="-934.7925" font-family="Times,serif" font-size="14.00" fill="#000000">rely</text>
</g>
<!-- Flipper_BAT&#45;A&#45;&gt;MCD_PAUSE_PROXY -->
<g id="edge46" class="edge">
<title>Flipper_BAT&#45;A&#45;&gt;MCD_PAUSE_PROXY</title>
<path fill="none" stroke="#000000" d="M2142.4829,-861.394C2009.6508,-806.3732 1610.1498,-640.8944 1464.9232,-580.7396"/>
<polygon fill="#000000" stroke="#000000" points="1465.8999,-577.3558 1455.3216,-576.7625 1463.221,-583.823 1465.8999,-577.3558"/>
<text text-anchor="middle" x="1792.8202" y="-725.2668" font-family="Times,serif" font-size="14.00" fill="#000000">rely</text>
</g>
<!-- Flipper_BAT&#45;A&#45;&gt;MCD_END -->
<g id="edge45" class="edge">
<title>Flipper_BAT&#45;A&#45;&gt;MCD_END</title>
<path fill="none" stroke="#000000" d="M2193.5983,-861.278C2215.752,-807.7941 2280.8369,-650.6653 2307.4462,-586.4248"/>
<polygon fill="#000000" stroke="#000000" points="2310.7807,-587.5204 2311.374,-576.9422 2304.3135,-584.8416 2310.7807,-587.5204"/>
<text text-anchor="middle" x="2239.6393" y="-711.2514" font-family="Times,serif" font-size="14.00" fill="#000000">rely</text>
</g>
<!-- SAI -->
<g id="node27" class="node">
<title>SAI</title>
<polygon fill="none" stroke="#000000" points="177.8896,-725.5056 123.8896,-725.5056 123.8896,-689.5056 177.8896,-689.5056 177.8896,-725.5056"/>
<text text-anchor="middle" x="150.8896" y="-703.3056" font-family="Times,serif" font-size="14.00" fill="#000000">SAI</text>
</g>
<!-- SAI&#45;&gt;zero -->
<g id="edge15" class="edge">
<title>SAI&#45;&gt;zero</title>
<path fill="none" stroke="#000000" d="M178.2218,-703.9691C287.8926,-689.7792 696.1466,-636.9564 822.0062,-620.6718"/>
<polygon fill="#000000" stroke="#000000" points="822.4702,-624.1411 831.9384,-619.3867 821.5719,-617.1989 822.4702,-624.1411"/>
<text text-anchor="middle" x="482.6231" y="-666.5205" font-family="Times,serif" font-size="14.00" fill="#000000">owner</text>
</g>
<!-- SAI&#45;&gt;0x6a884c7aF48e29a20be9Ff04bddE112b5596FcEE -->
<g id="edge1" class="edge">
<title>SAI&#45;&gt;0x6a884c7aF48e29a20be9Ff04bddE112b5596FcEE</title>
<path fill="none" stroke="#000000" d="M151.1042,-689.1966C151.7215,-636.5337 153.505,-484.3776 154.2505,-420.7758"/>
<polygon fill="#000000" stroke="#000000" points="157.7515,-420.7034 154.369,-410.663 150.7519,-420.6213 157.7515,-420.7034"/>
<text text-anchor="middle" x="127.4039" y="-559.1862" font-family="Times,serif" font-size="14.00" fill="#000000">authority</text>
</g>
<!-- SAIJoin_A&#45;&gt;MCD_PAUSE_PROXY -->
<g id="edge52" class="edge">
<title>SAIJoin_A&#45;&gt;MCD_PAUSE_PROXY</title>
<path fill="none" stroke="#000000" d="M1679.5013,-157.342C1635.3343,-223.4426 1482.0233,-452.8888 1429.3452,-531.7271"/>
<polygon fill="#000000" stroke="#000000" points="1426.3607,-529.894 1423.7151,-540.1532 1432.181,-533.783 1426.3607,-529.894"/>
<text text-anchor="middle" x="1543.5404" y="-348.7345" font-family="Times,serif" font-size="14.00" fill="#000000">rely</text>
</g>
<!-- SAIJoin_A&#45;&gt;MIGRATION -->
<g id="edge51" class="edge">
<title>SAIJoin_A&#45;&gt;MIGRATION</title>
<path fill="none" stroke="#000000" d="M1684.0144,-121.1636C1675.7245,-101.15 1662.2974,-68.7341 1652.707,-45.5807"/>
<polygon fill="#000000" stroke="#000000" points="1655.9184,-44.1875 1648.8579,-36.2881 1649.4512,-46.8663 1655.9184,-44.1875"/>
<text text-anchor="middle" x="1657.4778" y="-87.5722" font-family="Times,serif" font-size="14.00" fill="#000000">rely</text>
</g>
<!-- Flipper_SAI&#45;A -->
<g id="node29" class="node">
<title>Flipper_SAI&#45;A</title>
<polygon fill="none" stroke="#000000" points="2334.6967,-750.2297 2234.1841,-750.2297 2234.1841,-714.2297 2334.6967,-714.2297 2334.6967,-750.2297"/>
<text text-anchor="middle" x="2284.4404" y="-728.0297" font-family="Times,serif" font-size="14.00" fill="#000000">Flipper_SAI&#45;A</text>
</g>
<!-- Flipper_SAI&#45;A&#45;&gt;MCD_CAT -->
<g id="edge48" class="edge">
<title>Flipper_SAI&#45;A&#45;&gt;MCD_CAT</title>
<path fill="none" stroke="#000000" d="M2257.2555,-750.394C2184.0758,-799.2912 1982.9192,-933.6997 1900.808,-988.5647"/>
<polygon fill="#000000" stroke="#000000" points="1898.6886,-985.7713 1892.3184,-994.2372 1902.5776,-991.5916 1898.6886,-985.7713"/>
<text text-anchor="middle" x="2068.1489" y="-873.6793" font-family="Times,serif" font-size="14.00" fill="#000000">rely</text>
</g>
<!-- Flipper_SAI&#45;A&#45;&gt;MCD_PAUSE_PROXY -->
<g id="edge50" class="edge">
<title>Flipper_SAI&#45;A&#45;&gt;MCD_PAUSE_PROXY</title>
<path fill="none" stroke="#000000" d="M2234.0482,-722.2061C2082.9755,-692.1559 1634.2451,-602.8978 1471.347,-570.4954"/>
<polygon fill="#000000" stroke="#000000" points="1471.987,-567.0542 1461.4963,-568.536 1470.6213,-573.9197 1471.987,-567.0542"/>
<text text-anchor="middle" x="1841.8147" y="-650.5507" font-family="Times,serif" font-size="14.00" fill="#000000">rely</text>
</g>
<!-- Flipper_SAI&#45;A&#45;&gt;MCD_END -->
<g id="edge49" class="edge">
<title>Flipper_SAI&#45;A&#45;&gt;MCD_END</title>
<path fill="none" stroke="#000000" d="M2288.0717,-713.9736C2294.1256,-683.5386 2306.3181,-622.2429 2313.4476,-586.4003"/>
<polygon fill="#000000" stroke="#000000" points="2316.8819,-587.0749 2315.4002,-576.5842 2310.0164,-585.7092 2316.8819,-587.0749"/>
<text text-anchor="middle" x="2289.8768" y="-654.387" font-family="Times,serif" font-size="14.00" fill="#000000">rely</text>
</g>
<!-- isolated -->
<g id="node33" class="node">
<title>isolated</title>
<polygon fill="none" stroke="#000000" points="2429.8326,-1413.2728 1824.6962,-1413.2728 1824.6962,-1253.8726 2429.8326,-1253.8726 2429.8326,-1413.2728"/>
<text text-anchor="middle" x="2127.2644" y="-1396.5727" font-family="Times,serif" font-size="14.00" fill="#000000">Isolated Contracts:&#13;</text>
<text text-anchor="middle" x="2127.2644" y="-1379.7727" font-family="Times,serif" font-size="14.00" fill="#000000"> MULTICALL, FAUCET, PROXY_ACTIONS, PROXY_ACTIONS_END, PROXY_ACTIONS_DSR,&#13;</text>
<text text-anchor="middle" x="2127.2644" y="-1362.9727" font-family="Times,serif" font-size="14.00" fill="#000000"> CDP_MANAGER, GET_CDPS, PROXY_FACTORY, PROXY_REGISTRY,&#13;</text>
<text text-anchor="middle" x="2127.2644" y="-1346.1727" font-family="Times,serif" font-size="14.00" fill="#000000"> PROXY_PAUSE_ACTIONS, MCD_GOV_ACTIONS, MIGRATION_PROXY_ACTIONS, ETH,&#13;</text>
<text text-anchor="middle" x="2127.2644" y="-1329.3727" font-family="Times,serif" font-size="14.00" fill="#000000"> PIP_ETH, BAT, PIP_BAT, PIP_SAI,&#13;</text>
<text text-anchor="middle" x="2127.2644" y="-1312.5727" font-family="Times,serif" font-size="14.00" fill="#000000"> vatFab, jugFab, vowFab, catFab,&#13;</text>
<text text-anchor="middle" x="2127.2644" y="-1295.7727" font-family="Times,serif" font-size="14.00" fill="#000000"> daiFab, daiJoinFab, flapFab, flopFab,&#13;</text>
<text text-anchor="middle" x="2127.2644" y="-1278.9727" font-family="Times,serif" font-size="14.00" fill="#000000"> flipFab, spotFab, potFab, pauseFab,&#13;</text>
<text text-anchor="middle" x="2127.2644" y="-1262.1727" font-family="Times,serif" font-size="14.00" fill="#000000"> 0x2bd0df3a3fe867b05f9bb807cbb0c938e6e24648</text>
</g>
</g>
</svg>
