<?xml version="1.0" encoding="UTF-8" standalone="no"?>
<!DOCTYPE svg PUBLIC "-//W3C//DTD SVG 1.1//EN"
 "http://www.w3.org/Graphics/SVG/1.1/DTD/svg11.dtd">
<!-- Generated by graphviz version 2.40.1 (20161225.0304)
 -->
<!-- Title: %0 Pages: 1 -->
<svg width="2378pt" height="1599pt"
 viewBox="0.00 0.00 2378.19 1599.18" xmlns="http://www.w3.org/2000/svg" xmlns:xlink="http://www.w3.org/1999/xlink">
<g id="graph0" class="graph" transform="scale(1 1) rotate(0) translate(4 1595.1834)">
<title>%0</title>
<polygon fill="#ffffff" stroke="transparent" points="-4,4 -4,-1595.1834 2374.1935,-1595.1834 2374.1935,4 -4,4"/>
<!-- zero -->
<g id="node1" class="node">
<title>zero</title>
<polygon fill="none" stroke="#000000" points="1718.6968,-830.4 1664.6968,-830.4 1664.6968,-794.4 1718.6968,-794.4 1718.6968,-830.4"/>
<text text-anchor="middle" x="1691.6968" y="-808.2" font-family="Times,serif" font-size="14.00" fill="#000000">zero</text>
</g>
<!-- deployer -->
<g id="node2" class="node">
<title>deployer</title>
<polygon fill="none" stroke="#000000" points="1229.565,-113.8305 1164.6042,-113.8305 1164.6042,-77.8305 1229.565,-77.8305 1229.565,-113.8305"/>
<text text-anchor="middle" x="1197.0846" y="-91.6305" font-family="Times,serif" font-size="14.00" fill="#000000">deployer</text>
</g>
<!-- MCD_DEPLOY -->
<g id="node3" class="node">
<title>MCD_DEPLOY</title>
<polygon fill="none" stroke="#000000" points="1842.0085,-830.4 1763.5927,-830.4 1763.5927,-794.4 1842.0085,-794.4 1842.0085,-830.4"/>
<text text-anchor="middle" x="1802.8006" y="-808.2" font-family="Times,serif" font-size="14.00" fill="#000000">DssDeploy</text>
</g>
<!-- MCD_DEPLOY&#45;&gt;zero -->
<g id="edge9" class="edge">
<title>MCD_DEPLOY&#45;&gt;zero</title>
<path fill="none" stroke="#000000" d="M1763.6296,-812.4C1752.4562,-812.4 1740.3119,-812.4 1729.2382,-812.4"/>
<polygon fill="#000000" stroke="#000000" points="1729.016,-808.9001 1719.0159,-812.4 1729.0159,-815.9001 1729.016,-808.9001"/>
<text text-anchor="middle" x="1746.4339" y="-799.8" font-family="Times,serif" font-size="14.00" fill="#000000">owner</text>
</g>
<!-- 0x8F4B2623A7Bf49292AA781915c134eA876F3F5eb -->
<g id="node36" class="node">
<title>0x8F4B2623A7Bf49292AA781915c134eA876F3F5eb</title>
<polygon fill="none" stroke="#000000" points="2238.5322,-830.4 1914.0284,-830.4 1914.0284,-794.4 2238.5322,-794.4 2238.5322,-830.4"/>
<text text-anchor="middle" x="2076.2803" y="-808.2" font-family="Times,serif" font-size="14.00" fill="#000000">0x8F4B2623A7Bf49292AA781915c134eA876F3F5eb</text>
</g>
<!-- MCD_DEPLOY&#45;&gt;0x8F4B2623A7Bf49292AA781915c134eA876F3F5eb -->
<g id="edge8" class="edge">
<title>MCD_DEPLOY&#45;&gt;0x8F4B2623A7Bf49292AA781915c134eA876F3F5eb</title>
<path fill="none" stroke="#000000" d="M1841.9836,-812.4C1859.1591,-812.4 1880.6195,-812.4 1903.5321,-812.4"/>
<polygon fill="#000000" stroke="#000000" points="1903.7904,-815.9001 1913.7904,-812.4 1903.7903,-808.9001 1903.7904,-815.9001"/>
<text text-anchor="middle" x="1885.3946" y="-799.8" font-family="Times,serif" font-size="14.00" fill="#000000">authority</text>
</g>
<!-- MCD_VAT -->
<g id="node4" class="node">
<title>MCD_VAT</title>
<polygon fill="none" stroke="#000000" points="273.7377,-474.2496 219.7377,-474.2496 219.7377,-438.2496 273.7377,-438.2496 273.7377,-474.2496"/>
<text text-anchor="middle" x="246.7377" y="-452.0496" font-family="Times,serif" font-size="14.00" fill="#000000">Vat</text>
</g>
<!-- MCD_JUG -->
<g id="node5" class="node">
<title>MCD_JUG</title>
<polygon fill="none" stroke="#000000" points="185.9545,-830.4 131.9545,-830.4 131.9545,-794.4 185.9545,-794.4 185.9545,-830.4"/>
<text text-anchor="middle" x="158.9545" y="-808.2" font-family="Times,serif" font-size="14.00" fill="#000000">Jug</text>
</g>
<!-- MCD_VAT&#45;&gt;MCD_JUG -->
<g id="edge18" class="edge">
<title>MCD_VAT&#45;&gt;MCD_JUG</title>
<path fill="none" stroke="#000000" d="M242.2638,-474.4008C227.9406,-532.5123 183.1439,-714.2595 165.8564,-784.3979"/>
<polygon fill="#000000" stroke="#000000" points="162.4143,-783.7383 163.4193,-794.2854 169.2109,-785.4136 162.4143,-783.7383"/>
<text text-anchor="middle" x="214.943" y="-633.5993" font-family="Times,serif" font-size="14.00" fill="#000000">rely</text>
</g>
<!-- MCD_POT -->
<g id="node6" class="node">
<title>MCD_POT</title>
<polygon fill="none" stroke="#000000" points="208.2238,-1013.8046 154.2238,-1013.8046 154.2238,-977.8046 208.2238,-977.8046 208.2238,-1013.8046"/>
<text text-anchor="middle" x="181.2238" y="-991.6046" font-family="Times,serif" font-size="14.00" fill="#000000">Pot</text>
</g>
<!-- MCD_VAT&#45;&gt;MCD_POT -->
<g id="edge19" class="edge">
<title>MCD_VAT&#45;&gt;MCD_POT</title>
<path fill="none" stroke="#000000" d="M244.5204,-474.5107C234.8677,-554.0077 196.4667,-870.2679 184.6814,-967.3288"/>
<polygon fill="#000000" stroke="#000000" points="181.1716,-967.199 183.4406,-977.548 188.1205,-968.0429 181.1716,-967.199"/>
<text text-anchor="middle" x="203.718" y="-725.1198" font-family="Times,serif" font-size="14.00" fill="#000000">rely</text>
</g>
<!-- MCD_VOW -->
<g id="node9" class="node">
<title>MCD_VOW</title>
<polygon fill="none" stroke="#000000" points="680.5667,-113.8305 626.5667,-113.8305 626.5667,-77.8305 680.5667,-77.8305 680.5667,-113.8305"/>
<text text-anchor="middle" x="653.5667" y="-91.6305" font-family="Times,serif" font-size="14.00" fill="#000000">Vow</text>
</g>
<!-- MCD_VAT&#45;&gt;MCD_VOW -->
<g id="edge17" class="edge">
<title>MCD_VAT&#45;&gt;MCD_VOW</title>
<path fill="none" stroke="#000000" d="M267.1912,-438.1293C334.1963,-378.768 547.2394,-190.0283 624.8942,-121.2321"/>
<polygon fill="#000000" stroke="#000000" points="627.6657,-123.4527 632.8299,-114.2017 623.0238,-118.2132 627.6657,-123.4527"/>
<text text-anchor="middle" x="435.1598" y="-283.8807" font-family="Times,serif" font-size="14.00" fill="#000000">rely</text>
</g>
<!-- MCD_CAT -->
<g id="node10" class="node">
<title>MCD_CAT</title>
<polygon fill="none" stroke="#000000" points="378.6886,-322.2019 324.6886,-322.2019 324.6886,-286.2019 378.6886,-286.2019 378.6886,-322.2019"/>
<text text-anchor="middle" x="351.6886" y="-300.0019" font-family="Times,serif" font-size="14.00" fill="#000000">Cat</text>
</g>
<!-- MCD_VAT&#45;&gt;MCD_CAT -->
<g id="edge22" class="edge">
<title>MCD_VAT&#45;&gt;MCD_CAT</title>
<path fill="none" stroke="#000000" d="M259.1891,-438.2106C277.5731,-411.5768 312.0928,-361.5663 333.3684,-330.7434"/>
<polygon fill="#000000" stroke="#000000" points="336.4532,-332.4355 339.2534,-322.2174 330.6923,-328.459 336.4532,-332.4355"/>
<text text-anchor="middle" x="285.3958" y="-388.677" font-family="Times,serif" font-size="14.00" fill="#000000">rely</text>
</g>
<!-- MCD_SPOT -->
<g id="node11" class="node">
<title>MCD_SPOT</title>
<polygon fill="none" stroke="#000000" points="209.6646,-646.9954 152.7831,-646.9954 152.7831,-610.9954 209.6646,-610.9954 209.6646,-646.9954"/>
<text text-anchor="middle" x="181.2238" y="-624.7954" font-family="Times,serif" font-size="14.00" fill="#000000">Spotter</text>
</g>
<!-- MCD_VAT&#45;&gt;MCD_SPOT -->
<g id="edge16" class="edge">
<title>MCD_VAT&#45;&gt;MCD_SPOT</title>
<path fill="none" stroke="#000000" d="M239.8504,-474.4099C228.3984,-504.6064 205.3644,-565.3419 191.8279,-601.0347"/>
<polygon fill="#000000" stroke="#000000" points="188.3907,-600.2279 188.1172,-610.8192 194.9358,-602.7101 188.3907,-600.2279"/>
<text text-anchor="middle" x="204.9562" y="-541.9223" font-family="Times,serif" font-size="14.00" fill="#000000">rely</text>
</g>
<!-- MCD_PAUSE_PROXY -->
<g id="node14" class="node">
<title>MCD_PAUSE_PROXY</title>
<polygon fill="none" stroke="#000000" points="296.7265,-1186.5504 196.7489,-1186.5504 196.7489,-1150.5504 296.7265,-1150.5504 296.7265,-1186.5504"/>
<text text-anchor="middle" x="246.7377" y="-1164.3504" font-family="Times,serif" font-size="14.00" fill="#000000">DSPauseProxy</text>
</g>
<!-- MCD_VAT&#45;&gt;MCD_PAUSE_PROXY -->
<g id="edge27" class="edge">
<title>MCD_VAT&#45;&gt;MCD_PAUSE_PROXY</title>
<path fill="none" stroke="#000000" d="M246.7377,-474.5729C246.7377,-571.2863 246.7377,-1022.4093 246.7377,-1140.3021"/>
<polygon fill="#000000" stroke="#000000" points="243.2378,-1140.3482 246.7377,-1150.3483 250.2378,-1140.3483 243.2378,-1140.3482"/>
<text text-anchor="middle" x="235.8548" y="-811.6375" font-family="Times,serif" font-size="14.00" fill="#000000">rely</text>
</g>
<!-- MCD_END -->
<g id="node19" class="node">
<title>MCD_END</title>
<polygon fill="none" stroke="#000000" points="1525.9627,-1338.5981 1471.9627,-1338.5981 1471.9627,-1302.5981 1525.9627,-1302.5981 1525.9627,-1338.5981"/>
<text text-anchor="middle" x="1498.9627" y="-1316.3981" font-family="Times,serif" font-size="14.00" fill="#000000">End</text>
</g>
<!-- MCD_VAT&#45;&gt;MCD_END -->
<g id="edge24" class="edge">
<title>MCD_VAT&#45;&gt;MCD_END</title>
<path fill="none" stroke="#000000" d="M272.8922,-474.3027C433.1451,-584.9173 1281.4926,-1170.4893 1464.251,-1296.6384"/>
<polygon fill="#000000" stroke="#000000" points="1462.4706,-1299.6622 1472.6887,-1302.4625 1466.4471,-1293.9013 1462.4706,-1299.6622"/>
<text text-anchor="middle" x="857.6887" y="-889.6705" font-family="Times,serif" font-size="14.00" fill="#000000">rely</text>
</g>
<!-- ETHJoin_A -->
<g id="node20" class="node">
<title>ETHJoin_A</title>
<polygon fill="none" stroke="#000000" points="93.3571,-966.0397 10.0484,-966.0397 10.0484,-930.0397 93.3571,-930.0397 93.3571,-966.0397"/>
<text text-anchor="middle" x="51.7028" y="-943.8397" font-family="Times,serif" font-size="14.00" fill="#000000">ETHJoin_A</text>
</g>
<!-- MCD_VAT&#45;&gt;ETHJoin_A -->
<g id="edge36" class="edge">
<title>MCD_VAT&#45;&gt;ETHJoin_A</title>
<path fill="none" stroke="#000000" d="M239.565,-474.3359C210.1175,-548.5891 98.3834,-830.332 62.7164,-920.2681"/>
<polygon fill="#000000" stroke="#000000" points="59.3737,-919.2029 58.9407,-929.7889 65.8807,-921.7835 59.3737,-919.2029"/>
<text text-anchor="middle" x="140.2578" y="-701.502" font-family="Times,serif" font-size="14.00" fill="#000000">rely</text>
</g>
<!-- ETHJoin_B -->
<g id="node22" class="node">
<title>ETHJoin_B</title>
<polygon fill="none" stroke="#000000" points="82.8255,-811.3104 .0581,-811.3104 .0581,-775.3104 82.8255,-775.3104 82.8255,-811.3104"/>
<text text-anchor="middle" x="41.4418" y="-789.1104" font-family="Times,serif" font-size="14.00" fill="#000000">ETHJoin_B</text>
</g>
<!-- MCD_VAT&#45;&gt;ETHJoin_B -->
<g id="edge39" class="edge">
<title>MCD_VAT&#45;&gt;ETHJoin_B</title>
<path fill="none" stroke="#000000" d="M235.7001,-474.3714C201.6553,-530.2672 98.1482,-700.2082 57.795,-766.4612"/>
<polygon fill="#000000" stroke="#000000" points="54.7467,-764.7377 52.534,-775.0989 60.7251,-768.3791 54.7467,-764.7377"/>
<text text-anchor="middle" x="135.8647" y="-624.6163" font-family="Times,serif" font-size="14.00" fill="#000000">rely</text>
</g>
<!-- ETHJoin_C -->
<g id="node24" class="node">
<title>ETHJoin_C</title>
<polygon fill="none" stroke="#000000" points="99.6819,-657.546 16.9145,-657.546 16.9145,-621.546 99.6819,-621.546 99.6819,-657.546"/>
<text text-anchor="middle" x="58.2982" y="-635.346" font-family="Times,serif" font-size="14.00" fill="#000000">ETHJoin_C</text>
</g>
<!-- MCD_VAT&#45;&gt;ETHJoin_C -->
<g id="edge42" class="edge">
<title>MCD_VAT&#45;&gt;ETHJoin_C</title>
<path fill="none" stroke="#000000" d="M227.9805,-474.4948C194.1179,-507.4332 122.7255,-576.8771 84.2211,-614.3306"/>
<polygon fill="#000000" stroke="#000000" points="81.7074,-611.893 76.9796,-621.3745 86.5882,-616.9108 81.7074,-611.893"/>
<text text-anchor="middle" x="145.2179" y="-548.6127" font-family="Times,serif" font-size="14.00" fill="#000000">rely</text>
</g>
<!-- COL1Join_A -->
<g id="node26" class="node">
<title>COL1Join_A</title>
<polygon fill="none" stroke="#000000" points="149.1998,-505.0924 57.3225,-505.0924 57.3225,-469.0924 149.1998,-469.0924 149.1998,-505.0924"/>
<text text-anchor="middle" x="103.2611" y="-482.8924" font-family="Times,serif" font-size="14.00" fill="#000000">COL1Join_A</text>
</g>
<!-- MCD_VAT&#45;&gt;COL1Join_A -->
<g id="edge45" class="edge">
<title>MCD_VAT&#45;&gt;COL1Join_A</title>
<path fill="none" stroke="#000000" d="M219.4131,-462.1235C202.3644,-465.7884 179.7982,-470.6394 159.0934,-475.0903"/>
<polygon fill="#000000" stroke="#000000" points="158.1522,-471.7126 149.1111,-477.2361 159.6234,-478.5562 158.1522,-471.7126"/>
<text text-anchor="middle" x="178.3704" y="-472.8069" font-family="Times,serif" font-size="14.00" fill="#000000">rely</text>
</g>
<!-- COL2Join_A -->
<g id="node28" class="node">
<title>COL2Join_A</title>
<polygon fill="none" stroke="#000000" points="223.0031,-359.5282 131.1258,-359.5282 131.1258,-323.5282 223.0031,-323.5282 223.0031,-359.5282"/>
<text text-anchor="middle" x="177.0644" y="-337.3282" font-family="Times,serif" font-size="14.00" fill="#000000">COL2Join_A</text>
</g>
<!-- MCD_VAT&#45;&gt;COL2Join_A -->
<g id="edge48" class="edge">
<title>MCD_VAT&#45;&gt;COL2Join_A</title>
<path fill="none" stroke="#000000" d="M235.6977,-438.0716C224.2824,-419.2755 206.3369,-389.7271 193.3041,-368.2678"/>
<polygon fill="#000000" stroke="#000000" points="196.2352,-366.3515 188.0527,-359.6211 190.2522,-369.9851 196.2352,-366.3515"/>
<text text-anchor="middle" x="203.618" y="-407.3697" font-family="Times,serif" font-size="14.00" fill="#000000">rely</text>
</g>
<!-- COL3Join_A -->
<g id="node30" class="node">
<title>COL3Join_A</title>
<polygon fill="none" stroke="#000000" points="322.3056,-230.0104 230.4283,-230.0104 230.4283,-194.0104 322.3056,-194.0104 322.3056,-230.0104"/>
<text text-anchor="middle" x="276.367" y="-207.8104" font-family="Times,serif" font-size="14.00" fill="#000000">COL3Join_A</text>
</g>
<!-- MCD_VAT&#45;&gt;COL3Join_A -->
<g id="edge51" class="edge">
<title>MCD_VAT&#45;&gt;COL3Join_A</title>
<path fill="none" stroke="#000000" d="M248.9647,-437.8919C254.0928,-395.6197 266.7652,-291.1595 272.9123,-240.4875"/>
<polygon fill="#000000" stroke="#000000" points="276.4247,-240.5966 274.1545,-230.2479 269.4756,-239.7536 276.4247,-240.5966"/>
<text text-anchor="middle" x="250.0556" y="-343.3897" font-family="Times,serif" font-size="14.00" fill="#000000">rely</text>
</g>
<!-- COL4Join_A -->
<g id="node32" class="node">
<title>COL4Join_A</title>
<polygon fill="none" stroke="#000000" points="443.7233,-120.9526 351.846,-120.9526 351.846,-84.9526 443.7233,-84.9526 443.7233,-120.9526"/>
<text text-anchor="middle" x="397.7847" y="-98.7526" font-family="Times,serif" font-size="14.00" fill="#000000">COL4Join_A</text>
</g>
<!-- MCD_VAT&#45;&gt;COL4Join_A -->
<g id="edge54" class="edge">
<title>MCD_VAT&#45;&gt;COL4Join_A</title>
<path fill="none" stroke="#000000" d="M254.4358,-438.2438C279.0748,-380.6135 356.1205,-200.4047 385.8845,-130.787"/>
<polygon fill="#000000" stroke="#000000" points="389.208,-131.9166 389.921,-121.3458 382.7715,-129.1648 389.208,-131.9166"/>
<text text-anchor="middle" x="309.2772" y="-288.7154" font-family="Times,serif" font-size="14.00" fill="#000000">rely</text>
</g>
<!-- COL5Join_A -->
<g id="node34" class="node">
<title>COL5Join_A</title>
<polygon fill="none" stroke="#000000" points="583.1186,-36.0714 491.2413,-36.0714 491.2413,-.0714 583.1186,-.0714 583.1186,-36.0714"/>
<text text-anchor="middle" x="537.1799" y="-13.8714" font-family="Times,serif" font-size="14.00" fill="#000000">COL5Join_A</text>
</g>
<!-- MCD_VAT&#45;&gt;COL5Join_A -->
<g id="edge57" class="edge">
<title>MCD_VAT&#45;&gt;COL5Join_A</title>
<path fill="none" stroke="#000000" d="M258.8478,-437.9795C304.3333,-369.3574 465.1241,-126.779 519.2483,-45.1241"/>
<polygon fill="#000000" stroke="#000000" points="522.4105,-46.6884 525.0181,-36.4195 516.5758,-42.8209 522.4105,-46.6884"/>
<text text-anchor="middle" x="378.1652" y="-245.7518" font-family="Times,serif" font-size="14.00" fill="#000000">rely</text>
</g>
<!-- MCD_JUG&#45;&gt;MCD_PAUSE_PROXY -->
<g id="edge30" class="edge">
<title>MCD_JUG&#45;&gt;MCD_PAUSE_PROXY</title>
<path fill="none" stroke="#000000" d="M163.4283,-830.5512C177.7516,-888.6627 222.5482,-1070.4099 239.8358,-1140.5484"/>
<polygon fill="#000000" stroke="#000000" points="236.4813,-1141.564 242.2728,-1150.4358 243.2779,-1139.8887 236.4813,-1141.564"/>
<text text-anchor="middle" x="212.515" y="-972.9498" font-family="Times,serif" font-size="14.00" fill="#000000">rely</text>
</g>
<!-- MCD_POT&#45;&gt;MCD_PAUSE_PROXY -->
<g id="edge31" class="edge">
<title>MCD_POT&#45;&gt;MCD_PAUSE_PROXY</title>
<path fill="none" stroke="#000000" d="M188.1111,-1013.965C199.5632,-1044.1614 222.5971,-1104.8969 236.1336,-1140.5898"/>
<polygon fill="#000000" stroke="#000000" points="233.0257,-1142.2652 239.8443,-1150.3742 239.5708,-1139.7829 233.0257,-1142.2652"/>
<text text-anchor="middle" x="201.2395" y="-1081.4774" font-family="Times,serif" font-size="14.00" fill="#000000">rely</text>
</g>
<!-- MCD_FLAP -->
<g id="node7" class="node">
<title>MCD_FLAP</title>
<polygon fill="none" stroke="#000000" points="519.2407,-199.6889 460.7137,-199.6889 460.7137,-163.6889 519.2407,-163.6889 519.2407,-199.6889"/>
<text text-anchor="middle" x="489.9772" y="-177.4889" font-family="Times,serif" font-size="14.00" fill="#000000">Flapper</text>
</g>
<!-- MCD_FLAP&#45;&gt;MCD_VOW -->
<g id="edge20" class="edge">
<title>MCD_FLAP&#45;&gt;MCD_VOW</title>
<path fill="none" stroke="#000000" d="M519.602,-166.1406C547.0193,-151.7509 587.8583,-130.3169 617.2335,-114.8996"/>
<polygon fill="#000000" stroke="#000000" points="619.1085,-117.8684 626.3365,-110.122 615.8554,-111.6702 619.1085,-117.8684"/>
<text text-anchor="middle" x="557.5349" y="-144.7201" font-family="Times,serif" font-size="14.00" fill="#000000">rely</text>
</g>
<!-- MCD_FLAP&#45;&gt;MCD_PAUSE_PROXY -->
<g id="edge33" class="edge">
<title>MCD_FLAP&#45;&gt;MCD_PAUSE_PROXY</title>
<path fill="none" stroke="#000000" d="M485.4421,-200.0885C455.8119,-320.3028 289.9038,-993.4186 253.7108,-1140.2592"/>
<polygon fill="#000000" stroke="#000000" points="250.2364,-1139.7306 251.2415,-1150.2777 257.033,-1141.4059 250.2364,-1139.7306"/>
<text text-anchor="middle" x="358.6936" y="-674.3739" font-family="Times,serif" font-size="14.00" fill="#000000">rely</text>
</g>
<!-- MCD_FLOP -->
<g id="node8" class="node">
<title>MCD_FLOP</title>
<polygon fill="none" stroke="#000000" points="862.4999,-69.6166 803.3997,-69.6166 803.3997,-33.6166 862.4999,-33.6166 862.4999,-69.6166"/>
<text text-anchor="middle" x="832.9498" y="-47.4166" font-family="Times,serif" font-size="14.00" fill="#000000">Flopper</text>
</g>
<!-- MCD_FLOP&#45;&gt;MCD_VOW -->
<g id="edge21" class="edge">
<title>MCD_FLOP&#45;&gt;MCD_VOW</title>
<path fill="none" stroke="#000000" d="M803.3283,-58.9176C772.3958,-66.5418 723.8219,-78.5142 690.4287,-86.7448"/>
<polygon fill="#000000" stroke="#000000" points="689.4608,-83.3786 680.589,-89.1701 691.1361,-90.1752 689.4608,-83.3786"/>
<text text-anchor="middle" x="735.9956" y="-77.0312" font-family="Times,serif" font-size="14.00" fill="#000000">rely</text>
</g>
<!-- MCD_FLOP&#45;&gt;MCD_PAUSE_PROXY -->
<g id="edge34" class="edge">
<title>MCD_FLOP&#45;&gt;MCD_PAUSE_PROXY</title>
<path fill="none" stroke="#000000" d="M823.2641,-70.0711C754.7325,-200.6471 343.3426,-984.485 261.0568,-1141.2675"/>
<polygon fill="#000000" stroke="#000000" points="257.8755,-1139.7978 256.3273,-1150.2789 264.0737,-1143.0509 257.8755,-1139.7978"/>
<text text-anchor="middle" x="531.2776" y="-609.8693" font-family="Times,serif" font-size="14.00" fill="#000000">rely</text>
</g>
<!-- MCD_VOW&#45;&gt;MCD_CAT -->
<g id="edge23" class="edge">
<title>MCD_VOW&#45;&gt;MCD_CAT</title>
<path fill="none" stroke="#000000" d="M627.3051,-113.9576C572.8892,-151.5182 447.8101,-237.854 386.6485,-280.0708"/>
<polygon fill="#000000" stroke="#000000" points="384.3461,-277.4072 378.1045,-285.9684 388.3225,-283.1681 384.3461,-277.4072"/>
<text text-anchor="middle" x="517.8597" y="-201.2142" font-family="Times,serif" font-size="14.00" fill="#000000">rely</text>
</g>
<!-- MCD_VOW&#45;&gt;MCD_PAUSE_PROXY -->
<g id="edge29" class="edge">
<title>MCD_VOW&#45;&gt;MCD_PAUSE_PROXY</title>
<path fill="none" stroke="#000000" d="M646.6761,-113.9995C598.8054,-240.2241 315.989,-985.9498 257.3704,-1140.5144"/>
<polygon fill="#000000" stroke="#000000" points="253.9639,-1139.6264 253.6904,-1150.2177 260.509,-1142.1087 253.9639,-1139.6264"/>
<text text-anchor="middle" x="441.1403" y="-631.4569" font-family="Times,serif" font-size="14.00" fill="#000000">rely</text>
</g>
<!-- MCD_VOW&#45;&gt;MCD_END -->
<g id="edge26" class="edge">
<title>MCD_VOW&#45;&gt;MCD_END</title>
<path fill="none" stroke="#000000" d="M666.1734,-114.0945C761.3231,-251.9426 1366.0241,-1128.0032 1480.3327,-1293.6078"/>
<polygon fill="#000000" stroke="#000000" points="1477.7221,-1295.9871 1486.2833,-1302.2287 1483.483,-1292.0106 1477.7221,-1295.9871"/>
<text text-anchor="middle" x="1062.3701" y="-708.0511" font-family="Times,serif" font-size="14.00" fill="#000000">rely</text>
</g>
<!-- MCD_CAT&#45;&gt;MCD_PAUSE_PROXY -->
<g id="edge28" class="edge">
<title>MCD_CAT&#45;&gt;MCD_PAUSE_PROXY</title>
<path fill="none" stroke="#000000" d="M349.4965,-322.2551C336.2126,-431.6578 266.5151,-1005.6685 250.1703,-1140.2805"/>
<polygon fill="#000000" stroke="#000000" points="246.6929,-1139.8832 248.9619,-1150.2322 253.6419,-1140.727 246.6929,-1139.8832"/>
<text text-anchor="middle" x="288.9505" y="-735.4678" font-family="Times,serif" font-size="14.00" fill="#000000">rely</text>
</g>
<!-- MCD_CAT&#45;&gt;MCD_END -->
<g id="edge25" class="edge">
<title>MCD_CAT&#45;&gt;MCD_END</title>
<path fill="none" stroke="#000000" d="M372.0886,-322.2748C510.4488,-444.8512 1310.5816,-1153.707 1470.9736,-1295.802"/>
<polygon fill="#000000" stroke="#000000" points="1468.7375,-1298.4968 1478.5435,-1302.5083 1473.3794,-1293.2572 1468.7375,-1298.4968"/>
<text text-anchor="middle" x="910.6482" y="-813.2384" font-family="Times,serif" font-size="14.00" fill="#000000">rely</text>
</g>
<!-- MCD_SPOT&#45;&gt;MCD_PAUSE_PROXY -->
<g id="edge32" class="edge">
<title>MCD_SPOT&#45;&gt;MCD_PAUSE_PROXY</title>
<path fill="none" stroke="#000000" d="M183.4411,-647.2565C193.0938,-726.7535 231.4948,-1043.0138 243.2801,-1140.0746"/>
<polygon fill="#000000" stroke="#000000" points="239.841,-1140.7887 244.5209,-1150.2939 246.79,-1139.9449 239.841,-1140.7887"/>
<text text-anchor="middle" x="202.4777" y="-897.8656" font-family="Times,serif" font-size="14.00" fill="#000000">rely</text>
</g>
<!-- MCD_GOV -->
<g id="node12" class="node">
<title>MCD_GOV</title>
<polygon fill="none" stroke="#000000" points="1044.7015,-69.6166 990.7015,-69.6166 990.7015,-33.6166 1044.7015,-33.6166 1044.7015,-69.6166"/>
<text text-anchor="middle" x="1017.7015" y="-47.4166" font-family="Times,serif" font-size="14.00" fill="#000000">MKR</text>
</g>
<!-- MCD_GOV&#45;&gt;deployer -->
<g id="edge11" class="edge">
<title>MCD_GOV&#45;&gt;deployer</title>
<path fill="none" stroke="#000000" d="M1044.9459,-58.3317C1073.991,-65.4907 1120.381,-76.9248 1154.3072,-85.2868"/>
<polygon fill="#000000" stroke="#000000" points="1153.8559,-88.7803 1164.4029,-87.7752 1155.5312,-81.9837 1153.8559,-88.7803"/>
<text text-anchor="middle" x="1082.1357" y="-76.0093" font-family="Times,serif" font-size="14.00" fill="#000000">owner</text>
</g>
<!-- MCD_GOV&#45;&gt;MCD_FLOP -->
<g id="edge35" class="edge">
<title>MCD_GOV&#45;&gt;MCD_FLOP</title>
<path fill="none" stroke="#000000" d="M990.4407,-51.6166C959.3795,-51.6166 908.3337,-51.6166 872.8073,-51.6166"/>
<polygon fill="#000000" stroke="#000000" points="872.7745,-48.1167 862.7745,-51.6166 872.7744,-55.1167 872.7745,-48.1167"/>
<text text-anchor="middle" x="898.1843" y="-55.8166" font-family="Times,serif" font-size="14.00" fill="#000000">permit&#45;mint</text>
</g>
<!-- MCD_GOV_GUARD -->
<g id="node15" class="node">
<title>MCD_GOV_GUARD</title>
<polygon fill="none" stroke="#000000" points="1538.0522,-322.2019 1459.8732,-322.2019 1459.8732,-286.2019 1538.0522,-286.2019 1538.0522,-322.2019"/>
<text text-anchor="middle" x="1498.9627" y="-300.0019" font-family="Times,serif" font-size="14.00" fill="#000000">Gov Guard</text>
</g>
<!-- MCD_GOV&#45;&gt;MCD_GOV_GUARD -->
<g id="edge3" class="edge">
<title>MCD_GOV&#45;&gt;MCD_GOV_GUARD</title>
<path fill="none" stroke="#000000" d="M1044.9551,-65.9203C1124.7037,-107.7756 1358.0924,-230.2675 1455.4873,-281.3843"/>
<polygon fill="#000000" stroke="#000000" points="1453.9972,-284.555 1464.4784,-286.1032 1457.2503,-278.3568 1453.9972,-284.555"/>
<text text-anchor="middle" x="1224.9477" y="-177.8523" font-family="Times,serif" font-size="14.00" fill="#000000">authority</text>
</g>
<!-- MCD_PAUSE -->
<g id="node13" class="node">
<title>MCD_PAUSE</title>
<polygon fill="none" stroke="#000000" points="1702.4746,-1013.8046 1636.3803,-1013.8046 1636.3803,-977.8046 1702.4746,-977.8046 1702.4746,-1013.8046"/>
<text text-anchor="middle" x="1669.4274" y="-991.6046" font-family="Times,serif" font-size="14.00" fill="#000000">DSPause</text>
</g>
<!-- MCD_PAUSE&#45;&gt;zero -->
<g id="edge2" class="edge">
<title>MCD_PAUSE&#45;&gt;zero</title>
<path fill="none" stroke="#000000" d="M1671.6441,-977.5486C1675.5292,-945.5521 1683.5945,-879.1281 1688.2254,-840.9894"/>
<polygon fill="#000000" stroke="#000000" points="1691.7581,-840.9312 1689.4891,-830.5822 1684.8091,-840.0874 1691.7581,-840.9312"/>
<text text-anchor="middle" x="1662.4439" y="-913.469" font-family="Times,serif" font-size="14.00" fill="#000000">owner</text>
</g>
<!-- MCD_ADM -->
<g id="node17" class="node">
<title>MCD_ADM</title>
<polygon fill="none" stroke="#000000" points="1701.919,-646.9954 1636.9358,-646.9954 1636.9358,-610.9954 1701.919,-610.9954 1701.919,-646.9954"/>
<text text-anchor="middle" x="1669.4274" y="-624.7954" font-family="Times,serif" font-size="14.00" fill="#000000">DSChief</text>
</g>
<!-- MCD_PAUSE&#45;&gt;MCD_ADM -->
<g id="edge4" class="edge">
<title>MCD_PAUSE&#45;&gt;MCD_ADM</title>
<path fill="none" stroke="#000000" d="M1669.4274,-977.6145C1669.4274,-918.214 1669.4274,-729.6158 1669.4274,-657.4547"/>
<polygon fill="#000000" stroke="#000000" points="1672.9275,-657.2953 1669.4274,-647.2953 1665.9275,-657.2953 1672.9275,-657.2953"/>
<text text-anchor="middle" x="1644.1539" y="-821.7346" font-family="Times,serif" font-size="14.00" fill="#000000">authority</text>
</g>
<!-- MCD_PAUSE_PROXY&#45;&gt;MCD_PAUSE -->
<g id="edge14" class="edge">
<title>MCD_PAUSE_PROXY&#45;&gt;MCD_PAUSE</title>
<path fill="none" stroke="#000000" d="M296.9541,-1162.4531C519.9091,-1135.3814 1418.3613,-1026.2896 1626.3117,-1001.0398"/>
<polygon fill="#000000" stroke="#000000" points="1626.7414,-1004.5134 1636.2466,-999.8335 1625.8976,-997.5645 1626.7414,-1004.5134"/>
<text text-anchor="middle" x="944.142" y="-1085.9464" font-family="Times,serif" font-size="14.00" fill="#000000">owner</text>
</g>
<!-- MCD_GOV_GUARD&#45;&gt;zero -->
<g id="edge5" class="edge">
<title>MCD_GOV_GUARD&#45;&gt;zero</title>
<path fill="none" stroke="#000000" d="M1503.0073,-322.3417C1526.3474,-398.6405 1637.9686,-693.591 1677.8101,-785.1476"/>
<polygon fill="#000000" stroke="#000000" points="1674.624,-786.5971 1681.8716,-794.3253 1681.0253,-783.7643 1674.624,-786.5971"/>
<text text-anchor="middle" x="1565.1352" y="-557.9447" font-family="Times,serif" font-size="14.00" fill="#000000">authority</text>
</g>
<!-- MCD_GOV_GUARD&#45;&gt;zero -->
<g id="edge13" class="edge">
<title>MCD_GOV_GUARD&#45;&gt;zero</title>
<path fill="none" stroke="#000000" d="M1508.7592,-322.213C1543.0482,-398.1196 1654.6969,-692.0789 1684.5614,-784.4635"/>
<polygon fill="#000000" stroke="#000000" points="1681.2938,-785.7394 1687.6407,-794.2227 1687.9693,-783.633 1681.2938,-785.7394"/>
<text text-anchor="middle" x="1579.1694" y="-540.7383" font-family="Times,serif" font-size="14.00" fill="#000000">owner</text>
</g>
<!-- MCD_IOU -->
<g id="node16" class="node">
<title>MCD_IOU</title>
<polygon fill="none" stroke="#000000" points="1630.9136,-474.2496 1576.9136,-474.2496 1576.9136,-438.2496 1630.9136,-438.2496 1630.9136,-474.2496"/>
<text text-anchor="middle" x="1603.9136" y="-452.0496" font-family="Times,serif" font-size="14.00" fill="#000000">IOU</text>
</g>
<!-- MCD_IOU&#45;&gt;zero -->
<g id="edge12" class="edge">
<title>MCD_IOU&#45;&gt;zero</title>
<path fill="none" stroke="#000000" d="M1608.3875,-474.4008C1622.7107,-532.5123 1667.5073,-714.2595 1684.7949,-784.3979"/>
<polygon fill="#000000" stroke="#000000" points="1681.4404,-785.4136 1687.2319,-794.2854 1688.237,-783.7383 1681.4404,-785.4136"/>
<text text-anchor="middle" x="1629.1003" y="-633.5993" font-family="Times,serif" font-size="14.00" fill="#000000">owner</text>
</g>
<!-- MCD_IOU&#45;&gt;MCD_GOV_GUARD -->
<g id="edge6" class="edge">
<title>MCD_IOU&#45;&gt;MCD_GOV_GUARD</title>
<path fill="none" stroke="#000000" d="M1591.4622,-438.2106C1573.0782,-411.5768 1538.5585,-361.5663 1517.2829,-330.7434"/>
<polygon fill="#000000" stroke="#000000" points="1519.959,-328.459 1511.3979,-322.2174 1514.1981,-332.4355 1519.959,-328.459"/>
<text text-anchor="middle" x="1529.0991" y="-388.677" font-family="Times,serif" font-size="14.00" fill="#000000">authority</text>
</g>
<!-- MCD_IOU&#45;&gt;MCD_ADM -->
<g id="edge60" class="edge">
<title>MCD_IOU&#45;&gt;MCD_ADM</title>
<path fill="none" stroke="#000000" d="M1606.2881,-474.295C1614.5415,-504.6276 1637.417,-565.9185 1653.4567,-601.5876"/>
<polygon fill="#000000" stroke="#000000" points="1650.4018,-603.3197 1657.7816,-610.9216 1656.7531,-600.3768 1650.4018,-603.3197"/>
<text text-anchor="middle" x="1663.3121" y="-542.1413" font-family="Times,serif" font-size="14.00" fill="#000000">permit&#45;mint</text>
</g>
<!-- MCD_IOU&#45;&gt;MCD_ADM -->
<g id="edge61" class="edge">
<title>MCD_IOU&#45;&gt;MCD_ADM</title>
<path fill="none" stroke="#000000" d="M1615.6308,-474.4721C1630.1102,-504.6861 1653.2706,-565.2689 1664.1531,-600.9564"/>
<polygon fill="#000000" stroke="#000000" points="1660.8457,-602.1175 1666.9968,-610.7439 1667.5677,-600.1645 1660.8457,-602.1175"/>
<text text-anchor="middle" x="1673.3261" y="-525.1143" font-family="Times,serif" font-size="14.00" fill="#000000">permit&#45;burn</text>
</g>
<!-- MCD_ADM&#45;&gt;zero -->
<g id="edge10" class="edge">
<title>MCD_ADM&#45;&gt;zero</title>
<path fill="none" stroke="#000000" d="M1671.6441,-647.2514C1675.5292,-679.2479 1683.5945,-745.6719 1688.2254,-783.8106"/>
<polygon fill="#000000" stroke="#000000" points="1684.8091,-784.7126 1689.4891,-794.2178 1691.7581,-783.8688 1684.8091,-784.7126"/>
<text text-anchor="middle" x="1662.4439" y="-719.731" font-family="Times,serif" font-size="14.00" fill="#000000">owner</text>
</g>
<!-- MCD_ADM&#45;&gt;MCD_ADM -->
<g id="edge7" class="edge">
<title>MCD_ADM&#45;&gt;MCD_ADM</title>
<path fill="none" stroke="#000000" d="M1701.9672,-635.7388C1712.0251,-635.6026 1719.9232,-633.3548 1719.9232,-628.9954 1719.9232,-626.2708 1716.838,-624.371 1712.0686,-623.296"/>
<polygon fill="#000000" stroke="#000000" points="1712.2741,-619.7987 1701.9672,-622.252 1711.5543,-626.7616 1712.2741,-619.7987"/>
<text text-anchor="middle" x="1745.1967" y="-624.7954" font-family="Times,serif" font-size="14.00" fill="#000000">authority</text>
</g>
<!-- PROXY_DEPLOYER -->
<g id="node18" class="node">
<title>PROXY_DEPLOYER</title>
<polygon fill="none" stroke="#000000" points="1413.2043,-199.6889 1308.1439,-199.6889 1308.1439,-163.6889 1413.2043,-163.6889 1413.2043,-199.6889"/>
<text text-anchor="middle" x="1360.6741" y="-177.4889" font-family="Times,serif" font-size="14.00" fill="#000000">Proxy Deployer</text>
</g>
<!-- PROXY_DEPLOYER&#45;&gt;zero -->
<g id="edge15" class="edge">
<title>PROXY_DEPLOYER&#45;&gt;zero</title>
<path fill="none" stroke="#000000" d="M1370.224,-199.8847C1416.9403,-288.8953 1621.4064,-678.4728 1677.448,-785.2512"/>
<polygon fill="#000000" stroke="#000000" points="1674.3618,-786.9024 1682.1082,-794.1304 1680.56,-783.6493 1674.3618,-786.9024"/>
<text text-anchor="middle" x="1498.5625" y="-496.7679" font-family="Times,serif" font-size="14.00" fill="#000000">authority</text>
</g>
<!-- PROXY_DEPLOYER&#45;&gt;deployer -->
<g id="edge1" class="edge">
<title>PROXY_DEPLOYER&#45;&gt;deployer</title>
<path fill="none" stroke="#000000" d="M1325.981,-163.4805C1300.56,-150.1386 1265.9313,-131.9641 1238.9678,-117.8125"/>
<polygon fill="#000000" stroke="#000000" points="1240.2589,-114.5374 1229.7778,-112.9892 1237.0058,-120.7356 1240.2589,-114.5374"/>
<text text-anchor="middle" x="1264.9835" y="-144.8465" font-family="Times,serif" font-size="14.00" fill="#000000">owner</text>
</g>
<!-- Flipper_ETH&#45;A -->
<g id="node21" class="node">
<title>Flipper_ETH&#45;A</title>
<polygon fill="none" stroke="#000000" points="404.6074,-1338.5981 298.7698,-1338.5981 298.7698,-1302.5981 404.6074,-1302.5981 404.6074,-1338.5981"/>
<text text-anchor="middle" x="351.6886" y="-1316.3981" font-family="Times,serif" font-size="14.00" fill="#000000">Flipper_ETH&#45;A</text>
</g>
<!-- Flipper_ETH&#45;A&#45;&gt;MCD_PAUSE_PROXY -->
<g id="edge38" class="edge">
<title>Flipper_ETH&#45;A&#45;&gt;MCD_PAUSE_PROXY</title>
<path fill="none" stroke="#000000" d="M339.2372,-1302.5591C320.8532,-1275.9253 286.3335,-1225.9148 265.0579,-1195.0919"/>
<polygon fill="#000000" stroke="#000000" points="267.734,-1192.8075 259.1729,-1186.5659 261.9731,-1196.784 267.734,-1192.8075"/>
<text text-anchor="middle" x="291.2647" y="-1253.0255" font-family="Times,serif" font-size="14.00" fill="#000000">rely</text>
</g>
<!-- Flipper_ETH&#45;A&#45;&gt;MCD_END -->
<g id="edge37" class="edge">
<title>Flipper_ETH&#45;A&#45;&gt;MCD_END</title>
<path fill="none" stroke="#000000" d="M404.7231,-1320.5981C602.3219,-1320.5981 1293.0398,-1320.5981 1461.6332,-1320.5981"/>
<polygon fill="#000000" stroke="#000000" points="1461.7499,-1324.0982 1471.7499,-1320.5981 1461.7498,-1317.0982 1461.7499,-1324.0982"/>
<text text-anchor="middle" x="922.2952" y="-1324.7981" font-family="Times,serif" font-size="14.00" fill="#000000">rely</text>
</g>
<!-- Flipper_ETH&#45;B -->
<g id="node23" class="node">
<title>Flipper_ETH&#45;B</title>
<polygon fill="none" stroke="#000000" points="542.1258,-1461.1111 437.8286,-1461.1111 437.8286,-1425.1111 542.1258,-1425.1111 542.1258,-1461.1111"/>
<text text-anchor="middle" x="489.9772" y="-1438.9111" font-family="Times,serif" font-size="14.00" fill="#000000">Flipper_ETH&#45;B</text>
</g>
<!-- Flipper_ETH&#45;B&#45;&gt;MCD_PAUSE_PROXY -->
<g id="edge41" class="edge">
<title>Flipper_ETH&#45;B&#45;&gt;MCD_PAUSE_PROXY</title>
<path fill="none" stroke="#000000" d="M474.0176,-1425.0964C432.01,-1377.6796 318.2616,-1249.2842 269.4676,-1194.2072"/>
<polygon fill="#000000" stroke="#000000" points="272.0071,-1191.7957 262.7561,-1186.6315 266.7675,-1196.4375 272.0071,-1191.7957"/>
<text text-anchor="middle" x="360.8597" y="-1297.0518" font-family="Times,serif" font-size="14.00" fill="#000000">rely</text>
</g>
<!-- Flipper_ETH&#45;B&#45;&gt;MCD_END -->
<g id="edge40" class="edge">
<title>Flipper_ETH&#45;B&#45;&gt;MCD_END</title>
<path fill="none" stroke="#000000" d="M542.4515,-1436.7396C721.598,-1414.9872 1306.4841,-1343.9692 1461.1579,-1325.1884"/>
<polygon fill="#000000" stroke="#000000" points="1462.0343,-1328.6078 1471.5394,-1323.9279 1461.1904,-1321.6588 1462.0343,-1328.6078"/>
<text text-anchor="middle" x="990.9218" y="-1385.164" font-family="Times,serif" font-size="14.00" fill="#000000">rely</text>
</g>
<!-- Flipper_ETH&#45;C -->
<g id="node25" class="node">
<title>Flipper_ETH&#45;C</title>
<polygon fill="none" stroke="#000000" points="705.7153,-1546.9695 601.4181,-1546.9695 601.4181,-1510.9695 705.7153,-1510.9695 705.7153,-1546.9695"/>
<text text-anchor="middle" x="653.5667" y="-1524.7695" font-family="Times,serif" font-size="14.00" fill="#000000">Flipper_ETH&#45;C</text>
</g>
<!-- Flipper_ETH&#45;C&#45;&gt;MCD_PAUSE_PROXY -->
<g id="edge44" class="edge">
<title>Flipper_ETH&#45;C&#45;&gt;MCD_PAUSE_PROXY</title>
<path fill="none" stroke="#000000" d="M633.1132,-1510.8492C566.1081,-1451.4879 353.065,-1262.7482 275.4102,-1193.952"/>
<polygon fill="#000000" stroke="#000000" points="277.2805,-1190.9331 267.4744,-1186.9216 272.6386,-1196.1727 277.2805,-1190.9331"/>
<text text-anchor="middle" x="443.3788" y="-1356.6006" font-family="Times,serif" font-size="14.00" fill="#000000">rely</text>
</g>
<!-- Flipper_ETH&#45;C&#45;&gt;MCD_END -->
<g id="edge43" class="edge">
<title>Flipper_ETH&#45;C&#45;&gt;MCD_END</title>
<path fill="none" stroke="#000000" d="M705.812,-1516.0922C862.6422,-1477.437 1326.8232,-1363.0266 1461.7735,-1329.7644"/>
<polygon fill="#000000" stroke="#000000" points="1462.7673,-1333.1243 1471.6391,-1327.3327 1461.092,-1326.3277 1462.7673,-1333.1243"/>
<text text-anchor="middle" x="1072.9098" y="-1427.1283" font-family="Times,serif" font-size="14.00" fill="#000000">rely</text>
</g>
<!-- Flipper_COL1&#45;A -->
<g id="node27" class="node">
<title>Flipper_COL1&#45;A</title>
<polygon fill="none" stroke="#000000" points="889.652,-1591.1834 776.2476,-1591.1834 776.2476,-1555.1834 889.652,-1555.1834 889.652,-1591.1834"/>
<text text-anchor="middle" x="832.9498" y="-1568.9834" font-family="Times,serif" font-size="14.00" fill="#000000">Flipper_COL1&#45;A</text>
</g>
<!-- Flipper_COL1&#45;A&#45;&gt;MCD_PAUSE_PROXY -->
<g id="edge47" class="edge">
<title>Flipper_COL1&#45;A&#45;&gt;MCD_PAUSE_PROXY</title>
<path fill="none" stroke="#000000" d="M806.6227,-1555.0111C711.927,-1489.6474 388.5901,-1266.4641 281.5013,-1192.546"/>
<polygon fill="#000000" stroke="#000000" points="283.2104,-1189.4729 272.9923,-1186.6727 279.2339,-1195.2338 283.2104,-1189.4729"/>
<text text-anchor="middle" x="533.1791" y="-1377.9786" font-family="Times,serif" font-size="14.00" fill="#000000">rely</text>
</g>
<!-- Flipper_COL1&#45;A&#45;&gt;MCD_END -->
<g id="edge46" class="edge">
<title>Flipper_COL1&#45;A&#45;&gt;MCD_END</title>
<path fill="none" stroke="#000000" d="M880.5805,-1555.1195C1007.0183,-1507.168 1349.1539,-1377.4131 1462.1733,-1334.5504"/>
<polygon fill="#000000" stroke="#000000" points="1463.6591,-1337.7303 1471.7681,-1330.9116 1461.1768,-1331.1852 1463.6591,-1337.7303"/>
<text text-anchor="middle" x="1160.494" y="-1449.035" font-family="Times,serif" font-size="14.00" fill="#000000">rely</text>
</g>
<!-- Flipper_COL2&#45;A -->
<g id="node29" class="node">
<title>Flipper_COL2&#45;A</title>
<polygon fill="none" stroke="#000000" points="1074.4037,-1591.1834 960.9993,-1591.1834 960.9993,-1555.1834 1074.4037,-1555.1834 1074.4037,-1591.1834"/>
<text text-anchor="middle" x="1017.7015" y="-1568.9834" font-family="Times,serif" font-size="14.00" fill="#000000">Flipper_COL2&#45;A</text>
</g>
<!-- Flipper_COL2&#45;A&#45;&gt;MCD_PAUSE_PROXY -->
<g id="edge50" class="edge">
<title>Flipper_COL2&#45;A&#45;&gt;MCD_PAUSE_PROXY</title>
<path fill="none" stroke="#000000" d="M983.3286,-1555.1432C858.5014,-1489.6288 429.208,-1264.3183 290.4042,-1191.4684"/>
<polygon fill="#000000" stroke="#000000" points="291.7847,-1188.2402 281.3036,-1186.692 288.5316,-1194.4384 291.7847,-1188.2402"/>
<text text-anchor="middle" x="625.9835" y="-1377.5058" font-family="Times,serif" font-size="14.00" fill="#000000">rely</text>
</g>
<!-- Flipper_COL2&#45;A&#45;&gt;MCD_END -->
<g id="edge49" class="edge">
<title>Flipper_COL2&#45;A&#45;&gt;MCD_END</title>
<path fill="none" stroke="#000000" d="M1052.3126,-1555.0181C1140.4677,-1508.7508 1372.8266,-1386.7994 1462.7262,-1339.6164"/>
<polygon fill="#000000" stroke="#000000" points="1464.4947,-1342.6411 1471.7227,-1334.8947 1461.2416,-1336.4429 1464.4947,-1342.6411"/>
<text text-anchor="middle" x="1246.6365" y="-1451.5173" font-family="Times,serif" font-size="14.00" fill="#000000">rely</text>
</g>
<!-- Flipper_COL3&#45;A -->
<g id="node31" class="node">
<title>Flipper_COL3&#45;A</title>
<polygon fill="none" stroke="#000000" points="1253.7868,-1546.9695 1140.3824,-1546.9695 1140.3824,-1510.9695 1253.7868,-1510.9695 1253.7868,-1546.9695"/>
<text text-anchor="middle" x="1197.0846" y="-1524.7695" font-family="Times,serif" font-size="14.00" fill="#000000">Flipper_COL3&#45;A</text>
</g>
<!-- Flipper_COL3&#45;A&#45;&gt;MCD_PAUSE_PROXY -->
<g id="edge53" class="edge">
<title>Flipper_COL3&#45;A&#45;&gt;MCD_PAUSE_PROXY</title>
<path fill="none" stroke="#000000" d="M1149.3055,-1510.8492C989.8123,-1450.3615 476.106,-1255.5384 303.7353,-1190.1668"/>
<polygon fill="#000000" stroke="#000000" points="304.921,-1186.8733 294.3297,-1186.5997 302.4388,-1193.4184 304.921,-1186.8733"/>
<text text-anchor="middle" x="715.6375" y="-1354.708" font-family="Times,serif" font-size="14.00" fill="#000000">rely</text>
</g>
<!-- Flipper_COL3&#45;A&#45;&gt;MCD_END -->
<g id="edge52" class="edge">
<title>Flipper_COL3&#45;A&#45;&gt;MCD_END</title>
<path fill="none" stroke="#000000" d="M1223.3462,-1510.8424C1277.7621,-1473.2818 1402.8412,-1386.946 1464.0028,-1344.7292"/>
<polygon fill="#000000" stroke="#000000" points="1466.3052,-1347.3928 1472.5468,-1338.8316 1462.3287,-1341.6319 1466.3052,-1347.3928"/>
<text text-anchor="middle" x="1349.1159" y="-1415.1858" font-family="Times,serif" font-size="14.00" fill="#000000">rely</text>
</g>
<!-- Flipper_COL4&#45;A -->
<g id="node33" class="node">
<title>Flipper_COL4&#45;A</title>
<polygon fill="none" stroke="#000000" points="1417.3763,-1461.1111 1303.9719,-1461.1111 1303.9719,-1425.1111 1417.3763,-1425.1111 1417.3763,-1461.1111"/>
<text text-anchor="middle" x="1360.6741" y="-1438.9111" font-family="Times,serif" font-size="14.00" fill="#000000">Flipper_COL4&#45;A</text>
</g>
<!-- Flipper_COL4&#45;A&#45;&gt;MCD_PAUSE_PROXY -->
<g id="edge56" class="edge">
<title>Flipper_COL4&#45;A&#45;&gt;MCD_PAUSE_PROXY</title>
<path fill="none" stroke="#000000" d="M1303.9024,-1429.1181C1113.9024,-1382.2874 501.3325,-1231.3024 306.6937,-1183.3283"/>
<polygon fill="#000000" stroke="#000000" points="307.4717,-1179.9153 296.9247,-1180.9204 305.7964,-1186.7119 307.4717,-1179.9153"/>
<text text-anchor="middle" x="794.4152" y="-1310.4232" font-family="Times,serif" font-size="14.00" fill="#000000">rely</text>
</g>
<!-- Flipper_COL4&#45;A&#45;&gt;MCD_END -->
<g id="edge55" class="edge">
<title>Flipper_COL4&#45;A&#45;&gt;MCD_END</title>
<path fill="none" stroke="#000000" d="M1381.079,-1425.0339C1404.8757,-1403.9518 1444.3434,-1368.9866 1470.9863,-1345.383"/>
<polygon fill="#000000" stroke="#000000" points="1473.3098,-1348.0005 1478.474,-1338.7495 1468.6679,-1342.7609 1473.3098,-1348.0005"/>
<text text-anchor="middle" x="1415.1498" y="-1389.4084" font-family="Times,serif" font-size="14.00" fill="#000000">rely</text>
</g>
<!-- Flipper_COL5&#45;A -->
<g id="node35" class="node">
<title>Flipper_COL5&#45;A</title>
<polygon fill="none" stroke="#000000" points="1660.6158,-1186.5504 1547.2114,-1186.5504 1547.2114,-1150.5504 1660.6158,-1150.5504 1660.6158,-1186.5504"/>
<text text-anchor="middle" x="1603.9136" y="-1164.3504" font-family="Times,serif" font-size="14.00" fill="#000000">Flipper_COL5&#45;A</text>
</g>
<!-- Flipper_COL5&#45;A&#45;&gt;MCD_PAUSE_PROXY -->
<g id="edge59" class="edge">
<title>Flipper_COL5&#45;A&#45;&gt;MCD_PAUSE_PROXY</title>
<path fill="none" stroke="#000000" d="M1546.8955,-1168.5504C1326.7611,-1168.5504 533.3234,-1168.5504 307.2441,-1168.5504"/>
<polygon fill="#000000" stroke="#000000" points="306.9119,-1165.0505 296.9118,-1168.5504 306.9118,-1172.0505 306.9119,-1165.0505"/>
<text text-anchor="middle" x="916.1869" y="-1172.7504" font-family="Times,serif" font-size="14.00" fill="#000000">rely</text>
</g>
<!-- Flipper_COL5&#45;A&#45;&gt;MCD_END -->
<g id="edge58" class="edge">
<title>Flipper_COL5&#45;A&#45;&gt;MCD_END</title>
<path fill="none" stroke="#000000" d="M1591.4622,-1186.5894C1573.0782,-1213.2232 1538.5585,-1263.2337 1517.2829,-1294.0566"/>
<polygon fill="#000000" stroke="#000000" points="1514.1981,-1292.3645 1511.3979,-1302.5826 1519.959,-1296.341 1514.1981,-1292.3645"/>
<text text-anchor="middle" x="1543.4897" y="-1244.523" font-family="Times,serif" font-size="14.00" fill="#000000">rely</text>
</g>
<!-- isolated -->
<g id="node37" class="node">
<title>isolated</title>
<polygon fill="none" stroke="#000000" points="2370.0615,-192.7001 1788.5898,-192.7001 1788.5898,-.0999 2370.0615,-.0999 2370.0615,-192.7001"/>
<text text-anchor="middle" x="2079.3256" y="-176.2" font-family="Times,serif" font-size="14.00" fill="#000000">Isolated Contracts:&#13;</text>
<text text-anchor="middle" x="2079.3256" y="-159.4" font-family="Times,serif" font-size="14.00" fill="#000000"> MCD_DAI, MCD_JOIN_DAI, MULTICALL, FAUCET, VOTE_PROXY_FACTORY,&#13;</text>
<text text-anchor="middle" x="2079.3256" y="-142.6" font-family="Times,serif" font-size="14.00" fill="#000000"> PROXY_ACTIONS, CDP_MANAGER, GET_CDPS, PROXY_FACTORY,&#13;</text>
<text text-anchor="middle" x="2079.3256" y="-125.8" font-family="Times,serif" font-size="14.00" fill="#000000"> PROXY_REGISTRY, PROXY_PAUSE_ACTIONS, MCD_GOV_ACTIONS, GOV_POLL_GEN,&#13;</text>
<text text-anchor="middle" x="2079.3256" y="-109" font-family="Times,serif" font-size="14.00" fill="#000000"> VOTE_YES, VOTE_NO, MCD_ESM, ETH,&#13;</text>
<text text-anchor="middle" x="2079.3256" y="-92.2" font-family="Times,serif" font-size="14.00" fill="#000000"> PIP_ETH, COL1, PIP_COL1, COL2,&#13;</text>
<text text-anchor="middle" x="2079.3256" y="-75.4" font-family="Times,serif" font-size="14.00" fill="#000000"> PIP_COL2, COL3, PIP_COL3, COL4,&#13;</text>
<text text-anchor="middle" x="2079.3256" y="-58.6" font-family="Times,serif" font-size="14.00" fill="#000000"> PIP_COL4, COL5, PIP_COL5, vatFab,&#13;</text>
<text text-anchor="middle" x="2079.3256" y="-41.8" font-family="Times,serif" font-size="14.00" fill="#000000"> jugFab, vowFab, catFab, daiFab,&#13;</text>
<text text-anchor="middle" x="2079.3256" y="-25" font-family="Times,serif" font-size="14.00" fill="#000000"> daiJoinFab, flapFab, flopFab, flipFab,&#13;</text>
<text text-anchor="middle" x="2079.3256" y="-8.2" font-family="Times,serif" font-size="14.00" fill="#000000"> spotFab, potFab, pauseFab</text>
</g>
</g>
</svg>
