<?xml version="1.0" encoding="UTF-8" standalone="no"?>
<!DOCTYPE svg PUBLIC "-//W3C//DTD SVG 1.1//EN"
 "http://www.w3.org/Graphics/SVG/1.1/DTD/svg11.dtd">
<!-- Generated by graphviz version 2.40.1 (20161225.0304)
 -->
<!-- Title: %0 Pages: 1 -->
<svg width="2262pt" height="1599pt"
 viewBox="0.00 0.00 2262.31 1599.11" xmlns="http://www.w3.org/2000/svg" xmlns:xlink="http://www.w3.org/1999/xlink">
<g id="graph0" class="graph" transform="scale(1 1) rotate(0) translate(4 1595.1121)">
<title>%0</title>
<polygon fill="#ffffff" stroke="transparent" points="-4,4 -4,-1595.1121 2258.3085,-1595.1121 2258.3085,4 -4,4"/>
<!-- zero -->
<g id="node1" class="node">
<title>zero</title>
<polygon fill="none" stroke="#000000" points="1718.6968,-830.3286 1664.6968,-830.3286 1664.6968,-794.3286 1718.6968,-794.3286 1718.6968,-830.3286"/>
<text text-anchor="middle" x="1691.6968" y="-808.1286" font-family="Times,serif" font-size="14.00" fill="#000000">zero</text>
</g>
<!-- deployer -->
<g id="node2" class="node">
<title>deployer</title>
<polygon fill="none" stroke="#000000" points="1229.565,-113.7592 1164.6042,-113.7592 1164.6042,-77.7592 1229.565,-77.7592 1229.565,-113.7592"/>
<text text-anchor="middle" x="1197.0846" y="-91.5592" font-family="Times,serif" font-size="14.00" fill="#000000">deployer</text>
</g>
<!-- MCD_DEPLOY -->
<g id="node3" class="node">
<title>MCD_DEPLOY</title>
<polygon fill="none" stroke="#000000" points="1842.0085,-830.3286 1763.5927,-830.3286 1763.5927,-794.3286 1842.0085,-794.3286 1842.0085,-830.3286"/>
<text text-anchor="middle" x="1802.8006" y="-808.1286" font-family="Times,serif" font-size="14.00" fill="#000000">DssDeploy</text>
</g>
<!-- MCD_DEPLOY&#45;&gt;zero -->
<g id="edge9" class="edge">
<title>MCD_DEPLOY&#45;&gt;zero</title>
<path fill="none" stroke="#000000" d="M1763.6296,-812.3286C1752.4562,-812.3286 1740.3119,-812.3286 1729.2382,-812.3286"/>
<polygon fill="#000000" stroke="#000000" points="1729.016,-808.8287 1719.0159,-812.3286 1729.0159,-815.8287 1729.016,-808.8287"/>
<text text-anchor="middle" x="1746.4339" y="-799.7286" font-family="Times,serif" font-size="14.00" fill="#000000">owner</text>
</g>
<!-- 0x7b9212b2655c5EfE906A59a1cC910C3313DEB49c -->
<g id="node39" class="node">
<title>0x7b9212b2655c5EfE906A59a1cC910C3313DEB49c</title>
<polygon fill="none" stroke="#000000" points="2236.5043,-830.3286 1913.7042,-830.3286 1913.7042,-794.3286 2236.5043,-794.3286 2236.5043,-830.3286"/>
<text text-anchor="middle" x="2075.1043" y="-808.1286" font-family="Times,serif" font-size="14.00" fill="#000000">0x7b9212b2655c5EfE906A59a1cC910C3313DEB49c</text>
</g>
<!-- MCD_DEPLOY&#45;&gt;0x7b9212b2655c5EfE906A59a1cC910C3313DEB49c -->
<g id="edge1" class="edge">
<title>MCD_DEPLOY&#45;&gt;0x7b9212b2655c5EfE906A59a1cC910C3313DEB49c</title>
<path fill="none" stroke="#000000" d="M1842.1051,-812.3286C1859.297,-812.3286 1880.7603,-812.3286 1903.6539,-812.3286"/>
<polygon fill="#000000" stroke="#000000" points="1903.9021,-815.8287 1913.9021,-812.3286 1903.9021,-808.8287 1903.9021,-815.8287"/>
<text text-anchor="middle" x="1885.5162" y="-799.7286" font-family="Times,serif" font-size="14.00" fill="#000000">authority</text>
</g>
<!-- MCD_VAT -->
<g id="node4" class="node">
<title>MCD_VAT</title>
<polygon fill="none" stroke="#000000" points="273.7377,-474.1782 219.7377,-474.1782 219.7377,-438.1782 273.7377,-438.1782 273.7377,-474.1782"/>
<text text-anchor="middle" x="246.7377" y="-451.9782" font-family="Times,serif" font-size="14.00" fill="#000000">Vat</text>
</g>
<!-- MCD_JUG -->
<g id="node7" class="node">
<title>MCD_JUG</title>
<polygon fill="none" stroke="#000000" points="208.2238,-646.924 154.2238,-646.924 154.2238,-610.924 208.2238,-610.924 208.2238,-646.924"/>
<text text-anchor="middle" x="181.2238" y="-624.724" font-family="Times,serif" font-size="14.00" fill="#000000">Jug</text>
</g>
<!-- MCD_VAT&#45;&gt;MCD_JUG -->
<g id="edge19" class="edge">
<title>MCD_VAT&#45;&gt;MCD_JUG</title>
<path fill="none" stroke="#000000" d="M239.8504,-474.3385C228.3984,-504.535 205.3644,-565.2705 191.8279,-600.9633"/>
<polygon fill="#000000" stroke="#000000" points="188.3907,-600.1565 188.1172,-610.7478 194.9358,-602.6388 188.3907,-600.1565"/>
<text text-anchor="middle" x="204.9562" y="-541.8509" font-family="Times,serif" font-size="14.00" fill="#000000">rely</text>
</g>
<!-- MCD_POT -->
<g id="node8" class="node">
<title>MCD_POT</title>
<polygon fill="none" stroke="#000000" points="185.9545,-830.3286 131.9545,-830.3286 131.9545,-794.3286 185.9545,-794.3286 185.9545,-830.3286"/>
<text text-anchor="middle" x="158.9545" y="-808.1286" font-family="Times,serif" font-size="14.00" fill="#000000">Pot</text>
</g>
<!-- MCD_VAT&#45;&gt;MCD_POT -->
<g id="edge20" class="edge">
<title>MCD_VAT&#45;&gt;MCD_POT</title>
<path fill="none" stroke="#000000" d="M242.2638,-474.3294C227.9406,-532.4409 183.1439,-714.1881 165.8564,-784.3266"/>
<polygon fill="#000000" stroke="#000000" points="162.4143,-783.6669 163.4193,-794.214 169.2109,-785.3422 162.4143,-783.6669"/>
<text text-anchor="middle" x="214.943" y="-633.528" font-family="Times,serif" font-size="14.00" fill="#000000">rely</text>
</g>
<!-- MCD_VOW -->
<g id="node11" class="node">
<title>MCD_VOW</title>
<polygon fill="none" stroke="#000000" points="680.5667,-113.7592 626.5667,-113.7592 626.5667,-77.7592 680.5667,-77.7592 680.5667,-113.7592"/>
<text text-anchor="middle" x="653.5667" y="-91.5592" font-family="Times,serif" font-size="14.00" fill="#000000">Vow</text>
</g>
<!-- MCD_VAT&#45;&gt;MCD_VOW -->
<g id="edge18" class="edge">
<title>MCD_VAT&#45;&gt;MCD_VOW</title>
<path fill="none" stroke="#000000" d="M267.1912,-438.058C334.1963,-378.6966 547.2394,-189.9569 624.8942,-121.1608"/>
<polygon fill="#000000" stroke="#000000" points="627.6657,-123.3814 632.8299,-114.1303 623.0238,-118.1418 627.6657,-123.3814"/>
<text text-anchor="middle" x="435.1598" y="-283.8094" font-family="Times,serif" font-size="14.00" fill="#000000">rely</text>
</g>
<!-- MCD_CAT -->
<g id="node12" class="node">
<title>MCD_CAT</title>
<polygon fill="none" stroke="#000000" points="378.6886,-322.1306 324.6886,-322.1306 324.6886,-286.1306 378.6886,-286.1306 378.6886,-322.1306"/>
<text text-anchor="middle" x="351.6886" y="-299.9306" font-family="Times,serif" font-size="14.00" fill="#000000">Cat</text>
</g>
<!-- MCD_VAT&#45;&gt;MCD_CAT -->
<g id="edge23" class="edge">
<title>MCD_VAT&#45;&gt;MCD_CAT</title>
<path fill="none" stroke="#000000" d="M259.1891,-438.1393C277.5731,-411.5054 312.0928,-361.4949 333.3684,-330.672"/>
<polygon fill="#000000" stroke="#000000" points="336.4532,-332.3641 339.2534,-322.146 330.6923,-328.3876 336.4532,-332.3641"/>
<text text-anchor="middle" x="285.3958" y="-388.6056" font-family="Times,serif" font-size="14.00" fill="#000000">rely</text>
</g>
<!-- MCD_SPOT -->
<g id="node13" class="node">
<title>MCD_SPOT</title>
<polygon fill="none" stroke="#000000" points="209.6646,-1013.7333 152.7831,-1013.7333 152.7831,-977.7333 209.6646,-977.7333 209.6646,-1013.7333"/>
<text text-anchor="middle" x="181.2238" y="-991.5333" font-family="Times,serif" font-size="14.00" fill="#000000">Spotter</text>
</g>
<!-- MCD_VAT&#45;&gt;MCD_SPOT -->
<g id="edge16" class="edge">
<title>MCD_VAT&#45;&gt;MCD_SPOT</title>
<path fill="none" stroke="#000000" d="M244.5204,-474.4393C234.8677,-553.9363 196.4667,-870.1966 184.6814,-967.2575"/>
<polygon fill="#000000" stroke="#000000" points="181.1716,-967.1277 183.4406,-977.4767 188.1205,-967.9715 181.1716,-967.1277"/>
<text text-anchor="middle" x="203.718" y="-725.0484" font-family="Times,serif" font-size="14.00" fill="#000000">rely</text>
</g>
<!-- MCD_PAUSE_PROXY -->
<g id="node16" class="node">
<title>MCD_PAUSE_PROXY</title>
<polygon fill="none" stroke="#000000" points="296.7265,-1186.4791 196.7489,-1186.4791 196.7489,-1150.4791 296.7265,-1150.4791 296.7265,-1186.4791"/>
<text text-anchor="middle" x="246.7377" y="-1164.2791" font-family="Times,serif" font-size="14.00" fill="#000000">DSPauseProxy</text>
</g>
<!-- MCD_VAT&#45;&gt;MCD_PAUSE_PROXY -->
<g id="edge29" class="edge">
<title>MCD_VAT&#45;&gt;MCD_PAUSE_PROXY</title>
<path fill="none" stroke="#000000" d="M246.7377,-474.5015C246.7377,-571.2149 246.7377,-1022.3379 246.7377,-1140.2308"/>
<polygon fill="#000000" stroke="#000000" points="243.2378,-1140.2768 246.7377,-1150.2769 250.2378,-1140.2769 243.2378,-1140.2768"/>
<text text-anchor="middle" x="235.8548" y="-811.5662" font-family="Times,serif" font-size="14.00" fill="#000000">rely</text>
</g>
<!-- MCD_END -->
<g id="node21" class="node">
<title>MCD_END</title>
<polygon fill="none" stroke="#000000" points="1525.9627,-1338.5267 1471.9627,-1338.5267 1471.9627,-1302.5267 1525.9627,-1302.5267 1525.9627,-1338.5267"/>
<text text-anchor="middle" x="1498.9627" y="-1316.3267" font-family="Times,serif" font-size="14.00" fill="#000000">End</text>
</g>
<!-- MCD_VAT&#45;&gt;MCD_END -->
<g id="edge25" class="edge">
<title>MCD_VAT&#45;&gt;MCD_END</title>
<path fill="none" stroke="#000000" d="M272.8922,-474.2313C433.1451,-584.8459 1281.4926,-1170.418 1464.251,-1296.567"/>
<polygon fill="#000000" stroke="#000000" points="1462.4706,-1299.5909 1472.6887,-1302.3911 1466.4471,-1293.83 1462.4706,-1299.5909"/>
<text text-anchor="middle" x="857.6887" y="-889.5992" font-family="Times,serif" font-size="14.00" fill="#000000">rely</text>
</g>
<!-- ETHJoin_A -->
<g id="node23" class="node">
<title>ETHJoin_A</title>
<polygon fill="none" stroke="#000000" points="93.3571,-965.9683 10.0484,-965.9683 10.0484,-929.9683 93.3571,-929.9683 93.3571,-965.9683"/>
<text text-anchor="middle" x="51.7028" y="-943.7683" font-family="Times,serif" font-size="14.00" fill="#000000">ETHJoin_A</text>
</g>
<!-- MCD_VAT&#45;&gt;ETHJoin_A -->
<g id="edge39" class="edge">
<title>MCD_VAT&#45;&gt;ETHJoin_A</title>
<path fill="none" stroke="#000000" d="M239.565,-474.2645C210.1175,-548.5177 98.3834,-830.2607 62.7164,-920.1968"/>
<polygon fill="#000000" stroke="#000000" points="59.3737,-919.1316 58.9407,-929.7175 65.8807,-921.7121 59.3737,-919.1316"/>
<text text-anchor="middle" x="140.2578" y="-701.4306" font-family="Times,serif" font-size="14.00" fill="#000000">rely</text>
</g>
<!-- ETHJoin_B -->
<g id="node25" class="node">
<title>ETHJoin_B</title>
<polygon fill="none" stroke="#000000" points="82.8255,-811.239 .0581,-811.239 .0581,-775.239 82.8255,-775.239 82.8255,-811.239"/>
<text text-anchor="middle" x="41.4418" y="-789.039" font-family="Times,serif" font-size="14.00" fill="#000000">ETHJoin_B</text>
</g>
<!-- MCD_VAT&#45;&gt;ETHJoin_B -->
<g id="edge42" class="edge">
<title>MCD_VAT&#45;&gt;ETHJoin_B</title>
<path fill="none" stroke="#000000" d="M235.7001,-474.3001C201.6553,-530.1958 98.1482,-700.1368 57.795,-766.3898"/>
<polygon fill="#000000" stroke="#000000" points="54.7467,-764.6664 52.534,-775.0276 60.7251,-768.3077 54.7467,-764.6664"/>
<text text-anchor="middle" x="135.8647" y="-624.5449" font-family="Times,serif" font-size="14.00" fill="#000000">rely</text>
</g>
<!-- ETHJoin_C -->
<g id="node27" class="node">
<title>ETHJoin_C</title>
<polygon fill="none" stroke="#000000" points="99.6819,-657.4746 16.9145,-657.4746 16.9145,-621.4746 99.6819,-621.4746 99.6819,-657.4746"/>
<text text-anchor="middle" x="58.2982" y="-635.2746" font-family="Times,serif" font-size="14.00" fill="#000000">ETHJoin_C</text>
</g>
<!-- MCD_VAT&#45;&gt;ETHJoin_C -->
<g id="edge45" class="edge">
<title>MCD_VAT&#45;&gt;ETHJoin_C</title>
<path fill="none" stroke="#000000" d="M227.9805,-474.4235C194.1179,-507.3618 122.7255,-576.8057 84.2211,-614.2592"/>
<polygon fill="#000000" stroke="#000000" points="81.7074,-611.8216 76.9796,-621.3031 86.5882,-616.8394 81.7074,-611.8216"/>
<text text-anchor="middle" x="145.2179" y="-548.5414" font-family="Times,serif" font-size="14.00" fill="#000000">rely</text>
</g>
<!-- COL1Join_A -->
<g id="node29" class="node">
<title>COL1Join_A</title>
<polygon fill="none" stroke="#000000" points="149.1998,-505.021 57.3225,-505.021 57.3225,-469.021 149.1998,-469.021 149.1998,-505.021"/>
<text text-anchor="middle" x="103.2611" y="-482.821" font-family="Times,serif" font-size="14.00" fill="#000000">COL1Join_A</text>
</g>
<!-- MCD_VAT&#45;&gt;COL1Join_A -->
<g id="edge48" class="edge">
<title>MCD_VAT&#45;&gt;COL1Join_A</title>
<path fill="none" stroke="#000000" d="M219.4131,-462.0521C202.3644,-465.717 179.7982,-470.568 159.0934,-475.0189"/>
<polygon fill="#000000" stroke="#000000" points="158.1522,-471.6412 149.1111,-477.1648 159.6234,-478.4849 158.1522,-471.6412"/>
<text text-anchor="middle" x="178.3704" y="-472.7355" font-family="Times,serif" font-size="14.00" fill="#000000">rely</text>
</g>
<!-- COL2Join_A -->
<g id="node31" class="node">
<title>COL2Join_A</title>
<polygon fill="none" stroke="#000000" points="223.0031,-359.4569 131.1258,-359.4569 131.1258,-323.4569 223.0031,-323.4569 223.0031,-359.4569"/>
<text text-anchor="middle" x="177.0644" y="-337.2569" font-family="Times,serif" font-size="14.00" fill="#000000">COL2Join_A</text>
</g>
<!-- MCD_VAT&#45;&gt;COL2Join_A -->
<g id="edge51" class="edge">
<title>MCD_VAT&#45;&gt;COL2Join_A</title>
<path fill="none" stroke="#000000" d="M235.6977,-438.0003C224.2824,-419.2041 206.3369,-389.6557 193.3041,-368.1964"/>
<polygon fill="#000000" stroke="#000000" points="196.2352,-366.2801 188.0527,-359.5497 190.2522,-369.9138 196.2352,-366.2801"/>
<text text-anchor="middle" x="203.618" y="-407.2983" font-family="Times,serif" font-size="14.00" fill="#000000">rely</text>
</g>
<!-- COL3Join_A -->
<g id="node33" class="node">
<title>COL3Join_A</title>
<polygon fill="none" stroke="#000000" points="322.3056,-229.939 230.4283,-229.939 230.4283,-193.939 322.3056,-193.939 322.3056,-229.939"/>
<text text-anchor="middle" x="276.367" y="-207.739" font-family="Times,serif" font-size="14.00" fill="#000000">COL3Join_A</text>
</g>
<!-- MCD_VAT&#45;&gt;COL3Join_A -->
<g id="edge54" class="edge">
<title>MCD_VAT&#45;&gt;COL3Join_A</title>
<path fill="none" stroke="#000000" d="M248.9647,-437.8206C254.0928,-395.5484 266.7652,-291.0881 272.9123,-240.4161"/>
<polygon fill="#000000" stroke="#000000" points="276.4247,-240.5253 274.1545,-230.1765 269.4756,-239.6822 276.4247,-240.5253"/>
<text text-anchor="middle" x="250.0556" y="-343.3183" font-family="Times,serif" font-size="14.00" fill="#000000">rely</text>
</g>
<!-- COL4Join_A -->
<g id="node35" class="node">
<title>COL4Join_A</title>
<polygon fill="none" stroke="#000000" points="443.7233,-120.8812 351.846,-120.8812 351.846,-84.8812 443.7233,-84.8812 443.7233,-120.8812"/>
<text text-anchor="middle" x="397.7847" y="-98.6812" font-family="Times,serif" font-size="14.00" fill="#000000">COL4Join_A</text>
</g>
<!-- MCD_VAT&#45;&gt;COL4Join_A -->
<g id="edge57" class="edge">
<title>MCD_VAT&#45;&gt;COL4Join_A</title>
<path fill="none" stroke="#000000" d="M254.4358,-438.1724C279.0748,-380.5421 356.1205,-200.3333 385.8845,-130.7157"/>
<polygon fill="#000000" stroke="#000000" points="389.208,-131.8452 389.921,-121.2744 382.7715,-129.0934 389.208,-131.8452"/>
<text text-anchor="middle" x="309.2772" y="-288.6441" font-family="Times,serif" font-size="14.00" fill="#000000">rely</text>
</g>
<!-- COL5Join_A -->
<g id="node37" class="node">
<title>COL5Join_A</title>
<polygon fill="none" stroke="#000000" points="583.1186,-36 491.2413,-36 491.2413,0 583.1186,0 583.1186,-36"/>
<text text-anchor="middle" x="537.1799" y="-13.8" font-family="Times,serif" font-size="14.00" fill="#000000">COL5Join_A</text>
</g>
<!-- MCD_VAT&#45;&gt;COL5Join_A -->
<g id="edge60" class="edge">
<title>MCD_VAT&#45;&gt;COL5Join_A</title>
<path fill="none" stroke="#000000" d="M258.8478,-437.9081C304.3333,-369.286 465.1241,-126.7076 519.2483,-45.0527"/>
<polygon fill="#000000" stroke="#000000" points="522.4105,-46.617 525.0181,-36.3481 516.5758,-42.7496 522.4105,-46.617"/>
<text text-anchor="middle" x="378.1652" y="-245.6804" font-family="Times,serif" font-size="14.00" fill="#000000">rely</text>
</g>
<!-- MCD_DAI -->
<g id="node5" class="node">
<title>MCD_DAI</title>
<polygon fill="none" stroke="#000000" points="1254.5521,-636.3286 1200.5521,-636.3286 1200.5521,-600.3286 1254.5521,-600.3286 1254.5521,-636.3286"/>
<text text-anchor="middle" x="1227.5521" y="-614.1286" font-family="Times,serif" font-size="14.00" fill="#000000">Dai</text>
</g>
<!-- MCD_JOIN_DAI -->
<g id="node6" class="node">
<title>MCD_JOIN_DAI</title>
<polygon fill="none" stroke="#000000" points="1385.8743,-636.3286 1326.7769,-636.3286 1326.7769,-600.3286 1385.8743,-600.3286 1385.8743,-636.3286"/>
<text text-anchor="middle" x="1356.3256" y="-614.1286" font-family="Times,serif" font-size="14.00" fill="#000000">DaiJoin</text>
</g>
<!-- MCD_DAI&#45;&gt;MCD_JOIN_DAI -->
<g id="edge17" class="edge">
<title>MCD_DAI&#45;&gt;MCD_JOIN_DAI</title>
<path fill="none" stroke="#000000" d="M1254.8617,-618.3286C1272.7167,-618.3286 1296.3422,-618.3286 1316.3031,-618.3286"/>
<polygon fill="#000000" stroke="#000000" points="1316.3574,-621.8287 1326.3574,-618.3286 1316.3573,-614.8287 1316.3574,-621.8287"/>
<text text-anchor="middle" x="1274.6995" y="-622.5286" font-family="Times,serif" font-size="14.00" fill="#000000">rely</text>
</g>
<!-- MCD_JUG&#45;&gt;MCD_PAUSE_PROXY -->
<g id="edge32" class="edge">
<title>MCD_JUG&#45;&gt;MCD_PAUSE_PROXY</title>
<path fill="none" stroke="#000000" d="M183.4411,-647.1851C193.0938,-726.6821 231.4948,-1042.9424 243.2801,-1140.0033"/>
<polygon fill="#000000" stroke="#000000" points="239.841,-1140.7173 244.5209,-1150.2225 246.79,-1139.8735 239.841,-1140.7173"/>
<text text-anchor="middle" x="202.4777" y="-897.7942" font-family="Times,serif" font-size="14.00" fill="#000000">rely</text>
</g>
<!-- MCD_POT&#45;&gt;MCD_PAUSE_PROXY -->
<g id="edge33" class="edge">
<title>MCD_POT&#45;&gt;MCD_PAUSE_PROXY</title>
<path fill="none" stroke="#000000" d="M163.4283,-830.4798C177.7516,-888.5914 222.5482,-1070.3386 239.8358,-1140.477"/>
<polygon fill="#000000" stroke="#000000" points="236.4813,-1141.4926 242.2728,-1150.3644 243.2779,-1139.8174 236.4813,-1141.4926"/>
<text text-anchor="middle" x="212.515" y="-972.8784" font-family="Times,serif" font-size="14.00" fill="#000000">rely</text>
</g>
<!-- MCD_FLAP -->
<g id="node9" class="node">
<title>MCD_FLAP</title>
<polygon fill="none" stroke="#000000" points="519.2407,-199.6175 460.7137,-199.6175 460.7137,-163.6175 519.2407,-163.6175 519.2407,-199.6175"/>
<text text-anchor="middle" x="489.9772" y="-177.4175" font-family="Times,serif" font-size="14.00" fill="#000000">Flapper</text>
</g>
<!-- MCD_FLAP&#45;&gt;MCD_VOW -->
<g id="edge21" class="edge">
<title>MCD_FLAP&#45;&gt;MCD_VOW</title>
<path fill="none" stroke="#000000" d="M519.602,-166.0692C547.0193,-151.6795 587.8583,-130.2456 617.2335,-114.8283"/>
<polygon fill="#000000" stroke="#000000" points="619.1085,-117.797 626.3365,-110.0506 615.8554,-111.5988 619.1085,-117.797"/>
<text text-anchor="middle" x="557.5349" y="-144.6488" font-family="Times,serif" font-size="14.00" fill="#000000">rely</text>
</g>
<!-- MCD_FLAP&#45;&gt;MCD_PAUSE_PROXY -->
<g id="edge35" class="edge">
<title>MCD_FLAP&#45;&gt;MCD_PAUSE_PROXY</title>
<path fill="none" stroke="#000000" d="M485.4421,-200.0171C455.8119,-320.2314 289.9038,-993.3473 253.7108,-1140.1879"/>
<polygon fill="#000000" stroke="#000000" points="250.2364,-1139.6592 251.2415,-1150.2063 257.033,-1141.3345 250.2364,-1139.6592"/>
<text text-anchor="middle" x="358.6936" y="-674.3025" font-family="Times,serif" font-size="14.00" fill="#000000">rely</text>
</g>
<!-- MCD_FLOP -->
<g id="node10" class="node">
<title>MCD_FLOP</title>
<polygon fill="none" stroke="#000000" points="862.4999,-69.5452 803.3997,-69.5452 803.3997,-33.5452 862.4999,-33.5452 862.4999,-69.5452"/>
<text text-anchor="middle" x="832.9498" y="-47.3452" font-family="Times,serif" font-size="14.00" fill="#000000">Flopper</text>
</g>
<!-- MCD_FLOP&#45;&gt;MCD_VOW -->
<g id="edge22" class="edge">
<title>MCD_FLOP&#45;&gt;MCD_VOW</title>
<path fill="none" stroke="#000000" d="M803.3283,-58.8462C772.3958,-66.4704 723.8219,-78.4428 690.4287,-86.6735"/>
<polygon fill="#000000" stroke="#000000" points="689.4608,-83.3072 680.589,-89.0987 691.1361,-90.1038 689.4608,-83.3072"/>
<text text-anchor="middle" x="735.9956" y="-76.9598" font-family="Times,serif" font-size="14.00" fill="#000000">rely</text>
</g>
<!-- MCD_FLOP&#45;&gt;MCD_PAUSE_PROXY -->
<g id="edge36" class="edge">
<title>MCD_FLOP&#45;&gt;MCD_PAUSE_PROXY</title>
<path fill="none" stroke="#000000" d="M823.2641,-69.9998C754.7325,-200.5758 343.3426,-984.4137 261.0568,-1141.1962"/>
<polygon fill="#000000" stroke="#000000" points="257.8755,-1139.7264 256.3273,-1150.2075 264.0737,-1142.9795 257.8755,-1139.7264"/>
<text text-anchor="middle" x="531.2776" y="-609.798" font-family="Times,serif" font-size="14.00" fill="#000000">rely</text>
</g>
<!-- MCD_VOW&#45;&gt;MCD_CAT -->
<g id="edge24" class="edge">
<title>MCD_VOW&#45;&gt;MCD_CAT</title>
<path fill="none" stroke="#000000" d="M627.3051,-113.8862C572.8892,-151.4468 447.8101,-237.7827 386.6485,-279.9995"/>
<polygon fill="#000000" stroke="#000000" points="384.3461,-277.3359 378.1045,-285.897 388.3225,-283.0968 384.3461,-277.3359"/>
<text text-anchor="middle" x="517.8597" y="-201.1429" font-family="Times,serif" font-size="14.00" fill="#000000">rely</text>
</g>
<!-- MCD_VOW&#45;&gt;MCD_PAUSE_PROXY -->
<g id="edge31" class="edge">
<title>MCD_VOW&#45;&gt;MCD_PAUSE_PROXY</title>
<path fill="none" stroke="#000000" d="M646.6761,-113.9281C598.8054,-240.1528 315.989,-985.8784 257.3704,-1140.443"/>
<polygon fill="#000000" stroke="#000000" points="253.9639,-1139.555 253.6904,-1150.1463 260.509,-1142.0373 253.9639,-1139.555"/>
<text text-anchor="middle" x="441.1403" y="-631.3856" font-family="Times,serif" font-size="14.00" fill="#000000">rely</text>
</g>
<!-- MCD_VOW&#45;&gt;MCD_END -->
<g id="edge27" class="edge">
<title>MCD_VOW&#45;&gt;MCD_END</title>
<path fill="none" stroke="#000000" d="M666.1734,-114.0231C761.3231,-251.8712 1366.0241,-1127.9319 1480.3327,-1293.5365"/>
<polygon fill="#000000" stroke="#000000" points="1477.7221,-1295.9158 1486.2833,-1302.1574 1483.483,-1291.9393 1477.7221,-1295.9158"/>
<text text-anchor="middle" x="1062.3701" y="-707.9798" font-family="Times,serif" font-size="14.00" fill="#000000">rely</text>
</g>
<!-- MCD_CAT&#45;&gt;MCD_PAUSE_PROXY -->
<g id="edge30" class="edge">
<title>MCD_CAT&#45;&gt;MCD_PAUSE_PROXY</title>
<path fill="none" stroke="#000000" d="M349.4965,-322.1837C336.2126,-431.5865 266.5151,-1005.5971 250.1703,-1140.2092"/>
<polygon fill="#000000" stroke="#000000" points="246.6929,-1139.8118 248.9619,-1150.1608 253.6419,-1140.6557 246.6929,-1139.8118"/>
<text text-anchor="middle" x="288.9505" y="-735.3964" font-family="Times,serif" font-size="14.00" fill="#000000">rely</text>
</g>
<!-- MCD_CAT&#45;&gt;MCD_END -->
<g id="edge26" class="edge">
<title>MCD_CAT&#45;&gt;MCD_END</title>
<path fill="none" stroke="#000000" d="M372.0886,-322.2034C510.4488,-444.7798 1310.5816,-1153.6356 1470.9736,-1295.7306"/>
<polygon fill="#000000" stroke="#000000" points="1468.7375,-1298.4255 1478.5435,-1302.4369 1473.3794,-1293.1859 1468.7375,-1298.4255"/>
<text text-anchor="middle" x="910.6482" y="-813.167" font-family="Times,serif" font-size="14.00" fill="#000000">rely</text>
</g>
<!-- MCD_SPOT&#45;&gt;MCD_PAUSE_PROXY -->
<g id="edge34" class="edge">
<title>MCD_SPOT&#45;&gt;MCD_PAUSE_PROXY</title>
<path fill="none" stroke="#000000" d="M188.1111,-1013.8936C199.5632,-1044.0901 222.5971,-1104.8256 236.1336,-1140.5184"/>
<polygon fill="#000000" stroke="#000000" points="233.0257,-1142.1938 239.8443,-1150.3029 239.5708,-1139.7115 233.0257,-1142.1938"/>
<text text-anchor="middle" x="201.2395" y="-1081.406" font-family="Times,serif" font-size="14.00" fill="#000000">rely</text>
</g>
<!-- MCD_GOV -->
<g id="node14" class="node">
<title>MCD_GOV</title>
<polygon fill="none" stroke="#000000" points="1044.7015,-69.5452 990.7015,-69.5452 990.7015,-33.5452 1044.7015,-33.5452 1044.7015,-69.5452"/>
<text text-anchor="middle" x="1017.7015" y="-47.3452" font-family="Times,serif" font-size="14.00" fill="#000000">MKR</text>
</g>
<!-- MCD_GOV&#45;&gt;deployer -->
<g id="edge11" class="edge">
<title>MCD_GOV&#45;&gt;deployer</title>
<path fill="none" stroke="#000000" d="M1044.9459,-58.2603C1073.991,-65.4193 1120.381,-76.8534 1154.3072,-85.2155"/>
<polygon fill="#000000" stroke="#000000" points="1153.8559,-88.7089 1164.4029,-87.7038 1155.5312,-81.9123 1153.8559,-88.7089"/>
<text text-anchor="middle" x="1082.1357" y="-75.9379" font-family="Times,serif" font-size="14.00" fill="#000000">owner</text>
</g>
<!-- MCD_GOV&#45;&gt;MCD_FLOP -->
<g id="edge38" class="edge">
<title>MCD_GOV&#45;&gt;MCD_FLOP</title>
<path fill="none" stroke="#000000" d="M990.4407,-51.5452C959.3795,-51.5452 908.3337,-51.5452 872.8073,-51.5452"/>
<polygon fill="#000000" stroke="#000000" points="872.7745,-48.0453 862.7745,-51.5452 872.7744,-55.0453 872.7745,-48.0453"/>
<text text-anchor="middle" x="898.1843" y="-55.7452" font-family="Times,serif" font-size="14.00" fill="#000000">permit&#45;mint</text>
</g>
<!-- MCD_GOV_GUARD -->
<g id="node17" class="node">
<title>MCD_GOV_GUARD</title>
<polygon fill="none" stroke="#000000" points="1538.0522,-322.1306 1459.8732,-322.1306 1459.8732,-286.1306 1538.0522,-286.1306 1538.0522,-322.1306"/>
<text text-anchor="middle" x="1498.9627" y="-299.9306" font-family="Times,serif" font-size="14.00" fill="#000000">Gov Guard</text>
</g>
<!-- MCD_GOV&#45;&gt;MCD_GOV_GUARD -->
<g id="edge8" class="edge">
<title>MCD_GOV&#45;&gt;MCD_GOV_GUARD</title>
<path fill="none" stroke="#000000" d="M1044.9551,-65.849C1124.7037,-107.7043 1358.0924,-230.1961 1455.4873,-281.3129"/>
<polygon fill="#000000" stroke="#000000" points="1453.9972,-284.4836 1464.4784,-286.0318 1457.2503,-278.2854 1453.9972,-284.4836"/>
<text text-anchor="middle" x="1224.9477" y="-177.7809" font-family="Times,serif" font-size="14.00" fill="#000000">authority</text>
</g>
<!-- MCD_PAUSE -->
<g id="node15" class="node">
<title>MCD_PAUSE</title>
<polygon fill="none" stroke="#000000" points="1702.4746,-1013.7333 1636.3803,-1013.7333 1636.3803,-977.7333 1702.4746,-977.7333 1702.4746,-1013.7333"/>
<text text-anchor="middle" x="1669.4274" y="-991.5333" font-family="Times,serif" font-size="14.00" fill="#000000">DSPause</text>
</g>
<!-- MCD_PAUSE&#45;&gt;zero -->
<g id="edge2" class="edge">
<title>MCD_PAUSE&#45;&gt;zero</title>
<path fill="none" stroke="#000000" d="M1671.6441,-977.4772C1675.5292,-945.4807 1683.5945,-879.0567 1688.2254,-840.918"/>
<polygon fill="#000000" stroke="#000000" points="1691.7581,-840.8599 1689.4891,-830.5109 1684.8091,-840.016 1691.7581,-840.8599"/>
<text text-anchor="middle" x="1662.4439" y="-913.3976" font-family="Times,serif" font-size="14.00" fill="#000000">owner</text>
</g>
<!-- MCD_ADM -->
<g id="node19" class="node">
<title>MCD_ADM</title>
<polygon fill="none" stroke="#000000" points="1701.919,-646.924 1636.9358,-646.924 1636.9358,-610.924 1701.919,-610.924 1701.919,-646.924"/>
<text text-anchor="middle" x="1669.4274" y="-624.724" font-family="Times,serif" font-size="14.00" fill="#000000">DSChief</text>
</g>
<!-- MCD_PAUSE&#45;&gt;MCD_ADM -->
<g id="edge3" class="edge">
<title>MCD_PAUSE&#45;&gt;MCD_ADM</title>
<path fill="none" stroke="#000000" d="M1669.4274,-977.5431C1669.4274,-918.1427 1669.4274,-729.5445 1669.4274,-657.3833"/>
<polygon fill="#000000" stroke="#000000" points="1672.9275,-657.2239 1669.4274,-647.2239 1665.9275,-657.224 1672.9275,-657.2239"/>
<text text-anchor="middle" x="1644.1539" y="-821.6632" font-family="Times,serif" font-size="14.00" fill="#000000">authority</text>
</g>
<!-- MCD_PAUSE_PROXY&#45;&gt;MCD_PAUSE -->
<g id="edge14" class="edge">
<title>MCD_PAUSE_PROXY&#45;&gt;MCD_PAUSE</title>
<path fill="none" stroke="#000000" d="M296.9541,-1162.3817C519.9091,-1135.3101 1418.3613,-1026.2182 1626.3117,-1000.9684"/>
<polygon fill="#000000" stroke="#000000" points="1626.7414,-1004.4421 1636.2466,-999.7621 1625.8976,-997.4931 1626.7414,-1004.4421"/>
<text text-anchor="middle" x="944.142" y="-1085.8751" font-family="Times,serif" font-size="14.00" fill="#000000">owner</text>
</g>
<!-- MCD_GOV_GUARD&#45;&gt;zero -->
<g id="edge4" class="edge">
<title>MCD_GOV_GUARD&#45;&gt;zero</title>
<path fill="none" stroke="#000000" d="M1503.0073,-322.2704C1526.3474,-398.5691 1637.9686,-693.5196 1677.8101,-785.0762"/>
<polygon fill="#000000" stroke="#000000" points="1674.624,-786.5257 1681.8716,-794.2539 1681.0253,-783.6929 1674.624,-786.5257"/>
<text text-anchor="middle" x="1565.1352" y="-557.8733" font-family="Times,serif" font-size="14.00" fill="#000000">authority</text>
</g>
<!-- MCD_GOV_GUARD&#45;&gt;zero -->
<g id="edge13" class="edge">
<title>MCD_GOV_GUARD&#45;&gt;zero</title>
<path fill="none" stroke="#000000" d="M1508.7592,-322.1417C1543.0482,-398.0482 1654.6969,-692.0076 1684.5614,-784.3922"/>
<polygon fill="#000000" stroke="#000000" points="1681.2938,-785.668 1687.6407,-794.1514 1687.9693,-783.5616 1681.2938,-785.668"/>
<text text-anchor="middle" x="1579.1694" y="-540.6669" font-family="Times,serif" font-size="14.00" fill="#000000">owner</text>
</g>
<!-- MCD_IOU -->
<g id="node18" class="node">
<title>MCD_IOU</title>
<polygon fill="none" stroke="#000000" points="1630.9136,-474.1782 1576.9136,-474.1782 1576.9136,-438.1782 1630.9136,-438.1782 1630.9136,-474.1782"/>
<text text-anchor="middle" x="1603.9136" y="-451.9782" font-family="Times,serif" font-size="14.00" fill="#000000">IOU</text>
</g>
<!-- MCD_IOU&#45;&gt;zero -->
<g id="edge12" class="edge">
<title>MCD_IOU&#45;&gt;zero</title>
<path fill="none" stroke="#000000" d="M1608.3875,-474.3294C1622.7107,-532.4409 1667.5073,-714.1881 1684.7949,-784.3266"/>
<polygon fill="#000000" stroke="#000000" points="1681.4404,-785.3422 1687.2319,-794.214 1688.237,-783.6669 1681.4404,-785.3422"/>
<text text-anchor="middle" x="1629.1003" y="-633.528" font-family="Times,serif" font-size="14.00" fill="#000000">owner</text>
</g>
<!-- MCD_IOU&#45;&gt;MCD_GOV_GUARD -->
<g id="edge5" class="edge">
<title>MCD_IOU&#45;&gt;MCD_GOV_GUARD</title>
<path fill="none" stroke="#000000" d="M1591.4622,-438.1393C1573.0782,-411.5054 1538.5585,-361.4949 1517.2829,-330.672"/>
<polygon fill="#000000" stroke="#000000" points="1519.959,-328.3876 1511.3979,-322.146 1514.1981,-332.3641 1519.959,-328.3876"/>
<text text-anchor="middle" x="1529.0991" y="-388.6056" font-family="Times,serif" font-size="14.00" fill="#000000">authority</text>
</g>
<!-- MCD_IOU&#45;&gt;MCD_ADM -->
<g id="edge63" class="edge">
<title>MCD_IOU&#45;&gt;MCD_ADM</title>
<path fill="none" stroke="#000000" d="M1606.2881,-474.2236C1614.5415,-504.5562 1637.417,-565.8471 1653.4567,-601.5162"/>
<polygon fill="#000000" stroke="#000000" points="1650.4018,-603.2484 1657.7816,-610.8503 1656.7531,-600.3054 1650.4018,-603.2484"/>
<text text-anchor="middle" x="1663.3121" y="-542.0699" font-family="Times,serif" font-size="14.00" fill="#000000">permit&#45;mint</text>
</g>
<!-- MCD_IOU&#45;&gt;MCD_ADM -->
<g id="edge64" class="edge">
<title>MCD_IOU&#45;&gt;MCD_ADM</title>
<path fill="none" stroke="#000000" d="M1615.6308,-474.4008C1630.1102,-504.6148 1653.2706,-565.1975 1664.1531,-600.8851"/>
<polygon fill="#000000" stroke="#000000" points="1660.8457,-602.0462 1666.9968,-610.6726 1667.5677,-600.0931 1660.8457,-602.0462"/>
<text text-anchor="middle" x="1673.3261" y="-525.0429" font-family="Times,serif" font-size="14.00" fill="#000000">permit&#45;burn</text>
</g>
<!-- MCD_ADM&#45;&gt;zero -->
<g id="edge10" class="edge">
<title>MCD_ADM&#45;&gt;zero</title>
<path fill="none" stroke="#000000" d="M1671.6441,-647.1801C1675.5292,-679.1766 1683.5945,-745.6005 1688.2254,-783.7393"/>
<polygon fill="#000000" stroke="#000000" points="1684.8091,-784.6412 1689.4891,-794.1464 1691.7581,-783.7974 1684.8091,-784.6412"/>
<text text-anchor="middle" x="1662.4439" y="-719.6597" font-family="Times,serif" font-size="14.00" fill="#000000">owner</text>
</g>
<!-- MCD_ADM&#45;&gt;MCD_ADM -->
<g id="edge6" class="edge">
<title>MCD_ADM&#45;&gt;MCD_ADM</title>
<path fill="none" stroke="#000000" d="M1701.9672,-635.6674C1712.0251,-635.5312 1719.9232,-633.2834 1719.9232,-628.924 1719.9232,-626.1994 1716.838,-624.2996 1712.0686,-623.2247"/>
<polygon fill="#000000" stroke="#000000" points="1712.2741,-619.7274 1701.9672,-622.1806 1711.5543,-626.6903 1712.2741,-619.7274"/>
<text text-anchor="middle" x="1745.1967" y="-624.724" font-family="Times,serif" font-size="14.00" fill="#000000">authority</text>
</g>
<!-- PROXY_DEPLOYER -->
<g id="node20" class="node">
<title>PROXY_DEPLOYER</title>
<polygon fill="none" stroke="#000000" points="1413.2043,-199.6175 1308.1439,-199.6175 1308.1439,-163.6175 1413.2043,-163.6175 1413.2043,-199.6175"/>
<text text-anchor="middle" x="1360.6741" y="-177.4175" font-family="Times,serif" font-size="14.00" fill="#000000">Proxy Deployer</text>
</g>
<!-- PROXY_DEPLOYER&#45;&gt;zero -->
<g id="edge7" class="edge">
<title>PROXY_DEPLOYER&#45;&gt;zero</title>
<path fill="none" stroke="#000000" d="M1370.224,-199.8133C1416.9403,-288.8239 1621.4064,-678.4014 1677.448,-785.1798"/>
<polygon fill="#000000" stroke="#000000" points="1674.3618,-786.831 1682.1082,-794.059 1680.56,-783.5779 1674.3618,-786.831"/>
<text text-anchor="middle" x="1498.5625" y="-496.6966" font-family="Times,serif" font-size="14.00" fill="#000000">authority</text>
</g>
<!-- PROXY_DEPLOYER&#45;&gt;deployer -->
<g id="edge15" class="edge">
<title>PROXY_DEPLOYER&#45;&gt;deployer</title>
<path fill="none" stroke="#000000" d="M1325.981,-163.4092C1300.56,-150.0672 1265.9313,-131.8927 1238.9678,-117.7412"/>
<polygon fill="#000000" stroke="#000000" points="1240.2589,-114.4661 1229.7778,-112.9179 1237.0058,-120.6643 1240.2589,-114.4661"/>
<text text-anchor="middle" x="1264.9835" y="-144.7752" font-family="Times,serif" font-size="14.00" fill="#000000">owner</text>
</g>
<!-- MCD_END&#45;&gt;MCD_PAUSE_PROXY -->
<g id="edge37" class="edge">
<title>MCD_END&#45;&gt;MCD_PAUSE_PROXY</title>
<path fill="none" stroke="#000000" d="M1471.937,-1317.2452C1316.0636,-1298.3187 531.0415,-1202.9998 306.6973,-1175.7595"/>
<polygon fill="#000000" stroke="#000000" points="307.1039,-1172.2832 296.7549,-1174.5523 306.26,-1179.2322 307.1039,-1172.2832"/>
<text text-anchor="middle" x="878.4342" y="-1250.7023" font-family="Times,serif" font-size="14.00" fill="#000000">rely</text>
</g>
<!-- MCD_ESM -->
<g id="node22" class="node">
<title>MCD_ESM</title>
<polygon fill="none" stroke="#000000" points="1600.0653,-1404.1759 1546.0653,-1404.1759 1546.0653,-1368.1759 1600.0653,-1368.1759 1600.0653,-1404.1759"/>
<text text-anchor="middle" x="1573.0653" y="-1381.9759" font-family="Times,serif" font-size="14.00" fill="#000000">ESM</text>
</g>
<!-- MCD_END&#45;&gt;MCD_ESM -->
<g id="edge28" class="edge">
<title>MCD_END&#45;&gt;MCD_ESM</title>
<path fill="none" stroke="#000000" d="M1519.6044,-1338.8137C1527.4735,-1345.7851 1536.5801,-1353.8528 1545.0224,-1361.3321"/>
<polygon fill="#000000" stroke="#000000" points="1542.7282,-1363.9755 1552.5343,-1367.987 1547.3701,-1358.7359 1542.7282,-1363.9755"/>
<text text-anchor="middle" x="1521.4305" y="-1354.2729" font-family="Times,serif" font-size="14.00" fill="#000000">rely</text>
</g>
<!-- Flipper_ETH&#45;A -->
<g id="node24" class="node">
<title>Flipper_ETH&#45;A</title>
<polygon fill="none" stroke="#000000" points="404.6074,-1338.5267 298.7698,-1338.5267 298.7698,-1302.5267 404.6074,-1302.5267 404.6074,-1338.5267"/>
<text text-anchor="middle" x="351.6886" y="-1316.3267" font-family="Times,serif" font-size="14.00" fill="#000000">Flipper_ETH&#45;A</text>
</g>
<!-- Flipper_ETH&#45;A&#45;&gt;MCD_PAUSE_PROXY -->
<g id="edge41" class="edge">
<title>Flipper_ETH&#45;A&#45;&gt;MCD_PAUSE_PROXY</title>
<path fill="none" stroke="#000000" d="M339.2372,-1302.4878C320.8532,-1275.8539 286.3335,-1225.8435 265.0579,-1195.0205"/>
<polygon fill="#000000" stroke="#000000" points="267.734,-1192.7361 259.1729,-1186.4945 261.9731,-1196.7126 267.734,-1192.7361"/>
<text text-anchor="middle" x="291.2647" y="-1252.9541" font-family="Times,serif" font-size="14.00" fill="#000000">rely</text>
</g>
<!-- Flipper_ETH&#45;A&#45;&gt;MCD_END -->
<g id="edge40" class="edge">
<title>Flipper_ETH&#45;A&#45;&gt;MCD_END</title>
<path fill="none" stroke="#000000" d="M404.7231,-1320.5267C602.3219,-1320.5267 1293.0398,-1320.5267 1461.6332,-1320.5267"/>
<polygon fill="#000000" stroke="#000000" points="1461.7499,-1324.0268 1471.7499,-1320.5267 1461.7498,-1317.0268 1461.7499,-1324.0268"/>
<text text-anchor="middle" x="922.2952" y="-1324.7267" font-family="Times,serif" font-size="14.00" fill="#000000">rely</text>
</g>
<!-- Flipper_ETH&#45;B -->
<g id="node26" class="node">
<title>Flipper_ETH&#45;B</title>
<polygon fill="none" stroke="#000000" points="542.1258,-1461.0397 437.8286,-1461.0397 437.8286,-1425.0397 542.1258,-1425.0397 542.1258,-1461.0397"/>
<text text-anchor="middle" x="489.9772" y="-1438.8397" font-family="Times,serif" font-size="14.00" fill="#000000">Flipper_ETH&#45;B</text>
</g>
<!-- Flipper_ETH&#45;B&#45;&gt;MCD_PAUSE_PROXY -->
<g id="edge44" class="edge">
<title>Flipper_ETH&#45;B&#45;&gt;MCD_PAUSE_PROXY</title>
<path fill="none" stroke="#000000" d="M474.0176,-1425.025C432.01,-1377.6083 318.2616,-1249.2129 269.4676,-1194.1358"/>
<polygon fill="#000000" stroke="#000000" points="272.0071,-1191.7243 262.7561,-1186.5601 266.7675,-1196.3662 272.0071,-1191.7243"/>
<text text-anchor="middle" x="360.8597" y="-1296.9804" font-family="Times,serif" font-size="14.00" fill="#000000">rely</text>
</g>
<!-- Flipper_ETH&#45;B&#45;&gt;MCD_END -->
<g id="edge43" class="edge">
<title>Flipper_ETH&#45;B&#45;&gt;MCD_END</title>
<path fill="none" stroke="#000000" d="M542.4515,-1436.6682C721.598,-1414.9159 1306.4841,-1343.8978 1461.1579,-1325.117"/>
<polygon fill="#000000" stroke="#000000" points="1462.0343,-1328.5364 1471.5394,-1323.8565 1461.1904,-1321.5875 1462.0343,-1328.5364"/>
<text text-anchor="middle" x="990.9218" y="-1385.0926" font-family="Times,serif" font-size="14.00" fill="#000000">rely</text>
</g>
<!-- Flipper_ETH&#45;C -->
<g id="node28" class="node">
<title>Flipper_ETH&#45;C</title>
<polygon fill="none" stroke="#000000" points="705.7153,-1546.8981 601.4181,-1546.8981 601.4181,-1510.8981 705.7153,-1510.8981 705.7153,-1546.8981"/>
<text text-anchor="middle" x="653.5667" y="-1524.6981" font-family="Times,serif" font-size="14.00" fill="#000000">Flipper_ETH&#45;C</text>
</g>
<!-- Flipper_ETH&#45;C&#45;&gt;MCD_PAUSE_PROXY -->
<g id="edge47" class="edge">
<title>Flipper_ETH&#45;C&#45;&gt;MCD_PAUSE_PROXY</title>
<path fill="none" stroke="#000000" d="M633.1132,-1510.7779C566.1081,-1451.4166 353.065,-1262.6768 275.4102,-1193.8807"/>
<polygon fill="#000000" stroke="#000000" points="277.2805,-1190.8617 267.4744,-1186.8502 272.6386,-1196.1013 277.2805,-1190.8617"/>
<text text-anchor="middle" x="443.3788" y="-1356.5293" font-family="Times,serif" font-size="14.00" fill="#000000">rely</text>
</g>
<!-- Flipper_ETH&#45;C&#45;&gt;MCD_END -->
<g id="edge46" class="edge">
<title>Flipper_ETH&#45;C&#45;&gt;MCD_END</title>
<path fill="none" stroke="#000000" d="M705.812,-1516.0208C862.6422,-1477.3656 1326.8232,-1362.9553 1461.7735,-1329.693"/>
<polygon fill="#000000" stroke="#000000" points="1462.7673,-1333.0529 1471.6391,-1327.2614 1461.092,-1326.2563 1462.7673,-1333.0529"/>
<text text-anchor="middle" x="1072.9098" y="-1427.0569" font-family="Times,serif" font-size="14.00" fill="#000000">rely</text>
</g>
<!-- Flipper_COL1&#45;A -->
<g id="node30" class="node">
<title>Flipper_COL1&#45;A</title>
<polygon fill="none" stroke="#000000" points="889.652,-1591.1121 776.2476,-1591.1121 776.2476,-1555.1121 889.652,-1555.1121 889.652,-1591.1121"/>
<text text-anchor="middle" x="832.9498" y="-1568.9121" font-family="Times,serif" font-size="14.00" fill="#000000">Flipper_COL1&#45;A</text>
</g>
<!-- Flipper_COL1&#45;A&#45;&gt;MCD_PAUSE_PROXY -->
<g id="edge50" class="edge">
<title>Flipper_COL1&#45;A&#45;&gt;MCD_PAUSE_PROXY</title>
<path fill="none" stroke="#000000" d="M806.6227,-1554.9398C711.927,-1489.5761 388.5901,-1266.3928 281.5013,-1192.4746"/>
<polygon fill="#000000" stroke="#000000" points="283.2104,-1189.4015 272.9923,-1186.6013 279.2339,-1195.1624 283.2104,-1189.4015"/>
<text text-anchor="middle" x="533.1791" y="-1377.9072" font-family="Times,serif" font-size="14.00" fill="#000000">rely</text>
</g>
<!-- Flipper_COL1&#45;A&#45;&gt;MCD_END -->
<g id="edge49" class="edge">
<title>Flipper_COL1&#45;A&#45;&gt;MCD_END</title>
<path fill="none" stroke="#000000" d="M880.5805,-1555.0481C1007.0183,-1507.0966 1349.1539,-1377.3417 1462.1733,-1334.4791"/>
<polygon fill="#000000" stroke="#000000" points="1463.6591,-1337.6589 1471.7681,-1330.8402 1461.1768,-1331.1138 1463.6591,-1337.6589"/>
<text text-anchor="middle" x="1160.494" y="-1448.9636" font-family="Times,serif" font-size="14.00" fill="#000000">rely</text>
</g>
<!-- Flipper_COL2&#45;A -->
<g id="node32" class="node">
<title>Flipper_COL2&#45;A</title>
<polygon fill="none" stroke="#000000" points="1074.4037,-1591.1121 960.9993,-1591.1121 960.9993,-1555.1121 1074.4037,-1555.1121 1074.4037,-1591.1121"/>
<text text-anchor="middle" x="1017.7015" y="-1568.9121" font-family="Times,serif" font-size="14.00" fill="#000000">Flipper_COL2&#45;A</text>
</g>
<!-- Flipper_COL2&#45;A&#45;&gt;MCD_PAUSE_PROXY -->
<g id="edge53" class="edge">
<title>Flipper_COL2&#45;A&#45;&gt;MCD_PAUSE_PROXY</title>
<path fill="none" stroke="#000000" d="M983.3286,-1555.0718C858.5014,-1489.5574 429.208,-1264.2469 290.4042,-1191.397"/>
<polygon fill="#000000" stroke="#000000" points="291.7847,-1188.1688 281.3036,-1186.6207 288.5316,-1194.367 291.7847,-1188.1688"/>
<text text-anchor="middle" x="625.9835" y="-1377.4344" font-family="Times,serif" font-size="14.00" fill="#000000">rely</text>
</g>
<!-- Flipper_COL2&#45;A&#45;&gt;MCD_END -->
<g id="edge52" class="edge">
<title>Flipper_COL2&#45;A&#45;&gt;MCD_END</title>
<path fill="none" stroke="#000000" d="M1052.3126,-1554.9468C1140.4677,-1508.6794 1372.8266,-1386.728 1462.7262,-1339.5451"/>
<polygon fill="#000000" stroke="#000000" points="1464.4947,-1342.5697 1471.7227,-1334.8234 1461.2416,-1336.3715 1464.4947,-1342.5697"/>
<text text-anchor="middle" x="1246.6365" y="-1451.4459" font-family="Times,serif" font-size="14.00" fill="#000000">rely</text>
</g>
<!-- Flipper_COL3&#45;A -->
<g id="node34" class="node">
<title>Flipper_COL3&#45;A</title>
<polygon fill="none" stroke="#000000" points="1253.7868,-1546.8981 1140.3824,-1546.8981 1140.3824,-1510.8981 1253.7868,-1510.8981 1253.7868,-1546.8981"/>
<text text-anchor="middle" x="1197.0846" y="-1524.6981" font-family="Times,serif" font-size="14.00" fill="#000000">Flipper_COL3&#45;A</text>
</g>
<!-- Flipper_COL3&#45;A&#45;&gt;MCD_PAUSE_PROXY -->
<g id="edge56" class="edge">
<title>Flipper_COL3&#45;A&#45;&gt;MCD_PAUSE_PROXY</title>
<path fill="none" stroke="#000000" d="M1149.3055,-1510.7779C989.8123,-1450.2901 476.106,-1255.467 303.7353,-1190.0954"/>
<polygon fill="#000000" stroke="#000000" points="304.921,-1186.8019 294.3297,-1186.5284 302.4388,-1193.347 304.921,-1186.8019"/>
<text text-anchor="middle" x="715.6375" y="-1354.6366" font-family="Times,serif" font-size="14.00" fill="#000000">rely</text>
</g>
<!-- Flipper_COL3&#45;A&#45;&gt;MCD_END -->
<g id="edge55" class="edge">
<title>Flipper_COL3&#45;A&#45;&gt;MCD_END</title>
<path fill="none" stroke="#000000" d="M1223.3462,-1510.771C1277.7621,-1473.2105 1402.8412,-1386.8746 1464.0028,-1344.6578"/>
<polygon fill="#000000" stroke="#000000" points="1466.3052,-1347.3214 1472.5468,-1338.7603 1462.3287,-1341.5605 1466.3052,-1347.3214"/>
<text text-anchor="middle" x="1349.1159" y="-1415.1144" font-family="Times,serif" font-size="14.00" fill="#000000">rely</text>
</g>
<!-- Flipper_COL4&#45;A -->
<g id="node36" class="node">
<title>Flipper_COL4&#45;A</title>
<polygon fill="none" stroke="#000000" points="1417.3763,-1461.0397 1303.9719,-1461.0397 1303.9719,-1425.0397 1417.3763,-1425.0397 1417.3763,-1461.0397"/>
<text text-anchor="middle" x="1360.6741" y="-1438.8397" font-family="Times,serif" font-size="14.00" fill="#000000">Flipper_COL4&#45;A</text>
</g>
<!-- Flipper_COL4&#45;A&#45;&gt;MCD_PAUSE_PROXY -->
<g id="edge59" class="edge">
<title>Flipper_COL4&#45;A&#45;&gt;MCD_PAUSE_PROXY</title>
<path fill="none" stroke="#000000" d="M1303.9024,-1429.0468C1113.9024,-1382.216 501.3325,-1231.231 306.6937,-1183.2569"/>
<polygon fill="#000000" stroke="#000000" points="307.4717,-1179.844 296.9247,-1180.849 305.7964,-1186.6406 307.4717,-1179.844"/>
<text text-anchor="middle" x="794.4152" y="-1310.3518" font-family="Times,serif" font-size="14.00" fill="#000000">rely</text>
</g>
<!-- Flipper_COL4&#45;A&#45;&gt;MCD_END -->
<g id="edge58" class="edge">
<title>Flipper_COL4&#45;A&#45;&gt;MCD_END</title>
<path fill="none" stroke="#000000" d="M1381.079,-1424.9625C1404.8757,-1403.8805 1444.3434,-1368.9152 1470.9863,-1345.3116"/>
<polygon fill="#000000" stroke="#000000" points="1473.3098,-1347.9292 1478.474,-1338.6781 1468.6679,-1342.6896 1473.3098,-1347.9292"/>
<text text-anchor="middle" x="1415.1498" y="-1389.3371" font-family="Times,serif" font-size="14.00" fill="#000000">rely</text>
</g>
<!-- Flipper_COL5&#45;A -->
<g id="node38" class="node">
<title>Flipper_COL5&#45;A</title>
<polygon fill="none" stroke="#000000" points="1660.6158,-1186.4791 1547.2114,-1186.4791 1547.2114,-1150.4791 1660.6158,-1150.4791 1660.6158,-1186.4791"/>
<text text-anchor="middle" x="1603.9136" y="-1164.2791" font-family="Times,serif" font-size="14.00" fill="#000000">Flipper_COL5&#45;A</text>
</g>
<!-- Flipper_COL5&#45;A&#45;&gt;MCD_PAUSE_PROXY -->
<g id="edge62" class="edge">
<title>Flipper_COL5&#45;A&#45;&gt;MCD_PAUSE_PROXY</title>
<path fill="none" stroke="#000000" d="M1546.8955,-1168.4791C1326.7611,-1168.4791 533.3234,-1168.4791 307.2441,-1168.4791"/>
<polygon fill="#000000" stroke="#000000" points="306.9119,-1164.9792 296.9118,-1168.4791 306.9118,-1171.9792 306.9119,-1164.9792"/>
<text text-anchor="middle" x="916.1869" y="-1172.6791" font-family="Times,serif" font-size="14.00" fill="#000000">rely</text>
</g>
<!-- Flipper_COL5&#45;A&#45;&gt;MCD_END -->
<g id="edge61" class="edge">
<title>Flipper_COL5&#45;A&#45;&gt;MCD_END</title>
<path fill="none" stroke="#000000" d="M1591.4622,-1186.518C1573.0782,-1213.1518 1538.5585,-1263.1623 1517.2829,-1293.9853"/>
<polygon fill="#000000" stroke="#000000" points="1514.1981,-1292.2931 1511.3979,-1302.5112 1519.959,-1296.2696 1514.1981,-1292.2931"/>
<text text-anchor="middle" x="1543.4897" y="-1244.4516" font-family="Times,serif" font-size="14.00" fill="#000000">rely</text>
</g>
<!-- isolated -->
<g id="node40" class="node">
<title>isolated</title>
<polygon fill="none" stroke="#000000" points="2254.2914,-312.6287 1680.3598,-312.6287 1680.3598,-120.0285 2254.2914,-120.0285 2254.2914,-312.6287"/>
<text text-anchor="middle" x="1967.3256" y="-296.1286" font-family="Times,serif" font-size="14.00" fill="#000000">Isolated Contracts:&#13;</text>
<text text-anchor="middle" x="1967.3256" y="-279.3286" font-family="Times,serif" font-size="14.00" fill="#000000"> MULTICALL, FAUCET, VOTE_PROXY_FACTORY, PROXY_ACTIONS, CDP_MANAGER,&#13;</text>
<text text-anchor="middle" x="1967.3256" y="-262.5286" font-family="Times,serif" font-size="14.00" fill="#000000"> GET_CDPS, PROXY_FACTORY, PROXY_REGISTRY, PROXY_PAUSE_ACTIONS,&#13;</text>
<text text-anchor="middle" x="1967.3256" y="-245.7286" font-family="Times,serif" font-size="14.00" fill="#000000"> MCD_GOV_ACTIONS, GOV_POLL_GEN, VOTE_YES, VOTE_NO,&#13;</text>
<text text-anchor="middle" x="1967.3256" y="-228.9286" font-family="Times,serif" font-size="14.00" fill="#000000"> ETH, PIP_ETH, COL1, PIP_COL1,&#13;</text>
<text text-anchor="middle" x="1967.3256" y="-212.1286" font-family="Times,serif" font-size="14.00" fill="#000000"> COL2, PIP_COL2, COL3, PIP_COL3,&#13;</text>
<text text-anchor="middle" x="1967.3256" y="-195.3286" font-family="Times,serif" font-size="14.00" fill="#000000"> COL4, PIP_COL4, COL5, PIP_COL5,&#13;</text>
<text text-anchor="middle" x="1967.3256" y="-178.5286" font-family="Times,serif" font-size="14.00" fill="#000000"> vatFab, jugFab, vowFab, catFab,&#13;</text>
<text text-anchor="middle" x="1967.3256" y="-161.7286" font-family="Times,serif" font-size="14.00" fill="#000000"> daiFab, daiJoinFab, flapFab, flopFab,&#13;</text>
<text text-anchor="middle" x="1967.3256" y="-144.9286" font-family="Times,serif" font-size="14.00" fill="#000000"> flipFab, spotFab, potFab, pauseFab,&#13;</text>
<text text-anchor="middle" x="1967.3256" y="-128.1286" font-family="Times,serif" font-size="14.00" fill="#000000"> 0x22e5f08e97534c1457d49834d3d31d8c1680dac4</text>
</g>
</g>
</svg>
