<?xml version="1.0" encoding="UTF-8" standalone="no"?>
<!DOCTYPE svg PUBLIC "-//W3C//DTD SVG 1.1//EN"
 "http://www.w3.org/Graphics/SVG/1.1/DTD/svg11.dtd">
<!-- Generated by graphviz version 2.40.1 (20161225.0304)
 -->
<!-- Title: %0 Pages: 1 -->
<svg width="2404pt" height="1719pt"
 viewBox="0.00 0.00 2403.88 1718.82" xmlns="http://www.w3.org/2000/svg" xmlns:xlink="http://www.w3.org/1999/xlink">
<g id="graph0" class="graph" transform="scale(1 1) rotate(0) translate(4 1714.8195)">
<title>%0</title>
<polygon fill="#ffffff" stroke="transparent" points="-4,4 -4,-1714.8195 2399.8771,-1714.8195 2399.8771,4 -4,4"/>
<!-- zero -->
<g id="node1" class="node">
<title>zero</title>
<polygon fill="none" stroke="#000000" points="516.638,-1097.1293 462.638,-1097.1293 462.638,-1061.1293 516.638,-1061.1293 516.638,-1097.1293"/>
<text text-anchor="middle" x="489.638" y="-1074.9293" font-family="Times,serif" font-size="14.00" fill="#000000">zero</text>
</g>
<!-- deployer -->
<g id="node2" class="node">
<title>deployer</title>
<polygon fill="none" stroke="#000000" points="1344.8994,-1527.6641 1279.9386,-1527.6641 1279.9386,-1491.6641 1344.8994,-1491.6641 1344.8994,-1527.6641"/>
<text text-anchor="middle" x="1312.419" y="-1505.4641" font-family="Times,serif" font-size="14.00" fill="#000000">deployer</text>
</g>
<!-- MCD_DEPLOY -->
<g id="node3" class="node">
<title>MCD_DEPLOY</title>
<polygon fill="none" stroke="#000000" points="432.6271,-1152.6812 354.2114,-1152.6812 354.2114,-1116.6812 432.6271,-1116.6812 432.6271,-1152.6812"/>
<text text-anchor="middle" x="393.4193" y="-1130.4812" font-family="Times,serif" font-size="14.00" fill="#000000">DssDeploy</text>
</g>
<!-- MCD_DEPLOY&#45;&gt;zero -->
<g id="edge10" class="edge">
<title>MCD_DEPLOY&#45;&gt;zero</title>
<path fill="none" stroke="#000000" d="M424.6587,-1116.6451C433.8903,-1111.3152 444.0709,-1105.4375 453.58,-1099.9474"/>
<polygon fill="#000000" stroke="#000000" points="455.5281,-1102.8642 462.4383,-1094.833 452.0281,-1096.802 455.5281,-1102.8642"/>
<text text-anchor="middle" x="421.6284" y="-1095.6962" font-family="Times,serif" font-size="14.00" fill="#000000">owner</text>
</g>
<!-- 0xdf3C827974B153a202f63C5271D142BC6Ed2f0bb -->
<g id="node35" class="node">
<title>0xdf3C827974B153a202f63C5271D142BC6Ed2f0bb</title>
<polygon fill="none" stroke="#000000" points="318.3082,-1287.8677 .2304,-1287.8677 .2304,-1251.8677 318.3082,-1251.8677 318.3082,-1287.8677"/>
<text text-anchor="middle" x="159.2693" y="-1265.6677" font-family="Times,serif" font-size="14.00" fill="#000000">0xdf3C827974B153a202f63C5271D142BC6Ed2f0bb</text>
</g>
<!-- MCD_DEPLOY&#45;&gt;0xdf3C827974B153a202f63C5271D142BC6Ed2f0bb -->
<g id="edge4" class="edge">
<title>MCD_DEPLOY&#45;&gt;0xdf3C827974B153a202f63C5271D142BC6Ed2f0bb</title>
<path fill="none" stroke="#000000" d="M361.8408,-1152.9131C319.8277,-1177.1693 245.5165,-1220.0729 199.5236,-1246.6269"/>
<polygon fill="#000000" stroke="#000000" points="197.6308,-1243.6782 190.7205,-1251.7094 201.1308,-1249.7404 197.6308,-1243.6782"/>
<text text-anchor="middle" x="255.4087" y="-1203.97" font-family="Times,serif" font-size="14.00" fill="#000000">authority</text>
</g>
<!-- MCD_VAT -->
<g id="node4" class="node">
<title>MCD_VAT</title>
<polygon fill="none" stroke="#000000" points="1836.7008,-743.4195 1782.7008,-743.4195 1782.7008,-707.4195 1836.7008,-707.4195 1836.7008,-743.4195"/>
<text text-anchor="middle" x="1809.7008" y="-721.2195" font-family="Times,serif" font-size="14.00" fill="#000000">Vat</text>
</g>
<!-- MCD_JUG -->
<g id="node5" class="node">
<title>MCD_JUG</title>
<polygon fill="none" stroke="#000000" points="1741.9246,-389.7098 1687.9246,-389.7098 1687.9246,-353.7098 1741.9246,-353.7098 1741.9246,-389.7098"/>
<text text-anchor="middle" x="1714.9246" y="-367.5098" font-family="Times,serif" font-size="14.00" fill="#000000">Jug</text>
</g>
<!-- MCD_VAT&#45;&gt;MCD_JUG -->
<g id="edge14" class="edge">
<title>MCD_VAT&#45;&gt;MCD_JUG</title>
<path fill="none" stroke="#000000" d="M1804.8705,-707.3927C1789.4422,-649.8133 1741.2653,-470.0146 1722.5067,-400.0066"/>
<polygon fill="#000000" stroke="#000000" points="1725.8278,-398.8778 1719.8587,-390.1244 1719.0663,-400.6896 1725.8278,-398.8778"/>
<text text-anchor="middle" x="1752.8057" y="-557.8997" font-family="Times,serif" font-size="14.00" fill="#000000">rely</text>
</g>
<!-- MCD_POT -->
<g id="node6" class="node">
<title>MCD_POT</title>
<polygon fill="none" stroke="#000000" points="1812.5961,-560.3259 1758.5961,-560.3259 1758.5961,-524.3259 1812.5961,-524.3259 1812.5961,-560.3259"/>
<text text-anchor="middle" x="1785.5961" y="-538.1259" font-family="Times,serif" font-size="14.00" fill="#000000">Pot</text>
</g>
<!-- MCD_VAT&#45;&gt;MCD_POT -->
<g id="edge15" class="edge">
<title>MCD_VAT&#45;&gt;MCD_POT</title>
<path fill="none" stroke="#000000" d="M1807.3014,-707.1944C1803.0961,-675.2522 1794.3661,-608.9409 1789.3535,-570.8668"/>
<polygon fill="#000000" stroke="#000000" points="1792.7611,-569.9349 1787.9857,-560.4773 1785.821,-570.8486 1792.7611,-569.9349"/>
<text text-anchor="middle" x="1787.4446" y="-643.2306" font-family="Times,serif" font-size="14.00" fill="#000000">rely</text>
</g>
<!-- MCD_VOW -->
<g id="node9" class="node">
<title>MCD_VOW</title>
<polygon fill="none" stroke="#000000" points="1629.5024,-1243.6407 1575.5024,-1243.6407 1575.5024,-1207.6407 1629.5024,-1207.6407 1629.5024,-1243.6407"/>
<text text-anchor="middle" x="1602.5024" y="-1221.4407" font-family="Times,serif" font-size="14.00" fill="#000000">Vow</text>
</g>
<!-- MCD_VAT&#45;&gt;MCD_VOW -->
<g id="edge13" class="edge">
<title>MCD_VAT&#45;&gt;MCD_VOW</title>
<path fill="none" stroke="#000000" d="M1802.2041,-743.5182C1771.0153,-818.8147 1651.4183,-1107.5473 1613.8583,-1198.2252"/>
<polygon fill="#000000" stroke="#000000" points="1610.5824,-1196.9881 1609.9891,-1207.5663 1617.0495,-1199.667 1610.5824,-1196.9881"/>
<text text-anchor="middle" x="1697.1483" y="-975.0717" font-family="Times,serif" font-size="14.00" fill="#000000">rely</text>
</g>
<!-- MCD_CAT -->
<g id="node10" class="node">
<title>MCD_CAT</title>
<polygon fill="none" stroke="#000000" points="1812.5961,-926.5132 1758.5961,-926.5132 1758.5961,-890.5132 1812.5961,-890.5132 1812.5961,-926.5132"/>
<text text-anchor="middle" x="1785.5961" y="-904.3132" font-family="Times,serif" font-size="14.00" fill="#000000">Cat</text>
</g>
<!-- MCD_VAT&#45;&gt;MCD_CAT -->
<g id="edge18" class="edge">
<title>MCD_VAT&#45;&gt;MCD_CAT</title>
<path fill="none" stroke="#000000" d="M1807.3014,-743.6446C1803.0961,-775.5869 1794.3661,-841.8982 1789.3535,-879.9723"/>
<polygon fill="#000000" stroke="#000000" points="1785.821,-879.9905 1787.9857,-890.3618 1792.7611,-880.9042 1785.821,-879.9905"/>
<text text-anchor="middle" x="1787.4446" y="-816.0085" font-family="Times,serif" font-size="14.00" fill="#000000">rely</text>
</g>
<!-- MCD_SPOT -->
<g id="node11" class="node">
<title>MCD_SPOT</title>
<polygon fill="none" stroke="#000000" points="1630.9431,-243.1984 1574.0617,-243.1984 1574.0617,-207.1984 1630.9431,-207.1984 1630.9431,-243.1984"/>
<text text-anchor="middle" x="1602.5024" y="-220.9984" font-family="Times,serif" font-size="14.00" fill="#000000">Spotter</text>
</g>
<!-- MCD_VAT&#45;&gt;MCD_SPOT -->
<g id="edge12" class="edge">
<title>MCD_VAT&#45;&gt;MCD_SPOT</title>
<path fill="none" stroke="#000000" d="M1802.2041,-707.3209C1771.0153,-632.0244 1651.4183,-343.2917 1613.8583,-252.6139"/>
<polygon fill="#000000" stroke="#000000" points="1617.0495,-251.1721 1609.9891,-243.2727 1610.5824,-253.8509 1617.0495,-251.1721"/>
<text text-anchor="middle" x="1697.1483" y="-484.1674" font-family="Times,serif" font-size="14.00" fill="#000000">rely</text>
</g>
<!-- MCD_PAUSE_PROXY -->
<g id="node14" class="node">
<title>MCD_PAUSE_PROXY</title>
<polygon fill="none" stroke="#000000" points="1505.9798,-130.7762 1406.0022,-130.7762 1406.0022,-94.7762 1505.9798,-94.7762 1505.9798,-130.7762"/>
<text text-anchor="middle" x="1455.991" y="-108.5762" font-family="Times,serif" font-size="14.00" fill="#000000">DSPauseProxy</text>
</g>
<!-- MCD_VAT&#45;&gt;MCD_PAUSE_PROXY -->
<g id="edge23" class="edge">
<title>MCD_VAT&#45;&gt;MCD_PAUSE_PROXY</title>
<path fill="none" stroke="#000000" d="M1799.3065,-707.4161C1749.1238,-620.4971 1531.8644,-244.1927 1471.5645,-139.7503"/>
<polygon fill="#000000" stroke="#000000" points="1474.417,-137.6909 1466.3859,-130.7807 1468.3549,-141.191 1474.417,-137.6909"/>
<text text-anchor="middle" x="1624.5526" y="-427.7832" font-family="Times,serif" font-size="14.00" fill="#000000">rely</text>
</g>
<!-- MCD_END -->
<g id="node18" class="node">
<title>MCD_END</title>
<polygon fill="none" stroke="#000000" points="445.9665,-926.5132 391.9665,-926.5132 391.9665,-890.5132 445.9665,-890.5132 445.9665,-926.5132"/>
<text text-anchor="middle" x="418.9665" y="-904.3132" font-family="Times,serif" font-size="14.00" fill="#000000">End</text>
</g>
<!-- MCD_VAT&#45;&gt;MCD_END -->
<g id="edge20" class="edge">
<title>MCD_VAT&#45;&gt;MCD_END</title>
<path fill="none" stroke="#000000" d="M1782.5439,-728.9948C1609.0416,-751.8368 656.615,-877.2262 456.048,-903.6313"/>
<polygon fill="#000000" stroke="#000000" points="455.4705,-900.177 446.0129,-904.9524 456.3842,-907.1172 455.4705,-900.177"/>
<text text-anchor="middle" x="1108.4131" y="-820.513" font-family="Times,serif" font-size="14.00" fill="#000000">rely</text>
</g>
<!-- ETHJoin_A -->
<g id="node19" class="node">
<title>ETHJoin_A</title>
<polygon fill="none" stroke="#000000" points="1784.0392,-222.7271 1700.7306,-222.7271 1700.7306,-186.7271 1784.0392,-186.7271 1784.0392,-222.7271"/>
<text text-anchor="middle" x="1742.3849" y="-200.5271" font-family="Times,serif" font-size="14.00" fill="#000000">ETHJoin_A</text>
</g>
<!-- MCD_VAT&#45;&gt;ETHJoin_A -->
<g id="edge32" class="edge">
<title>MCD_VAT&#45;&gt;ETHJoin_A</title>
<path fill="none" stroke="#000000" d="M1807.3445,-707.1931C1797.3276,-629.7119 1758.238,-327.352 1746.041,-233.0069"/>
<polygon fill="#000000" stroke="#000000" points="1749.4755,-232.2743 1744.7221,-222.8056 1742.5332,-233.1718 1749.4755,-232.2743"/>
<text text-anchor="middle" x="1765.8098" y="-474.3" font-family="Times,serif" font-size="14.00" fill="#000000">rely</text>
</g>
<!-- ETHJoin_B -->
<g id="node21" class="node">
<title>ETHJoin_B</title>
<polygon fill="none" stroke="#000000" points="1869.8722,-351.6591 1787.1049,-351.6591 1787.1049,-315.6591 1869.8722,-315.6591 1869.8722,-351.6591"/>
<text text-anchor="middle" x="1828.4885" y="-329.4591" font-family="Times,serif" font-size="14.00" fill="#000000">ETHJoin_B</text>
</g>
<!-- MCD_VAT&#45;&gt;ETHJoin_B -->
<g id="edge35" class="edge">
<title>MCD_VAT&#45;&gt;ETHJoin_B</title>
<path fill="none" stroke="#000000" d="M1810.5693,-707.3098C1813.5614,-644.9181 1823.4581,-438.5525 1827.1149,-362.3019"/>
<polygon fill="#000000" stroke="#000000" points="1830.6245,-362.1847 1827.6076,-352.0285 1823.6325,-361.8493 1830.6245,-362.1847"/>
<text text-anchor="middle" x="1829.725" y="-539.0058" font-family="Times,serif" font-size="14.00" fill="#000000">rely</text>
</g>
<!-- ETHJoin_C -->
<g id="node23" class="node">
<title>ETHJoin_C</title>
<polygon fill="none" stroke="#000000" points="1930.2211,-494.0549 1847.4537,-494.0549 1847.4537,-458.0549 1930.2211,-458.0549 1930.2211,-494.0549"/>
<text text-anchor="middle" x="1888.8374" y="-471.8549" font-family="Times,serif" font-size="14.00" fill="#000000">ETHJoin_C</text>
</g>
<!-- MCD_VAT&#45;&gt;ETHJoin_C -->
<g id="edge38" class="edge">
<title>MCD_VAT&#45;&gt;ETHJoin_C</title>
<path fill="none" stroke="#000000" d="M1815.5199,-707.0832C1829.2448,-663.8351 1863.7057,-555.2466 1880.0165,-503.8501"/>
<polygon fill="#000000" stroke="#000000" points="1883.4276,-504.6722 1883.1165,-494.0819 1876.7555,-502.5547 1883.4276,-504.6722"/>
<text text-anchor="middle" x="1836.8853" y="-609.6666" font-family="Times,serif" font-size="14.00" fill="#000000">rely</text>
</g>
<!-- COL1Join_A -->
<g id="node25" class="node">
<title>COL1Join_A</title>
<polygon fill="none" stroke="#000000" points="1967.991,-649.459 1876.1137,-649.459 1876.1137,-613.459 1967.991,-613.459 1967.991,-649.459"/>
<text text-anchor="middle" x="1922.0524" y="-627.259" font-family="Times,serif" font-size="14.00" fill="#000000">COL1Join_A</text>
</g>
<!-- MCD_VAT&#45;&gt;COL1Join_A -->
<g id="edge41" class="edge">
<title>MCD_VAT&#45;&gt;COL1Join_A</title>
<path fill="none" stroke="#000000" d="M1831.3633,-707.303C1848.7714,-692.7445 1873.3988,-672.1484 1892.5976,-656.0923"/>
<polygon fill="#000000" stroke="#000000" points="1895.0307,-658.6201 1900.4564,-649.5199 1890.54,-653.2504 1895.0307,-658.6201"/>
<text text-anchor="middle" x="1851.0975" y="-685.8976" font-family="Times,serif" font-size="14.00" fill="#000000">rely</text>
</g>
<!-- COL2Join_A -->
<g id="node27" class="node">
<title>COL2Join_A</title>
<polygon fill="none" stroke="#000000" points="1970.4521,-812.611 1878.5748,-812.611 1878.5748,-776.611 1970.4521,-776.611 1970.4521,-812.611"/>
<text text-anchor="middle" x="1924.5135" y="-790.411" font-family="Times,serif" font-size="14.00" fill="#000000">COL2Join_A</text>
</g>
<!-- MCD_VAT&#45;&gt;COL2Join_A -->
<g id="edge44" class="edge">
<title>MCD_VAT&#45;&gt;COL2Join_A</title>
<path fill="none" stroke="#000000" d="M1836.9098,-741.8169C1851.457,-750.5837 1869.6208,-761.5301 1885.6314,-771.1788"/>
<polygon fill="#000000" stroke="#000000" points="1883.8965,-774.2197 1894.268,-776.3837 1887.5097,-768.2243 1883.8965,-774.2197"/>
<text text-anchor="middle" x="1850.3877" y="-760.6979" font-family="Times,serif" font-size="14.00" fill="#000000">rely</text>
</g>
<!-- COL3Join_A -->
<g id="node29" class="node">
<title>COL3Join_A</title>
<polygon fill="none" stroke="#000000" points="1940.76,-973.0573 1848.8827,-973.0573 1848.8827,-937.0573 1940.76,-937.0573 1940.76,-973.0573"/>
<text text-anchor="middle" x="1894.8213" y="-950.8573" font-family="Times,serif" font-size="14.00" fill="#000000">COL3Join_A</text>
</g>
<!-- MCD_VAT&#45;&gt;COL3Join_A -->
<g id="edge47" class="edge">
<title>MCD_VAT&#45;&gt;COL3Join_A</title>
<path fill="none" stroke="#000000" d="M1816.3801,-743.4388C1831.1988,-783.4168 1866.9097,-879.7573 1884.5739,-927.4118"/>
<polygon fill="#000000" stroke="#000000" points="1881.2978,-928.6439 1888.0553,-936.8039 1887.8614,-926.2109 1881.2978,-928.6439"/>
<text text-anchor="middle" x="1839.5941" y="-839.6253" font-family="Times,serif" font-size="14.00" fill="#000000">rely</text>
</g>
<!-- COL4Join_A -->
<g id="node31" class="node">
<title>COL4Join_A</title>
<polygon fill="none" stroke="#000000" points="1880.0757,-1124.5236 1788.1984,-1124.5236 1788.1984,-1088.5236 1880.0757,-1088.5236 1880.0757,-1124.5236"/>
<text text-anchor="middle" x="1834.1371" y="-1102.3236" font-family="Times,serif" font-size="14.00" fill="#000000">COL4Join_A</text>
</g>
<!-- MCD_VAT&#45;&gt;COL4Join_A -->
<g id="edge50" class="edge">
<title>MCD_VAT&#45;&gt;COL4Join_A</title>
<path fill="none" stroke="#000000" d="M1810.863,-743.5446C1814.7865,-804.7346 1827.5621,-1003.9815 1832.3252,-1078.2656"/>
<polygon fill="#000000" stroke="#000000" points="1828.835,-1078.5321 1832.9678,-1088.2876 1835.8207,-1078.0841 1828.835,-1078.5321"/>
<text text-anchor="middle" x="1832.477" y="-915.1051" font-family="Times,serif" font-size="14.00" fill="#000000">rely</text>
</g>
<!-- COL5Join_A -->
<g id="node33" class="node">
<title>COL5Join_A</title>
<polygon fill="none" stroke="#000000" points="1790.7724,-1261.0869 1698.8951,-1261.0869 1698.8951,-1225.0869 1790.7724,-1225.0869 1790.7724,-1261.0869"/>
<text text-anchor="middle" x="1744.8338" y="-1238.8869" font-family="Times,serif" font-size="14.00" fill="#000000">COL5Join_A</text>
</g>
<!-- MCD_VAT&#45;&gt;COL5Join_A -->
<g id="edge53" class="edge">
<title>MCD_VAT&#45;&gt;COL5Join_A</title>
<path fill="none" stroke="#000000" d="M1807.4302,-743.5401C1797.7885,-820.4851 1760.1943,-1120.503 1748.3963,-1214.6563"/>
<polygon fill="#000000" stroke="#000000" points="1744.8902,-1214.4876 1747.1196,-1224.8452 1751.8358,-1215.358 1744.8902,-1214.4876"/>
<text text-anchor="middle" x="1767.0303" y="-983.2982" font-family="Times,serif" font-size="14.00" fill="#000000">rely</text>
</g>
<!-- MCD_JUG&#45;&gt;MCD_PAUSE_PROXY -->
<g id="edge26" class="edge">
<title>MCD_JUG&#45;&gt;MCD_PAUSE_PROXY</title>
<path fill="none" stroke="#000000" d="M1696.7169,-353.5021C1651.403,-308.1882 1533.4737,-190.2589 1481.3717,-138.1569"/>
<polygon fill="#000000" stroke="#000000" points="1483.7246,-135.56 1474.1786,-130.9638 1478.7748,-140.5098 1483.7246,-135.56"/>
<text text-anchor="middle" x="1578.1614" y="-250.0295" font-family="Times,serif" font-size="14.00" fill="#000000">rely</text>
</g>
<!-- MCD_POT&#45;&gt;MCD_PAUSE_PROXY -->
<g id="edge27" class="edge">
<title>MCD_POT&#45;&gt;MCD_PAUSE_PROXY</title>
<path fill="none" stroke="#000000" d="M1771.6439,-524.143C1719.7443,-456.5061 1537.6861,-219.2433 1476.3436,-139.3002"/>
<polygon fill="#000000" stroke="#000000" points="1478.9955,-137.0068 1470.1311,-131.2039 1473.442,-141.2681 1478.9955,-137.0068"/>
<text text-anchor="middle" x="1613.1108" y="-335.9216" font-family="Times,serif" font-size="14.00" fill="#000000">rely</text>
</g>
<!-- MCD_FLAP -->
<g id="node7" class="node">
<title>MCD_FLAP</title>
<polygon fill="none" stroke="#000000" points="1744.188,-1097.1293 1685.6611,-1097.1293 1685.6611,-1061.1293 1744.188,-1061.1293 1744.188,-1097.1293"/>
<text text-anchor="middle" x="1714.9246" y="-1074.9293" font-family="Times,serif" font-size="14.00" fill="#000000">Flapper</text>
</g>
<!-- MCD_FLAP&#45;&gt;MCD_VOW -->
<g id="edge16" class="edge">
<title>MCD_FLAP&#45;&gt;MCD_VOW</title>
<path fill="none" stroke="#000000" d="M1700.9135,-1097.3888C1681.1988,-1123.0815 1645.1633,-1170.0439 1622.5972,-1199.4527"/>
<polygon fill="#000000" stroke="#000000" points="1619.6478,-1197.547 1616.3369,-1207.6113 1625.2013,-1201.8084 1619.6478,-1197.547"/>
<text text-anchor="middle" x="1650.8724" y="-1152.6208" font-family="Times,serif" font-size="14.00" fill="#000000">rely</text>
</g>
<!-- MCD_FLAP&#45;&gt;MCD_PAUSE_PROXY -->
<g id="edge29" class="edge">
<title>MCD_FLAP&#45;&gt;MCD_PAUSE_PROXY</title>
<path fill="none" stroke="#000000" d="M1710.0969,-1061.1121C1678.5887,-943.522 1502.3203,-285.6793 1463.5383,-140.9431"/>
<polygon fill="#000000" stroke="#000000" points="1466.8585,-139.8109 1460.8895,-131.0575 1460.097,-141.6227 1466.8585,-139.8109"/>
<text text-anchor="middle" x="1575.9347" y="-605.2276" font-family="Times,serif" font-size="14.00" fill="#000000">rely</text>
</g>
<!-- MCD_FLOP -->
<g id="node8" class="node">
<title>MCD_FLOP</title>
<polygon fill="none" stroke="#000000" points="1485.5411,-1356.0628 1426.4409,-1356.0628 1426.4409,-1320.0628 1485.5411,-1320.0628 1485.5411,-1356.0628"/>
<text text-anchor="middle" x="1455.991" y="-1333.8628" font-family="Times,serif" font-size="14.00" fill="#000000">Flopper</text>
</g>
<!-- MCD_FLOP&#45;&gt;MCD_VOW -->
<g id="edge17" class="edge">
<title>MCD_FLOP&#45;&gt;MCD_VOW</title>
<path fill="none" stroke="#000000" d="M1479.5306,-1320.0003C1504.3081,-1300.9879 1543.4529,-1270.951 1570.9056,-1249.8857"/>
<polygon fill="#000000" stroke="#000000" points="1573.2184,-1252.5228 1579.0212,-1243.6584 1568.957,-1246.9693 1573.2184,-1252.5228"/>
<text text-anchor="middle" x="1514.3352" y="-1289.143" font-family="Times,serif" font-size="14.00" fill="#000000">rely</text>
</g>
<!-- MCD_FLOP&#45;&gt;MCD_PAUSE_PROXY -->
<g id="edge30" class="edge">
<title>MCD_FLOP&#45;&gt;MCD_PAUSE_PROXY</title>
<path fill="none" stroke="#000000" d="M1455.991,-1319.7911C1455.991,-1182.2962 1455.991,-310.6785 1455.991,-141.2806"/>
<polygon fill="#000000" stroke="#000000" points="1459.4911,-141.1533 1455.991,-131.1534 1452.4911,-141.1534 1459.4911,-141.1533"/>
<text text-anchor="middle" x="1445.1081" y="-734.7358" font-family="Times,serif" font-size="14.00" fill="#000000">rely</text>
</g>
<!-- MCD_VOW&#45;&gt;MCD_CAT -->
<g id="edge19" class="edge">
<title>MCD_VOW&#45;&gt;MCD_CAT</title>
<path fill="none" stroke="#000000" d="M1613.1377,-1207.2198C1643.9906,-1153.7811 1733.6317,-998.5181 1769.9957,-935.5337"/>
<polygon fill="#000000" stroke="#000000" points="1773.1906,-937 1775.1596,-926.5897 1767.1284,-933.4999 1773.1906,-937"/>
<text text-anchor="middle" x="1680.6838" y="-1058.7768" font-family="Times,serif" font-size="14.00" fill="#000000">rely</text>
</g>
<!-- MCD_VOW&#45;&gt;MCD_PAUSE_PROXY -->
<g id="edge25" class="edge">
<title>MCD_VOW&#45;&gt;MCD_PAUSE_PROXY</title>
<path fill="none" stroke="#000000" d="M1600.0817,-1207.2533C1582.9878,-1077.4125 1480.5451,-299.283 1459.6938,-140.9016"/>
<polygon fill="#000000" stroke="#000000" points="1463.1632,-140.4388 1458.3878,-130.9812 1456.2231,-141.3525 1463.1632,-140.4388"/>
<text text-anchor="middle" x="1519.0048" y="-678.2775" font-family="Times,serif" font-size="14.00" fill="#000000">rely</text>
</g>
<!-- MCD_VOW&#45;&gt;MCD_END -->
<g id="edge22" class="edge">
<title>MCD_VOW&#45;&gt;MCD_END</title>
<path fill="none" stroke="#000000" d="M1575.2747,-1218.345C1418.9111,-1176.4475 635.8731,-966.6331 455.8893,-918.4066"/>
<polygon fill="#000000" stroke="#000000" points="456.6633,-914.9906 446.0982,-915.7831 454.8515,-921.7521 456.6633,-914.9906"/>
<text text-anchor="middle" x="1004.6991" y="-1072.5758" font-family="Times,serif" font-size="14.00" fill="#000000">rely</text>
</g>
<!-- MCD_CAT&#45;&gt;MCD_PAUSE_PROXY -->
<g id="edge24" class="edge">
<title>MCD_CAT&#45;&gt;MCD_PAUSE_PROXY</title>
<path fill="none" stroke="#000000" d="M1778.0925,-890.398C1735.0358,-786.45 1519.4752,-266.0407 1467.3513,-140.2025"/>
<polygon fill="#000000" stroke="#000000" points="1470.5433,-138.7625 1463.4829,-130.8631 1464.0762,-141.4413 1470.5433,-138.7625"/>
<text text-anchor="middle" x="1611.839" y="-519.5002" font-family="Times,serif" font-size="14.00" fill="#000000">rely</text>
</g>
<!-- MCD_CAT&#45;&gt;MCD_END -->
<g id="edge21" class="edge">
<title>MCD_CAT&#45;&gt;MCD_END</title>
<path fill="none" stroke="#000000" d="M1758.2971,-908.5132C1586.4336,-908.5132 654.9556,-908.5132 456.2623,-908.5132"/>
<polygon fill="#000000" stroke="#000000" points="456.0487,-905.0133 446.0486,-908.5132 456.0486,-912.0133 456.0487,-905.0133"/>
<text text-anchor="middle" x="1096.3968" y="-912.7132" font-family="Times,serif" font-size="14.00" fill="#000000">rely</text>
</g>
<!-- MCD_SPOT&#45;&gt;MCD_PAUSE_PROXY -->
<g id="edge28" class="edge">
<title>MCD_SPOT&#45;&gt;MCD_PAUSE_PROXY</title>
<path fill="none" stroke="#000000" d="M1578.9628,-207.1358C1554.1854,-188.1234 1515.0406,-158.0865 1487.5878,-137.0213"/>
<polygon fill="#000000" stroke="#000000" points="1489.5364,-134.1049 1479.4722,-130.794 1485.2751,-139.6584 1489.5364,-134.1049"/>
<text text-anchor="middle" x="1522.3924" y="-176.2786" font-family="Times,serif" font-size="14.00" fill="#000000">rely</text>
</g>
<!-- MCD_GOV -->
<g id="node12" class="node">
<title>MCD_GOV</title>
<polygon fill="none" stroke="#000000" points="1312.3749,-1426.7343 1258.3749,-1426.7343 1258.3749,-1390.7343 1312.3749,-1390.7343 1312.3749,-1426.7343"/>
<text text-anchor="middle" x="1285.3749" y="-1404.5343" font-family="Times,serif" font-size="14.00" fill="#000000">MKR</text>
</g>
<!-- MCD_GOV&#45;&gt;deployer -->
<g id="edge9" class="edge">
<title>MCD_GOV&#45;&gt;deployer</title>
<path fill="none" stroke="#000000" d="M1290.2099,-1426.7785C1294.2994,-1442.0409 1300.2273,-1464.1642 1304.9303,-1481.7162"/>
<polygon fill="#000000" stroke="#000000" points="1301.5657,-1482.6824 1307.5347,-1491.4358 1308.3272,-1480.8707 1301.5657,-1482.6824"/>
<text text-anchor="middle" x="1280.0792" y="-1458.4473" font-family="Times,serif" font-size="14.00" fill="#000000">owner</text>
</g>
<!-- MCD_GOV&#45;&gt;MCD_FLOP -->
<g id="edge31" class="edge">
<title>MCD_GOV&#45;&gt;MCD_FLOP</title>
<path fill="none" stroke="#000000" d="M1312.4095,-1397.5362C1340.5104,-1385.8965 1384.7707,-1367.5633 1416.7252,-1354.3272"/>
<polygon fill="#000000" stroke="#000000" points="1418.3162,-1357.4567 1426.2156,-1350.3962 1415.6374,-1350.9895 1418.3162,-1357.4567"/>
<text text-anchor="middle" x="1331.1277" y="-1363.3317" font-family="Times,serif" font-size="14.00" fill="#000000">permit&#45;mint</text>
</g>
<!-- MCD_GOV_GUARD -->
<g id="node15" class="node">
<title>MCD_GOV_GUARD</title>
<polygon fill="none" stroke="#000000" points="787.661,-1356.0628 709.482,-1356.0628 709.482,-1320.0628 787.661,-1320.0628 787.661,-1356.0628"/>
<text text-anchor="middle" x="748.5715" y="-1333.8628" font-family="Times,serif" font-size="14.00" fill="#000000">Gov Guard</text>
</g>
<!-- MCD_GOV&#45;&gt;MCD_GOV_GUARD -->
<g id="edge3" class="edge">
<title>MCD_GOV&#45;&gt;MCD_GOV_GUARD</title>
<path fill="none" stroke="#000000" d="M1258.0168,-1405.1326C1172.3287,-1393.8515 908.2891,-1359.09 797.8905,-1344.5558"/>
<polygon fill="#000000" stroke="#000000" points="798.0689,-1341.0491 787.6976,-1343.2139 797.1551,-1347.9893 798.0689,-1341.0491"/>
<text text-anchor="middle" x="1002.6801" y="-1379.0442" font-family="Times,serif" font-size="14.00" fill="#000000">authority</text>
</g>
<!-- MCD_PAUSE -->
<g id="node13" class="node">
<title>MCD_PAUSE</title>
<polygon fill="none" stroke="#000000" points="1135.3284,-1450.8391 1069.2341,-1450.8391 1069.2341,-1414.8391 1135.3284,-1414.8391 1135.3284,-1450.8391"/>
<text text-anchor="middle" x="1102.2813" y="-1428.6391" font-family="Times,serif" font-size="14.00" fill="#000000">DSPause</text>
</g>
<!-- MCD_PAUSE&#45;&gt;zero -->
<g id="edge8" class="edge">
<title>MCD_PAUSE&#45;&gt;zero</title>
<path fill="none" stroke="#000000" d="M1071.0579,-1414.8123C967.5332,-1355.0422 635.9047,-1163.5764 525.6577,-1099.9253"/>
<polygon fill="#000000" stroke="#000000" points="527.3049,-1096.8349 516.8946,-1094.8659 523.8048,-1102.897 527.3049,-1096.8349"/>
<text text-anchor="middle" x="780.8669" y="-1261.5688" font-family="Times,serif" font-size="14.00" fill="#000000">owner</text>
</g>
<!-- MCD_ADM -->
<g id="node17" class="node">
<title>MCD_ADM</title>
<polygon fill="none" stroke="#000000" points="951.6792,-1426.7343 886.696,-1426.7343 886.696,-1390.7343 951.6792,-1390.7343 951.6792,-1426.7343"/>
<text text-anchor="middle" x="919.1876" y="-1404.5343" font-family="Times,serif" font-size="14.00" fill="#000000">DSChief</text>
</g>
<!-- MCD_PAUSE&#45;&gt;MCD_ADM -->
<g id="edge1" class="edge">
<title>MCD_PAUSE&#45;&gt;MCD_ADM</title>
<path fill="none" stroke="#000000" d="M1069.1244,-1428.4739C1039.0892,-1424.5197 994.6625,-1418.6708 961.9619,-1414.3657"/>
<polygon fill="#000000" stroke="#000000" points="962.1613,-1410.8618 951.79,-1413.0265 961.2476,-1417.8019 962.1613,-1410.8618"/>
<text text-anchor="middle" x="990.2697" y="-1425.6198" font-family="Times,serif" font-size="14.00" fill="#000000">authority</text>
</g>
<!-- MCD_PAUSE_PROXY&#45;&gt;MCD_PAUSE -->
<g id="edge7" class="edge">
<title>MCD_PAUSE_PROXY&#45;&gt;MCD_PAUSE</title>
<path fill="none" stroke="#000000" d="M1451.1255,-130.9347C1412.5823,-274.7797 1156.8425,-1229.2137 1109.7331,-1405.0284"/>
<polygon fill="#000000" stroke="#000000" points="1106.3184,-1404.2497 1107.1108,-1414.8149 1113.0798,-1406.0615 1106.3184,-1404.2497"/>
<text text-anchor="middle" x="1262.9384" y="-772.1815" font-family="Times,serif" font-size="14.00" fill="#000000">owner</text>
</g>
<!-- MCD_GOV_GUARD&#45;&gt;zero -->
<g id="edge6" class="edge">
<title>MCD_GOV_GUARD&#45;&gt;zero</title>
<path fill="none" stroke="#000000" d="M735.2033,-1319.8157C695.3919,-1274.2638 577.6029,-1156.03 520.8208,-1104.0987"/>
<polygon fill="#000000" stroke="#000000" points="522.9905,-1101.3417 513.228,-1097.2255 518.2928,-1106.5313 522.9905,-1101.3417"/>
<text text-anchor="middle" x="653.2855" y="-1199.3572" font-family="Times,serif" font-size="14.00" fill="#000000">authority</text>
</g>
<!-- MCD_GOV_GUARD&#45;&gt;zero -->
<g id="edge11" class="edge">
<title>MCD_GOV_GUARD&#45;&gt;zero</title>
<path fill="none" stroke="#000000" d="M725.0778,-1320.0527C674.58,-1274.8945 556.8568,-1157.2471 509.6415,-1104.8437"/>
<polygon fill="#000000" stroke="#000000" points="512.2046,-1102.4588 502.9462,-1097.3078 506.9716,-1107.1081 512.2046,-1102.4588"/>
<text text-anchor="middle" x="599.8688" y="-1199.8482" font-family="Times,serif" font-size="14.00" fill="#000000">owner</text>
</g>
<!-- MCD_IOU -->
<g id="node16" class="node">
<title>MCD_IOU</title>
<polygon fill="none" stroke="#000000" points="629.0601,-1243.6407 575.0601,-1243.6407 575.0601,-1207.6407 629.0601,-1207.6407 629.0601,-1243.6407"/>
<text text-anchor="middle" x="602.0601" y="-1221.4407" font-family="Times,serif" font-size="14.00" fill="#000000">IOU</text>
</g>
<!-- MCD_IOU&#45;&gt;zero -->
<g id="edge5" class="edge">
<title>MCD_IOU&#45;&gt;zero</title>
<path fill="none" stroke="#000000" d="M588.0491,-1207.3811C568.3344,-1181.6885 532.2989,-1134.7261 509.7327,-1105.3173"/>
<polygon fill="#000000" stroke="#000000" points="512.3368,-1102.9616 503.4724,-1097.1587 506.7833,-1107.2229 512.3368,-1102.9616"/>
<text text-anchor="middle" x="531.4" y="-1160.5492" font-family="Times,serif" font-size="14.00" fill="#000000">owner</text>
</g>
<!-- MCD_IOU&#45;&gt;MCD_GOV_GUARD -->
<g id="edge2" class="edge">
<title>MCD_IOU&#45;&gt;MCD_GOV_GUARD</title>
<path fill="none" stroke="#000000" d="M625.5997,-1243.7032C650.3771,-1262.7156 689.522,-1292.7525 716.9747,-1313.8178"/>
<polygon fill="#000000" stroke="#000000" points="715.0261,-1316.7342 725.0903,-1320.0451 719.2875,-1311.1807 715.0261,-1316.7342"/>
<text text-anchor="middle" x="646.0137" y="-1282.9605" font-family="Times,serif" font-size="14.00" fill="#000000">authority</text>
</g>
<!-- MCD_IOU&#45;&gt;MCD_ADM -->
<g id="edge56" class="edge">
<title>MCD_IOU&#45;&gt;MCD_ADM</title>
<path fill="none" stroke="#000000" d="M625.5372,-1243.6725C678.9271,-1278.6032 809.8559,-1354.4888 877.4079,-1389.9716"/>
<polygon fill="#000000" stroke="#000000" points="876.0176,-1393.1935 886.5045,-1394.7018 879.247,-1386.983 876.0176,-1393.1935"/>
<text text-anchor="middle" x="718.0328" y="-1304.2221" font-family="Times,serif" font-size="14.00" fill="#000000">permit&#45;mint</text>
</g>
<!-- MCD_IOU&#45;&gt;MCD_ADM -->
<g id="edge57" class="edge">
<title>MCD_IOU&#45;&gt;MCD_ADM</title>
<path fill="none" stroke="#000000" d="M629.1398,-1236.8177C687.3826,-1266.2142 824.1808,-1344.9864 886.8488,-1384.9811"/>
<polygon fill="#000000" stroke="#000000" points="885.2389,-1388.1077 895.5388,-1390.5901 889.035,-1382.2264 885.2389,-1388.1077"/>
<text text-anchor="middle" x="791.4284" y="-1298.2994" font-family="Times,serif" font-size="14.00" fill="#000000">permit&#45;burn</text>
</g>
<!-- Flipper_ETH&#45;A -->
<g id="node20" class="node">
<title>Flipper_ETH&#45;A</title>
<polygon fill="none" stroke="#000000" points="1338.2938,-60.1047 1232.4561,-60.1047 1232.4561,-24.1047 1338.2938,-24.1047 1338.2938,-60.1047"/>
<text text-anchor="middle" x="1285.3749" y="-37.9047" font-family="Times,serif" font-size="14.00" fill="#000000">Flipper_ETH&#45;A</text>
</g>
<!-- Flipper_ETH&#45;A&#45;&gt;MCD_PAUSE_PROXY -->
<g id="edge34" class="edge">
<title>Flipper_ETH&#45;A&#45;&gt;MCD_PAUSE_PROXY</title>
<path fill="none" stroke="#000000" d="M1328.87,-60.121C1351.4443,-69.4716 1379.2083,-80.9718 1403.0247,-90.8369"/>
<polygon fill="#000000" stroke="#000000" points="1401.7008,-94.0768 1412.279,-94.6701 1404.3796,-87.6097 1401.7008,-94.0768"/>
<text text-anchor="middle" x="1355.0644" y="-79.6789" font-family="Times,serif" font-size="14.00" fill="#000000">rely</text>
</g>
<!-- Flipper_ETH&#45;A&#45;&gt;MCD_END -->
<g id="edge33" class="edge">
<title>Flipper_ETH&#45;A&#45;&gt;MCD_END</title>
<path fill="none" stroke="#000000" d="M1267.2787,-60.2009C1156.8453,-170.6344 574.1341,-753.3455 444.5271,-882.9526"/>
<polygon fill="#000000" stroke="#000000" points="441.9246,-880.6053 437.3284,-890.1513 446.8743,-885.5551 441.9246,-880.6053"/>
<text text-anchor="middle" x="845.02" y="-475.7767" font-family="Times,serif" font-size="14.00" fill="#000000">rely</text>
</g>
<!-- Flipper_ETH&#45;B -->
<g id="node22" class="node">
<title>Flipper_ETH&#45;B</title>
<polygon fill="none" stroke="#000000" points="1154.4299,-36 1050.1327,-36 1050.1327,0 1154.4299,0 1154.4299,-36"/>
<text text-anchor="middle" x="1102.2813" y="-13.8" font-family="Times,serif" font-size="14.00" fill="#000000">Flipper_ETH&#45;B</text>
</g>
<!-- Flipper_ETH&#45;B&#45;&gt;MCD_PAUSE_PROXY -->
<g id="edge37" class="edge">
<title>Flipper_ETH&#45;B&#45;&gt;MCD_PAUSE_PROXY</title>
<path fill="none" stroke="#000000" d="M1154.4724,-31.9846C1218.9449,-49.2599 1328.3902,-78.5857 1396.186,-96.7515"/>
<polygon fill="#000000" stroke="#000000" points="1395.311,-100.1405 1405.8761,-99.348 1397.1227,-93.379 1395.311,-100.1405"/>
<text text-anchor="middle" x="1264.4463" y="-68.568" font-family="Times,serif" font-size="14.00" fill="#000000">rely</text>
</g>
<!-- Flipper_ETH&#45;B&#45;&gt;MCD_END -->
<g id="edge36" class="edge">
<title>Flipper_ETH&#45;B&#45;&gt;MCD_END</title>
<path fill="none" stroke="#000000" d="M1088.3222,-36.1919C1002.0178,-148.6659 541.4424,-748.8994 439.1175,-882.2518"/>
<polygon fill="#000000" stroke="#000000" points="436.2143,-880.286 432.9034,-890.3502 441.7678,-884.5473 436.2143,-880.286"/>
<text text-anchor="middle" x="752.8369" y="-463.4219" font-family="Times,serif" font-size="14.00" fill="#000000">rely</text>
</g>
<!-- Flipper_ETH&#45;C -->
<g id="node24" class="node">
<title>Flipper_ETH&#45;C</title>
<polygon fill="none" stroke="#000000" points="971.3362,-60.1047 867.039,-60.1047 867.039,-24.1047 971.3362,-24.1047 971.3362,-60.1047"/>
<text text-anchor="middle" x="919.1876" y="-37.9047" font-family="Times,serif" font-size="14.00" fill="#000000">Flipper_ETH&#45;C</text>
</g>
<!-- Flipper_ETH&#45;C&#45;&gt;MCD_PAUSE_PROXY -->
<g id="edge40" class="edge">
<title>Flipper_ETH&#45;C&#45;&gt;MCD_PAUSE_PROXY</title>
<path fill="none" stroke="#000000" d="M971.636,-49.0097C1071.719,-62.1859 1289.4041,-90.8447 1395.4698,-104.8085"/>
<polygon fill="#000000" stroke="#000000" points="1395.3146,-108.3182 1405.6859,-106.1535 1396.2284,-101.3781 1395.3146,-108.3182"/>
<text text-anchor="middle" x="1172.67" y="-81.1091" font-family="Times,serif" font-size="14.00" fill="#000000">rely</text>
</g>
<!-- Flipper_ETH&#45;C&#45;&gt;MCD_END -->
<g id="edge39" class="edge">
<title>Flipper_ETH&#45;C&#45;&gt;MCD_END</title>
<path fill="none" stroke="#000000" d="M908.7398,-60.2009C845.235,-170.1944 511.2289,-748.7099 434.6307,-881.382"/>
<polygon fill="#000000" stroke="#000000" points="431.5367,-879.741 429.5677,-890.1513 437.5989,-883.241 431.5367,-879.741"/>
<text text-anchor="middle" x="660.8023" y="-474.9914" font-family="Times,serif" font-size="14.00" fill="#000000">rely</text>
</g>
<!-- Flipper_COL1&#45;A -->
<g id="node26" class="node">
<title>Flipper_COL1&#45;A</title>
<polygon fill="none" stroke="#000000" points="805.2737,-130.7762 691.8693,-130.7762 691.8693,-94.7762 805.2737,-94.7762 805.2737,-130.7762"/>
<text text-anchor="middle" x="748.5715" y="-108.5762" font-family="Times,serif" font-size="14.00" fill="#000000">Flipper_COL1&#45;A</text>
</g>
<!-- Flipper_COL1&#45;A&#45;&gt;MCD_PAUSE_PROXY -->
<g id="edge43" class="edge">
<title>Flipper_COL1&#45;A&#45;&gt;MCD_PAUSE_PROXY</title>
<path fill="none" stroke="#000000" d="M805.2668,-112.7762C936.5987,-112.7762 1260.7272,-112.7762 1395.5975,-112.7762"/>
<polygon fill="#000000" stroke="#000000" points="1395.7464,-116.2763 1405.7464,-112.7762 1395.7463,-109.2763 1395.7464,-116.2763"/>
<text text-anchor="middle" x="1089.5492" y="-116.9762" font-family="Times,serif" font-size="14.00" fill="#000000">rely</text>
</g>
<!-- Flipper_COL1&#45;A&#45;&gt;MCD_END -->
<g id="edge42" class="edge">
<title>Flipper_COL1&#45;A&#45;&gt;MCD_END</title>
<path fill="none" stroke="#000000" d="M741.068,-130.8914C698.0113,-234.8394 482.4507,-755.2488 430.3268,-881.087"/>
<polygon fill="#000000" stroke="#000000" points="427.0516,-879.8481 426.4583,-890.4263 433.5188,-882.5269 427.0516,-879.8481"/>
<text text-anchor="middle" x="574.8145" y="-510.1892" font-family="Times,serif" font-size="14.00" fill="#000000">rely</text>
</g>
<!-- Flipper_COL2&#45;A -->
<g id="node28" class="node">
<title>Flipper_COL2&#45;A</title>
<polygon fill="none" stroke="#000000" points="658.7623,-243.1984 545.3579,-243.1984 545.3579,-207.1984 658.7623,-207.1984 658.7623,-243.1984"/>
<text text-anchor="middle" x="602.0601" y="-220.9984" font-family="Times,serif" font-size="14.00" fill="#000000">Flipper_COL2&#45;A</text>
</g>
<!-- Flipper_COL2&#45;A&#45;&gt;MCD_PAUSE_PROXY -->
<g id="edge46" class="edge">
<title>Flipper_COL2&#45;A&#45;&gt;MCD_PAUSE_PROXY</title>
<path fill="none" stroke="#000000" d="M658.7502,-217.735C812.7517,-197.4603 1237.8538,-141.4946 1395.8379,-120.6956"/>
<polygon fill="#000000" stroke="#000000" points="1396.3945,-124.1526 1405.8521,-119.3772 1395.4807,-117.2125 1396.3945,-124.1526"/>
<text text-anchor="middle" x="1016.4112" y="-173.4153" font-family="Times,serif" font-size="14.00" fill="#000000">rely</text>
</g>
<!-- Flipper_COL2&#45;A&#45;&gt;MCD_END -->
<g id="edge45" class="edge">
<title>Flipper_COL2&#45;A&#45;&gt;MCD_END</title>
<path fill="none" stroke="#000000" d="M597.1628,-243.4754C571.9604,-337.5323 456.8836,-767.0046 426.3965,-880.7839"/>
<polygon fill="#000000" stroke="#000000" points="423.0014,-879.932 423.7939,-890.4971 429.7629,-881.7438 423.0014,-879.932"/>
<text text-anchor="middle" x="500.8968" y="-566.3297" font-family="Times,serif" font-size="14.00" fill="#000000">rely</text>
</g>
<!-- Flipper_COL3&#45;A -->
<g id="node30" class="node">
<title>Flipper_COL3&#45;A</title>
<polygon fill="none" stroke="#000000" points="546.3402,-389.7098 432.9358,-389.7098 432.9358,-353.7098 546.3402,-353.7098 546.3402,-389.7098"/>
<text text-anchor="middle" x="489.638" y="-367.5098" font-family="Times,serif" font-size="14.00" fill="#000000">Flipper_COL3&#45;A</text>
</g>
<!-- Flipper_COL3&#45;A&#45;&gt;MCD_PAUSE_PROXY -->
<g id="edge49" class="edge">
<title>Flipper_COL3&#45;A&#45;&gt;MCD_PAUSE_PROXY</title>
<path fill="none" stroke="#000000" d="M546.48,-356.479C716.7385,-310.8584 1221.5587,-175.5922 1395.9422,-128.8663"/>
<polygon fill="#000000" stroke="#000000" points="1396.9661,-132.2155 1405.7195,-126.2465 1395.1543,-125.454 1396.9661,-132.2155"/>
<text text-anchor="middle" x="960.3282" y="-246.8726" font-family="Times,serif" font-size="14.00" fill="#000000">rely</text>
</g>
<!-- Flipper_COL3&#45;A&#45;&gt;MCD_END -->
<g id="edge48" class="edge">
<title>Flipper_COL3&#45;A&#45;&gt;MCD_END</title>
<path fill="none" stroke="#000000" d="M487.2461,-389.8778C476.8335,-468.9693 435.4094,-783.6167 422.6963,-880.1826"/>
<polygon fill="#000000" stroke="#000000" points="419.193,-879.9784 421.3577,-890.3497 426.1331,-880.8921 419.193,-879.9784"/>
<text text-anchor="middle" x="444.0883" y="-639.2302" font-family="Times,serif" font-size="14.00" fill="#000000">rely</text>
</g>
<!-- Flipper_COL4&#45;A -->
<g id="node32" class="node">
<title>Flipper_COL4&#45;A</title>
<polygon fill="none" stroke="#000000" points="475.6687,-560.3259 362.2643,-560.3259 362.2643,-524.3259 475.6687,-524.3259 475.6687,-560.3259"/>
<text text-anchor="middle" x="418.9665" y="-538.1259" font-family="Times,serif" font-size="14.00" fill="#000000">Flipper_COL4&#45;A</text>
</g>
<!-- Flipper_COL4&#45;A&#45;&gt;MCD_PAUSE_PROXY -->
<g id="edge52" class="edge">
<title>Flipper_COL4&#45;A&#45;&gt;MCD_PAUSE_PROXY</title>
<path fill="none" stroke="#000000" d="M462.5342,-524.2795C628.6124,-455.4877 1221.7421,-209.8053 1402.9961,-134.7275"/>
<polygon fill="#000000" stroke="#000000" points="1404.4257,-137.9238 1412.3251,-130.8633 1401.7469,-131.4566 1404.4257,-137.9238"/>
<text text-anchor="middle" x="921.8823" y="-333.7035" font-family="Times,serif" font-size="14.00" fill="#000000">rely</text>
</g>
<!-- Flipper_COL4&#45;A&#45;&gt;MCD_END -->
<g id="edge51" class="edge">
<title>Flipper_COL4&#45;A&#45;&gt;MCD_END</title>
<path fill="none" stroke="#000000" d="M418.9665,-560.4852C418.9665,-619.7849 418.9665,-808.0633 418.9665,-880.1022"/>
<polygon fill="#000000" stroke="#000000" points="415.4666,-880.2443 418.9665,-890.2443 422.4666,-880.2443 415.4666,-880.2443"/>
<text text-anchor="middle" x="408.0836" y="-707.6937" font-family="Times,serif" font-size="14.00" fill="#000000">rely</text>
</g>
<!-- Flipper_COL5&#45;A -->
<g id="node34" class="node">
<title>Flipper_COL5&#45;A</title>
<polygon fill="none" stroke="#000000" points="451.5639,-743.4195 338.1596,-743.4195 338.1596,-707.4195 451.5639,-707.4195 451.5639,-743.4195"/>
<text text-anchor="middle" x="394.8617" y="-721.2195" font-family="Times,serif" font-size="14.00" fill="#000000">Flipper_COL5&#45;A</text>
</g>
<!-- Flipper_COL5&#45;A&#45;&gt;MCD_PAUSE_PROXY -->
<g id="edge55" class="edge">
<title>Flipper_COL5&#45;A&#45;&gt;MCD_PAUSE_PROXY</title>
<path fill="none" stroke="#000000" d="M426.0447,-707.4161C578.5637,-619.3592 1245.5226,-234.2903 1416.131,-135.7894"/>
<polygon fill="#000000" stroke="#000000" points="1417.8962,-138.8118 1424.8064,-130.7807 1414.3962,-132.7496 1417.8962,-138.8118"/>
<text text-anchor="middle" x="910.2049" y="-425.8027" font-family="Times,serif" font-size="14.00" fill="#000000">rely</text>
</g>
<!-- Flipper_COL5&#45;A&#45;&gt;MCD_END -->
<g id="edge54" class="edge">
<title>Flipper_COL5&#45;A&#45;&gt;MCD_END</title>
<path fill="none" stroke="#000000" d="M397.2611,-743.6446C401.4664,-775.5869 410.1964,-841.8982 415.209,-879.9723"/>
<polygon fill="#000000" stroke="#000000" points="411.8014,-880.9042 416.5768,-890.3618 418.7415,-879.9905 411.8014,-880.9042"/>
<text text-anchor="middle" x="395.3522" y="-816.0085" font-family="Times,serif" font-size="14.00" fill="#000000">rely</text>
</g>
<!-- isolated -->
<g id="node36" class="node">
<title>isolated</title>
<polygon fill="none" stroke="#000000" points="2395.9729,-1710.7196 1794.5896,-1710.7196 1794.5896,-1518.1194 2395.9729,-1518.1194 2395.9729,-1710.7196"/>
<text text-anchor="middle" x="2095.2813" y="-1694.2195" font-family="Times,serif" font-size="14.00" fill="#000000">Isolated Contracts:&#13;</text>
<text text-anchor="middle" x="2095.2813" y="-1677.4195" font-family="Times,serif" font-size="14.00" fill="#000000"> MCD_DAI, MCD_JOIN_DAI, MULTICALL, FAUCET, VOTE_PROXY_FACTORY,&#13;</text>
<text text-anchor="middle" x="2095.2813" y="-1660.6195" font-family="Times,serif" font-size="14.00" fill="#000000"> PROXY_ACTIONS, CDP_MANAGER, GET_CDPS, PROXY_FACTORY,&#13;</text>
<text text-anchor="middle" x="2095.2813" y="-1643.8195" font-family="Times,serif" font-size="14.00" fill="#000000"> PROXY_REGISTRY, PROXY_PAUSE_ACTIONS, PROXY_DEPLOYER, MCD_GOV_ACTIONS,&#13;</text>
<text text-anchor="middle" x="2095.2813" y="-1627.0195" font-family="Times,serif" font-size="14.00" fill="#000000"> GOV_POLL_GEN, VOTE_YES, VOTE_NO, MCD_ESM,&#13;</text>
<text text-anchor="middle" x="2095.2813" y="-1610.2195" font-family="Times,serif" font-size="14.00" fill="#000000"> ETH, PIP_ETH, COL1, PIP_COL1,&#13;</text>
<text text-anchor="middle" x="2095.2813" y="-1593.4195" font-family="Times,serif" font-size="14.00" fill="#000000"> COL2, PIP_COL2, COL3, PIP_COL3,&#13;</text>
<text text-anchor="middle" x="2095.2813" y="-1576.6195" font-family="Times,serif" font-size="14.00" fill="#000000"> COL4, PIP_COL4, COL5, PIP_COL5,&#13;</text>
<text text-anchor="middle" x="2095.2813" y="-1559.8195" font-family="Times,serif" font-size="14.00" fill="#000000"> vatFab, jugFab, vowFab, catFab,&#13;</text>
<text text-anchor="middle" x="2095.2813" y="-1543.0195" font-family="Times,serif" font-size="14.00" fill="#000000"> daiFab, daiJoinFab, flapFab, flopFab,&#13;</text>
<text text-anchor="middle" x="2095.2813" y="-1526.2195" font-family="Times,serif" font-size="14.00" fill="#000000"> flipFab, spotFab, potFab, pauseFab,&#13;</text>
</g>
</g>
</svg>
